<?xml version="1.0" encoding="utf-8"?>
<!-- Generator: Adobe Illustrator 16.0.0, SVG Export Plug-In . SVG Version: 6.00 Build 0)  -->
<!DOCTYPE svg PUBLIC "-//W3C//DTD SVG 1.1//EN" "http://www.w3.org/Graphics/SVG/1.1/DTD/svg11.dtd">
<svg version="1.1" xmlns="http://www.w3.org/2000/svg" xmlns:xlink="http://www.w3.org/1999/xlink" x="0px" y="0px" width="900px"
	 height="124.282px" viewBox="0 0 900 124.282" enable-background="new 0 0 900 124.282" xml:space="preserve">
<g id="Layer_2">
	<rect y="-0.782" fill="#8A1F23" width="900" height="125.063"/>
</g>
<g id="Layer_1">
	<g>
		<g>
			<defs>
				<rect id="SVGID_1_" x="405.224" y="14.27" width="118.289" height="84.549"/>
			</defs>
			<clipPath id="SVGID_2_">
				<use xlink:href="#SVGID_1_"  overflow="visible"/>
			</clipPath>
			<path clip-path="url(#SVGID_2_)" fill="#FFFFFF" d="M459.252,63.972v-26.22c0-5.911-0.409-11.669-2.857-16.521
				c-2.311-3.941-6.12-6.215-10.065-6.821c-12.65-1.059-25.163,4.397-37.271,0c-0.135,2.425,0.41,4.699,1.226,6.821
				c4.76,8.185,15.234,5.305,22.58,4.698v40.465c-9.93-0.302-18.5,5.307-24.076,14.551c8.026-5.76,20.676-5.76,28.7-0.151
				c6.802-6.214,15.098-9.093,23.805-10.306C460.339,68.52,459.523,66.396,459.252,63.972 M448.642,71.703l-2.312,0.908
				c-3.4-3.789-7.482-5.759-11.834-6.215v-40.77c4.352-0.302,10.61-1.969,13.193,3.184l0.818,2.881l0.135,39.252V71.703z"/>
			<path clip-path="url(#SVGID_2_)" fill="#FFFFFF" d="M429.872,28.962c-1.225,1.968-1.635,4.546-1.499,7.273l-0.272,20.612
				c-1.496,6.974-8.297,9.397-13.601,10.762c4.354-2.728,2.721-8.942,3.127-13.944c-2.583,0.15-6.392-1.06-7.345,2.426l-0.271,1.97
				c-1.224-3.637-1.769-9.244,0.68-12.429c1.769-1.968,4.215-2.424,6.801-2.424c0.135-4.547,2.176-8.792,5.848-11.217
				C425.381,30.627,427.558,29.568,429.872,28.962"/>
			<path clip-path="url(#SVGID_2_)" fill="#FFFFFF" d="M513.025,27.91l5.711-5.607c-5.439-0.91-10.609-3.03-14.283-8.032
				l-14.008,10.155v-4.396h-1.496v5.608l-4.762,3.335c-0.133-2.274-0.545-4.395-1.225-6.365c-1.223-3.334-4.216-6.518-7.346-6.972
				c-5.169-0.909-9.794,1.058-12.784,5.758c-1.77,2.727-2.04,7.276-0.68,10.154c0.135-2.121,0.68-3.939,2.176-5.456
				c1.494-1.667,4.354-1.819,6.256-0.91c5.032,3.184,2.723,10.458,3.264,15.914h-2.311c-2.855,0.153-5.715,1.819-6.801,4.851
				c-1.09,3.639-0.139,7.426,1.359,10.306l0.545-1.82c1.359-2.878,4.215-3.333,7.207-3.028v12.881c-1.903,0-3.535,0.758-5.166,1.667
				c-5.035,3.184-6.803,9.094-6.938,15.157c2.993-4.242,7.21-6.366,12.104-6.366c0.135,8.335,0.817,17.277-4.623,23.04
				c4.352,0.454,8.027-1.67,10.744-5.459c2.856,3.486,6.258,5.307,10.476,5.155V77.472c2.447,0.757,4.76,2.12,6.801,3.484
				c3.945-7.122,10.473-11.668,17.684-11.668c-0.953-1.82-1.359-3.79-1.769-5.912L513.025,27.91z M488.949,95.205
				c-1.36-0.305-2.722-1.213-3.4-2.73c-1.494-2.879-0.951-6.667-1.09-10.154V30.79l4.49-3.333V95.205z M502.824,70.651
				c-3.809-2.879-7.619-5.607-12.107-6.82V26.396l4.352-3.334c1.361,3.334,4.49,5.456,7.756,5.304V70.651z"/>
		</g>
		<g>
			<defs>
				<rect id="SVGID_3_" x="396.149" y="0.375" width="134.962" height="125.063"/>
			</defs>
			<clipPath id="SVGID_4_">
				<use xlink:href="#SVGID_3_"  overflow="visible"/>
			</clipPath>
			<path clip-path="url(#SVGID_4_)" fill="#FFFFFF" d="M417.164,87.885c0-0.019,0.017-0.019,0.034-0.019
				c-0.221,0.529-0.695,0.983-1.17,1.134v5.045l0.729-0.793c-0.187,1.114-0.983,2.286-1.967,2.626
				c-1.187,0.396-2.578,0.208-3.442-0.793c-0.78-0.833-0.831-2.268-0.509-3.364c0.254-0.906,0.933-1.795,1.713-2.286
				c-0.831,1.115-1.221,2.853-0.611,4.233c0.509,0.963,1.441,1.285,2.425,1.152c0.525-0.076,1.018-0.265,1.458-0.624v-5.083
				c-1.492,0.188-2.9-0.247-4.409-0.133c-0.306,0.019-0.594,0.133-0.797,0.416c0.034-0.511,0.255-1.002,0.662-1.323
				c0.559-0.416,1.339-0.302,2.034-0.284C414.586,87.866,415.909,88.264,417.164,87.885"/>
			<path clip-path="url(#SVGID_4_)" fill="#FFFFFF" d="M441.731,88.632l0.271-0.075c-0.017,0.396-0.271,0.775-0.593,0.926
				c-0.425,0.208-0.781-0.113-1.103-0.302c-0.136-0.02-0.237,0.037-0.322,0.131l-0.119-0.151l1.119-1.172
				C441.103,88.292,441.375,88.651,441.731,88.632"/>
			<path clip-path="url(#SVGID_4_)" fill="#FFFFFF" d="M444.037,88.792v5.801c0.271,0.057,0.493,0.227,0.662,0.474l0.458-0.247
				l0.084,0.17c-0.458,0.302-0.983,0.567-1.406,1.002c-0.323-0.358-0.662-0.643-1.12-0.548l-0.373,0.094
				c-0.018-0.303,0.152-0.642,0.44-0.793l0.084-0.037v-5.763c-0.034-0.246-0.135-0.454-0.287-0.644
				c0.677,0.076,1.271-0.15,1.797-0.529C444.224,88.074,444.072,88.415,444.037,88.792"/>
			<path clip-path="url(#SVGID_4_)" fill="#FFFFFF" d="M433.577,94.934l-0.289,0.112c-0.423-0.472-0.933-0.718-1.475-0.774v-5.083
				c0.542-0.037,1.323-0.245,1.645,0.397l0.102,0.359l0.017,4.894V94.934z M434.899,93.97v-3.269c0-0.737-0.051-1.455-0.355-2.059
				c-0.289-0.492-0.763-0.776-1.255-0.851c-1.577-0.132-3.137,0.548-4.646,0c-0.017,0.302,0.051,0.585,0.153,0.851
				c0.594,1.02,1.899,0.661,2.815,0.585v5.045c-1.238-0.037-2.306,0.662-3.001,1.814c1.001-0.718,2.578-0.718,3.578-0.019
				c0.848-0.776,1.882-1.134,2.968-1.286C435.035,94.537,434.934,94.272,434.899,93.97"/>
			<path clip-path="url(#SVGID_4_)" fill="#FFFFFF" d="M414.652,93.063c-0.136,0.907-1.019,1.058-1.628,1.266
				c0.187-0.189,0.271-0.435,0.305-0.699c0.017-1.04,0-2.078,0-3.099l-0.492,0.208v-0.245c0.627-0.227,1.221-0.548,1.815-0.907
				V93.063z"/>
			<path clip-path="url(#SVGID_4_)" fill="#FFFFFF" d="M431.236,89.605c-0.152,0.246-0.203,0.566-0.186,0.906l-0.035,2.571
				c-0.186,0.869-1.035,1.171-1.696,1.342c0.543-0.341,0.34-1.116,0.391-1.74c-0.322,0.02-0.797-0.131-0.916,0.303l-0.034,0.246
				c-0.153-0.454-0.221-1.153,0.085-1.55c0.22-0.246,0.525-0.303,0.848-0.303c0.017-0.566,0.271-1.096,0.729-1.399
				C430.677,89.812,430.948,89.681,431.236,89.605"/>
			<path clip-path="url(#SVGID_4_)" fill="#FFFFFF" d="M442.189,90.852c-0.118,0.302-0.373,0.566-0.645,0.681v2.646
				c0.018,0.207,0.067,0.396,0.238,0.528c0.135,0.113,0.305,0.169,0.491,0.169v0.152c-0.423,0.226-0.814,0.567-1.186,0.925
				c-0.391-0.208-0.662-0.643-0.695-1.096l-0.018-3.269c-0.271-0.093-0.508-0.227-0.712-0.453c0.407-0.208,0.797-0.548,1.136-0.945
				C441.206,90.587,441.63,90.872,442.189,90.852"/>
			<path clip-path="url(#SVGID_4_)" fill="#FFFFFF" d="M450.275,90.852c-0.118,0.302-0.372,0.566-0.645,0.681v3.004
				c-0.017,0.51,0.458,0.793,0.374,1.323c0,0.718-0.458,1.361-1.017,1.7c-0.679,0.436-1.696,0.51-2.442,0.189
				c-0.356-0.151-0.848-0.491-1.187-0.076l-0.05,0.057c0.034-0.51,0.22-1.096,0.712-1.323c0.288-0.095,0.644-0.075,0.881,0.151
				c0.441,0.378,0.729,1.208,1.374,1.039c0.271-0.057,0.542-0.246,0.645-0.529c0.254-0.586-0.103-1.096-0.39-1.53
				c-0.085-0.34-0.068-0.718-0.085-1.096l-2.052,1.511c-0.102-0.208-0.322-0.454-0.542-0.51c-0.237-0.057-0.475,0-0.695,0.075
				c0-0.376,0.255-0.718,0.542-0.869l-0.017-2.703c0-0.226-0.118-0.452-0.305-0.566c-0.136-0.056-0.288-0.075-0.441-0.075v-0.152
				c0.34-0.208,0.661-0.528,0.933-0.887c0.339,0.056,0.729,0.265,0.882,0.661l0.102,0.491l0.017,3.081
				c0.221,0.056,0.441,0.265,0.542,0.491l1.052-0.774v-2.626c-0.271-0.076-0.509-0.227-0.713-0.453
				c0.391-0.208,0.781-0.529,1.12-0.945C449.275,90.587,449.716,90.872,450.275,90.852"/>
			<path clip-path="url(#SVGID_4_)" fill="#FFFFFF" d="M423.589,91.079l0.407-0.113c0.271,0.547,0.543,1.114,0.882,1.644
				l-1.289,0.793V91.079z M425.047,95.123c-0.458-0.303-0.933-0.529-1.475-0.624v-0.793l2.595-1.605
				c-0.611-0.529-0.983-1.228-1.255-1.909c-0.763,0.718-1.814,0.888-2.815,0.681c0.187,0.208,0.271,0.453,0.305,0.717l0.017,2.967
				c-0.271,0.113-0.542,0.434-0.662,0.718c0.968-0.094,1.764,0.32,2.561,0.718l1.56-1.171c-0.034-0.075-0.05-0.151-0.118-0.207
				C425.539,94.801,425.284,94.953,425.047,95.123"/>
			<path clip-path="url(#SVGID_4_)" fill="#FFFFFF" d="M438.104,94.65c-0.221,0.17-0.458,0.397-0.712,0.208
				c-0.408-0.132-0.866-0.473-0.95-0.983c-0.067-0.396,0-0.792,0.272-1.076c0.339-0.378,0.982-0.435,1.39-0.114V94.65z
				 M439.495,94.688c-0.17-0.17-0.238-0.417-0.272-0.662v-2.53c0.307-0.171,0.476-0.511,0.561-0.852
				c-0.17,0.113-0.374,0.189-0.611,0.151c-0.254-0.075-0.458-0.377-0.627-0.604c-0.339,0.378-0.696,0.718-1.17,0.736
				c-0.39,0.057-0.61-0.416-0.746-0.736c-0.238,0.453-0.645,0.681-1.018,0.831c0.289,0.246,0.611,0.417,0.949,0.53
				c0.408,0.113,0.747-0.076,1.001-0.416c0.102,0.245,0.338,0.453,0.542,0.566v0.757c-0.136-0.076-0.288-0.133-0.441-0.171
				c-0.831-0.094-1.646,0.227-2.085,1.058c-0.306,0.529-0.323,1.399-0.035,1.946c0.271,0.454,0.695,0.624,1.137,0.699l1.441-1.114
				l0.136,0.396c0.152,0.36,0.491,0.643,0.864,0.643l0.967-0.963C439.867,94.915,439.664,94.857,439.495,94.688"/>
			<path clip-path="url(#SVGID_4_)" fill="#FFFFFF" d="M421.282,90.799c0.117,0,0.218-0.074,0.335-0.112
				c-0.017,0.336-0.184,0.672-0.469,0.84c-0.05,0.858-0.034,1.792-0.017,2.669c0,0.224,0.118,0.448,0.318,0.56
				c0.117,0.056,0.268,0.074,0.418,0.074v0.149c-0.335,0.225-0.687,0.542-0.921,0.916c-0.336-0.094-0.705-0.28-0.854-0.671
				l-0.118-0.486l-0.017-3.043c-0.218-0.056-0.402-0.298-0.52-0.504l-1.038,0.766v2.594c0.251,0.112,0.502,0.206,0.704,0.449
				c-0.403,0.205-0.788,0.56-1.124,0.97c-0.385-0.43-0.854-0.691-1.39-0.691c0.117-0.279,0.369-0.561,0.637-0.672v-2.613
				c-0.018-0.188,0.04-2.831-0.038-3.127c-0.076-0.292-0.222-0.568-0.222-0.568c0.375,0.003,1.333-0.136,1.685-0.51
				c-0.137,0.314-0.34,0.716-0.306,1.2l0.055,2.725l2.009-1.475C420.594,90.556,420.914,90.818,421.282,90.799"/>
			<path clip-path="url(#SVGID_4_)" fill="#FFFFFF" d="M442.768,101.219v5.8c0.254,0.056,0.474,0.227,0.644,0.473l0.458-0.246
				l0.102,0.17c-0.475,0.303-0.983,0.567-1.424,1.001c-0.305-0.358-0.662-0.643-1.119-0.547l-0.373,0.094
				c-0.017-0.302,0.169-0.643,0.44-0.793l0.102-0.037l-0.017-5.765c-0.017-0.245-0.136-0.453-0.288-0.642
				c0.678,0.076,1.271-0.151,1.797-0.529C442.938,100.5,442.785,100.839,442.768,101.219"/>
			<path clip-path="url(#SVGID_4_)" fill="#FFFFFF" d="M415.883,107.095c-0.474-0.359-0.949-0.699-1.51-0.851v-4.667l0.543-0.415
				c0.169,0.415,0.56,0.679,0.967,0.661V107.095z M414.154,110.155c-0.169-0.037-0.339-0.15-0.423-0.34
				c-0.187-0.359-0.12-0.832-0.136-1.265v-6.425l0.56-0.416V110.155z M417.155,101.766l0.712-0.699
				c-0.678-0.114-1.322-0.377-1.78-1.001l-1.747,1.266v-0.548h-0.187v0.699l-0.594,0.417c-0.017-0.284-0.067-0.549-0.152-0.793
				c-0.153-0.416-0.527-0.813-0.917-0.869c-0.644-0.114-1.22,0.131-1.594,0.717c-0.219,0.341-0.254,0.908-0.084,1.267
				c0.017-0.264,0.084-0.491,0.271-0.68c0.187-0.208,0.542-0.228,0.78-0.113c0.627,0.396,0.34,1.304,0.407,1.983h-0.288
				c-0.356,0.02-0.712,0.227-0.848,0.605c-0.136,0.453-0.017,0.925,0.17,1.285l0.067-0.227c0.169-0.359,0.525-0.416,0.899-0.379
				v1.607c-0.237,0-0.441,0.095-0.645,0.208c-0.628,0.397-0.848,1.133-0.864,1.89c0.373-0.529,0.898-0.793,1.509-0.793
				c0.017,1.04,0.102,2.153-0.577,2.873c0.543,0.057,1.001-0.208,1.34-0.682c0.357,0.435,0.78,0.662,1.306,0.643v-2.494
				c0.305,0.094,0.594,0.265,0.848,0.435c0.492-0.888,1.306-1.455,2.205-1.455c-0.12-0.227-0.169-0.473-0.221-0.738L417.155,101.766
				z"/>
			<path clip-path="url(#SVGID_4_)" fill="#FFFFFF" d="M425.799,103.183c0.119,0,0.221-0.075,0.339-0.113
				c-0.017,0.34-0.187,0.681-0.475,0.851c-0.051,0.869-0.033,1.812-0.017,2.701c0,0.228,0.118,0.454,0.323,0.567
				c0.118,0.057,0.27,0.076,0.423,0.076v0.151c-0.339,0.228-0.695,0.548-0.933,0.927c-0.339-0.095-0.713-0.283-0.864-0.681
				l-0.12-0.491l-0.017-3.08c-0.221-0.057-0.406-0.302-0.526-0.51l-1.052,0.774v2.626c0.254,0.114,0.509,0.208,0.712,0.454
				c-0.407,0.208-0.797,0.567-1.136,0.982c-0.39-0.435-0.864-0.699-1.407-0.699c0.119-0.283,0.372-0.567,0.644-0.68v-2.646
				c-0.018-0.189-0.068-0.359-0.187-0.51c-0.153-0.132-0.355-0.17-0.526-0.189v-0.151c0.407-0.227,0.798-0.51,1.154-0.889
				c0.407,0.132,0.712,0.644,0.746,1.135v0.32l2.036-1.492C425.104,102.938,425.426,103.202,425.799,103.183"/>
			<path clip-path="url(#SVGID_4_)" fill="#FFFFFF" d="M431.209,103.183c0.136,0,0.238-0.075,0.356-0.113
				c-0.034,0.34-0.204,0.681-0.492,0.851c-0.034,0.869-0.034,1.812-0.017,2.701c0.017,0.228,0.118,0.454,0.322,0.567
				c0.119,0.057,0.271,0.076,0.441,0.076v0.151c-0.355,0.228-0.695,0.548-0.95,0.927c-0.339-0.095-0.712-0.283-0.865-0.681
				l-0.119-0.491v-3.08c-0.237-0.057-0.424-0.302-0.542-0.51l-1.052,0.774v2.626c0.255,0.114,0.509,0.208,0.712,0.454
				c-0.407,0.208-0.797,0.567-1.136,0.982c-0.39-0.435-0.848-0.699-1.39-0.699c0.102-0.283,0.374-0.567,0.627-0.68v-2.646
				c0-0.189-0.067-0.359-0.186-0.51c-0.153-0.132-0.355-0.17-0.526-0.189v-0.151c0.407-0.227,0.797-0.51,1.153-0.889
				c0.407,0.132,0.712,0.644,0.746,1.135v0.32l2.052-1.492C430.53,102.938,430.835,103.202,431.209,103.183"/>
			<path clip-path="url(#SVGID_4_)" fill="#FFFFFF" d="M441.261,103.278c-0.118,0.302-0.39,0.566-0.645,0.68v3.004
				c-0.017,0.51,0.441,0.793,0.373,1.322c-0.017,0.718-0.475,1.362-1.034,1.702c-0.662,0.434-1.68,0.51-2.425,0.188
				c-0.356-0.151-0.866-0.491-1.205-0.076l-0.051,0.057c0.033-0.51,0.22-1.096,0.713-1.322c0.287-0.095,0.644-0.076,0.88,0.15
				c0.441,0.378,0.729,1.209,1.392,1.04c0.254-0.057,0.525-0.245,0.643-0.529c0.238-0.585-0.102-1.096-0.389-1.53
				c-0.084-0.34-0.084-0.718-0.084-1.095l-2.053,1.511c-0.118-0.208-0.321-0.453-0.542-0.51c-0.254-0.057-0.492,0-0.695,0.075
				c-0.017-0.377,0.238-0.719,0.542-0.87l-0.017-2.701c-0.017-0.228-0.118-0.453-0.322-0.567c-0.136-0.058-0.288-0.075-0.424-0.075
				v-0.152c0.34-0.208,0.662-0.529,0.916-0.888c0.357,0.056,0.729,0.265,0.881,0.661l0.12,0.491l0.017,3.08
				c0.22,0.057,0.424,0.265,0.542,0.491l1.035-0.774v-2.628c-0.271-0.075-0.51-0.225-0.713-0.452
				c0.407-0.208,0.797-0.529,1.136-0.945C440.243,103.013,440.701,103.297,441.261,103.278"/>
			<path clip-path="url(#SVGID_4_)" fill="#FFFFFF" d="M444.97,103.278l0.118,0.472l0.034,2.778c0,0.453,0.373,0.831,0.729,0.963
				c0.254,0.284,0.559-0.019,0.831-0.075v-3.402c-0.272-0.075-0.509-0.225-0.713-0.452c0.408-0.208,0.798-0.529,1.137-0.945
				c0.39,0.396,0.848,0.681,1.408,0.661c-0.119,0.302-0.391,0.566-0.645,0.68v2.721c0.017,0.283,0.085,0.566,0.289,0.774
				c-1.12,0.019-2.155,0.283-3.019,0.963c-0.408-0.093-0.814-0.264-1.035-0.699c-0.17-0.416-0.204-0.888-0.17-1.379l-0.033-2.097
				c-0.034-0.208-0.102-0.397-0.271-0.492c-0.152-0.076-0.305-0.113-0.458-0.113v-0.133c0.34-0.207,0.661-0.528,0.917-0.887
				C444.445,102.673,444.818,102.863,444.97,103.278"/>
			<path clip-path="url(#SVGID_4_)" fill="#FFFFFF" d="M457.617,103.183c0.118,0,0.22-0.075,0.338-0.113
				c-0.017,0.34-0.187,0.681-0.491,0.851c-0.033,0.869-0.018,1.812,0,2.701c0,0.228,0.103,0.454,0.305,0.567
				c0.137,0.057,0.289,0.076,0.441,0.076v0.151c-0.34,0.228-0.695,0.548-0.933,0.927c-0.355-0.095-0.729-0.283-0.882-0.681
				l-0.102-0.491l-0.017-3.08c-0.237-0.057-0.407-0.302-0.526-0.51l-1.051,0.774v2.626c0.236,0.114,0.49,0.208,0.712,0.454
				c-0.425,0.208-0.813,0.567-1.136,0.982c-0.391-0.435-0.865-0.699-1.408-0.699c0.119-0.283,0.373-0.567,0.645-0.68v-2.646
				c-0.017-0.189-0.068-0.359-0.187-0.51c-0.169-0.132-0.356-0.17-0.542-0.189v-0.151c0.406-0.227,0.812-0.51,1.17-0.889
				c0.406,0.132,0.713,0.644,0.746,1.135v0.32l2.035-1.492C456.922,102.938,457.243,103.202,457.617,103.183"/>
			<path clip-path="url(#SVGID_4_)" fill="#FFFFFF" d="M460.43,103.278c-0.119,0.302-0.391,0.566-0.646,0.68v2.646
				c0.018,0.207,0.068,0.396,0.221,0.529c0.153,0.112,0.322,0.169,0.51,0.169v0.151c-0.441,0.227-0.831,0.566-1.204,0.926
				c-0.373-0.208-0.662-0.643-0.679-1.096l-0.033-3.27c-0.255-0.093-0.492-0.225-0.695-0.452c0.39-0.208,0.779-0.549,1.136-0.945
				C459.429,103.013,459.87,103.297,460.43,103.278"/>
			<path clip-path="url(#SVGID_4_)" fill="#FFFFFF" d="M469.562,103.183c0.118,0,0.22-0.075,0.339-0.113
				c-0.018,0.34-0.187,0.681-0.476,0.851c-0.051,0.869-0.033,1.812-0.018,2.701c0,0.228,0.119,0.454,0.322,0.567
				c0.119,0.057,0.273,0.076,0.426,0.076v0.151c-0.34,0.228-0.695,0.548-0.934,0.927c-0.338-0.095-0.712-0.283-0.864-0.681
				l-0.119-0.491l-0.017-3.08c-0.221-0.057-0.407-0.302-0.526-0.51l-1.051,0.774v2.626c0.255,0.114,0.508,0.208,0.712,0.454
				c-0.406,0.208-0.814,0.567-1.137,0.982c-0.389-0.435-0.864-0.699-1.406-0.699c0.117-0.283,0.373-0.567,0.645-0.68v-2.646
				c-0.018-0.189-0.068-0.359-0.187-0.51c-0.153-0.132-0.356-0.17-0.526-0.189v-0.151c0.406-0.227,0.798-0.51,1.152-0.889
				c0.407,0.132,0.713,0.644,0.747,1.135v0.32l2.034-1.492C468.866,102.938,469.188,103.202,469.562,103.183"/>
			<path clip-path="url(#SVGID_4_)" fill="#FFFFFF" d="M418.883,103.505l0.407-0.114c0.271,0.548,0.542,1.115,0.865,1.644
				l-1.272,0.793V103.505z M420.342,107.548c-0.458-0.302-0.95-0.529-1.476-0.624v-0.794l2.577-1.605
				c-0.593-0.529-0.966-1.228-1.238-1.909c-0.763,0.718-1.831,0.889-2.831,0.681c0.185,0.208,0.271,0.453,0.305,0.718l0.033,2.967
				c-0.288,0.112-0.543,0.434-0.661,0.717c0.95-0.094,1.748,0.321,2.544,0.718l1.577-1.171c-0.034-0.075-0.068-0.151-0.119-0.208
				C420.815,107.227,420.579,107.378,420.342,107.548"/>
			<path clip-path="url(#SVGID_4_)" fill="#FFFFFF" d="M451.022,107.075c-0.238,0.17-0.458,0.398-0.713,0.208
				c-0.407-0.132-0.881-0.473-0.949-0.983c-0.069-0.397,0-0.793,0.27-1.076c0.339-0.379,0.984-0.435,1.392-0.114V107.075z
				 M452.413,107.114c-0.188-0.17-0.254-0.416-0.271-0.662v-2.532c0.288-0.169,0.475-0.51,0.56-0.849
				c-0.187,0.112-0.39,0.188-0.611,0.15c-0.271-0.075-0.474-0.377-0.627-0.604c-0.338,0.377-0.712,0.718-1.17,0.736
				c-0.39,0.057-0.61-0.416-0.746-0.736c-0.237,0.454-0.644,0.681-1.018,0.831c0.289,0.246,0.61,0.417,0.95,0.529
				c0.407,0.114,0.747-0.075,1-0.415c0.102,0.246,0.322,0.454,0.543,0.566v0.756c-0.136-0.076-0.289-0.132-0.442-0.17
				c-0.83-0.094-1.644,0.227-2.086,1.058c-0.305,0.529-0.321,1.399-0.033,1.947c0.255,0.454,0.695,0.624,1.136,0.699l1.441-1.114
				l0.136,0.396c0.152,0.358,0.492,0.643,0.864,0.643l0.968-0.964C452.785,107.34,452.565,107.284,452.413,107.114"/>
			<path clip-path="url(#SVGID_4_)" fill="#FFFFFF" d="M463.104,107.075c-0.221,0.17-0.457,0.398-0.713,0.208
				c-0.406-0.132-0.864-0.473-0.932-0.983c-0.086-0.397-0.018-0.793,0.254-1.076c0.34-0.379,0.983-0.435,1.391-0.114V107.075z
				 M464.495,107.114c-0.17-0.17-0.237-0.416-0.271-0.662v-2.532c0.306-0.169,0.475-0.51,0.561-0.849
				c-0.171,0.112-0.375,0.188-0.611,0.15c-0.255-0.075-0.458-0.377-0.627-0.604c-0.34,0.377-0.695,0.718-1.17,0.736
				c-0.391,0.057-0.611-0.416-0.746-0.736c-0.238,0.454-0.645,0.681-1.018,0.831c0.288,0.246,0.609,0.417,0.949,0.529
				c0.406,0.114,0.746-0.075,1-0.415c0.102,0.246,0.34,0.454,0.543,0.566v0.756c-0.136-0.076-0.288-0.132-0.441-0.17
				c-0.865-0.113-1.713,0.264-2.119,1.152c-0.288,0.511-0.271,1.343,0,1.853c0.271,0.454,0.695,0.624,1.137,0.699l1.441-1.114
				l0.135,0.396c0.152,0.358,0.492,0.643,0.865,0.643l0.966-0.964C464.868,107.34,464.664,107.284,464.495,107.114"/>
			<path clip-path="url(#SVGID_4_)" fill="#FFFFFF" d="M434.75,107.492l-0.253,0.095c-0.187-0.378-0.543-0.682-0.916-0.737
				c-0.526-0.057-0.917,0.226-1.339,0.415c0.542-0.641,1.186-1.265,1.848-1.757h0.661V107.492z M433.123,105.318v-1.813l0.304-0.058
				c0.29,0.359,0.646,0.624,1.104,0.529c0.373-0.075,0.695-0.321,0.983-0.604c-0.423,0.699-1,1.341-1.594,1.927
				C433.667,105.337,433.394,105.318,433.123,105.318 M436.107,104.96l-1.509-0.02c0.56-0.623,1.085-1.266,1.356-2.021
				c0.084-0.094-0.017-0.17-0.084-0.208c-0.084,0.17-0.203,0.359-0.373,0.415c-0.458,0.114-0.814-0.189-1.119-0.51
				c-0.695,0.624-1.594,0.944-2.544,0.736c0.136,0.169,0.204,0.379,0.238,0.586c-0.017,0.661,0.152,1.455-0.238,1.946l1.391,0.019
				c-0.662,0.644-1.339,1.38-1.747,2.192c-0.118,0.132,0.085,0.132,0.136,0.189c0.102-0.17,0.288-0.397,0.475-0.473
				c0.559-0.151,0.983,0.284,1.425,0.604c0.695-0.699,1.645-0.944,2.594-0.699c-0.118-0.208-0.22-0.435-0.237-0.699
				C435.904,106.338,435.684,105.489,436.107,104.96"/>
		</g>
	</g>
	<g>
		<path fill="#FFFFFF" d="M670.294,36.222l-6.977,4.134c-1.306-2.264-2.549-3.74-3.73-4.429c-1.229-0.788-2.816-1.181-4.762-1.181
			c-2.386,0-4.366,0.677-5.942,2.032c-1.574,1.329-2.361,3.003-2.361,5.021c0,2.783,2.072,5.024,6.221,6.721l5.702,2.325
			c4.64,1.872,8.035,4.157,10.184,6.851c2.146,2.696,3.221,6,3.221,9.914c0,5.245-1.753,9.576-5.253,12.999
			c-3.524,3.447-7.896,5.17-13.113,5.17c-4.947,0-9.032-1.467-12.256-4.402c-3.175-2.934-5.156-7.059-5.944-12.375l8.713-1.92
			c0.394,3.348,1.082,5.66,2.067,6.94c1.771,2.461,4.354,3.692,7.753,3.692c2.682,0,4.909-0.896,6.68-2.692
			c1.771-1.793,2.658-4.068,2.658-6.822c0-1.106-0.155-2.121-0.462-3.042c-0.309-0.922-0.788-1.768-1.439-2.544
			c-0.653-0.773-1.496-1.499-2.53-2.175c-1.033-0.676-2.264-1.321-3.69-1.935l-5.502-2.288c-7.802-3.292-11.702-8.11-11.702-14.453
			c0-4.277,1.625-7.854,4.878-10.731c3.257-2.899,7.321-4.351,12.195-4.351C661.471,26.68,666.602,29.862,670.294,36.222"/>
		<path fill="#FFFFFF" d="M706.494,53.97h2.741c8.169,0,12.254-3.114,12.254-9.342c0-5.832-3.975-8.749-11.921-8.749h-3.074V53.97z
			 M717.247,60.497l17.705,24.272h-10.544l-16.356-23.331h-1.558v23.331h-8.568V27.815h10.104c7.546,0,12.997,1.416,16.353,4.242
			c3.699,3.148,5.55,7.304,5.55,12.467c0,4.035-1.165,7.502-3.486,10.403C724.121,57.83,721.056,59.687,717.247,60.497"/>
		<rect x="635.282" y="26.68" fill="none" width="212.121" height="70.922"/>
		<polygon fill="#FFFFFF" points="771.082,35.879 748.231,35.879 748.231,49.614 770.417,49.614 770.417,57.678 748.231,57.678 
			748.231,76.705 771.082,76.705 771.082,84.77 739.663,84.77 739.663,27.814 771.082,27.814 		"/>
		<polygon fill="#FFFFFF" points="810.05,35.879 787.2,35.879 787.2,49.614 809.385,49.614 809.385,57.678 787.2,57.678 
			787.2,76.705 810.05,76.705 810.05,84.77 778.632,84.77 778.632,27.814 810.05,27.814 		"/>
		<polygon fill="#FFFFFF" points="812.659,27.815 812.659,35.879 825.765,35.879 825.765,84.769 834.333,84.769 834.333,35.879 
			847.403,35.879 847.403,27.815 		"/>
		<polygon fill="#FFFFFF" points="685.981,33.085 685.981,65.658 680.311,65.658 680.311,33.085 671.575,33.085 671.575,27.667 
			694.694,27.667 694.694,33.085 		"/>
		<path fill="#FFFFFF" d="M680.185,71.05c0.897-0.02,1.613-0.655,1.613-1.583c0-0.826-0.686-1.481-1.502-1.481
			c-0.878,0-1.422,0.575-1.473,1.441h-0.482c0.079-1.149,0.785-1.895,1.965-1.895c1.089,0,1.976,0.856,1.976,1.956
			c0,0.776-0.434,1.452-1.139,1.764c0.766,0.292,1.25,1.048,1.25,1.845c0,1.26-0.959,2.238-2.229,2.238
			c-1.138,0-2.117-0.796-2.106-1.966h0.483c0.08,0.877,0.686,1.512,1.613,1.512c0.958,0,1.754-0.806,1.754-1.753
			c0-0.988-0.775-1.624-1.724-1.624V71.05z"/>
		<rect x="635.282" y="26.68" fill="none" width="212.121" height="70.922"/>
		<path fill="#FFFFFF" d="M687.513,68.843h-0.061l-3.154,4.436v0.061h3.215V68.843z M689.065,73.339v0.454h-1.068v1.441h-0.484
			v-1.441h-4.103v-0.062l4.526-6.359h0.061v5.967H689.065z"/>
		<polygon fill="#FFFFFF" points="679.65,84.307 679.166,84.307 679.166,77.16 677.2,77.16 677.2,76.706 681.615,76.706 
			681.615,77.16 679.65,77.16 		"/>
		<polygon fill="#FFFFFF" points="687.493,79.932 687.493,76.706 687.977,76.706 687.977,84.307 687.493,84.307 687.493,80.386 
			682.876,80.386 682.876,84.307 682.393,84.307 682.393,76.706 682.876,76.706 682.876,79.932 		"/>
		<polygon fill="#FFFFFF" points="733.52,94.88 733.063,94.88 733.063,90.646 732.549,90.646 732.549,90.223 733.063,90.223 
			733.063,88.56 733.52,88.56 733.52,90.223 734.339,90.223 734.339,90.646 733.52,90.646 		"/>
		<path fill="#FFFFFF" d="M735.481,86.563v4.385h0.021c0.272-0.514,0.777-0.826,1.385-0.826c1.203,0,1.537,0.746,1.537,1.946v2.812
			h-0.454v-2.812c0-0.837-0.102-1.522-1.123-1.522c-1.174,0-1.365,1.089-1.365,2.037v2.298h-0.455v-8.316H735.481z"/>
		<path fill="#FFFFFF" d="M740.509,94.88h-0.456v-4.657h0.456V94.88z M740.7,88.67c0,0.232-0.183,0.414-0.415,0.414
			s-0.416-0.182-0.416-0.414c0-0.222,0.184-0.415,0.416-0.415S740.7,88.448,740.7,88.67"/>
		<path fill="#FFFFFF" d="M742.603,90.828h0.021c0.182-0.424,0.515-0.706,1.01-0.706c0.183,0,0.334,0.04,0.496,0.11l-0.243,0.404
			c-0.111-0.06-0.201-0.091-0.323-0.091c-1.022,0-0.961,1.271-0.961,1.955v2.379h-0.455v-4.657h0.455V90.828z"/>
		<rect x="635.282" y="26.68" fill="none" width="212.121" height="70.922"/>
		<polygon fill="#FFFFFF" points="745.563,94.88 745.108,94.88 745.108,90.646 744.594,90.646 744.594,90.223 745.108,90.223 
			745.108,88.56 745.563,88.56 745.563,90.223 746.384,90.223 746.384,90.646 745.563,90.646 		"/>
		<polygon fill="#FFFFFF" points="750.479,90.223 748.688,94.437 746.696,90.223 746.221,90.223 748.466,94.96 747.344,97.602 
			747.809,97.602 750.944,90.223 		"/>
		<path fill="#FFFFFF" d="M752.078,94.88h-0.456v-4.234h-0.516v-0.423h0.516v-2.087c0-0.343,0.01-0.836,0.183-1.14
			c0.211-0.372,0.616-0.563,1.041-0.563c0.143,0,0.274,0.02,0.404,0.071v0.412c-0.12-0.02-0.243-0.059-0.373-0.059
			c-0.79,0-0.799,0.786-0.799,1.371v1.996h1.172v0.423h-1.172V94.88z"/>
		<path fill="#FFFFFF" d="M753.947,92.562c0,1.057,0.84,1.995,1.943,1.995c1.142,0,2.031-0.866,2.031-1.995
			c0-1.151-0.878-2.017-2.031-2.017C754.777,90.545,753.947,91.483,753.947,92.562 M758.379,92.552c0,1.38-1.082,2.429-2.458,2.429
			c-1.346,0-2.428-1.099-2.428-2.418c0-1.342,1.071-2.44,2.428-2.44C757.297,90.122,758.379,91.171,758.379,92.552"/>
		<path fill="#FFFFFF" d="M762.667,90.223v2.792c0,0.474,0.011,0.947-0.283,1.341c-0.323,0.423-0.868,0.624-1.396,0.624
			c-0.524,0-1.07-0.201-1.396-0.624c-0.293-0.394-0.282-0.867-0.282-1.341v-2.792h0.456v2.631c0,0.896,0.101,1.703,1.222,1.703
			c1.123,0,1.227-0.807,1.227-1.703v-2.631H762.667z"/>
		<path fill="#FFFFFF" d="M764.51,90.828h0.021c0.182-0.424,0.515-0.706,1.011-0.706c0.182,0,0.333,0.04,0.495,0.11l-0.241,0.404
			c-0.113-0.06-0.205-0.091-0.324-0.091c-1.023,0-0.961,1.271-0.961,1.955v2.379h-0.457v-4.657h0.457V90.828z"/>
		<rect x="635.282" y="26.68" fill="none" width="212.121" height="70.922"/>
		<polygon fill="#FFFFFF" points="767.469,94.88 767.014,94.88 767.014,90.646 766.499,90.646 766.499,90.223 767.014,90.223 
			767.014,88.56 767.469,88.56 767.469,90.223 768.29,90.223 768.29,90.646 767.469,90.646 		"/>
		<path fill="#FFFFFF" d="M769.433,86.563v4.385h0.02c0.274-0.514,0.777-0.826,1.385-0.826c1.205,0,1.539,0.746,1.539,1.946v2.812
			h-0.457v-2.812c0-0.837-0.1-1.522-1.121-1.522c-1.175,0-1.365,1.089-1.365,2.037v2.298h-0.456v-8.316H769.433z"/>
		<path fill="#FFFFFF" d="M775.793,91.07c-0.149-0.323-0.455-0.524-0.818-0.524c-0.394,0-0.799,0.322-0.799,0.726
			c0,1.12,2.275,0.575,2.275,2.258c0,0.857-0.667,1.451-1.507,1.451c-0.779,0-1.415-0.474-1.609-1.23l0.445-0.14
			c0.172,0.554,0.547,0.947,1.164,0.947c0.589,0,1.053-0.464,1.053-1.049c0-0.573-0.445-0.756-0.912-0.917
			c-0.637-0.232-1.365-0.504-1.365-1.29c0-0.707,0.598-1.18,1.274-1.18c0.476,0,0.991,0.312,1.195,0.746L775.793,91.07z"/>
		<rect x="635.282" y="26.68" fill="none" width="212.121" height="70.922"/>
		<polygon fill="#FFFFFF" points="778.029,94.88 777.574,94.88 777.574,90.646 777.059,90.646 777.059,90.223 777.574,90.223 
			777.574,88.56 778.029,88.56 778.029,90.223 778.849,90.223 778.849,90.646 778.029,90.646 		"/>
		<path fill="#FFFFFF" d="M779.993,90.828h0.021c0.181-0.424,0.515-0.706,1.011-0.706c0.182,0,0.332,0.04,0.495,0.11l-0.243,0.404
			c-0.111-0.06-0.202-0.091-0.324-0.091c-1.02,0-0.959,1.271-0.959,1.955v2.379h-0.457v-4.657h0.457V90.828z"/>
		<path fill="#FFFFFF" d="M794.833,90.807h0.019c0.212-0.433,0.678-0.684,1.174-0.684c0.596,0,1.071,0.302,1.314,0.846
			c0.253-0.554,0.768-0.846,1.365-0.846c1.203,0,1.445,0.815,1.445,1.833v2.924h-0.454v-2.983c0-0.716-0.111-1.351-1.003-1.351
			c-0.969,0-1.202,0.847-1.202,1.653v2.682h-0.455v-2.872c0-0.727-0.131-1.463-1.041-1.463c-0.982,0-1.162,1.018-1.162,1.773v2.561
			h-0.457v-4.657h0.457V90.807z"/>
		<path fill="#FFFFFF" d="M801.609,92.521c0,1.068,0.708,2.036,1.841,2.036c1.192,0,1.839-0.968,1.839-2.086
			c0-1.079-0.738-1.926-1.871-1.926C802.346,90.545,801.609,91.513,801.609,92.521 M805.715,94.88h-0.454v-0.837h-0.021
			c-0.344,0.595-1.093,0.937-1.78,0.937c-1.415,0-2.307-1.099-2.307-2.459c0-1.362,0.881-2.399,2.286-2.399
			c0.719,0,1.406,0.323,1.801,0.907h0.021v-0.806h0.454V94.88z"/>
		<path fill="#FFFFFF" d="M807.242,92.521c0,1.068,0.707,2.036,1.841,2.036c1.193,0,1.84-0.968,1.84-2.086
			c0-1.08-0.737-1.926-1.87-1.926C807.979,90.545,807.242,91.513,807.242,92.521 M811.349,94.658c0,0.716-0.02,1.361-0.465,1.976
			c-0.437,0.595-1.124,0.897-1.861,0.897c-1.225,0-2.235-0.716-2.307-1.996h0.455c0.051,0.968,0.869,1.572,1.81,1.572
			c0.587,0,1.156-0.201,1.498-0.695c0.364-0.535,0.415-1.14,0.415-1.766v-0.574h-0.021c-0.415,0.555-1.112,0.908-1.819,0.908
			c-1.356,0-2.266-1.139-2.266-2.44c0-1.34,0.96-2.417,2.325-2.417c0.761,0,1.327,0.322,1.76,0.906h0.021v-0.806h0.455V94.658z"/>
		<path fill="#FFFFFF" d="M812.803,92.521c0,1.068,0.71,2.036,1.844,2.036c1.194,0,1.838-0.968,1.838-2.086
			c0-1.079-0.735-1.926-1.868-1.926C813.542,90.545,812.803,91.513,812.803,92.521 M816.911,94.88h-0.455v-0.837h-0.021
			c-0.344,0.595-1.094,0.937-1.78,0.937c-1.415,0-2.307-1.099-2.307-2.459c0-1.362,0.882-2.399,2.287-2.399
			c0.718,0,1.406,0.323,1.8,0.907h0.021v-0.806h0.455V94.88z"/>
		<rect x="635.282" y="26.68" fill="none" width="212.121" height="70.922"/>
		<polygon fill="#FFFFFF" points="822.374,94.457 822.374,94.88 817.619,94.88 821.442,90.646 818.237,90.646 818.237,90.223 
			822.395,90.223 818.581,94.457 		"/>
		<path fill="#FFFFFF" d="M823.75,94.88h-0.456v-4.657h0.456V94.88z M823.942,88.67c0,0.232-0.184,0.414-0.415,0.414
			c-0.233,0-0.416-0.182-0.416-0.414c0-0.222,0.183-0.415,0.416-0.415C823.759,88.256,823.942,88.448,823.942,88.67"/>
		<path fill="#FFFFFF" d="M825.843,90.948h0.021c0.271-0.514,0.778-0.826,1.386-0.826c1.203,0,1.537,0.746,1.537,1.946v2.812h-0.454
			v-2.812c0-0.838-0.104-1.522-1.125-1.522c-1.174,0-1.365,1.089-1.365,2.037v2.298h-0.453v-4.657h0.453V90.948z"/>
		<path fill="#FFFFFF" d="M833.845,92.167c-0.112-0.855-0.82-1.622-1.782-1.622c-0.95,0-1.738,0.746-1.819,1.622H833.845z
			 M830.243,92.592c-0.029,1.18,0.79,1.965,1.87,1.965c0.729,0,1.315-0.433,1.648-1.059l0.386,0.222
			c-0.425,0.808-1.174,1.26-2.095,1.26c-1.385,0-2.265-1.118-2.265-2.44c0-1.299,0.901-2.418,2.265-2.418
			c1.416,0,2.256,1.129,2.246,2.47H830.243z"/>
		<path fill="#FFFFFF" d="M785.85,92.167c-0.111-0.855-0.819-1.622-1.782-1.622c-0.951,0-1.737,0.746-1.819,1.622H785.85z
			 M782.248,92.592c-0.03,1.18,0.789,1.965,1.87,1.965c0.729,0,1.315-0.433,1.649-1.059l0.385,0.222
			c-0.426,0.808-1.173,1.26-2.094,1.26c-1.386,0-2.266-1.118-2.266-2.44c0-1.299,0.9-2.418,2.266-2.418
			c1.415,0,2.255,1.129,2.245,2.47H782.248z"/>
		<path fill="#FFFFFF" d="M790.906,92.167c-0.11-0.855-0.82-1.622-1.779-1.622c-0.952,0-1.741,0.746-1.821,1.622H790.906z
			 M787.306,92.592c-0.03,1.18,0.788,1.965,1.872,1.965c0.727,0,1.314-0.433,1.646-1.059l0.385,0.222
			c-0.423,0.808-1.174,1.26-2.094,1.26c-1.385,0-2.265-1.118-2.265-2.44c0-1.299,0.9-2.418,2.265-2.418
			c1.416,0,2.257,1.129,2.246,2.47H787.306z"/>
		<rect x="635.282" y="26.68" fill="none" width="212.121" height="70.922"/>
		<polygon fill="#FFFFFF" points="792.868,94.88 792.413,94.88 792.413,90.646 791.898,90.646 791.898,90.223 792.413,90.223 
			792.413,88.56 792.868,88.56 792.868,90.223 793.688,90.223 793.688,90.646 792.868,90.646 		"/>
	</g>
	<path fill="#FFFFFF" d="M153.803,55.467c0,0,0.143-3.336-2.148-5.487c-2.289-2.149-4.746-3.835-4.746-3.835
		s-8.807-4.668-10.237-5.508s-16.419-6.156-20.63-7.345c-4.21-1.189-14.822-3.648-14.822-3.648l16.839,29.05l19.473,2.715
		l10.052-1.924L153.803,55.467z"/>
	<path fill="#FFFFFF" d="M35.854,53.068c0,0-1.761-5.121,9.052-10.048c10.814-4.926,25.448-7.787,25.448-7.787
		s15.445-2.641,20.188-2.75l13.737-2.268l17.804,28.779l-37.368,5.942l-31.299-1.32l-15.446-6.71L35.854,53.068z"/>
	<path fill="#9E9E9E" d="M155.351,59.958c-0.121,4.917-28.089,8.192-62.467,7.315c-34.377-0.877-62.147-5.574-62.025-10.492
		c0.122-4.917,28.089-8.192,62.466-7.315C127.703,50.344,155.472,55.041,155.351,59.958z"/>
	<path fill="#434343" d="M34.391,50.104c0,0,1.253,5.3,2.089,5.936c0.672,0.512,2.72,9.131,42.625,8.269
		c9.713-0.21,40.535-4.664,40.535-4.664l-1.708-4.701c0,0-30.052,5.434-46.978,5.222C47.788,59.875,38.151,57.1,34.391,50.104z"/>
	<path fill="#434343" d="M119.64,59.645l2.229-4.482c13.361,1.988,11.771,2.15,18.249,2.786c6.035,0.592,14.034,1.264,16.297-1.272
		c0,0-2.507,4.451-4.805,5.088C149.311,62.4,150.564,63.036,119.64,59.645z"/>
	<path fill="#8C929C" d="M117.76,54.98l1.88,4.664l2.229-4.482l-2.029-5.185l-2.071,1.132c0,0-5.097-12.445-11.47-19.718v-1.616
		l-1.702-2.304l-1.201,2.397"/>
	<path fill="#231D26" d="M88.201,41.667c-0.186-1.155-3.66-1.542-7.76-0.864c-4.101,0.68-7.274,2.166-7.088,3.322
		c0.186,1.155,3.661,1.542,7.761,0.863C85.213,44.31,88.387,42.823,88.201,41.667z"/>
	<path fill="#231D26" d="M108.05,42.304c-0.185-1.155-3.66-1.542-7.76-0.864c-4.1,0.679-7.273,2.166-7.087,3.321
		c0.186,1.156,3.661,1.542,7.761,0.864S108.236,43.459,108.05,42.304z"/>
	<path fill="#231D26" d="M101.643,35.756c-0.186-1.156-3.661-1.542-7.76-0.863c-4.1,0.679-7.274,2.166-7.088,3.321
		c0.186,1.155,3.661,1.542,7.761,0.864C98.656,38.399,101.828,36.913,101.643,35.756z"/>
	<path fill="#231D26" d="M113.276,41.117c0,0,6.212,0.385,6.443-0.626c0.26-1.14-2.809-2.836-6.857-3.786
		c-0.685-0.16-1.993-0.388-1.993-0.388l-1.543,2.994l-1.913-2.747c0,0-2.239-0.002-2.351,0.486
		c-0.214,0.935,4.422,3.393,4.422,3.393l1.931,3.274L113.276,41.117z"/>
	<ellipse fill="#FCFDFF" cx="77.757" cy="50.796" rx="36.68" ry="4.609"/>
	<path fill="#BFBFBF" d="M104.057,31.332c0,0-60.077,6.515-54.946,18c5.133,11.486,64.75,0.707,64.75,0.707l2.547,4.682
		c0,0-73.007,15.922-78.665-5.256c0,0,3.367-13.208,59.363-20.252l6.29,0.657l0.792,1.438"/>
	<path fill="#DEDEDE" d="M103.604,30.189c0,0-62.139,6.859-56.723,18.981c5.415,12.122,68.28,0.544,68.28,0.544l2.599,5.267
		c0,0-77.541,16.582-83.511-5.771c0,0,3.553-13.939,62.652-21.374l5.174-0.409"/>
	<path fill="#BFBFBF" d="M123.014,55.15c0,0,34.847,7.914,31.89-0.958c-2.958-8.871-44.958-23.807-46.932-24.396l-1.703-0.689
		l0.031,2.283l20.169,8.035c0,0,18.211,7.65,21.592,12.862c3.381,5.211-26.92-1.922-26.92-1.922L123.014,55.15z"/>
	<path fill="#DEDEDE" d="M121.869,55.163c0,0,37.753,8.573,34.55-1.038c-3.205-9.611-48.708-25.793-50.846-26.431l-0.976-0.223
		l1.702,2.304c0,0,39.908,16.442,43.572,22.088c3.664,5.646-30.031-1.886-30.031-1.886L121.869,55.163z"/>
	<g>
		<path fill="#FFFFFF" d="M32.217,70.694h7.757c0.485,0.409,0.727,1.09,0.727,2.044v6.948c0,1.014,0.083,1.795,0.25,2.344
			c0.167,0.549,0.513,0.824,1.038,0.824c0.333,0,0.712-0.102,1.136-0.307v-6.744c0-0.409-0.07-0.732-0.212-0.971
			s-0.394-0.46-0.757-0.664v-3.475h8.484v10.627c0,0.528,0.073,0.952,0.219,1.271s0.396,0.577,0.75,0.772v3.679h-8.484v-0.817
			c-0.171,0.145-0.467,0.296-0.886,0.453c-0.419,0.158-0.927,0.292-1.522,0.402c-0.596,0.111-1.248,0.167-1.954,0.167
			c-1.081,0-1.985-0.104-2.712-0.313s-1.295-0.52-1.704-0.933c-0.409-0.413-0.705-0.935-0.886-1.564
			c-0.182-0.63-0.273-1.396-0.273-2.299v-6.131c0-0.502-0.068-0.883-0.205-1.144c-0.136-0.259-0.392-0.492-0.765-0.696V70.694z"/>
		<path fill="#FFFFFF" d="M52.82,70.694h8.484v0.613c0.748-0.451,1.49-0.734,2.227-0.849c0.737-0.115,1.611-0.173,2.621-0.173
			c1.535,0,2.699,0.262,3.492,0.786c0.793,0.524,1.298,1.099,1.515,1.725c0.217,0.625,0.326,1.22,0.326,1.782v6.54
			c0,0.622,0.07,1.101,0.212,1.437s0.394,0.607,0.758,0.811v3.679h-8.242c-0.111-1.082-0.179-1.99-0.205-2.727
			c-0.025-0.736-0.038-1.531-0.038-2.382v-5.109c0-0.52-0.146-0.966-0.439-1.341c-0.293-0.375-0.692-0.562-1.197-0.562
			c-0.303,0-0.646,0.089-1.03,0.268v6.131c0,0.86,0.323,1.473,0.97,1.839v3.883H52.82v-3.883c0.434-0.179,0.705-0.428,0.811-0.748
			s0.159-0.751,0.159-1.296v-4.905c0-0.911-0.323-1.456-0.97-1.635V70.694z"/>
		<path fill="#FFFFFF" d="M73.666,82.139v-6.744c0-0.596,0.078-1.182,0.235-1.756s0.419-1.099,0.788-1.571
			c0.368-0.473,0.891-0.856,1.568-1.15c0.676-0.293,1.52-0.44,2.53-0.44c0.202,0,0.354,0.004,0.455,0.013
			c0.949,0,1.697,0.066,2.242,0.198c0.545,0.132,1.252,0.407,2.121,0.824V70.49c0-1.022-0.243-1.635-0.728-1.839v-3.883h7.999
			v15.736c0,0.604,0.015,1.071,0.045,1.398c0.03,0.328,0.119,0.622,0.265,0.881s0.366,0.454,0.659,0.581v3.679h-8.241V86.43
			c-0.445,0.375-1.109,0.639-1.992,0.792c-0.884,0.153-1.836,0.23-2.856,0.23c-0.677,0-1.326-0.087-1.947-0.262
			s-1.169-0.456-1.644-0.843c-0.475-0.387-0.846-0.892-1.114-1.514c-0.268-0.621-0.401-1.345-0.401-2.171
			C73.651,82.433,73.656,82.258,73.666,82.139z M83.604,82.547v-7.153c-0.566-0.238-1.036-0.357-1.409-0.357
			c-0.838,0-1.257,0.596-1.257,1.788v3.27c0,0.945,0.119,1.627,0.356,2.044c0.237,0.417,0.614,0.626,1.129,0.626
			C82.746,82.765,83.14,82.692,83.604,82.547z"/>
		<path fill="#FFFFFF" d="M93.543,81.934v-6.131c0-1.456,0.331-2.586,0.992-3.391c0.661-0.805,1.624-1.36,2.886-1.667
			c1.263-0.307,2.878-0.46,4.848-0.46c2.495,0,4.532,0.36,6.113,1.08s2.371,1.927,2.371,3.621v5.109h-9.938v1.635
			c0,0.545,0.124,0.958,0.372,1.239c0.247,0.281,0.542,0.422,0.886,0.422c0.312,0,0.585-0.111,0.818-0.333
			c0.232-0.221,0.349-0.528,0.349-0.919v-1.226h7.514v4.292c-0.415,0.349-1.104,0.696-2.068,1.041
			c-0.965,0.345-2.071,0.632-3.318,0.862c-1.248,0.23-2.442,0.345-3.583,0.345c-1.818-0.068-3.338-0.294-4.56-0.677
			c-1.222-0.383-2.141-0.969-2.757-1.756S93.543,83.203,93.543,81.934z M100.814,76.417h2.909c0-0.775-0.098-1.343-0.295-1.706
			c-0.197-0.362-0.583-0.542-1.159-0.542s-0.962,0.181-1.159,0.542C100.913,75.073,100.814,75.642,100.814,76.417z"/>
		<path fill="#FFFFFF" d="M112.207,70.694h7.999v1.022c0.263-0.298,0.508-0.553,0.735-0.766s0.525-0.392,0.894-0.537
			c0.368-0.145,0.826-0.217,1.371-0.217c0.354,0,0.728,0.03,1.121,0.089v5.927c-0.354-0.068-0.687-0.102-1-0.102
			c-0.859,0-1.593,0.196-2.205,0.587c-0.611,0.392-0.917,0.911-0.917,1.559v3.065c0,1.132,0.404,1.813,1.212,2.043v3.679h-9.211
			v-3.679c0.434-0.272,0.705-0.553,0.811-0.843s0.159-0.69,0.159-1.201v-5.109c0-0.681-0.323-1.294-0.97-1.839V70.694z"/>
	</g>
	<g>
		<path fill="none" stroke="#FFFFFF" d="M127.049,77.555v-2.636h0.586v-2.343l4.54-1.172v3.515h1.465v2.636h-1.465v4.687
			c0,0.348,0.042,0.642,0.128,0.883c0.085,0.241,0.235,0.422,0.448,0.544c0.214,0.122,0.51,0.183,0.888,0.183v2.636
			c-0.684,0.195-1.66,0.293-2.929,0.293c-0.47,0-0.899-0.073-1.286-0.22c-0.388-0.146-0.709-0.348-0.966-0.604
			s-0.458-0.578-0.604-0.966s-0.22-0.816-0.22-1.286v-6.151H127.049z"/>
		<path fill="none" stroke="#FFFFFF" d="M134.519,70.671h5.126v4.541c0.226-0.171,0.536-0.307,0.929-0.407
			c0.394-0.101,0.81-0.151,1.25-0.151c1.025,0,1.919,0.252,2.682,0.755c0.763,0.503,1.144,1.268,1.144,2.293v4.541
			c0,0.366,0.009,0.646,0.027,0.842c0.019,0.195,0.072,0.362,0.16,0.499s0.221,0.228,0.398,0.27v2.783h-4.833
			c-0.195-1.367-0.292-2.539-0.292-3.515v-3.954c0-0.415-0.07-0.738-0.211-0.971c-0.14-0.231-0.354-0.348-0.641-0.348
			c-0.177,0-0.381,0.049-0.613,0.146v4.687c0,0.208,0.008,0.382,0.023,0.522c0.015,0.141,0.055,0.273,0.119,0.398
			c0.064,0.125,0.163,0.209,0.297,0.252v2.783h-5.565v-2.783c0.262-0.134,0.426-0.296,0.49-0.485
			c0.064-0.189,0.096-0.467,0.096-0.833v-7.616c0-0.342-0.034-0.632-0.101-0.87c-0.067-0.238-0.229-0.387-0.485-0.449V70.671z"/>
		<path fill="none" stroke="#FFFFFF" d="M147.114,82.974V78.58c0-1.043,0.2-1.854,0.6-2.431c0.399-0.577,0.981-0.975,1.744-1.194
			s1.739-0.33,2.929-0.33c1.507,0,2.738,0.258,3.693,0.773s1.433,1.381,1.433,2.595v3.662h-6.005v1.171
			c0,0.391,0.075,0.687,0.225,0.888c0.149,0.201,0.328,0.302,0.535,0.302c0.189,0,0.354-0.079,0.495-0.238
			c0.14-0.159,0.21-0.378,0.21-0.659v-0.878h4.54v3.075c-0.25,0.25-0.667,0.499-1.25,0.746c-0.583,0.247-1.251,0.453-2.004,0.618
			c-0.754,0.165-1.476,0.247-2.165,0.247c-1.099-0.049-2.017-0.21-2.755-0.485c-0.738-0.274-1.293-0.694-1.666-1.258
			C147.3,84.62,147.114,83.883,147.114,82.974z M151.508,79.02h1.758c0-0.556-0.06-0.963-0.179-1.222s-0.353-0.389-0.7-0.389
			s-0.581,0.13-0.7,0.389S151.508,78.464,151.508,79.02z"/>
	</g>
	<g>
		<path fill="#FFFFFF" d="M160.244,54.226h10.866v9.935c1.655-0.828,3.518-1.242,5.588-1.242c0.414-0.026,0.711-0.039,0.893-0.039
			c2.005,0,3.547,0.569,4.628,1.708c1.08,1.139,1.62,2.962,1.62,5.472v10.245c0,1.63-0.301,2.998-0.902,4.104
			s-1.407,1.97-2.416,2.59c-1.009,0.621-2.125,1.058-3.347,1.31c-1.223,0.252-2.52,0.378-3.891,0.378
			c-1.423,0-2.726-0.078-3.91-0.233s-2.422-0.479-3.716-0.97s-2.684-1.229-4.171-2.212V62.919c0-1.591-0.414-2.522-1.242-2.794
			V54.226z M171.11,74.406v7.14c0.698,0.259,1.274,0.388,1.727,0.388c0.608,0,1.042-0.246,1.3-0.737
			c0.258-0.492,0.388-1.307,0.388-2.445v-6.52c0-1.617-0.518-2.425-1.552-2.425c-0.518,0-1.139,0.188-1.863,0.562V74.406z"/>
		<path fill="#FFFFFF" d="M185.08,63.229h9.935c0.621,0.621,0.931,1.656,0.931,3.104v10.555c0,1.54,0.106,2.726,0.32,3.561
			c0.213,0.834,0.656,1.251,1.329,1.251c0.427,0,0.912-0.155,1.455-0.466V70.991c0-0.621-0.091-1.112-0.271-1.475
			c-0.182-0.362-0.505-0.699-0.97-1.009v-5.277h10.866v16.143c0,0.802,0.094,1.446,0.281,1.931c0.188,0.485,0.507,0.876,0.96,1.174
			v5.588H199.05v-1.242c-0.22,0.22-0.599,0.45-1.135,0.688c-0.537,0.24-1.187,0.443-1.95,0.611
			c-0.764,0.168-1.598,0.252-2.503,0.252c-1.385,0-2.542-0.159-3.474-0.476c-0.931-0.317-1.659-0.789-2.183-1.417
			c-0.524-0.627-0.902-1.419-1.135-2.376c-0.233-0.958-0.349-2.122-0.349-3.493v-9.313c0-0.763-0.087-1.342-0.262-1.737
			c-0.175-0.395-0.501-0.747-0.98-1.058V63.229z"/>
		<path fill="#FFFFFF" d="M210.848,68.817v-5.588h1.242v-4.967l9.624-2.484v7.451h3.104v5.588h-3.104v9.935
			c0,0.737,0.09,1.361,0.271,1.873c0.181,0.511,0.498,0.896,0.951,1.154s1.08,0.388,1.882,0.388v5.588
			c-1.449,0.414-3.519,0.621-6.209,0.621c-0.996,0-1.905-0.155-2.726-0.466c-0.822-0.311-1.504-0.737-2.047-1.281
			c-0.543-0.543-0.97-1.225-1.28-2.047c-0.311-0.821-0.466-1.73-0.466-2.726V68.817H210.848z"/>
		<path fill="#FFFFFF" d="M225.749,68.817v-5.588h1.242v-4.967l9.624-2.484v7.451h3.104v5.588h-3.104v9.935
			c0,0.737,0.09,1.361,0.271,1.873c0.181,0.511,0.498,0.896,0.951,1.154s1.08,0.388,1.882,0.388v5.588
			c-1.449,0.414-3.519,0.621-6.209,0.621c-0.996,0-1.905-0.155-2.726-0.466c-0.822-0.311-1.504-0.737-2.047-1.281
			c-0.543-0.543-0.97-1.225-1.28-2.047c-0.311-0.821-0.466-1.73-0.466-2.726V68.817H225.749z"/>
		<path fill="#FFFFFF" d="M241.271,79.373V70.68c0-2.005,0.35-3.586,1.048-4.744c0.699-1.157,1.853-2.001,3.463-2.532
			c1.611-0.53,3.833-0.795,6.665-0.795c2.82,0,5.038,0.243,6.655,0.728c1.617,0.485,2.775,1.307,3.473,2.464
			c0.699,1.158,1.048,2.784,1.048,4.88v9.313c0,1.759-0.229,3.192-0.688,4.298c-0.459,1.106-1.142,1.95-2.047,2.532
			s-2.034,0.986-3.386,1.212c-1.352,0.227-3.037,0.34-5.055,0.34c-1.992,0-3.664-0.126-5.016-0.378s-2.487-0.705-3.405-1.358
			c-0.918-0.653-1.607-1.565-2.066-2.736C241.501,82.733,241.271,81.223,241.271,79.373z M254.311,79.994V70.37
			c0-0.453-0.09-0.844-0.271-1.174c-0.181-0.33-0.408-0.579-0.679-0.747c-0.271-0.168-0.576-0.252-0.912-0.252
			c-0.504,0-0.941,0.213-1.31,0.64s-0.553,1.042-0.553,1.843v9.313c0,0.802,0.184,1.43,0.553,1.882s0.805,0.679,1.31,0.679
			c0.323,0,0.624-0.097,0.902-0.291c0.278-0.194,0.508-0.481,0.689-0.863C254.22,81.019,254.311,80.55,254.311,79.994z"/>
		<path fill="#FFFFFF" d="M265.487,63.229h10.866v0.931c0.957-0.686,1.908-1.116,2.852-1.29c0.944-0.175,2.063-0.262,3.357-0.262
			c1.966,0,3.457,0.398,4.472,1.193s1.662,1.668,1.94,2.62c0.278,0.951,0.417,1.853,0.417,2.707v9.935
			c0,0.944,0.09,1.672,0.272,2.183c0.181,0.511,0.504,0.922,0.97,1.232v5.588h-10.556c-0.143-1.643-0.229-3.023-0.262-4.143
			c-0.033-1.119-0.049-2.325-0.049-3.619v-7.761c0-0.789-0.188-1.468-0.562-2.038c-0.375-0.569-0.886-0.854-1.533-0.854
			c-0.388,0-0.828,0.136-1.319,0.407v9.313c0,1.307,0.414,2.238,1.242,2.794v5.898h-12.108v-5.898
			c0.556-0.272,0.902-0.65,1.038-1.135c0.136-0.485,0.204-1.142,0.204-1.969v-7.451c0-1.384-0.415-2.212-1.242-2.483V63.229z"/>
	</g>
</g>
</svg>
