<?xml version="1.0" encoding="utf-8"?>
<!-- Generator: Adobe Illustrator 16.0.0, SVG Export Plug-In . SVG Version: 6.00 Build 0)  -->
<!DOCTYPE svg PUBLIC "-//W3C//DTD SVG 1.1//EN" "http://www.w3.org/Graphics/SVG/1.1/DTD/svg11.dtd">
<svg version="1.1" xmlns="http://www.w3.org/2000/svg" xmlns:xlink="http://www.w3.org/1999/xlink" x="0px" y="0px" width="900px"
	 height="124.282px" viewBox="0 0 900 124.282" enable-background="new 0 0 900 124.282" xml:space="preserve">
<g id="Layer_2">
	<rect y="-0.782" fill="#8A1F23" width="900" height="125.063"/>
</g>
<g id="Layer_1">
	<g>
		<defs>
			<rect id="SVGID_1_" x="22.075" y="13.114" width="118.289" height="84.549"/>
		</defs>
		<clipPath id="SVGID_2_">
			<use xlink:href="#SVGID_1_"  overflow="visible"/>
		</clipPath>
		<path clip-path="url(#SVGID_2_)" fill="#FFFFFF" d="M76.103,62.816v-26.22c0-5.911-0.409-11.669-2.857-16.521
			c-2.311-3.941-6.12-6.215-10.065-6.821c-12.65-1.059-25.163,4.397-37.271,0c-0.135,2.425,0.41,4.699,1.226,6.821
			c4.76,8.185,15.234,5.305,22.58,4.698v40.465c-9.93-0.302-18.5,5.307-24.076,14.551c8.026-5.76,20.676-5.76,28.7-0.151
			c6.802-6.214,15.098-9.093,23.805-10.306C77.19,67.363,76.375,65.239,76.103,62.816 M65.493,70.546l-2.312,0.908
			c-3.4-3.789-7.482-5.759-11.834-6.215V24.47c4.352-0.302,10.61-1.969,13.193,3.184l0.818,2.881l0.135,39.252V70.546z"/>
		<path clip-path="url(#SVGID_2_)" fill="#FFFFFF" d="M46.723,27.806c-1.225,1.968-1.635,4.546-1.499,7.273l-0.272,20.612
			c-1.496,6.974-8.297,9.397-13.601,10.762c4.354-2.728,2.721-8.942,3.127-13.944c-2.583,0.15-6.392-1.06-7.345,2.426l-0.271,1.97
			c-1.224-3.637-1.769-9.244,0.68-12.429c1.769-1.968,4.215-2.424,6.801-2.424c0.135-4.547,2.176-8.792,5.848-11.217
			C42.232,29.471,44.409,28.412,46.723,27.806"/>
		<path clip-path="url(#SVGID_2_)" fill="#FFFFFF" d="M129.876,26.754l5.711-5.607c-5.439-0.91-10.609-3.03-14.283-8.032
			l-14.009,10.155v-4.396h-1.495v5.608l-4.763,3.335c-0.133-2.274-0.544-4.395-1.224-6.365c-1.223-3.334-4.216-6.518-7.346-6.972
			c-5.168-0.909-9.793,1.058-12.784,5.758c-1.769,2.727-2.04,7.276-0.68,10.154c0.135-2.121,0.68-3.939,2.176-5.456
			c1.495-1.667,4.354-1.819,6.257-0.91c5.032,3.184,2.723,10.458,3.264,15.914h-2.311c-2.856,0.153-5.714,1.819-6.801,4.851
			c-1.089,3.639-0.138,7.426,1.359,10.306l0.544-1.82c1.359-2.878,4.215-3.333,7.208-3.028v12.881c-1.904,0-3.536,0.758-5.167,1.667
			c-5.034,3.184-6.803,9.094-6.938,15.157c2.993-4.242,7.209-6.366,12.105-6.366c0.134,8.335,0.817,17.277-4.624,23.04
			c4.353,0.454,8.027-1.67,10.745-5.459c2.857,3.486,6.258,5.307,10.475,5.155V76.315c2.448,0.757,4.76,2.12,6.801,3.484
			c3.946-7.122,10.474-11.668,17.684-11.668c-0.954-1.82-1.359-3.79-1.769-5.912L129.876,26.754z M105.801,94.049
			c-1.361-0.305-2.722-1.213-3.401-2.73c-1.495-2.879-0.952-6.667-1.089-10.154V29.634l4.49-3.333V94.049z M119.675,69.495
			c-3.808-2.879-7.619-5.607-12.107-6.82V25.239l4.352-3.334c1.361,3.334,4.491,5.456,7.755,5.304V69.495z"/>
	</g>
	<g>
		<defs>
			<rect id="SVGID_3_" x="13" y="-0.782" width="134.962" height="125.063"/>
		</defs>
		<clipPath id="SVGID_4_">
			<use xlink:href="#SVGID_3_"  overflow="visible"/>
		</clipPath>
		<path clip-path="url(#SVGID_4_)" fill="#FFFFFF" d="M34.015,86.729c0-0.019,0.017-0.019,0.034-0.019
			c-0.221,0.529-0.695,0.983-1.17,1.134v5.045l0.729-0.793c-0.187,1.114-0.983,2.286-1.967,2.626
			c-1.187,0.396-2.578,0.208-3.442-0.793c-0.78-0.833-0.831-2.268-0.509-3.364c0.254-0.906,0.933-1.795,1.713-2.286
			c-0.831,1.115-1.221,2.853-0.611,4.233c0.509,0.963,1.441,1.285,2.425,1.152c0.525-0.076,1.018-0.265,1.458-0.624v-5.083
			c-1.492,0.188-2.9-0.247-4.409-0.133c-0.306,0.019-0.594,0.133-0.797,0.416c0.034-0.511,0.255-1.002,0.662-1.323
			c0.559-0.416,1.339-0.302,2.034-0.284C31.438,86.71,32.76,87.107,34.015,86.729"/>
		<path clip-path="url(#SVGID_4_)" fill="#FFFFFF" d="M58.583,87.476l0.271-0.075c-0.017,0.396-0.271,0.775-0.593,0.926
			c-0.425,0.208-0.781-0.113-1.103-0.302c-0.136-0.02-0.237,0.037-0.322,0.131l-0.119-0.151l1.119-1.172
			C57.954,87.136,58.227,87.495,58.583,87.476"/>
		<path clip-path="url(#SVGID_4_)" fill="#FFFFFF" d="M60.888,87.636v5.801c0.271,0.057,0.493,0.227,0.662,0.474l0.458-0.247
			l0.084,0.17c-0.458,0.302-0.983,0.567-1.406,1.002c-0.323-0.358-0.662-0.643-1.12-0.548l-0.373,0.094
			c-0.018-0.303,0.152-0.642,0.44-0.793l0.084-0.037v-5.763c-0.034-0.246-0.135-0.454-0.287-0.644
			c0.677,0.076,1.271-0.15,1.797-0.529C61.075,86.918,60.923,87.259,60.888,87.636"/>
		<path clip-path="url(#SVGID_4_)" fill="#FFFFFF" d="M50.428,93.778l-0.289,0.112c-0.423-0.472-0.933-0.718-1.475-0.774v-5.083
			c0.542-0.037,1.323-0.245,1.645,0.397l0.102,0.359l0.017,4.894V93.778z M51.75,92.814v-3.269c0-0.737-0.051-1.455-0.355-2.059
			c-0.289-0.492-0.763-0.776-1.255-0.851c-1.577-0.132-3.137,0.548-4.646,0c-0.017,0.302,0.051,0.585,0.153,0.851
			c0.594,1.02,1.899,0.661,2.815,0.585v5.045c-1.238-0.037-2.306,0.662-3.001,1.814c1.001-0.718,2.578-0.718,3.578-0.019
			c0.848-0.776,1.882-1.134,2.968-1.286C51.886,93.381,51.785,93.116,51.75,92.814"/>
		<path clip-path="url(#SVGID_4_)" fill="#FFFFFF" d="M31.503,91.907c-0.136,0.907-1.019,1.058-1.628,1.266
			c0.187-0.189,0.271-0.435,0.305-0.699c0.017-1.04,0-2.078,0-3.099l-0.492,0.208v-0.245c0.627-0.227,1.221-0.548,1.815-0.907
			V91.907z"/>
		<path clip-path="url(#SVGID_4_)" fill="#FFFFFF" d="M48.087,88.449c-0.152,0.246-0.203,0.566-0.186,0.906l-0.035,2.571
			c-0.186,0.869-1.035,1.171-1.696,1.342c0.543-0.341,0.34-1.116,0.391-1.74c-0.322,0.02-0.797-0.131-0.916,0.303l-0.034,0.246
			c-0.153-0.454-0.221-1.153,0.085-1.55c0.22-0.246,0.525-0.303,0.848-0.303c0.017-0.566,0.271-1.096,0.729-1.399
			C47.528,88.656,47.799,88.524,48.087,88.449"/>
		<path clip-path="url(#SVGID_4_)" fill="#FFFFFF" d="M59.04,89.696c-0.118,0.302-0.373,0.566-0.645,0.681v2.646
			c0.018,0.207,0.067,0.396,0.238,0.528c0.135,0.113,0.305,0.169,0.491,0.169v0.152c-0.423,0.226-0.814,0.567-1.186,0.925
			c-0.391-0.208-0.662-0.643-0.695-1.096l-0.018-3.269c-0.271-0.093-0.508-0.227-0.712-0.453c0.407-0.208,0.797-0.548,1.136-0.945
			C58.057,89.431,58.481,89.715,59.04,89.696"/>
		<path clip-path="url(#SVGID_4_)" fill="#FFFFFF" d="M67.126,89.696c-0.118,0.302-0.372,0.566-0.645,0.681v3.004
			c-0.017,0.51,0.458,0.793,0.374,1.323c0,0.718-0.458,1.361-1.017,1.7c-0.679,0.436-1.696,0.51-2.442,0.189
			c-0.356-0.151-0.848-0.491-1.187-0.076l-0.05,0.057c0.034-0.51,0.22-1.096,0.712-1.323c0.288-0.095,0.644-0.075,0.881,0.151
			c0.441,0.378,0.729,1.208,1.374,1.039c0.271-0.057,0.542-0.246,0.645-0.529c0.254-0.586-0.103-1.096-0.39-1.53
			c-0.085-0.34-0.068-0.718-0.085-1.096l-2.052,1.511c-0.102-0.208-0.322-0.454-0.542-0.51c-0.237-0.057-0.475,0-0.695,0.075
			c0-0.376,0.255-0.718,0.542-0.869l-0.017-2.703c0-0.226-0.118-0.452-0.305-0.566c-0.136-0.056-0.288-0.075-0.441-0.075v-0.152
			c0.34-0.208,0.661-0.528,0.933-0.887c0.339,0.056,0.729,0.265,0.882,0.661l0.102,0.491l0.017,3.081
			c0.221,0.056,0.441,0.265,0.542,0.491l1.052-0.774v-2.626c-0.271-0.076-0.509-0.227-0.713-0.453
			c0.391-0.208,0.781-0.529,1.12-0.945C66.126,89.431,66.567,89.715,67.126,89.696"/>
		<path clip-path="url(#SVGID_4_)" fill="#FFFFFF" d="M40.44,89.923l0.407-0.113c0.271,0.547,0.543,1.114,0.882,1.644l-1.289,0.793
			V89.923z M41.898,93.966c-0.458-0.303-0.933-0.529-1.475-0.624v-0.793l2.595-1.605c-0.611-0.529-0.983-1.228-1.255-1.909
			c-0.763,0.718-1.814,0.888-2.815,0.681c0.187,0.208,0.271,0.453,0.305,0.717l0.017,2.967c-0.271,0.113-0.542,0.434-0.662,0.718
			c0.968-0.094,1.764,0.32,2.561,0.718l1.56-1.171c-0.034-0.075-0.05-0.151-0.118-0.207C42.39,93.645,42.135,93.796,41.898,93.966"
			/>
		<path clip-path="url(#SVGID_4_)" fill="#FFFFFF" d="M54.956,93.494c-0.221,0.17-0.458,0.397-0.712,0.208
			c-0.408-0.132-0.866-0.473-0.95-0.983c-0.067-0.396,0-0.792,0.272-1.076c0.339-0.378,0.982-0.435,1.39-0.114V93.494z
			 M56.346,93.532c-0.17-0.17-0.238-0.417-0.272-0.662v-2.53c0.307-0.171,0.476-0.511,0.561-0.852
			c-0.17,0.113-0.374,0.189-0.611,0.151c-0.254-0.075-0.458-0.377-0.627-0.604c-0.339,0.378-0.696,0.718-1.17,0.736
			c-0.39,0.057-0.61-0.416-0.746-0.736c-0.238,0.453-0.645,0.681-1.018,0.831c0.289,0.246,0.611,0.417,0.949,0.53
			c0.408,0.113,0.747-0.076,1.001-0.416c0.102,0.245,0.338,0.453,0.542,0.566v0.757c-0.136-0.076-0.288-0.133-0.441-0.171
			c-0.831-0.094-1.646,0.227-2.085,1.058c-0.306,0.529-0.323,1.399-0.035,1.946c0.271,0.454,0.695,0.624,1.137,0.699l1.441-1.114
			l0.136,0.396c0.152,0.36,0.491,0.643,0.864,0.643l0.967-0.963C56.718,93.758,56.515,93.701,56.346,93.532"/>
		<path clip-path="url(#SVGID_4_)" fill="#FFFFFF" d="M38.133,89.643c0.117,0,0.218-0.074,0.335-0.112
			c-0.017,0.336-0.184,0.672-0.469,0.84c-0.05,0.858-0.034,1.792-0.017,2.669c0,0.224,0.118,0.448,0.318,0.56
			c0.117,0.056,0.268,0.074,0.418,0.074v0.149c-0.335,0.225-0.687,0.542-0.921,0.916c-0.336-0.094-0.705-0.28-0.854-0.671
			l-0.118-0.486l-0.017-3.043c-0.218-0.056-0.402-0.298-0.52-0.504l-1.038,0.766v2.594c0.251,0.112,0.502,0.206,0.704,0.449
			c-0.403,0.205-0.788,0.56-1.124,0.97c-0.385-0.43-0.854-0.691-1.39-0.691c0.117-0.279,0.369-0.561,0.637-0.672v-2.613
			c-0.018-0.188,0.04-2.831-0.038-3.127c-0.076-0.292-0.222-0.568-0.222-0.568c0.375,0.003,1.333-0.136,1.685-0.51
			c-0.137,0.314-0.34,0.716-0.306,1.2l0.055,2.725l2.009-1.475C37.445,89.4,37.765,89.662,38.133,89.643"/>
		<path clip-path="url(#SVGID_4_)" fill="#FFFFFF" d="M59.619,100.062v5.8c0.254,0.056,0.474,0.227,0.644,0.473l0.458-0.246
			l0.102,0.17c-0.475,0.303-0.983,0.567-1.424,1.001c-0.305-0.358-0.662-0.643-1.119-0.547l-0.373,0.094
			c-0.017-0.302,0.169-0.643,0.44-0.793l0.102-0.037l-0.017-5.765c-0.017-0.245-0.136-0.453-0.288-0.642
			c0.678,0.076,1.271-0.151,1.797-0.529C59.789,99.344,59.636,99.683,59.619,100.062"/>
		<path clip-path="url(#SVGID_4_)" fill="#FFFFFF" d="M32.734,105.939c-0.474-0.359-0.949-0.699-1.51-0.851v-4.667l0.543-0.415
			c0.169,0.415,0.56,0.679,0.967,0.661V105.939z M31.005,108.999c-0.169-0.037-0.339-0.15-0.423-0.34
			c-0.187-0.359-0.12-0.832-0.136-1.265v-6.425l0.56-0.416V108.999z M34.006,100.61l0.712-0.699
			c-0.678-0.114-1.322-0.377-1.78-1.001l-1.747,1.266v-0.548h-0.187v0.699l-0.594,0.417c-0.017-0.284-0.067-0.549-0.152-0.793
			c-0.153-0.416-0.527-0.813-0.917-0.869c-0.644-0.114-1.22,0.131-1.594,0.717c-0.219,0.341-0.254,0.908-0.084,1.267
			c0.017-0.264,0.084-0.491,0.271-0.68c0.187-0.208,0.542-0.228,0.78-0.113c0.627,0.396,0.34,1.304,0.407,1.983h-0.288
			c-0.356,0.02-0.712,0.227-0.848,0.605c-0.136,0.453-0.017,0.925,0.17,1.285l0.067-0.227c0.169-0.359,0.525-0.416,0.899-0.379
			v1.607c-0.237,0-0.441,0.095-0.645,0.208c-0.628,0.397-0.848,1.133-0.864,1.89c0.373-0.529,0.898-0.793,1.509-0.793
			c0.017,1.04,0.102,2.153-0.577,2.873c0.543,0.057,1.001-0.208,1.34-0.682c0.357,0.435,0.78,0.662,1.306,0.643v-2.494
			c0.305,0.094,0.594,0.265,0.848,0.435c0.492-0.888,1.306-1.455,2.205-1.455c-0.12-0.227-0.169-0.473-0.221-0.738L34.006,100.61z"
			/>
		<path clip-path="url(#SVGID_4_)" fill="#FFFFFF" d="M42.65,102.027c0.119,0,0.221-0.075,0.339-0.113
			c-0.017,0.34-0.187,0.681-0.475,0.851c-0.051,0.869-0.033,1.812-0.017,2.701c0,0.228,0.118,0.454,0.323,0.567
			c0.118,0.057,0.27,0.076,0.423,0.076v0.151c-0.339,0.228-0.695,0.548-0.933,0.927c-0.339-0.095-0.713-0.283-0.864-0.681
			l-0.12-0.491l-0.017-3.08c-0.221-0.057-0.406-0.302-0.526-0.51l-1.052,0.774v2.626c0.254,0.114,0.509,0.208,0.712,0.454
			c-0.407,0.208-0.797,0.567-1.136,0.982c-0.39-0.435-0.864-0.699-1.407-0.699c0.119-0.283,0.372-0.567,0.644-0.68v-2.646
			c-0.018-0.189-0.068-0.359-0.187-0.51c-0.153-0.132-0.355-0.17-0.526-0.189v-0.151c0.407-0.227,0.798-0.51,1.154-0.889
			c0.407,0.132,0.712,0.644,0.746,1.135v0.32l2.036-1.492C41.956,101.781,42.277,102.046,42.65,102.027"/>
		<path clip-path="url(#SVGID_4_)" fill="#FFFFFF" d="M48.06,102.027c0.136,0,0.238-0.075,0.356-0.113
			c-0.034,0.34-0.204,0.681-0.492,0.851c-0.034,0.869-0.034,1.812-0.017,2.701c0.017,0.228,0.118,0.454,0.322,0.567
			c0.119,0.057,0.271,0.076,0.441,0.076v0.151c-0.355,0.228-0.695,0.548-0.95,0.927c-0.339-0.095-0.712-0.283-0.865-0.681
			l-0.119-0.491v-3.08c-0.237-0.057-0.424-0.302-0.542-0.51l-1.052,0.774v2.626c0.255,0.114,0.509,0.208,0.712,0.454
			c-0.407,0.208-0.797,0.567-1.136,0.982c-0.39-0.435-0.848-0.699-1.39-0.699c0.102-0.283,0.374-0.567,0.627-0.68v-2.646
			c0-0.189-0.067-0.359-0.186-0.51c-0.153-0.132-0.355-0.17-0.526-0.189v-0.151c0.407-0.227,0.797-0.51,1.153-0.889
			c0.407,0.132,0.712,0.644,0.746,1.135v0.32l2.052-1.492C47.381,101.781,47.687,102.046,48.06,102.027"/>
		<path clip-path="url(#SVGID_4_)" fill="#FFFFFF" d="M58.112,102.122c-0.118,0.302-0.39,0.566-0.645,0.68v3.004
			c-0.017,0.51,0.441,0.793,0.373,1.322c-0.017,0.718-0.475,1.362-1.034,1.702c-0.662,0.434-1.68,0.51-2.425,0.188
			c-0.356-0.151-0.866-0.491-1.205-0.076L53.126,109c0.033-0.51,0.22-1.096,0.713-1.322c0.287-0.095,0.644-0.076,0.88,0.15
			c0.441,0.378,0.729,1.209,1.392,1.04c0.254-0.057,0.525-0.245,0.643-0.529c0.238-0.585-0.102-1.096-0.389-1.53
			c-0.084-0.34-0.084-0.718-0.084-1.095l-2.053,1.511c-0.118-0.208-0.321-0.453-0.542-0.51c-0.254-0.057-0.492,0-0.695,0.075
			c-0.017-0.377,0.238-0.719,0.542-0.87l-0.017-2.701c-0.017-0.228-0.118-0.453-0.322-0.567c-0.136-0.058-0.288-0.075-0.424-0.075
			v-0.152c0.34-0.208,0.662-0.529,0.916-0.888c0.357,0.056,0.729,0.265,0.881,0.661l0.12,0.491l0.017,3.08
			c0.22,0.057,0.424,0.265,0.542,0.491l1.035-0.774v-2.628c-0.271-0.075-0.51-0.225-0.713-0.452
			c0.407-0.208,0.797-0.529,1.136-0.945C57.094,101.856,57.552,102.141,58.112,102.122"/>
		<path clip-path="url(#SVGID_4_)" fill="#FFFFFF" d="M61.821,102.122l0.118,0.472l0.034,2.778c0,0.453,0.373,0.831,0.729,0.963
			c0.254,0.284,0.559-0.019,0.831-0.075v-3.402c-0.272-0.075-0.509-0.225-0.713-0.452c0.408-0.208,0.798-0.529,1.137-0.945
			c0.39,0.396,0.848,0.681,1.408,0.661c-0.119,0.302-0.391,0.566-0.645,0.68v2.721c0.017,0.283,0.085,0.566,0.289,0.774
			c-1.12,0.019-2.155,0.283-3.019,0.963c-0.408-0.093-0.814-0.264-1.035-0.699c-0.17-0.416-0.204-0.888-0.17-1.379l-0.033-2.097
			c-0.034-0.208-0.102-0.397-0.271-0.492c-0.152-0.076-0.305-0.113-0.458-0.113v-0.133c0.34-0.207,0.661-0.528,0.917-0.887
			C61.296,101.517,61.669,101.707,61.821,102.122"/>
		<path clip-path="url(#SVGID_4_)" fill="#FFFFFF" d="M74.468,102.027c0.118,0,0.219-0.075,0.338-0.113
			c-0.017,0.34-0.186,0.681-0.491,0.851c-0.034,0.869-0.017,1.812,0,2.701c0,0.228,0.103,0.454,0.305,0.567
			c0.136,0.057,0.289,0.076,0.441,0.076v0.151c-0.34,0.228-0.696,0.548-0.933,0.927c-0.355-0.095-0.729-0.283-0.882-0.681
			l-0.102-0.491l-0.017-3.08c-0.238-0.057-0.408-0.302-0.526-0.51l-1.051,0.774v2.626c0.236,0.114,0.491,0.208,0.712,0.454
			c-0.424,0.208-0.814,0.567-1.136,0.982c-0.39-0.435-0.865-0.699-1.408-0.699c0.119-0.283,0.374-0.567,0.644-0.68v-2.646
			c-0.016-0.189-0.068-0.359-0.186-0.51c-0.168-0.132-0.357-0.17-0.542-0.189v-0.151c0.407-0.227,0.813-0.51,1.17-0.889
			c0.406,0.132,0.712,0.644,0.746,1.135v0.32l2.035-1.492C73.773,101.781,74.094,102.046,74.468,102.027"/>
		<path clip-path="url(#SVGID_4_)" fill="#FFFFFF" d="M77.281,102.122c-0.119,0.302-0.391,0.566-0.645,0.68v2.646
			c0.018,0.207,0.068,0.396,0.221,0.529c0.153,0.112,0.322,0.169,0.509,0.169v0.151c-0.441,0.227-0.831,0.566-1.204,0.926
			c-0.373-0.208-0.662-0.643-0.679-1.096l-0.034-3.27c-0.254-0.093-0.492-0.225-0.695-0.452c0.39-0.208,0.78-0.549,1.136-0.945
			C76.28,101.856,76.721,102.141,77.281,102.122"/>
		<path clip-path="url(#SVGID_4_)" fill="#FFFFFF" d="M86.413,102.027c0.118,0,0.22-0.075,0.339-0.113
			c-0.018,0.34-0.186,0.681-0.475,0.851c-0.051,0.869-0.034,1.812-0.018,2.701c0,0.228,0.119,0.454,0.322,0.567
			c0.119,0.057,0.272,0.076,0.425,0.076v0.151c-0.34,0.228-0.695,0.548-0.933,0.927c-0.337-0.095-0.712-0.283-0.864-0.681
			l-0.119-0.491l-0.017-3.08c-0.221-0.057-0.407-0.302-0.526-0.51l-1.051,0.774v2.626c0.254,0.114,0.508,0.208,0.712,0.454
			c-0.407,0.208-0.814,0.567-1.137,0.982c-0.389-0.435-0.865-0.699-1.406-0.699c0.117-0.283,0.372-0.567,0.644-0.68v-2.646
			c-0.017-0.189-0.068-0.359-0.186-0.51c-0.153-0.132-0.357-0.17-0.526-0.189v-0.151c0.406-0.227,0.798-0.51,1.153-0.889
			c0.407,0.132,0.712,0.644,0.747,1.135v0.32l2.034-1.492C85.717,101.781,86.039,102.046,86.413,102.027"/>
		<path clip-path="url(#SVGID_4_)" fill="#FFFFFF" d="M35.734,102.349l0.407-0.114c0.271,0.548,0.542,1.115,0.865,1.644
			l-1.272,0.793V102.349z M37.193,106.392c-0.458-0.302-0.95-0.529-1.476-0.624v-0.794l2.577-1.605
			c-0.593-0.529-0.966-1.228-1.238-1.909c-0.763,0.718-1.831,0.889-2.831,0.681c0.185,0.208,0.271,0.453,0.305,0.718l0.033,2.967
			c-0.288,0.112-0.543,0.434-0.661,0.717c0.95-0.094,1.748,0.321,2.544,0.718l1.577-1.171c-0.034-0.075-0.068-0.151-0.119-0.208
			C37.667,106.071,37.43,106.222,37.193,106.392"/>
		<path clip-path="url(#SVGID_4_)" fill="#FFFFFF" d="M67.874,105.919c-0.238,0.17-0.458,0.398-0.713,0.208
			c-0.407-0.132-0.881-0.473-0.949-0.983c-0.069-0.397,0-0.793,0.27-1.076c0.339-0.379,0.984-0.435,1.392-0.114V105.919z
			 M69.264,105.958c-0.187-0.17-0.254-0.416-0.271-0.662v-2.532c0.289-0.169,0.475-0.51,0.56-0.849
			c-0.187,0.112-0.39,0.188-0.611,0.15c-0.271-0.075-0.474-0.377-0.627-0.604c-0.338,0.377-0.712,0.718-1.17,0.736
			c-0.39,0.057-0.61-0.416-0.746-0.736c-0.237,0.454-0.644,0.681-1.018,0.831c0.289,0.246,0.61,0.417,0.95,0.529
			c0.407,0.114,0.747-0.075,1-0.415c0.102,0.246,0.322,0.454,0.543,0.566v0.756c-0.136-0.076-0.289-0.132-0.442-0.17
			c-0.83-0.094-1.644,0.227-2.086,1.058c-0.305,0.529-0.321,1.399-0.033,1.947c0.255,0.454,0.695,0.624,1.136,0.699l1.441-1.114
			l0.136,0.396c0.152,0.358,0.492,0.643,0.864,0.643l0.968-0.964C69.636,106.184,69.416,106.127,69.264,105.958"/>
		<path clip-path="url(#SVGID_4_)" fill="#FFFFFF" d="M79.956,105.919c-0.221,0.17-0.458,0.398-0.713,0.208
			c-0.407-0.132-0.865-0.473-0.933-0.983c-0.085-0.397-0.017-0.793,0.254-1.076c0.34-0.379,0.984-0.435,1.392-0.114V105.919z
			 M81.346,105.958c-0.17-0.17-0.237-0.416-0.272-0.662v-2.532c0.306-0.169,0.476-0.51,0.561-0.849
			c-0.171,0.112-0.375,0.188-0.612,0.15c-0.254-0.075-0.458-0.377-0.626-0.604c-0.34,0.377-0.695,0.718-1.17,0.736
			c-0.39,0.057-0.611-0.416-0.746-0.736c-0.237,0.454-0.645,0.681-1.018,0.831c0.289,0.246,0.61,0.417,0.95,0.529
			c0.406,0.114,0.746-0.075,1-0.415c0.102,0.246,0.339,0.454,0.543,0.566v0.756c-0.136-0.076-0.289-0.132-0.441-0.17
			c-0.865-0.113-1.713,0.264-2.119,1.152c-0.289,0.511-0.271,1.343,0,1.853c0.271,0.454,0.695,0.624,1.136,0.699l1.441-1.114
			l0.136,0.396c0.152,0.358,0.492,0.643,0.864,0.643l0.966-0.964C81.719,106.184,81.515,106.127,81.346,105.958"/>
		<path clip-path="url(#SVGID_4_)" fill="#FFFFFF" d="M51.602,106.335l-0.253,0.095c-0.187-0.378-0.543-0.682-0.916-0.737
			c-0.526-0.057-0.917,0.226-1.339,0.415c0.542-0.641,1.186-1.265,1.848-1.757h0.661V106.335z M49.974,104.162v-1.813l0.304-0.058
			c0.29,0.359,0.646,0.624,1.104,0.529c0.373-0.075,0.695-0.321,0.983-0.604c-0.423,0.699-1,1.341-1.594,1.927
			C50.518,104.181,50.245,104.162,49.974,104.162 M52.958,103.804l-1.509-0.02c0.56-0.623,1.085-1.266,1.356-2.021
			c0.084-0.094-0.017-0.17-0.084-0.208c-0.084,0.17-0.203,0.359-0.373,0.415c-0.458,0.114-0.814-0.189-1.119-0.51
			c-0.695,0.624-1.594,0.944-2.544,0.736c0.136,0.169,0.204,0.379,0.238,0.586c-0.017,0.661,0.152,1.455-0.238,1.946l1.391,0.019
			c-0.662,0.644-1.339,1.38-1.747,2.192c-0.118,0.132,0.085,0.132,0.136,0.189c0.102-0.17,0.288-0.397,0.475-0.473
			c0.559-0.151,0.983,0.284,1.425,0.604c0.695-0.699,1.645-0.944,2.594-0.699c-0.118-0.208-0.22-0.435-0.237-0.699
			C52.755,105.182,52.535,104.333,52.958,103.804"/>
	</g>
	<path fill="#FFFFFF" d="M273.018,30.025l-8.362,4.955c-1.565-2.713-3.054-4.482-4.47-5.309c-1.475-0.944-3.377-1.416-5.708-1.416
		c-2.859,0-5.233,0.812-7.121,2.435c-1.888,1.594-2.832,3.599-2.832,6.018c0,3.336,2.485,6.021,7.457,8.055l6.834,2.787
		c5.561,2.243,9.629,4.981,12.204,8.21c2.572,3.231,3.86,7.19,3.86,11.882c0,6.286-2.101,11.477-6.296,15.579
		c-4.224,4.131-9.462,6.196-15.716,6.196c-5.929,0-10.826-1.758-14.688-5.276c-3.806-3.517-6.18-8.46-7.124-14.831l10.441-2.301
		c0.472,4.013,1.298,6.784,2.478,8.318c2.124,2.95,5.219,4.425,9.292,4.425c3.214,0,5.882-1.073,8.006-3.226
		c2.124-2.149,3.186-4.875,3.186-8.176c0-1.326-0.187-2.542-0.555-3.646c-0.369-1.105-0.944-2.119-1.725-3.048
		c-0.784-0.927-1.793-1.796-3.033-2.607c-1.238-0.81-2.713-1.584-4.422-2.319l-6.595-2.743c-9.351-3.945-14.025-9.72-14.025-17.322
		c0-5.125,1.949-9.413,5.847-12.861c3.903-3.475,8.773-5.214,14.616-5.214C262.443,18.59,268.592,22.404,273.018,30.025"/>
	<path fill="#FFFFFF" d="M316.404,51.296h3.285c9.79,0,14.687-3.732,14.687-11.196c0-6.989-4.765-10.486-14.288-10.486h-3.684
		V51.296z M329.292,59.12l21.218,29.089h-12.638l-19.602-27.961h-1.867v27.961h-10.269V19.95h12.108
		c9.044,0,15.578,1.697,19.6,5.084c4.433,3.773,6.651,8.754,6.651,14.942c0,4.835-1.396,8.991-4.179,12.468
		C337.53,55.923,333.856,58.148,329.292,59.12"/>
	<rect x="231.057" y="18.59" fill="none" width="254.226" height="85"/>
	<polygon fill="#FFFFFF" points="393.812,29.614 366.426,29.614 366.426,46.076 393.015,46.076 393.015,55.741 366.426,55.741 
		366.426,78.544 393.812,78.544 393.812,88.21 356.157,88.21 356.157,19.949 393.812,19.949 	"/>
	<polygon fill="#FFFFFF" points="440.515,29.614 413.13,29.614 413.13,46.076 439.718,46.076 439.718,55.741 413.13,55.741 
		413.13,78.544 440.515,78.544 440.515,88.21 402.86,88.21 402.86,19.949 440.515,19.949 	"/>
	<polygon fill="#FFFFFF" points="443.642,19.95 443.642,29.614 459.349,29.614 459.349,88.209 469.618,88.209 469.618,29.614 
		485.282,29.614 485.282,19.95 	"/>
	<polygon fill="#FFFFFF" points="291.819,26.267 291.819,65.305 285.023,65.305 285.023,26.267 274.552,26.267 274.552,19.772 
		302.261,19.772 302.261,26.267 	"/>
	<path fill="#FFFFFF" d="M284.872,71.768c1.075-0.024,1.934-0.785,1.934-1.897c0-0.99-0.822-1.775-1.801-1.775
		c-1.052,0-1.703,0.689-1.764,1.728h-0.58c0.096-1.377,0.942-2.272,2.356-2.272c1.304,0,2.368,1.027,2.368,2.345
		c0,0.93-0.52,1.74-1.365,2.113c0.918,0.351,1.498,1.257,1.498,2.211c0,1.51-1.148,2.682-2.67,2.682
		c-1.365,0-2.538-0.954-2.525-2.356h0.58c0.097,1.051,0.821,1.812,1.933,1.812c1.148,0,2.103-0.966,2.103-2.102
		c0-1.184-0.931-1.945-2.066-1.945V71.768z"/>
	<rect x="231.057" y="18.59" fill="none" width="254.226" height="85"/>
	<path fill="#FFFFFF" d="M293.655,69.122h-0.073l-3.78,5.316v0.073h3.854V69.122z M295.515,74.511v0.543h-1.281v1.727h-0.58v-1.727
		h-4.917v-0.073l5.424-7.622h0.073v7.152H295.515z"/>
	<polygon fill="#FFFFFF" points="284.231,87.655 283.651,87.655 283.651,79.09 281.295,79.09 281.295,78.546 286.587,78.546 
		286.587,79.09 284.231,79.09 	"/>
	<polygon fill="#FFFFFF" points="293.63,82.412 293.63,78.546 294.21,78.546 294.21,87.655 293.63,87.655 293.63,82.956 
		288.097,82.956 288.097,87.655 287.517,87.655 287.517,78.546 288.097,78.546 288.097,82.412 	"/>
	<polygon fill="#FFFFFF" points="348.793,100.327 348.247,100.327 348.247,95.253 347.629,95.253 347.629,94.746 348.247,94.746 
		348.247,92.753 348.793,92.753 348.793,94.746 349.775,94.746 349.775,95.253 348.793,95.253 	"/>
	<path fill="#FFFFFF" d="M351.145,90.36v5.255h0.023c0.327-0.616,0.933-0.99,1.661-0.99c1.441,0,1.842,0.894,1.842,2.332v3.37
		h-0.545v-3.37c0-1.003-0.121-1.824-1.346-1.824c-1.406,0-1.636,1.305-1.636,2.44v2.754h-0.546V90.36H351.145z"/>
	<path fill="#FFFFFF" d="M357.169,100.327h-0.546v-5.581h0.546V100.327z M357.4,92.885c0,0.278-0.219,0.496-0.498,0.496
		s-0.498-0.218-0.498-0.496c0-0.266,0.219-0.496,0.498-0.496S357.4,92.619,357.4,92.885"/>
	<path fill="#FFFFFF" d="M359.679,95.472h0.025c0.218-0.509,0.617-0.847,1.211-0.847c0.219,0,0.4,0.048,0.595,0.132l-0.292,0.484
		c-0.134-0.072-0.241-0.108-0.388-0.108c-1.225,0-1.151,1.522-1.151,2.343v2.852h-0.546v-5.581h0.546V95.472z"/>
	<rect x="231.057" y="18.59" fill="none" width="254.226" height="85"/>
	<polygon fill="#FFFFFF" points="363.228,100.327 362.683,100.327 362.683,95.253 362.065,95.253 362.065,94.746 362.683,94.746 
		362.683,92.753 363.228,92.753 363.228,94.746 364.21,94.746 364.21,95.253 363.228,95.253 	"/>
	<polygon fill="#FFFFFF" points="369.12,94.746 366.974,99.796 364.585,94.746 364.016,94.746 366.707,100.424 365.362,103.59 
		365.918,103.59 369.677,94.746 	"/>
	<path fill="#FFFFFF" d="M371.036,100.327h-0.547v-5.074h-0.619v-0.507h0.619v-2.501c0-0.411,0.012-1.003,0.219-1.366
		c0.254-0.446,0.738-0.676,1.248-0.676c0.17,0,0.328,0.023,0.484,0.085v0.494c-0.145-0.023-0.291-0.071-0.447-0.071
		c-0.947,0-0.957,0.942-0.957,1.644v2.392h1.404v0.507h-1.404V100.327z"/>
	<path fill="#FFFFFF" d="M373.276,97.549c0,1.268,1.006,2.392,2.328,2.392c1.369,0,2.436-1.038,2.436-2.392
		c0-1.379-1.053-2.416-2.436-2.416C374.271,95.133,373.276,96.256,373.276,97.549 M378.587,97.537c0,1.654-1.297,2.911-2.945,2.911
		c-1.613,0-2.91-1.317-2.91-2.899c0-1.608,1.285-2.924,2.91-2.924C377.29,94.625,378.587,95.883,378.587,97.537"/>
	<path fill="#FFFFFF" d="M383.726,94.746v3.347c0,0.568,0.014,1.135-0.338,1.607c-0.389,0.507-1.041,0.748-1.674,0.748
		c-0.629,0-1.283-0.241-1.672-0.748c-0.352-0.473-0.34-1.039-0.34-1.607v-3.347h0.547v3.153c0,1.074,0.121,2.041,1.465,2.041
		c1.346,0,1.469-0.967,1.469-2.041v-3.153H383.726z"/>
	<path fill="#FFFFFF" d="M385.935,95.472h0.025c0.217-0.509,0.617-0.847,1.211-0.847c0.219,0,0.4,0.048,0.594,0.132l-0.289,0.484
		c-0.137-0.072-0.246-0.108-0.389-0.108c-1.227,0-1.152,1.522-1.152,2.343v2.852h-0.547v-5.581h0.547V95.472z"/>
	<rect x="231.057" y="18.59" fill="none" width="254.226" height="85"/>
	<polygon fill="#FFFFFF" points="389.481,100.327 388.937,100.327 388.937,95.253 388.319,95.253 388.319,94.746 388.937,94.746 
		388.937,92.753 389.481,92.753 389.481,94.746 390.466,94.746 390.466,95.253 389.481,95.253 	"/>
	<path fill="#FFFFFF" d="M391.835,90.36v5.255h0.023c0.328-0.616,0.932-0.99,1.66-0.99c1.443,0,1.844,0.894,1.844,2.332v3.37h-0.547
		v-3.37c0-1.003-0.119-1.824-1.344-1.824c-1.408,0-1.637,1.305-1.637,2.44v2.754h-0.547V90.36H391.835z"/>
	<path fill="#FFFFFF" d="M399.458,95.761c-0.18-0.387-0.545-0.628-0.98-0.628c-0.473,0-0.957,0.386-0.957,0.869
		c0,1.342,2.727,0.689,2.727,2.707c0,1.026-0.799,1.739-1.805,1.739c-0.936,0-1.697-0.568-1.93-1.475l0.533-0.168
		c0.207,0.664,0.654,1.135,1.396,1.135c0.703,0,1.26-0.556,1.26-1.257c0-0.688-0.533-0.906-1.092-1.099
		c-0.764-0.278-1.637-0.604-1.637-1.546c0-0.847,0.717-1.414,1.527-1.414c0.57,0,1.188,0.374,1.432,0.894L399.458,95.761z"/>
	<rect x="231.057" y="18.59" fill="none" width="254.226" height="85"/>
	<polygon fill="#FFFFFF" points="402.138,100.327 401.593,100.327 401.593,95.253 400.976,95.253 400.976,94.746 401.593,94.746 
		401.593,92.753 402.138,92.753 402.138,94.746 403.12,94.746 403.12,95.253 402.138,95.253 	"/>
	<path fill="#FFFFFF" d="M404.491,95.472h0.025c0.217-0.509,0.617-0.847,1.211-0.847c0.219,0,0.398,0.048,0.594,0.132l-0.291,0.484
		c-0.133-0.072-0.242-0.108-0.389-0.108c-1.223,0-1.15,1.522-1.15,2.343v2.852h-0.547v-5.581h0.547V95.472z"/>
	<path fill="#FFFFFF" d="M422.276,95.446h0.023c0.254-0.519,0.812-0.82,1.406-0.82c0.715,0,1.285,0.362,1.576,1.014
		c0.303-0.664,0.92-1.014,1.637-1.014c1.441,0,1.732,0.978,1.732,2.197v3.504h-0.545v-3.575c0-0.858-0.133-1.619-1.201-1.619
		c-1.162,0-1.441,1.015-1.441,1.98v3.214h-0.545v-3.441c0-0.871-0.158-1.753-1.248-1.753c-1.178,0-1.395,1.22-1.395,2.125v3.069
		h-0.547v-5.581h0.547V95.446z"/>
	<path fill="#FFFFFF" d="M430.399,97.5c0,1.28,0.848,2.44,2.205,2.44c1.43,0,2.205-1.16,2.205-2.5c0-1.293-0.885-2.308-2.242-2.308
		C431.282,95.133,430.399,96.292,430.399,97.5 M435.319,100.327h-0.545v-1.003h-0.025c-0.412,0.713-1.309,1.123-2.133,1.123
		c-1.697,0-2.766-1.316-2.766-2.947c0-1.632,1.057-2.875,2.74-2.875c0.861,0,1.686,0.387,2.158,1.087h0.025v-0.966h0.545V100.327z"
		/>
	<path fill="#FFFFFF" d="M437.149,97.5c0,1.28,0.848,2.44,2.207,2.44c1.43,0,2.205-1.16,2.205-2.5c0-1.294-0.885-2.308-2.242-2.308
		C438.034,95.133,437.149,96.292,437.149,97.5 M442.071,100.062c0,0.858-0.023,1.631-0.557,2.368
		c-0.523,0.713-1.348,1.075-2.23,1.075c-1.469,0-2.68-0.857-2.766-2.392h0.545c0.061,1.16,1.043,1.884,2.17,1.884
		c0.703,0,1.385-0.241,1.795-0.833c0.438-0.641,0.498-1.365,0.498-2.116V99.36h-0.025c-0.498,0.665-1.334,1.088-2.182,1.088
		c-1.625,0-2.715-1.365-2.715-2.925c0-1.606,1.15-2.897,2.787-2.897c0.91,0,1.59,0.386,2.109,1.086h0.025v-0.966h0.545V100.062z"/>
	<path fill="#FFFFFF" d="M443.815,97.5c0,1.28,0.85,2.44,2.209,2.44c1.43,0,2.203-1.16,2.203-2.5c0-1.293-0.883-2.308-2.24-2.308
		C444.7,95.133,443.815,96.292,443.815,97.5 M448.739,100.327h-0.547v-1.003h-0.023c-0.412,0.713-1.311,1.123-2.135,1.123
		c-1.695,0-2.764-1.316-2.764-2.947c0-1.632,1.057-2.875,2.74-2.875c0.861,0,1.686,0.387,2.158,1.087h0.023v-0.966h0.547V100.327z"
		/>
	<rect x="231.057" y="18.59" fill="none" width="254.226" height="85"/>
	<polygon fill="#FFFFFF" points="455.286,99.82 455.286,100.327 449.587,100.327 454.169,95.253 450.327,95.253 450.327,94.746 
		455.31,94.746 450.739,99.82 	"/>
	<path fill="#FFFFFF" d="M456.935,100.327h-0.547v-5.581h0.547V100.327z M457.165,92.885c0,0.278-0.219,0.496-0.498,0.496
		s-0.498-0.218-0.498-0.496c0-0.266,0.219-0.496,0.498-0.496S457.165,92.619,457.165,92.885"/>
	<path fill="#FFFFFF" d="M459.442,95.615h0.025c0.326-0.616,0.934-0.99,1.662-0.99c1.441,0,1.842,0.894,1.842,2.332v3.37h-0.545
		v-3.37c0-1.004-0.123-1.824-1.348-1.824c-1.406,0-1.637,1.305-1.637,2.44v2.754h-0.543v-5.581h0.543V95.615z"/>
	<path fill="#FFFFFF" d="M469.032,97.076c-0.135-1.025-0.982-1.943-2.135-1.943c-1.139,0-2.084,0.894-2.18,1.943H469.032z
		 M464.718,97.585c-0.037,1.414,0.945,2.355,2.24,2.355c0.873,0,1.576-0.519,1.977-1.269l0.461,0.266
		c-0.508,0.968-1.406,1.511-2.51,1.511c-1.66,0-2.715-1.341-2.715-2.925c0-1.558,1.08-2.898,2.715-2.898
		c1.697,0,2.703,1.354,2.691,2.96H464.718z"/>
	<path fill="#FFFFFF" d="M411.511,97.076c-0.133-1.025-0.982-1.943-2.135-1.943c-1.141,0-2.084,0.894-2.182,1.943H411.511z
		 M407.194,97.585c-0.037,1.414,0.945,2.355,2.242,2.355c0.873,0,1.576-0.519,1.977-1.269l0.461,0.266
		c-0.51,0.968-1.406,1.511-2.51,1.511c-1.66,0-2.715-1.341-2.715-2.925c0-1.558,1.078-2.898,2.715-2.898
		c1.697,0,2.703,1.354,2.691,2.96H407.194z"/>
	<path fill="#FFFFFF" d="M417.571,97.076c-0.133-1.025-0.982-1.943-2.133-1.943c-1.141,0-2.086,0.894-2.182,1.943H417.571z
		 M413.257,97.585c-0.037,1.414,0.943,2.355,2.242,2.355c0.871,0,1.576-0.519,1.975-1.269l0.461,0.266
		c-0.508,0.968-1.406,1.511-2.51,1.511c-1.66,0-2.715-1.341-2.715-2.925c0-1.558,1.08-2.898,2.715-2.898
		c1.697,0,2.705,1.354,2.691,2.96H413.257z"/>
	<rect x="231.057" y="18.59" fill="none" width="254.226" height="85"/>
	<polygon fill="#FFFFFF" points="419.923,100.327 419.378,100.327 419.378,95.253 418.761,95.253 418.761,94.746 419.378,94.746 
		419.378,92.753 419.923,92.753 419.923,94.746 420.905,94.746 420.905,95.253 419.923,95.253 	"/>
	<path fill="#FFFFFF" d="M712.2,55.564c0,0,0.171-3.999-2.574-6.576c-2.743-2.576-5.688-4.596-5.688-4.596
		s-10.556-5.596-12.27-6.602s-19.679-7.378-24.726-8.803c-5.047-1.425-17.765-4.373-17.765-4.373l20.182,34.816l23.339,3.254
		l12.047-2.306L712.2,55.564z"/>
	<path fill="#FFFFFF" d="M570.838,52.688c0,0-2.111-6.138,10.849-12.042s30.499-9.333,30.499-9.333s18.512-3.165,24.196-3.296
		l16.464-2.718l21.338,34.492l-44.785,7.122l-37.513-1.583l-18.513-8.042L570.838,52.688z"/>
	<path fill="#9E9E9E" d="M714.056,60.947c-0.146,5.893-33.665,9.818-74.868,8.767c-41.201-1.052-74.483-6.681-74.337-12.574
		c0.146-5.894,33.665-9.819,74.866-8.768C680.92,49.424,714.201,55.053,714.056,60.947z"/>
	<path fill="#434343" d="M569.084,49.137c0,0,1.502,6.352,2.504,7.114c0.806,0.613,3.26,10.944,51.086,9.91
		c11.642-0.252,48.582-5.59,48.582-5.59l-2.047-5.634c0,0-36.018,6.513-56.303,6.258C585.141,60.847,573.591,57.521,569.084,49.137z
		"/>
	<path fill="#434343" d="M671.256,60.57l2.671-5.372c16.014,2.383,14.108,2.577,21.872,3.339c7.232,0.71,16.819,1.516,19.532-1.524
		c0,0-3.005,5.335-5.759,6.098C706.816,63.874,708.319,64.635,671.256,60.57z"/>
	<path fill="#8C929C" d="M669.003,54.981l2.253,5.589l2.671-5.372l-2.432-6.214l-2.481,1.356c0,0-6.109-14.915-13.747-23.632v-1.937
		l-2.04-2.761l-1.438,2.873"/>
	<path fill="#231D26" d="M633.576,39.025c-0.223-1.385-4.387-1.848-9.301-1.035c-4.914,0.814-8.718,2.596-8.495,3.98
		s4.388,1.848,9.302,1.035C629.995,42.192,633.799,40.41,633.576,39.025z"/>
	<path fill="#231D26" d="M657.365,39.788c-0.222-1.385-4.387-1.848-9.301-1.035s-8.717,2.595-8.494,3.98
		c0.223,1.385,4.387,1.849,9.301,1.035S657.588,41.173,657.365,39.788z"/>
	<path fill="#231D26" d="M649.687,31.94c-0.223-1.385-4.388-1.848-9.301-1.035c-4.914,0.813-8.718,2.596-8.495,3.98
		c0.223,1.385,4.387,1.849,9.301,1.035C646.106,35.107,649.908,33.326,649.687,31.94z"/>
	<path fill="#231D26" d="M663.629,38.365c0,0,7.445,0.461,7.723-0.75c0.312-1.367-3.367-3.398-8.219-4.538
		c-0.82-0.192-2.389-0.465-2.389-0.465l-1.85,3.588l-2.292-3.292c0,0-2.684-0.003-2.817,0.582c-0.256,1.121,5.3,4.067,5.3,4.067
		l2.315,3.924L663.629,38.365z"/>
	<ellipse fill="#FCFDFF" cx="621.059" cy="49.965" rx="43.961" ry="5.523"/>
	<path fill="#BFBFBF" d="M652.58,26.637c0,0-72.003,7.808-65.854,21.573c6.151,13.766,77.603,0.847,77.603,0.847l3.054,5.611
		c0,0-87.5,19.083-94.28-6.3c0,0,4.035-15.83,71.147-24.272l7.538,0.787l0.948,1.723"/>
	<path fill="#DEDEDE" d="M652.037,25.268c0,0-74.474,8.22-67.982,22.748c6.49,14.528,81.834,0.652,81.834,0.652l3.114,6.312
		c0,0-92.933,19.873-100.089-6.917c0,0,4.258-16.707,75.089-25.617l6.201-0.49"/>
	<path fill="#BFBFBF" d="M675.299,55.185c0,0,41.765,9.484,38.221-1.148c-3.545-10.632-53.883-28.532-56.248-29.238l-2.041-0.827
		l0.036,2.737l24.173,9.629c0,0,21.826,9.169,25.878,15.415c4.053,6.246-32.264-2.304-32.264-2.304L675.299,55.185z"/>
	<path fill="#DEDEDE" d="M673.927,55.199c0,0,45.248,10.275,41.409-1.244c-3.841-11.519-58.377-30.913-60.939-31.677l-1.17-0.268
		l2.04,2.761c0,0,47.831,19.707,52.222,26.473s-35.993-2.26-35.993-2.26L673.927,55.199z"/>
	<text transform="matrix(1.1861 0 0 1 566.1895 93.4087)" fill="#FFFFFF" font-family="'AachenBold'" font-size="31.3518">under</text>
	<text transform="matrix(1 0 0 1 679.9609 92.9185)" fill="none" stroke="#FFFFFF" font-family="'AachenBold'" font-size="22.4683">the</text>
	<text transform="matrix(1 0 0 1 719.1768 94.6333)" fill="#FFFFFF" font-family="'AachenBold'" font-size="47.626">button</text>
</g>
</svg>
