<?xml version="1.0" encoding="utf-8"?>
<!-- Generator: Adobe Illustrator 16.0.0, SVG Export Plug-In . SVG Version: 6.00 Build 0)  -->
<!DOCTYPE svg PUBLIC "-//W3C//DTD SVG 1.1//EN" "http://www.w3.org/Graphics/SVG/1.1/DTD/svg11.dtd">
<svg version="1.1" id="Layer_1" xmlns="http://www.w3.org/2000/svg" xmlns:xlink="http://www.w3.org/1999/xlink" x="0px" y="0px"
	 width="510px" height="244px" viewBox="0 0 510 244" enable-background="new 0 0 510 244" xml:space="preserve">
<polyline fill="#848380" points="469.094,107.133 470.819,95.912 473.04,96.035 474.025,106.64 "/>
<polyline fill="none" stroke="#000000" stroke-miterlimit="10" points="469.094,107.133 470.819,95.912 473.04,96.035 
	474.025,106.64 "/>
<polyline fill="#374254" points="463.028,112.682 463.028,108.613 473.452,106.76 474.126,106.64 474.619,112.312 "/>
<polyline fill="none" stroke="#000000" stroke-miterlimit="10" points="463.028,112.682 463.028,108.613 473.452,106.76 
	474.126,106.64 474.619,112.312 "/>
<polyline fill="#4D4B43" points="472.167,184.917 474.847,106.879 480.191,107.503 487.694,111.895 486.462,187.608 "/>
<polyline fill="none" stroke="#000000" stroke-miterlimit="10" points="472.167,184.917 474.847,106.879 480.191,107.503 
	487.694,111.895 486.462,187.608 "/>
<polyline fill="#968B75" points="445.583,185.167 446.5,113.5 464.901,112.312 473.286,112.312 476.833,115.833 476.916,186.083 "/>
<polyline fill="none" stroke="#000000" stroke-miterlimit="10" points="445.583,185.167 446.5,113.5 464.901,112.312 
	473.286,112.312 476.833,115.833 476.916,186.083 "/>
<polyline fill="#A9D3E0" points="208.5,59 231.75,59 230.857,30.68 215.566,27.72 "/>
<polyline fill="none" stroke="#000000" stroke-miterlimit="10" points="208.5,59 231.75,59 230.857,30.68 215.566,27.72 "/>
<polyline fill="#A9D3E0" points="202.372,46.71 202.249,28.46 215.566,27.72 216.06,46.587 "/>
<polyline fill="none" stroke="#000000" stroke-miterlimit="10" points="202.372,46.71 202.249,28.46 215.566,27.72 216.06,46.587 
	"/>
<polyline fill="#83C4D8" points="218.25,172.75 234,144 233.077,47.697 219.266,46.464 "/>
<polyline fill="none" stroke="#000000" stroke-miterlimit="10" points="218.25,172.75 234,144 233.077,47.697 219.266,46.464 "/>
<path fill="#83C4D8" d="M200.75,183.75c0.123-0.617-2.44-138.54-2.44-138.54l21.456-0.246L217.5,191.5"/>
<path fill="none" stroke="#000000" stroke-miterlimit="10" d="M200.75,183.75c0.123-0.617-2.44-138.54-2.44-138.54l21.456-0.246
	L217.5,191.5"/>
<polygon fill="#83C4D8" points="221.979,54.355 221.731,71.619 231.104,72.605 230.733,55.342 "/>
<polygon fill="none" stroke="#000000" stroke-miterlimit="10" points="221.979,54.355 221.731,71.619 231.104,72.605 
	230.733,55.342 "/>
<polyline fill="#83C4D8" points="229.131,71.742 229.253,57.068 221.979,56.575 "/>
<polyline fill="none" stroke="#000000" stroke-miterlimit="10" points="229.131,71.742 229.253,57.068 221.979,56.575 "/>
<polyline fill="#565756" points="149.312,109.438 149.472,85.677 153.171,85.923 152.678,76.305 154.65,76.305 154.65,72.358 
	173.75,76.75 173.5,110.75 "/>
<polyline fill="none" stroke="#000000" stroke-miterlimit="10" points="149.312,109.438 149.472,85.677 153.171,85.923 
	152.678,76.305 154.65,76.305 154.65,72.358 173.75,76.75 173.5,110.75 "/>
<polyline fill="#406192" points="116.178,83.087 118.398,80.867 114.698,76.798 111.739,79.018 92.872,77.168 88.803,72.359 
	84.734,75.688 87.693,80.867 "/>
<polyline fill="none" stroke="#000000" stroke-miterlimit="10" points="116.178,83.087 118.398,80.867 114.698,76.798 
	111.739,79.018 92.872,77.168 88.803,72.359 84.734,75.688 87.693,80.867 "/>
<polyline fill="#586A84" points="95.092,80.498 125.057,84.566 123,167.5 90.25,186.5 "/>
<polyline fill="none" stroke="#000000" stroke-miterlimit="10" points="95.092,80.498 125.057,84.566 123,167.5 90.25,186.5 "/>
<polyline fill="#374254" points="70,195.25 71.416,120.08 75.485,119.71 75.855,80.497 95.092,80.497 93.242,174.09 "/>
<polyline fill="none" stroke="#000000" stroke-miterlimit="10" points="70,195.25 71.416,120.08 75.485,119.71 75.855,80.497 
	95.092,80.497 93.242,174.09 "/>
<polyline fill="#586A84" points="127,178.5 127.74,126.155 99.255,124.305 98.145,178.315 "/>
<polyline fill="none" stroke="#000000" stroke-miterlimit="10" points="127,178.5 127.74,126.155 99.255,124.305 98.145,178.315 "/>
<polyline fill="#A9D6F3" points="360.457,51.026 361.812,25.007 363.17,51.026 "/>
<polyline fill="none" stroke="#000000" stroke-miterlimit="10" points="360.457,51.026 361.812,25.007 363.17,51.026 "/>
<polyline fill="#A2BBE1" points="342.577,122.793 342.454,95.911 344.303,94.185 344.797,81.977 348.496,75.318 349.976,70.139 
	353.675,64.96 353.675,60.521 357.498,54.232 361.689,49.053 366.253,53.986 374.391,73.839 378.83,94.555 381.42,94.555 
	381.375,126.75 "/>
<polyline fill="none" stroke="#000000" stroke-miterlimit="10" points="342.577,122.793 342.454,95.911 344.303,94.185 
	344.797,81.977 348.496,75.318 349.976,70.139 353.675,64.96 353.675,60.521 357.498,54.232 361.689,49.053 366.253,53.986 
	374.391,73.839 378.83,94.555 381.42,94.555 381.375,126.75 "/>
<polyline fill="#344151" points="376.875,115.625 383.485,115.279 385,127.751 "/>
<polyline fill="none" stroke="#000000" stroke-miterlimit="10" points="376.875,115.625 383.485,115.279 385,127.751 "/>
<polyline fill="#344151" points="379.446,118.985 378.707,114.916 367.731,114.792 367.238,119.478 "/>
<polyline fill="none" stroke="#000000" stroke-miterlimit="10" points="379.446,118.985 378.707,114.916 367.731,114.792 
	367.238,119.478 "/>
<polyline fill="#577091" points="360.25,127.375 360.087,81.854 353.181,75.812 346.769,83.21 346.399,123.656 "/>
<polyline fill="none" stroke="#000000" stroke-miterlimit="10" points="360.25,127.375 360.087,81.854 353.181,75.812 
	346.769,83.21 346.399,123.656 "/>
<polyline fill="none" stroke="#000000" stroke-miterlimit="10" points="378.83,94.555 374.391,87.403 371.191,93.092 
	371.191,114.795 "/>
<polyline fill="none" stroke="#000000" stroke-miterlimit="10" points="371.925,67.427 365.759,78.524 366.006,118.478 "/>
<polyline fill="#4F7DB5" points="363.293,118.601 363.046,76.798 353.675,64.96 356.634,60.521 364.28,70.386 369.75,62.875 
	371.75,68.25 365.759,78.524 366.006,118.478 "/>
<polyline fill="none" stroke="#000000" stroke-miterlimit="10" points="363.293,118.601 363.046,76.798 353.675,64.96 
	356.634,60.521 364.28,70.386 369.75,62.875 371.75,68.25 365.759,78.524 366.006,118.478 "/>
<polyline fill="#5C8EBC" points="362.923,58.918 366.252,53.986 367.375,57.5 363.54,62.987 356.75,55.25 359.125,52.875 "/>
<polyline fill="none" stroke="#000000" stroke-miterlimit="10" points="362.923,58.918 366.252,53.986 367.375,57.5 363.54,62.987 
	356.75,55.25 359.125,52.875 "/>
<polyline fill="none" stroke="#000000" stroke-miterlimit="10" points="358.607,52.629 362.923,58.918 366.252,53.985 "/>
<polyline fill="#A5C8D2" points="258.5,120.25 274.646,107.979 273.276,65.207 261.438,51.643 "/>
<polyline fill="none" stroke="#000000" stroke-miterlimit="10" points="258.5,120.25 274.646,107.979 273.276,65.207 
	261.438,51.643 "/>
<polyline fill="#A5C8D2" points="264.75,123.5 263.411,69.399 263.411,62.987 261.438,51.643 248.86,65.453 249.107,69.893 "/>
<polyline fill="none" stroke="#000000" stroke-miterlimit="10" points="264.75,123.5 263.411,69.399 263.411,62.987 261.438,51.643 
	248.86,65.453 249.107,69.893 "/>
<polyline fill="#A5C8D2" points="249.107,64.467 263.411,62.987 273.276,65.207 "/>
<polyline fill="none" stroke="#000000" stroke-miterlimit="10" points="249.107,64.467 263.411,62.987 273.276,65.207 "/>
<polyline fill="#BBDDE5" points="260.698,97.514 261.438,73.098 259.958,69.646 241.462,70.139 243.558,75.318 242.571,136.973 "/>
<polyline fill="none" stroke="#000000" stroke-miterlimit="10" points="260.698,97.514 261.438,73.098 259.958,69.646 
	241.462,70.139 243.558,75.318 242.571,136.973 "/>
<polyline fill="#D6EEF5" points="266.864,97.514 266.864,72.605 268.59,69.893 280.675,72.605 278.455,76.798 278.579,97.761 "/>
<polyline fill="none" stroke="#000000" stroke-miterlimit="10" points="266.864,97.514 266.864,72.605 268.59,69.893 
	280.675,72.605 278.455,76.798 278.579,97.761 "/>
<polyline fill="none" stroke="#000000" stroke-miterlimit="10" points="268.59,69.893 263.411,69.4 259.958,69.646 "/>
<polyline fill="#55728E" points="244.25,149.75 244.914,98.501 276.235,97.021 297.198,101.214 298,146 "/>
<polyline fill="none" stroke="#000000" stroke-miterlimit="10" points="244.25,149.75 244.914,98.501 276.235,97.021 
	297.198,101.214 298,146 "/>
<line fill="#55728E" x1="275.625" y1="160.25" x2="276.235" y2="97.021"/>
<line fill="none" stroke="#000000" stroke-miterlimit="10" x1="275.625" y1="160.25" x2="276.235" y2="97.021"/>
<polyline fill="#D9D8D8" points="177.5,105.5 204.75,106.75 206.195,81.237 201.016,68.906 "/>
<polyline fill="none" stroke="#000000" stroke-miterlimit="10" points="177.5,105.5 204.75,106.75 206.195,81.237 201.016,68.906 
	"/>
<path fill="#B7B7B8" d="M165.009,107.873l0.74-8.138l2.713-0.494l0.493-17.757c0,0,7.522-10.111,7.399-11.098l24.662-1.479
	l-6.906,11.591l-0.61,39.253"/>
<path fill="none" stroke="#000000" stroke-miterlimit="10" d="M165.009,107.873l0.74-8.138l2.713-0.494l0.493-17.757
	c0,0,7.522-10.111,7.399-11.098l24.662-1.479l-6.906,11.591l-0.61,39.253"/>
<line fill="none" stroke="#000000" stroke-miterlimit="10" x1="194.11" y1="80.498" x2="168.955" y2="81.483"/>
<polyline fill="#134D60" points="231.5,169.75 229.624,123.163 223.952,115.764 217.293,115.518 203.496,115.688 200.25,190.5 "/>
<polyline fill="none" stroke="#000000" stroke-miterlimit="10" points="231.5,169.75 229.624,123.163 223.952,115.764 
	217.293,115.518 203.496,115.688 200.25,190.5 "/>
<polyline fill="#383735" points="146.75,114.25 146.512,108.366 155.144,107.626 159.813,112.688 "/>
<polyline fill="none" stroke="#000000" stroke-miterlimit="10" points="146.75,114.25 146.512,108.366 155.144,107.626 
	159.813,112.688 "/>
<polyline fill="#6F808E" points="185.25,172 186.958,99.981 209.154,100.474 208.168,160.156 "/>
<polyline fill="none" stroke="#000000" stroke-miterlimit="10" points="185.25,172 186.958,99.981 209.154,100.474 208.168,160.156 
	"/>
<polyline fill="#383735" points="148.25,121.5 182.25,115.5 181.039,109.845 154.625,107.875 "/>
<polyline fill="none" stroke="#000000" stroke-miterlimit="10" points="148.25,121.5 182.25,115.5 181.039,109.845 154.625,107.875 
	"/>
<polyline fill="#968B75" points="161,168 192.25,161 190.401,115.285 159.327,112.325 "/>
<polyline fill="none" stroke="#000000" stroke-miterlimit="10" points="161,168 192.25,161 190.401,115.285 159.327,112.325 "/>
<polyline fill="#CEB289" points="133.935,155.964 134.92,113.792 160.077,111.325 165.25,179.5 "/>
<polyline fill="none" stroke="#000000" stroke-miterlimit="10" points="133.935,155.964 134.92,113.792 160.077,111.325 
	165.25,179.5 "/>
<line fill="#134D60" x1="216.553" y1="137.96" x2="217.293" y2="115.517"/>
<line fill="none" stroke="#000000" stroke-miterlimit="10" x1="216.553" y1="137.96" x2="217.293" y2="115.517"/>
<polyline fill="#968B75" points="337.151,149.305 355.812,149.26 354.375,124 336.658,120.697 "/>
<polyline fill="none" stroke="#000000" stroke-miterlimit="10" points="337.151,149.305 355.812,149.26 354.375,124 
	336.658,120.697 "/>
<polyline fill="#A79B8C" points="311.875,161.875 311.874,126.501 313.229,126.122 313.475,120.943 326.546,120.697 326.546,118.97 
	331.725,119.464 331.232,120.45 336.658,120.697 336.658,146.839 "/>
<polyline fill="none" stroke="#000000" stroke-miterlimit="10" points="311.875,161.875 311.874,126.501 313.229,126.122 
	313.475,120.943 326.546,120.697 326.546,118.97 331.725,119.464 331.232,120.45 336.658,120.697 336.658,146.839 "/>
<polyline fill="#344151" points="383.516,118.23 396.834,120.451 396.587,191.478 384.009,193.204 "/>
<polyline fill="none" stroke="#000000" stroke-miterlimit="10" points="383.516,118.23 396.834,120.451 396.587,191.478 
	384.009,193.204 "/>
<polyline fill="#5E5F5F" points="389.064,118.847 390.668,109.352 392.147,109.599 392.641,119.464 "/>
<polyline fill="none" stroke="#000000" stroke-miterlimit="10" points="389.064,118.847 390.668,109.352 392.147,109.599 
	392.641,119.464 "/>
<path fill="#5E5F5F" d="M392.888,107.873c0,0.749-0.663,1.356-1.48,1.356c-0.816,0-1.479-0.607-1.479-1.356s0.662-1.356,1.479-1.356
	C392.225,106.517,392.888,107.124,392.888,107.873"/>
<ellipse fill="none" stroke="#000000" stroke-miterlimit="10" cx="391.408" cy="107.873" rx="1.479" ry="1.356"/>
<path fill="#A9D3E0" d="M403.246,144.126l0.492-27.375l8.633-0.247l0.246-18.62l4.81-0.246l0.123-17.14l1.232-0.247l-0.246-5.302
	l4.81-8.262c0,0,7.645-10.482,8.385-10.482s9.248,9.989,9.248,9.989l3.946,9.864l-0.493,2.22l0.986,2.959l0.493,15.784l3.452,1.85
	l0.804,58.046"/>
<path fill="none" stroke="#000000" stroke-miterlimit="10" d="M403.246,144.126l0.492-27.375l8.633-0.247l0.246-18.62l4.81-0.246
	l0.123-17.14l1.232-0.247l-0.246-5.302l4.81-8.262c0,0,7.645-10.482,8.385-10.482s9.248,9.989,9.248,9.989l3.946,9.864l-0.493,2.22
	l0.986,2.959l0.493,15.784l3.452,1.85l0.804,58.046"/>
<line fill="none" stroke="#000000" stroke-miterlimit="10" x1="413.357" y1="133.521" x2="412.37" y2="116.504"/>
<polyline fill="#4F7DB5" points="426.182,73.592 427.414,70.879 434.319,78.278 433.75,129.75 425.25,129.75 "/>
<polyline fill="none" stroke="#000000" stroke-miterlimit="10" points="426.182,73.592 427.414,70.879 434.319,78.278 
	433.75,129.75 425.25,129.75 "/>
<polyline fill="#374254" points="431.854,130.315 432.347,79.264 426.182,73.592 420.016,81.484 419.029,130.808 "/>
<polyline fill="none" stroke="#000000" stroke-miterlimit="10" points="431.854,130.315 432.347,79.264 426.182,73.592 
	420.016,81.484 419.029,130.808 "/>
<polyline fill="none" stroke="#000000" stroke-miterlimit="10" points="425.441,63.234 436.539,74.825 440.979,66.193 "/>
<polyline fill="#4F7DB5" points="448,128.083 447.583,101 443.417,99.5 443.333,81.917 444.583,77.583 444,74.083 439.746,80.497 
	439.499,95.542 441.225,95.294 440.979,114.038 437.679,113.381 438.172,128.672 "/>
<polyline fill="none" stroke="#000000" stroke-miterlimit="10" points="448,128.083 447.583,101 443.417,99.5 443.333,81.917 
	444.583,77.583 444,74.083 439.746,80.497 439.499,95.542 441.225,95.294 440.979,114.038 437.679,113.381 438.172,128.672 "/>
<line fill="none" stroke="#000000" stroke-miterlimit="10" x1="444.833" y1="76.917" x2="439.666" y2="83.584"/>
<line fill="none" stroke="#000000" stroke-miterlimit="10" x1="464.654" y1="186.052" x2="464.901" y2="112.312"/>
<polyline fill="#59574F" points="417.167,153.667 422.917,152.417 423.334,145 418.905,143.386 "/>
<polyline fill="none" stroke="#000000" stroke-miterlimit="10" points="417.167,153.667 422.917,152.417 423.334,145 
	418.905,143.386 "/>
<polyline fill="none" stroke="#000000" stroke-miterlimit="10" points="405.712,143.386 405.959,134.014 436.293,134.014 
	435.923,128.219 436.54,74.825 "/>
<polyline fill="none" stroke="#000000" stroke-miterlimit="10" points="447.021,135.124 446.898,128.095 435.923,128.219 "/>
<polyline fill="none" stroke="#000000" stroke-miterlimit="10" points="446.897,128.095 451.584,129.082 453.68,135.864 "/>
<polyline fill="#16212D" points="460.955,187.038 460.955,155.47 458.735,155.47 458.735,136.727 448.871,135.494 424.702,135.987 
	423.917,190.25 "/>
<polyline fill="none" stroke="#000000" stroke-miterlimit="10" points="460.955,187.038 460.955,155.47 458.735,155.47 
	458.735,136.727 448.871,135.494 424.702,135.987 423.917,190.25 "/>
<polyline fill="none" stroke="#000000" stroke-miterlimit="10" points="450.351,135.494 450.598,153.991 438.76,153.497 
	439.006,189.751 "/>
<line fill="none" stroke="#000000" stroke-miterlimit="10" x1="447.884" y1="188.271" x2="448.007" y2="154.237"/>
<polyline fill="#344151" points="384.5,196.75 384.749,118.231 351.455,118.724 352.195,154.237 360.827,155.224 360,192.5 "/>
<polyline fill="none" stroke="#000000" stroke-miterlimit="10" points="384.5,196.75 384.749,118.231 351.455,118.724 
	352.195,154.237 360.827,155.224 360,192.5 "/>
<polyline fill="#70775B" points="148.25,182.5 146.75,151.75 139.854,151.894 139.669,156.149 126.75,155.75 123.75,192.25 "/>
<polyline fill="none" stroke="#000000" stroke-miterlimit="10" points="148.25,182.5 146.75,151.75 139.854,151.894 
	139.669,156.149 126.75,155.75 123.75,192.25 "/>
<polyline fill="#4C725B" points="326.625,159.375 325.875,146.875 353.625,147 355.25,162.5 "/>
<polyline fill="none" stroke="#000000" stroke-miterlimit="10" points="326.625,159.375 325.875,146.875 353.625,147 355.25,162.5 
	"/>
<path fill="#59574F" d="M76.225,210.221c0,0,0.37-33.664,0.247-35.514l37.733,0.987l25.648-0.74l0.247-14.797l52.284-0.247
	l0.247,58.943"/>
<path fill="none" stroke="#000000" stroke-miterlimit="10" d="M76.225,210.221c0,0,0.37-33.664,0.247-35.514l37.733,0.987
	l25.648-0.74l0.247-14.797l52.284-0.247l0.247,58.943"/>
<line fill="none" stroke="#000000" stroke-miterlimit="10" x1="115" y1="214" x2="114.205" y2="175.693"/>
<path fill="#D6D6D6" d="M151.779,139.18l1.973,16.277l-2.22,0.493v2.467l47.845-1.48l-0.986-2.466l1.726-3.453
	c0,0-2.59-2.96-1.233-4.933c1.356-1.973-2.96-2.959-2.96-2.959l-5.425-1.726l-28.608,1.726l0.493-5.672L151.779,139.18z"/>
<path fill="none" stroke="#000000" stroke-miterlimit="10" d="M151.779,139.18l1.973,16.277l-2.22,0.493v2.467l47.845-1.48
	l-0.986-2.466l1.726-3.453c0,0-2.59-2.96-1.233-4.933c1.356-1.973-2.96-2.959-2.96-2.959l-5.425-1.726l-28.608,1.726l0.493-5.672
	L151.779,139.18z"/>
<line fill="none" stroke="#000000" stroke-miterlimit="10" x1="187.945" y1="157.937" x2="187.698" y2="160.157"/>
<line fill="none" stroke="#000000" stroke-miterlimit="10" x1="159.83" y1="159.17" x2="160.077" y2="160.156"/>
<polyline fill="#BB9F70" points="293.5,188.125 304.625,185.875 305.707,143.633 293.746,139.933 "/>
<polyline fill="none" stroke="#000000" stroke-miterlimit="10" points="293.5,188.125 304.625,185.875 305.707,143.633 
	293.746,139.933 "/>
<polyline fill="#45525E" points="221.125,183.75 274.5,187.375 273.625,144 256.999,143.386 256.752,140.18 249.354,139.687 
	249.354,137.467 239.489,136.727 240.229,139.44 221.732,137.714 "/>
<polyline fill="none" stroke="#000000" stroke-miterlimit="10" points="221.125,183.75 274.5,187.375 273.625,144 256.999,143.386 
	256.752,140.18 249.354,139.687 249.354,137.467 239.489,136.727 240.229,139.44 221.732,137.714 "/>
<polyline fill="#BCBB9C" points="313.722,155.717 317.25,156.75 315.941,187.038 "/>
<polyline fill="none" stroke="#000000" stroke-miterlimit="10" points="313.722,155.717 317.25,156.75 315.941,187.038 "/>
<path fill="#3C6EB6" d="M63.526,177.788l0.862-89.152c0,0-19.977-11.468-35.514-3.699l-2.959,140.575"/>
<path fill="none" stroke="#000000" stroke-miterlimit="10" d="M63.526,177.788l0.862-89.152c0,0-19.977-11.468-35.514-3.699
	l-2.959,140.575"/>
<polyline fill="#4D4B43" points="346,153.125 368.5,153.5 364.875,197 347.75,196.5 "/>
<polyline fill="none" stroke="#000000" stroke-miterlimit="10" points="346,153.125 368.5,153.5 364.875,197 347.75,196.5 "/>
<path fill="#71A5D3" d="M36.766,211.687l-6.905-0.123L33.066,87.65c0,0,20.469-5.056,33.54,6.165l-0.615,83.973"/>
<path fill="none" stroke="#000000" stroke-miterlimit="10" d="M36.766,211.687l-6.905-0.123L33.066,87.65
	c0,0,20.469-5.056,33.54,6.165l-0.615,83.973"/>
<polyline fill="#233B6D" points="25.914,225.511 28.874,84.937 23.448,89.622 19.995,224.401 "/>
<polyline fill="none" stroke="#000000" stroke-miterlimit="10" points="25.914,225.511 28.874,84.937 23.448,89.622 19.995,224.401 
	"/>
<polyline fill="#4D4B43" points="315.941,187.038 316.188,150.045 327.779,149.551 328.766,155.224 336.411,154.731 337.15,149.305 
	344.55,148.565 346,153.125 347.75,196.5 "/>
<polyline fill="none" stroke="#000000" stroke-miterlimit="10" points="315.941,187.038 316.188,150.045 327.779,149.551 
	328.766,155.224 336.411,154.731 337.15,149.305 344.55,148.565 346,153.125 347.75,196.5 "/>
<polyline fill="#BCBB9C" points="301.875,187.625 303.124,154.731 313.975,154.484 314.962,186.791 "/>
<polyline fill="none" stroke="#000000" stroke-miterlimit="10" points="301.875,187.625 303.124,154.731 313.975,154.484 
	314.962,186.791 "/>
<polyline fill="#CEB289" points="272.75,194.75 272.289,139.933 293.746,139.933 293.499,189.011 "/>
<polyline fill="none" stroke="#000000" stroke-miterlimit="10" points="272.75,194.75 272.289,139.933 293.746,139.933 
	293.499,189.011 "/>
<path fill="#5E6F7C" d="M209.375,183.75c0,0,1.873-45.767,1.75-47l3.486-0.176v1.727l7.153-0.987l2.736,46.561"/>
<path fill="none" stroke="#000000" stroke-miterlimit="10" d="M209.375,183.75c0,0,1.873-45.767,1.75-47l3.486-0.176v1.727
	l7.153-0.987l2.736,46.561"/>
<line fill="#4D4B43" x1="256.259" y1="203.562" x2="256.259" y2="178.9"/>
<line fill="none" stroke="#000000" stroke-miterlimit="10" x1="256.259" y1="203.562" x2="256.259" y2="178.9"/>
<polyline fill="#4D4B43" points="277.375,204.375 275.562,178.403 211.867,180.133 211.62,160.65 192.384,159.91 192.375,221.625 
	"/>
<polyline fill="none" stroke="#000000" stroke-miterlimit="10" points="277.375,204.375 275.562,178.403 211.867,180.133 
	211.62,160.65 192.384,159.91 192.375,221.625 "/>
<text transform="matrix(1.2887 -0.0778 0.0603 0.9982 157.0352 150.3452)"><tspan x="0" y="0" font-family="'LillyBelle'" font-size="5.3711">W</tspan><tspan x="4.383" y="0" font-family="'LillyBelle'" font-size="5.3711">E</tspan><tspan x="7.026" y="0" font-family="'LillyBelle'" font-size="5.3711">L</tspan><tspan x="9.244" y="0" font-family="'LillyBelle'" font-size="5.3711">CO</tspan><tspan x="16.06" y="0" font-family="'LillyBelle'" font-size="5.3711">M</tspan><tspan x="20.329" y="0" font-family="'LillyBelle'" font-size="5.3711">E</tspan></text>
<text transform="matrix(1.2023 0 0 1 166.6255 155.2393)"><tspan x="0" y="0" font-family="'LillyBelle'" font-size="5.6754">t</tspan><tspan x="1.254" y="0" font-family="'LillyBelle'" font-size="5.6754">o P</tspan><tspan x="8.592" y="0" font-family="'LillyBelle'" font-size="5.6754">hi</tspan><tspan x="11.492" y="0" font-family="'LillyBelle'" font-size="5.6754">l</tspan><tspan x="12.151" y="0" font-family="'LillyBelle'" font-size="5.6754">l</tspan><tspan x="12.928" y="0" font-family="'LillyBelle'" font-size="5.6754">y!</tspan></text>
<polyline fill="#59574F" points="393.75,197.25 394.75,151.75 400.533,152.758 400.656,143.879 418.906,143.386 419.276,150.785 
	425.688,151.525 425.442,192.464 "/>
<polyline fill="none" stroke="#000000" stroke-miterlimit="10" points="393.75,197.25 394.75,151.75 400.533,152.758 
	400.656,143.879 418.906,143.386 419.276,150.785 425.688,151.525 425.442,192.464 "/>
<polyline fill="#82807A" points="35.656,222.182 37.626,184.665 76.472,174.707 76.225,210.221 "/>
<polyline fill="none" stroke="#000000" stroke-miterlimit="10" points="35.656,222.182 37.626,184.665 76.472,174.707 
	76.225,210.221 "/>
</svg>
