<?xml version="1.0" encoding="utf-8"?>
<!-- Generator: Adobe Illustrator 16.0.0, SVG Export Plug-In . SVG Version: 6.00 Build 0)  -->
<!DOCTYPE svg PUBLIC "-//W3C//DTD SVG 1.1//EN" "http://www.w3.org/Graphics/SVG/1.1/DTD/svg11.dtd">
<svg version="1.1" id="Layer_1" xmlns="http://www.w3.org/2000/svg" xmlns:xlink="http://www.w3.org/1999/xlink" x="0px" y="0px"
	 width="224px" height="226.002px" viewBox="0 0 224 226.002" enable-background="new 0 0 224 226.002" xml:space="preserve">
<g>
	<path fill="#FFD576" d="M605.112,103.809c-0.645-4.55-6.276-7.036-6.086,1.521c0.059,2.623,2.662,12.172-1.331,12.932
		c-18.915,3.603-12.361,5.325,1.901,5.325c3.48,0,2.448,27.828,3.613,28.146c2.092,0.57,5.135-2.473,5.135-2.473
		c1.521,5.135-3.428-26.786,0.444-26.434c18.19,1.653,11.854-5.701-2.547-5.704C603.4,117.121,605.433,106.072,605.112,103.809"/>
	<path fill="none" stroke="#000000" stroke-miterlimit="10" d="M605.112,103.809c-0.645-4.55-6.276-7.036-6.086,1.521
		c0.059,2.623,2.662,12.172-1.331,12.932c-18.915,3.603-12.361,5.325,1.901,5.325c3.48,0,2.448,27.828,3.613,28.146
		c2.092,0.57,5.135-2.473,5.135-2.473c1.521,5.135-3.428-26.786,0.444-26.434c18.19,1.653,11.854-5.701-2.547-5.704
		C603.4,117.121,605.433,106.072,605.112,103.809z"/>
	<path fill="#FFD576" d="M623.116,161.622c0,8.612-7.209,15.594-16.103,15.594s-16.103-6.982-16.103-15.594
		c0-8.612,7.209-15.594,16.103-15.594S623.116,153.01,623.116,161.622"/>
	<ellipse fill="none" stroke="#000000" stroke-miterlimit="10" cx="607.014" cy="161.622" rx="16.103" ry="15.594"/>
	<path fill="#FFEAC0" d="M599.153,153.508c-5.436-4.005,15.214-8.621,17.75,0c2.535,8.621-2.283,4.311-4.564,3.043
		C610.056,155.283,603.972,157.058,599.153,153.508"/>
	<path fill="#FFD576" d="M538.298,382.478c-8.873-4.168-20.861-28.908-23.328-76.324c-3.423-65.8,26.004-126.757,93.566-130.459
		c58.453-3.203,91.062,66.517,86.338,126.275c-3.801,48.084-1.241,73.646-23.581,80.635
		C628.122,396.106,575.952,400.163,538.298,382.478"/>
	<path fill="none" stroke="#000000" stroke-miterlimit="10" d="M538.298,382.478c-8.873-4.168-20.861-28.908-23.328-76.324
		c-3.423-65.8,26.004-126.757,93.566-130.459c58.453-3.203,91.062,66.517,86.338,126.275c-3.801,48.084-1.241,73.646-23.581,80.635
		C628.122,396.106,575.952,400.163,538.298,382.478z"/>
	<path fill="#FFEAC0" d="M580.896,186.218c-3.628,1.024,64.406-17.75,84.185,26.878
		C684.858,257.723,612.339,177.343,580.896,186.218"/>
	<path fill="#D8A656" d="M531.198,252.145c-3.633-13.255-10.65,92.362,13.945,118.478c27,28.67,104.723,6.277,104.723,6.277
		S549.962,320.608,531.198,252.145"/>
	<path fill="#FFCB65" d="M525.98,230.786c-0.274,0.96,0.363,10.333,2.837,10.649c2.473,0.316,14.051,1.277,14.451-5.808
		S528.155,223.175,525.98,230.786"/>
	<path fill="none" stroke="#000000" stroke-miterlimit="10" d="M525.98,230.786c-0.274,0.96,0.363,10.333,2.837,10.649
		c2.473,0.316,14.051,1.277,14.451-5.808S528.155,223.175,525.98,230.786z"/>
	<path fill="#FFCB65" d="M554.233,227.422c-0.557,0.864-3.199,10.65-1.219,11.981s11.426,7.036,14.168,0
		C569.925,232.367,558.651,220.576,554.233,227.422"/>
	<path fill="none" stroke="#000000" stroke-miterlimit="10" d="M554.233,227.422c-0.557,0.864-3.199,10.65-1.219,11.981
		s11.426,7.036,14.168,0C569.925,232.367,558.651,220.576,554.233,227.422z"/>
	<path fill="#FFCB65" d="M584.237,225.035c-0.985,0.717-6.555,9.738-3.746,11.535c2.81,1.796,16.308,9.728,21.597,3.447
		C607.377,233.735,592.051,219.349,584.237,225.035"/>
	<path fill="none" stroke="#000000" stroke-miterlimit="10" d="M584.237,225.035c-0.985,0.717-6.555,9.738-3.746,11.535
		c2.81,1.796,16.308,9.728,21.597,3.447C607.377,233.735,592.051,219.349,584.237,225.035z"/>
	<path fill="#FFCB65" d="M620.644,228.062c-0.266,0.985,0.143,11.096,2.377,11.803c2.236,0.706,12.709,3.462,13.201-4.049
		C636.714,228.306,622.753,220.253,620.644,228.062"/>
	<path fill="none" stroke="#000000" stroke-miterlimit="10" d="M620.644,228.062c-0.266,0.985,0.143,11.096,2.377,11.803
		c2.236,0.706,12.709,3.462,13.201-4.049C636.714,228.306,622.753,220.253,620.644,228.062z"/>
	<path fill="#FFCB65" d="M649.997,229.211c-0.482,0.999-1.479,11.277,1.23,12.014c2.711,0.737,15.486,3.624,17.228-4.005
		C670.196,229.591,653.817,221.294,649.997,229.211"/>
	<path fill="none" stroke="#000000" stroke-miterlimit="10" d="M649.997,229.211c-0.482,0.999-1.479,11.277,1.23,12.014
		c2.711,0.737,15.486,3.624,17.228-4.005C670.196,229.591,653.817,221.294,649.997,229.211z"/>
	<path fill="#FFCB65" d="M678.47,225.147c-0.927,0.429-7.974,7.212-6.738,9.362c1.236,2.15,7.43,11.868,13.287,7.432
		C690.875,237.507,685.81,221.75,678.47,225.147"/>
	<path fill="none" stroke="#000000" stroke-miterlimit="10" d="M678.47,225.147c-0.927,0.429-7.974,7.212-6.738,9.362
		c1.236,2.15,7.43,11.868,13.287,7.432C690.875,237.507,685.81,221.75,678.47,225.147z"/>
	<path fill="#FFCB65" d="M583.491,345.013c0.598,2.824,1.222,4.26,0.253,8.395c-0.97,4.135-7.157,6.344-9.554,4.447
		c-2.396-1.896-3.666-3.617-3.326-11.338c0.339-7.721,6.701-4.48,7.982-4.492S583.11,343.208,583.491,345.013"/>
	<path fill="none" stroke="#000000" stroke-miterlimit="10" d="M583.491,345.013c0.598,2.824,1.222,4.26,0.253,8.395
		c-0.97,4.135-7.157,6.344-9.554,4.447c-2.396-1.896-3.666-3.617-3.326-11.338c0.339-7.721,6.701-4.48,7.982-4.492
		S583.11,343.208,583.491,345.013z"/>
	<path fill="#FFCB65" d="M644.423,345.146c0.599,2.824,1.223,4.262,0.254,8.395c-0.969,4.135-7.157,6.344-9.553,4.447
		c-2.396-1.896-3.668-3.615-3.328-11.338c0.34-7.721,6.701-4.48,7.982-4.49C641.061,342.146,644.042,343.343,644.423,345.146"/>
	<path fill="none" stroke="#000000" stroke-miterlimit="10" d="M644.423,345.146c0.599,2.824,1.223,4.262,0.254,8.395
		c-0.969,4.135-7.157,6.344-9.553,4.447c-2.396-1.896-3.668-3.615-3.328-11.338c0.34-7.721,6.701-4.48,7.982-4.49
		C641.061,342.146,644.042,343.343,644.423,345.146z"/>
	<path fill="#FFCB65" d="M646.333,281.967c-9.783,4.788-0.516,8.164,1.561,7.843C649.97,289.489,650.688,279.836,646.333,281.967"/>
	<path fill="none" stroke="#000000" stroke-miterlimit="10" d="M646.333,281.967c-9.783,4.788-0.516,8.164,1.561,7.843
		C649.97,289.489,650.688,279.836,646.333,281.967z"/>
	<path fill="#FFCB65" d="M543.253,298.601c-1.748,1.966-1.392,11.903-0.138,14.97c1.255,3.067,6.271,6.497,11.567,5.382
		c5.298-1.115,5.041-8.174,5.738-13.749c0.697-5.576-7.828-8.973-10.478-9.112C547.296,295.952,544.367,297.346,543.253,298.601"/>
	<path fill="none" stroke="#000000" stroke-miterlimit="10" d="M543.253,298.601c-1.748,1.966-1.392,11.903-0.138,14.97
		c1.255,3.067,6.271,6.497,11.567,5.382c5.298-1.115,5.041-8.174,5.738-13.749c0.697-5.576-7.828-8.973-10.478-9.112
		C547.296,295.952,544.367,297.346,543.253,298.601z"/>
	<path fill="#FFCB65" d="M509.356,297.215c-0.613,1.946-2.471,6.932-1.568,9.766c0.9,2.833,6.643,10.203,9.002,8.88
		c2.357-1.324,3.889-8.42,3.64-13.723s-6.957-7.637-8.208-7.634C510.971,294.507,509.747,295.973,509.356,297.215"/>
	<path fill="none" stroke="#000000" stroke-miterlimit="10" d="M509.356,297.215c-0.613,1.946-2.471,6.932-1.568,9.766
		c0.9,2.833,6.643,10.203,9.002,8.88c2.357-1.324,3.889-8.42,3.64-13.723s-6.957-7.637-8.208-7.634
		C510.971,294.507,509.747,295.973,509.356,297.215z"/>
	<path fill="#FFCB65" d="M689.642,298.736c-0.613,1.946-2.471,6.932-1.569,9.766c0.901,2.833,6.644,10.203,9.002,8.88
		c2.358-1.324,3.89-8.42,3.64-13.723c-0.248-5.303-6.957-7.637-8.207-7.634C691.255,296.029,690.032,297.495,689.642,298.736"/>
	<path fill="none" stroke="#000000" stroke-miterlimit="10" d="M689.642,298.736c-0.613,1.946-2.471,6.932-1.569,9.766
		c0.901,2.833,6.644,10.203,9.002,8.88c2.358-1.324,3.89-8.42,3.64-13.723c-0.248-5.303-6.957-7.637-8.207-7.634
		C691.255,296.029,690.032,297.495,689.642,298.736z"/>
	<path fill="#FFCB65" d="M519.534,306.154c-0.613,1.946-1.238,2.938-0.336,5.772c0.9,2.833,6.916,4.299,9.273,2.976
		c2.358-1.323,3.617-2.516,3.368-7.819c-0.249-5.304-6.491-3.024-7.741-3.021C522.847,304.065,519.925,304.912,519.534,306.154"/>
	<path fill="none" stroke="#000000" stroke-miterlimit="10" d="M519.534,306.154c-0.613,1.946-1.238,2.938-0.336,5.772
		c0.9,2.833,6.916,4.299,9.273,2.976c2.358-1.323,3.617-2.516,3.368-7.819c-0.249-5.304-6.491-3.024-7.741-3.021
		C522.847,304.065,519.925,304.912,519.534,306.154z"/>
	<path fill="#FFCB65" d="M534.368,346.091c-0.613,1.945-1.238,2.938-0.336,5.771c0.9,2.834,6.916,4.299,9.273,2.977
		s3.617-2.516,3.367-7.818c-0.248-5.305-6.49-3.025-7.741-3.021C537.681,344.001,534.759,344.849,534.368,346.091"/>
	<path fill="none" stroke="#000000" stroke-miterlimit="10" d="M534.368,346.091c-0.613,1.945-1.238,2.938-0.336,5.771
		c0.9,2.834,6.916,4.299,9.273,2.977s3.617-2.516,3.367-7.818c-0.248-5.305-6.49-3.025-7.741-3.021
		C537.681,344.001,534.759,344.849,534.368,346.091z"/>
	<path fill="#FFCB65" d="M599.026,349.134c-0.613,1.945-1.238,2.938-0.336,5.771c0.901,2.834,6.916,4.299,9.273,2.977
		c2.359-1.324,3.617-2.516,3.369-7.82c-0.25-5.303-6.491-3.023-7.742-3.02C602.339,347.044,599.417,347.892,599.026,349.134"/>
	<path fill="none" stroke="#000000" stroke-miterlimit="10" d="M599.026,349.134c-0.613,1.945-1.238,2.938-0.336,5.771
		c0.901,2.834,6.916,4.299,9.273,2.977c2.359-1.324,3.617-2.516,3.369-7.82c-0.25-5.303-6.491-3.023-7.742-3.02
		C602.339,347.044,599.417,347.892,599.026,349.134z"/>
	<path fill="#FFCB65" d="M662.925,345.71c-0.613,1.947-1.238,2.938-0.336,5.771c0.9,2.834,6.916,4.301,9.273,2.977
		c2.358-1.322,3.617-2.516,3.369-7.818c-0.25-5.305-6.492-3.023-7.742-3.021C666.237,343.622,663.315,344.468,662.925,345.71"/>
	<path fill="none" stroke="#000000" stroke-miterlimit="10" d="M662.925,345.71c-0.613,1.947-1.238,2.938-0.336,5.771
		c0.9,2.834,6.916,4.301,9.273,2.977c2.358-1.322,3.617-2.516,3.369-7.818c-0.25-5.305-6.492-3.023-7.742-3.021
		C666.237,343.622,663.315,344.468,662.925,345.71z"/>
	<path fill="#FFCB65" d="M661.023,302.351c-0.613,1.946-1.238,2.938-0.336,5.772c0.901,2.833,6.915,4.299,9.274,2.976
		c2.357-1.323,3.616-2.516,3.367-7.819c-0.249-5.304-6.49-3.024-7.742-3.021C664.337,300.261,661.414,301.108,661.023,302.351"/>
	<path fill="none" stroke="#000000" stroke-miterlimit="10" d="M661.023,302.351c-0.613,1.946-1.238,2.938-0.336,5.772
		c0.901,2.833,6.915,4.299,9.274,2.976c2.357-1.323,3.616-2.516,3.367-7.819c-0.249-5.304-6.49-3.024-7.742-3.021
		C664.337,300.261,661.414,301.108,661.023,302.351z"/>
	<path fill="#A92C2C" d="M556.048,300.829c-0.523-2.617-10.08-1.902-10.27,0.38c-0.191,2.282-3.232,6.466-1.141,11.411
		c2.091,4.944,2.472,1.331,6.846,2.662S556.237,301.78,556.048,300.829"/>
	<path fill="none" stroke="#000000" stroke-miterlimit="10" d="M556.048,300.829c-0.523-2.617-10.08-1.902-10.27,0.38
		c-0.191,2.282-3.232,6.466-1.141,11.411c2.091,4.944,2.472,1.331,6.846,2.662S556.237,301.78,556.048,300.829z"/>
	<path fill="#5E2322" d="M639.801,344.702c-0.854-1.391-5.991,1.012-5.603,2.361c0.387,1.348-0.395,4.381,1.832,6.779
		s1.656,0.246,4.365,0.098S640.112,345.208,639.801,344.702"/>
	<path fill="none" stroke="#000000" stroke-miterlimit="10" d="M639.801,344.702c-0.854-1.391-5.991,1.012-5.603,2.361
		c0.387,1.348-0.395,4.381,1.832,6.779s1.656,0.246,4.365,0.098S640.112,345.208,639.801,344.702z"/>
	<path fill="#FFCB65" d="M623.168,299.912c-1.747,1.966-6.831,6.97-5.576,10.037c1.255,3.067,11.71,11.43,17.007,10.315
		c5.297-1.115,10.176-8.364,10.873-13.94c0.697-5.576-12.964-8.782-15.613-8.921C627.211,297.263,624.282,298.656,623.168,299.912"
		/>
	<path fill="none" stroke="#000000" stroke-miterlimit="10" d="M623.168,299.912c-1.747,1.966-6.831,6.97-5.576,10.037
		c1.255,3.067,11.71,11.43,17.007,10.315c5.297-1.115,10.176-8.364,10.873-13.94c0.697-5.576-12.964-8.782-15.613-8.921
		C627.211,297.263,624.282,298.656,623.168,299.912z"/>
	<path fill="#A92C2C" d="M641.372,303.872c-3.803-2.092-13.439-3.803-15.342-2.282c-1.9,1.521-3.612,7.797-2.661,11.03
		c0.95,3.233,7.987,3.043,11.791,3.803c3.803,0.761,6.973-8.874,6.022-13.438"/>
	<path fill="none" stroke="#000000" stroke-miterlimit="10" d="M641.372,303.872c-3.803-2.092-13.439-3.803-15.342-2.282
		c-1.9,1.521-3.612,7.797-2.661,11.03c0.95,3.233,7.987,3.043,11.791,3.803c3.803,0.761,6.973-8.874,6.022-13.438"/>
	<path fill="#A92C2C" d="M696.776,298.927c-4.945-0.57-3.17-2.155-4.945-0.57c-2.615,2.335-3.232,9.508-1.521,11.98
		c1.713,2.473,4.184,3.424,5.325,3.424S698.297,300.068,696.776,298.927"/>
	<path fill="none" stroke="#000000" stroke-miterlimit="10" d="M696.776,298.927c-4.945-0.57-3.17-2.155-4.945-0.57
		c-2.615,2.335-3.232,9.508-1.521,11.98c1.713,2.473,4.184,3.424,5.325,3.424S698.297,300.068,696.776,298.927"/>
	<path fill="#5E2322" d="M542.019,346.501c-3.125,0.166-2.123-0.74-3.125,0.166c-1.476,1.338-1.382,4.789-0.148,5.809
		c1.234,1.021,2.842,1.254,3.554,1.152C543.012,353.528,543.045,346.907,542.019,346.501"/>
	<path fill="none" stroke="#000000" stroke-miterlimit="10" d="M542.019,346.501c-3.125,0.166-2.123-0.74-3.125,0.166
		c-1.476,1.338-1.382,4.789-0.148,5.809c1.234,1.021,2.842,1.254,3.554,1.152C543.012,353.528,543.045,346.907,542.019,346.501"/>
	<path fill="#5E2322" d="M581.212,347.431c-5.223-3.439-6.143-3.83-7.417-1.049c-1.2,2.619-2.101,6.861-0.271,8.311
		s7.191,1.154,8.254,1.004C582.84,355.548,582.737,348.003,581.212,347.431"/>
	<path fill="none" stroke="#000000" stroke-miterlimit="10" d="M581.212,347.431c-5.223-3.439-6.143-3.83-7.417-1.049
		c-1.2,2.619-2.101,6.861-0.271,8.311s7.191,1.154,8.254,1.004C582.84,355.548,582.737,348.003,581.212,347.431"/>
	<path fill="#D89739" d="M663.686,230.084c-6.188-3.3-13.122-1.141-13.692,1.902s1.711,6.466,4.184,7.226
		c2.473,0.761,5.706,1.712,7.988,0.761C664.446,239.022,666.538,231.605,663.686,230.084"/>
	<path fill="none" stroke="#000000" stroke-miterlimit="10" d="M663.686,230.084c-6.188-3.3-13.122-1.141-13.692,1.902
		s1.711,6.466,4.184,7.226c2.473,0.761,5.706,1.712,7.988,0.761C664.446,239.022,666.538,231.605,663.686,230.084z"/>
	<path fill="#D89739" d="M599.407,228.563c-2.344-2.777-23.721-1.046-18.637,4.564c7.058,7.789,13.453,8.488,14.453,7.227
		C597.612,237.34,604.542,234.649,599.407,228.563"/>
	<path fill="none" stroke="#000000" stroke-miterlimit="10" d="M599.407,228.563c-2.344-2.777-23.721-1.046-18.637,4.564
		c7.058,7.789,13.453,8.488,14.453,7.227C597.612,237.34,604.542,234.649,599.407,228.563z"/>
	<path fill="#295635" d="M628.313,228.563c-1.403-1.954-8.938,2.092-4.564,6.086C628.124,238.642,633.638,235.98,628.313,228.563"/>
	<path fill="none" stroke="#000000" stroke-miterlimit="10" d="M628.313,228.563c-1.403-1.954-8.938,2.092-4.564,6.086
		C628.124,238.642,633.638,235.98,628.313,228.563z"/>
	<path fill="#295635" d="M559.471,227.802c-1.056-2.244-4.185-0.761-3.044,4.945c1.142,5.705,3.234,9.318,5.326,6.846
		C563.845,237.12,560.991,231.035,559.471,227.802"/>
	<path fill="none" stroke="#000000" stroke-miterlimit="10" d="M559.471,227.802c-1.056-2.244-4.185-0.761-3.044,4.945
		c1.142,5.705,3.234,9.318,5.326,6.846C563.845,237.12,560.991,231.035,559.471,227.802z"/>
	<path fill="#D89739" d="M537.79,230.465c-3.774-3.775-11.219,0.38-10.269,4.184c0.95,3.803,6.085,7.226,8.748,5.705
		C538.932,238.833,541.403,234.078,537.79,230.465"/>
	<path fill="none" stroke="#000000" stroke-miterlimit="10" d="M537.79,230.465c-3.774-3.775-11.219,0.38-10.269,4.184
		c0.95,3.803,6.085,7.226,8.748,5.705C538.932,238.833,541.403,234.078,537.79,230.465z"/>
	<path fill="#FFCB65" d="M532.847,219.181c43.739-4.754,137.812-3.55,143.518-3.043c1.3,0.116,4.436,5.015,3.043,4.945
		c-25.104-1.268-115.119-2.536-148.463,1.648C529.929,222.858,531.134,219.367,532.847,219.181"/>
	<path fill="none" stroke="#000000" stroke-miterlimit="10" d="M532.847,219.181c43.739-4.754,137.812-3.55,143.518-3.043
		c1.3,0.116,4.436,5.015,3.043,4.945c-25.104-1.268-115.119-2.536-148.463,1.648C529.929,222.858,531.134,219.367,532.847,219.181z"
		/>
	<path fill="#FFCB65" d="M519.788,245.806c-1.112,0.761-2.029,3.423-0.508,4.311c1.521,0.887,155.816-1.268,171.918,1.521
		c3.641,0.631,2.154-2.916,0.506-4.818C690.057,244.917,522.196,244.158,519.788,245.806"/>
	<path fill="none" stroke="#000000" stroke-miterlimit="10" d="M519.788,245.806c-1.112,0.761-2.029,3.423-0.508,4.311
		c1.521,0.887,155.816-1.268,171.918,1.521c3.641,0.631,2.154-2.916,0.506-4.818C690.057,244.917,522.196,244.158,519.788,245.806z"
		/>
	<path fill="#FFCB65" d="M511.8,285.869c-2.324-0.132-2.274,3.909-0.761,4.818c6.339,3.803,179.778,4.31,183.581,1.521
		c3.805-2.789,4.184-2.282,0.762-4.818C691.958,284.854,663.433,294.49,511.8,285.869"/>
	<path fill="none" stroke="#000000" stroke-miterlimit="10" d="M511.8,285.869c-2.324-0.132-2.274,3.909-0.761,4.818
		c6.339,3.803,179.778,4.31,183.581,1.521c3.805-2.789,4.184-2.282,0.762-4.818C691.958,284.854,663.433,294.49,511.8,285.869z"/>
	<path fill="#FFCB65" d="M516.11,318.325c-2.638-0.752-3.93,6.593,2.155,7.607c13.767,2.294,176.101,2.916,177.749-0.508
		c1.649-3.422,3.932-7.099-0.76-6.085C690.563,320.354,541.468,325.551,516.11,318.325"/>
	<path fill="none" stroke="#000000" stroke-miterlimit="10" d="M516.11,318.325c-2.638-0.752-3.93,6.593,2.155,7.607
		c13.767,2.294,176.101,2.916,177.749-0.508c1.649-3.422,3.932-7.099-0.76-6.085C690.563,320.354,541.468,325.551,516.11,318.325z"
		/>
	<path fill="#A92C2C" d="M511.042,296.92c-1.758,0.171-2.062,8.046-0.039,10.346c2.022,2.301,6.528,6.234,6.493,3.064
		C517.462,307.162,514.902,296.543,511.042,296.92"/>
	<path fill="none" stroke="#000000" stroke-miterlimit="10" d="M511.042,296.92c-1.758,0.171-2.062,8.046-0.039,10.346
		c2.022,2.301,6.528,6.234,6.493,3.064C517.462,307.162,514.902,296.543,511.042,296.92z"/>
	<path fill="#FFCB65" d="M519.28,353.825c-2.162-0.74,0.57,4.514,1.268,4.816c44.375,19.271,165.578,6.213,171.156-0.76
		c5.58-6.973-1.268-6.467-3.423-5.578C673.234,358.499,580.009,374.616,519.28,353.825"/>
	<path fill="none" stroke="#000000" stroke-miterlimit="10" d="M519.28,353.825c-2.162-0.74,0.57,4.514,1.268,4.816
		c44.375,19.271,165.578,6.213,171.156-0.76c5.58-6.973-1.268-6.467-3.423-5.578C673.234,358.499,580.009,374.616,519.28,353.825z"
		/>
	<path fill="#5E2322" d="M606.355,349.497c-0.451-1.711-3.769,0.354-3.533,1.885c0.236,1.531-0.116,2.709,1.884,2.354
		C606.708,353.384,606.944,351.733,606.355,349.497"/>
	<path fill="none" stroke="#000000" stroke-miterlimit="10" d="M606.355,349.497c-0.451-1.711-3.769,0.354-3.533,1.885
		c0.236,1.531-0.116,2.709,1.884,2.354C606.708,353.384,606.944,351.733,606.355,349.497z"/>
	<path fill="#5E2322" d="M669.12,346.108c-0.451-1.713-3.768,0.354-3.533,1.885c0.236,1.529-0.117,2.709,1.885,2.354
		C669.474,349.995,669.709,348.345,669.12,346.108"/>
	<path fill="none" stroke="#000000" stroke-miterlimit="10" d="M669.12,346.108c-0.451-1.713-3.768,0.354-3.533,1.885
		c0.236,1.529-0.117,2.709,1.885,2.354C669.474,349.995,669.709,348.345,669.12,346.108z"/>
	<path fill="#A92C2C" d="M647.44,283.731c-0.451-1.712-3.768,0.353-3.533,1.884c0.236,1.531-0.117,2.709,1.885,2.354
		C647.794,287.617,648.029,285.968,647.44,283.731"/>
	<path fill="none" stroke="#000000" stroke-miterlimit="10" d="M647.44,283.731c-0.451-1.712-3.768,0.353-3.533,1.884
		c0.236,1.531-0.117,2.709,1.885,2.354C647.794,287.617,648.029,285.968,647.44,283.731z"/>
	<path fill="#FFCB65" d="M564.178,282.347c-9.783,4.788-0.515,8.163,1.562,7.842C567.815,289.868,568.532,280.216,564.178,282.347"
		/>
	<path fill="none" stroke="#000000" stroke-miterlimit="10" d="M564.178,282.347c-9.783,4.788-0.515,8.163,1.562,7.842
		C567.815,289.868,568.532,280.216,564.178,282.347z"/>
	<path fill="#A92C2C" d="M565.285,284.111c-0.45-1.712-3.769,0.353-3.532,1.884c0.235,1.531-0.117,2.709,1.883,2.355
		C565.638,287.998,565.874,286.349,565.285,284.111"/>
	<path fill="none" stroke="#000000" stroke-miterlimit="10" d="M565.285,284.111c-0.45-1.712-3.769,0.353-3.532,1.884
		c0.235,1.531-0.117,2.709,1.883,2.355C565.638,287.998,565.874,286.349,565.285,284.111z"/>
	<path fill="#A92C2C" d="M666.418,302.581l-3.873,3.573c0,0,2.282,3.043,6.085,3.55c1.426,0.19,2.416-0.609,2.93-1.803
		C672.918,304.736,669.687,301.492,666.418,302.581"/>
	<path fill="none" stroke="#000000" stroke-miterlimit="10" d="M666.418,302.581l-3.873,3.573c0,0,2.282,3.043,6.085,3.55
		c1.426,0.19,2.416-0.609,2.93-1.803C672.918,304.736,669.687,301.492,666.418,302.581z"/>
	<path fill="#295635" d="M681.182,230.084c-1.345-2.306-6.086,0.761-4.185,5.705c1.902,4.945,5.326,3.233,5.896,0.761
		S682.513,232.366,681.182,230.084"/>
	<path fill="none" stroke="#000000" stroke-miterlimit="10" d="M681.182,230.084c-1.345-2.306-6.086,0.761-4.185,5.705
		c1.902,4.945,5.326,3.233,5.896,0.761S682.513,232.366,681.182,230.084z"/>
	<path fill="#FFEBCC" d="M522.957,306.344c0,0,2.282,2.472,7.036,1.331C535.502,306.353,519.683,304.022,522.957,306.344"/>
	<path fill="#FFCB65" d="M531.845,307.619c-0.539,1.213-1.058,1.841-0.443,3.558c0.613,1.718,5.258,2.456,7.138,1.578
		c1.88-0.878,2.899-1.646,2.872-4.9c-0.027-3.255-4.967-1.683-5.941-1.647C534.494,306.244,532.188,306.845,531.845,307.619"/>
	<path fill="none" stroke="#000000" stroke-miterlimit="10" d="M531.845,307.619c-0.539,1.213-1.058,1.841-0.443,3.558
		c0.613,1.718,5.258,2.456,7.138,1.578c1.88-0.878,2.899-1.646,2.872-4.9c-0.027-3.255-4.967-1.683-5.941-1.647
		C534.494,306.244,532.188,306.845,531.845,307.619z"/>
	<path fill="#FFEBCC" d="M537.41,307.104c-0.114-1.207,3.149,3.741,1.903,3.736C534.324,310.821,537.585,308.934,537.41,307.104"/>
	<path fill="#FFCB65" d="M567.286,305.773c-0.479,1.946-0.969,2.938-0.264,5.772c0.705,2.833,5.408,4.299,7.252,2.976
		s2.827-2.516,2.633-7.819c-0.194-5.304-5.076-3.024-6.054-3.021C569.877,303.685,567.592,304.531,567.286,305.773"/>
	<path fill="none" stroke="#000000" stroke-miterlimit="10" d="M567.286,305.773c-0.479,1.946-0.969,2.938-0.264,5.772
		c0.705,2.833,5.408,4.299,7.252,2.976s2.827-2.516,2.633-7.819c-0.194-5.304-5.076-3.024-6.054-3.021
		C569.877,303.685,567.592,304.531,567.286,305.773z"/>
	<path fill="#FFEBCC" d="M570.591,305.939c0,0,0.968,3.6,5.158,3.217C580.604,308.713,568.777,302.309,570.591,305.939"/>
	<path fill="#FFCB65" d="M577.251,307.55c-0.408,1.143-0.797,1.734-0.341,3.351c0.457,1.616,3.937,2.304,5.349,1.474
		c1.412-0.829,2.176-1.554,2.162-4.618c-0.014-3.063-3.72-1.576-4.451-1.541C579.239,306.251,577.511,306.819,577.251,307.55"/>
	<path fill="none" stroke="#000000" stroke-miterlimit="10" d="M577.251,307.55c-0.408,1.143-0.797,1.734-0.341,3.351
		c0.457,1.616,3.937,2.304,5.349,1.474c1.412-0.829,2.176-1.554,2.162-4.618c-0.014-3.063-3.72-1.576-4.451-1.541
		C579.239,306.251,577.511,306.819,577.251,307.55z"/>
	<path fill="#FFEBCC" d="M581.263,306.725c-0.09-1.207,2.462,3.741,1.488,3.736C578.85,310.44,581.398,308.553,581.263,306.725"/>
	<path fill="#FFCB65" d="M559.337,307.877c-0.422,1.213-0.827,1.841-0.348,3.558c0.48,1.718,4.111,2.456,5.582,1.578
		c1.469-0.878,2.266-1.646,2.244-4.9c-0.021-3.255-3.883-1.683-4.645-1.647C561.407,306.502,559.606,307.103,559.337,307.877"/>
	<path fill="none" stroke="#000000" stroke-miterlimit="10" d="M559.337,307.877c-0.422,1.213-0.827,1.841-0.348,3.558
		c0.48,1.718,4.111,2.456,5.582,1.578c1.469-0.878,2.266-1.646,2.244-4.9c-0.021-3.255-3.883-1.683-4.645-1.647
		C561.407,306.502,559.606,307.103,559.337,307.877z"/>
	<path fill="#FFEBCC" d="M563.688,307.362c-0.091-1.207,2.461,3.741,1.487,3.736C561.274,311.079,563.823,309.191,563.688,307.362"
		/>
	<path fill="#FFCB65" d="M576.794,207.264c-0.479,1.946-0.967,2.938-0.263,5.772c0.705,2.833,5.408,4.299,7.251,2.976
		c1.844-1.323,2.828-2.516,2.633-7.819c-0.193-5.304-5.074-3.024-6.053-3.021C579.386,205.174,577.101,206.021,576.794,207.264"/>
	<path fill="none" stroke="#000000" stroke-miterlimit="10" d="M576.794,207.264c-0.479,1.946-0.967,2.938-0.263,5.772
		c0.705,2.833,5.408,4.299,7.251,2.976c1.844-1.323,2.828-2.516,2.633-7.819c-0.193-5.304-5.074-3.024-6.053-3.021
		C579.386,205.174,577.101,206.021,576.794,207.264z"/>
	<path fill="#FFEBCC" d="M580.099,207.429c0,0,0.969,3.6,5.16,3.217C590.112,210.203,578.286,203.799,580.099,207.429"/>
	<path fill="#FFCB65" d="M586.759,209.04c-0.406,1.143-0.796,1.734-0.34,3.351c0.457,1.616,3.938,2.304,5.35,1.474
		c1.41-0.829,2.176-1.554,2.162-4.618c-0.015-3.063-3.721-1.576-4.451-1.541C588.748,207.742,587.019,208.31,586.759,209.04"/>
	<path fill="none" stroke="#000000" stroke-miterlimit="10" d="M586.759,209.04c-0.406,1.143-0.796,1.734-0.34,3.351
		c0.457,1.616,3.938,2.304,5.35,1.474c1.41-0.829,2.176-1.554,2.162-4.618c-0.015-3.063-3.721-1.576-4.451-1.541
		C588.748,207.742,587.019,208.31,586.759,209.04z"/>
	<path fill="#FFEBCC" d="M590.771,208.214c-0.09-1.207,2.463,3.741,1.488,3.736C588.358,211.931,590.907,210.043,590.771,208.214"/>
	<path fill="#FFCB65" d="M568.846,209.367c-0.423,1.213-0.827,1.84-0.347,3.558c0.479,1.718,4.11,2.455,5.58,1.578
		c1.471-0.878,2.267-1.646,2.245-4.9c-0.022-3.255-3.883-1.683-4.645-1.647C570.917,207.992,569.114,208.593,568.846,209.367"/>
	<path fill="none" stroke="#000000" stroke-miterlimit="10" d="M568.846,209.367c-0.423,1.213-0.827,1.84-0.347,3.558
		c0.479,1.718,4.11,2.455,5.58,1.578c1.471-0.878,2.267-1.646,2.245-4.9c-0.022-3.255-3.883-1.683-4.645-1.647
		C570.917,207.992,569.114,208.593,568.846,209.367z"/>
	<path fill="#FFEBCC" d="M573.196,208.853c-0.09-1.207,2.463,3.741,1.488,3.736C570.784,212.568,573.333,210.682,573.196,208.853"/>
	<path fill="#FFCB65" d="M610.9,306.534c0.479,1.946,0.968,2.938,0.263,5.772c-0.705,2.833-5.408,4.299-7.25,2.976
		c-1.845-1.323-2.828-2.516-2.634-7.819c0.194-5.304,5.075-3.024,6.054-3.021C608.31,304.445,610.595,305.292,610.9,306.534"/>
	<path fill="none" stroke="#000000" stroke-miterlimit="10" d="M610.9,306.534c0.479,1.946,0.968,2.938,0.263,5.772
		c-0.705,2.833-5.408,4.299-7.25,2.976c-1.845-1.323-2.828-2.516-2.634-7.819c0.194-5.304,5.075-3.024,6.054-3.021
		C608.31,304.445,610.595,305.292,610.9,306.534z"/>
	<path fill="#FFEBCC" d="M607.596,306.7c0,0-0.968,3.6-5.159,3.217C597.583,309.474,609.409,303.07,607.596,306.7"/>
	<path fill="#FFCB65" d="M600.937,308.31c0.406,1.143,0.795,1.734,0.34,3.351c-0.457,1.616-3.938,2.304-5.35,1.474
		c-1.41-0.829-2.176-1.554-2.162-4.618c0.014-3.063,3.721-1.576,4.451-1.541C598.946,307.012,600.676,307.58,600.937,308.31"/>
	<path fill="none" stroke="#000000" stroke-miterlimit="10" d="M600.937,308.31c0.406,1.143,0.795,1.734,0.34,3.351
		c-0.457,1.616-3.938,2.304-5.35,1.474c-1.41-0.829-2.176-1.554-2.162-4.618c0.014-3.063,3.721-1.576,4.451-1.541
		C598.946,307.012,600.676,307.58,600.937,308.31z"/>
	<path fill="#FFEBCC" d="M596.924,307.485c0.09-1.207-2.462,3.741-1.487,3.736C599.337,311.201,596.788,309.314,596.924,307.485"/>
	<path fill="#FFCB65" d="M618.85,308.638c0.422,1.213,0.827,1.84,0.347,3.558c-0.48,1.718-4.111,2.455-5.581,1.578
		c-1.47-0.878-2.266-1.646-2.245-4.9c0.022-3.255,3.883-1.683,4.646-1.647S618.581,307.863,618.85,308.638"/>
	<path fill="none" stroke="#000000" stroke-miterlimit="10" d="M618.85,308.638c0.422,1.213,0.827,1.84,0.347,3.558
		c-0.48,1.718-4.111,2.455-5.581,1.578c-1.47-0.878-2.266-1.646-2.245-4.9c0.022-3.255,3.883-1.683,4.646-1.647
		S618.581,307.863,618.85,308.638z"/>
	<path fill="#FFEBCC" d="M614.498,308.123c0.091-1.207-2.462,3.741-1.487,3.736C616.911,311.839,614.362,309.952,614.498,308.123"/>
	<path fill="#FFCB65" d="M682.108,304.119c0.441,1.331,0.89,2.01,0.242,3.948c-0.648,1.938-4.973,2.941-6.668,2.036
		c-1.694-0.905-2.6-1.721-2.42-5.349c0.179-3.627,4.666-2.068,5.564-2.066S681.827,303.269,682.108,304.119"/>
	<path fill="none" stroke="#000000" stroke-miterlimit="10" d="M682.108,304.119c0.441,1.331,0.89,2.01,0.242,3.948
		c-0.648,1.938-4.973,2.941-6.668,2.036c-1.694-0.905-2.6-1.721-2.42-5.349c0.179-3.627,4.666-2.068,5.564-2.066
		S681.827,303.269,682.108,304.119z"/>
	<path fill="#FFEBCC" d="M679.069,304.232c0,0-0.89,2.462-4.742,2.201C669.864,306.129,680.737,301.749,679.069,304.232"/>
	<path fill="#FFCB65" d="M689.417,305.558c0.388,0.83,0.76,1.259,0.318,2.434s-3.779,1.679-5.131,1.079
		c-1.352-0.601-2.084-1.126-2.064-3.352c0.021-2.226,3.57-1.151,4.271-1.126S689.169,305.028,689.417,305.558"/>
	<path fill="none" stroke="#000000" stroke-miterlimit="10" d="M689.417,305.558c0.388,0.83,0.76,1.259,0.318,2.434
		s-3.779,1.679-5.131,1.079c-1.352-0.601-2.084-1.126-2.064-3.352c0.021-2.226,3.57-1.151,4.271-1.126
		S689.169,305.028,689.417,305.558z"/>
	<path fill="#FFEBCC" d="M685.416,305.206c0.082-0.825-2.263,2.559-1.368,2.555C687.636,307.748,685.291,306.457,685.416,305.206"/>
	<path fill="#FFCB65" d="M655.84,306.769c0.704,1.203,1.268,1.768,1.116,3.794c-0.152,2.025-3.871,3.92-5.625,3.399
		c-1.752-0.521-2.762-1.124-3.422-4.695c-0.658-3.571,3.791-3.006,4.611-3.195C653.342,305.884,655.391,306.001,655.84,306.769"/>
	<path fill="none" stroke="#000000" stroke-miterlimit="10" d="M655.84,306.769c0.704,1.203,1.268,1.768,1.116,3.794
		c-0.152,2.025-3.871,3.92-5.625,3.399c-1.752-0.521-2.762-1.124-3.422-4.695c-0.658-3.571,3.791-3.006,4.611-3.195
		C653.342,305.884,655.391,306.001,655.84,306.769z"/>
	<path fill="#FFEBCC" d="M653.093,307.525c0,0-0.255,2.587-3.83,3.151C645.119,311.329,654.05,304.753,653.093,307.525"/>
	<path fill="#FFCB65" d="M647.753,309.899c0.52,0.682,0.938,1,0.805,2.166s-2.946,2.304-4.26,2.027
		c-1.312-0.277-2.066-0.61-2.531-2.654c-0.463-2.044,2.877-1.777,3.496-1.896C645.884,309.423,647.423,309.464,647.753,309.899"/>
	<path fill="none" stroke="#000000" stroke-miterlimit="10" d="M647.753,309.899c0.52,0.682,0.938,1,0.805,2.166
		s-2.946,2.304-4.26,2.027c-1.312-0.277-2.066-0.61-2.531-2.654c-0.463-2.044,2.877-1.777,3.496-1.896
		C645.884,309.423,647.423,309.464,647.753,309.899z"/>
	<path fill="#FFCB65" d="M662.837,306.617c0.541,0.726,0.979,1.065,0.843,2.303s-3.069,2.438-4.438,2.141
		c-1.369-0.298-2.158-0.654-2.644-2.826c-0.487-2.172,2.997-1.879,3.642-2.004C660.886,306.106,662.49,306.154,662.837,306.617"/>
	<path fill="none" stroke="#000000" stroke-miterlimit="10" d="M662.837,306.617c0.541,0.726,0.979,1.065,0.843,2.303
		s-3.069,2.438-4.438,2.141c-1.369-0.298-2.158-0.654-2.644-2.826c-0.487-2.172,2.997-1.879,3.642-2.004
		C660.886,306.106,662.49,306.154,662.837,306.617z"/>
	<path fill="#FFEBCC" d="M659.105,307.125c-0.112-0.822-1.486,2.973-0.669,2.78C661.706,309.129,659.275,308.37,659.105,307.125"/>
	<path fill="#FFCB65" d="M640.874,207.477c0.434,1.325,0.863,1.997,0.284,3.944c-0.578,1.947-4.615,3.009-6.218,2.127
		c-1.601-0.881-2.461-1.685-2.347-5.314c0.115-3.63,4.343-2.132,5.185-2.143C638.621,206.081,640.599,206.631,640.874,207.477"/>
	<path fill="none" stroke="#000000" stroke-miterlimit="10" d="M640.874,207.477c0.434,1.325,0.863,1.997,0.284,3.944
		c-0.578,1.947-4.615,3.009-6.218,2.127c-1.601-0.881-2.461-1.685-2.347-5.314c0.115-3.63,4.343-2.132,5.185-2.143
		C638.621,206.081,640.599,206.631,640.874,207.477z"/>
	<path fill="#FFEBCC" d="M638.028,207.632c0,0-0.798,2.474-4.412,2.265C629.43,209.655,639.555,205.127,638.028,207.632"/>
	<path fill="#FFCB65" d="M632.308,208.817c0.361,0.777,0.703,1.176,0.326,2.287c-0.377,1.112-3.369,1.626-4.594,1.076
		c-1.224-0.549-1.891-1.035-1.908-3.131c-0.02-2.095,3.188-1.125,3.818-1.11C630.581,207.955,632.076,208.321,632.308,208.817"/>
	<path fill="none" stroke="#000000" stroke-miterlimit="10" d="M632.308,208.817c0.361,0.777,0.703,1.176,0.326,2.287
		c-0.377,1.112-3.369,1.626-4.594,1.076c-1.224-0.549-1.891-1.035-1.908-3.131c-0.02-2.095,3.188-1.125,3.818-1.11
		C630.581,207.955,632.076,208.321,632.308,208.817z"/>
	<path fill="#FFCB65" d="M647.743,208.815c0.375,0.825,0.73,1.248,0.335,2.429c-0.397,1.181-3.517,1.731-4.792,1.15
		c-1.275-0.582-1.969-1.097-1.984-3.323c-0.014-2.226,3.328-1.2,3.986-1.185C645.945,207.901,647.503,208.289,647.743,208.815"/>
	<path fill="none" stroke="#000000" stroke-miterlimit="10" d="M647.743,208.815c0.375,0.825,0.73,1.248,0.335,2.429
		c-0.397,1.181-3.517,1.731-4.792,1.15c-1.275-0.582-1.969-1.097-1.984-3.323c-0.014-2.226,3.328-1.2,3.986-1.185
		C645.945,207.901,647.503,208.289,647.743,208.815z"/>
	<path fill="#FFEBCC" d="M643.989,208.518c0.065-0.827-2.082,2.59-1.244,2.574C646.105,211.029,643.891,209.771,643.989,208.518"/>
	<path fill="#FFCB65" d="M585.334,304.252c-0.612,1.946-1.237,2.938-0.336,5.772c0.901,2.833,6.916,4.299,9.274,2.976
		c2.357-1.323,3.617-2.516,3.367-7.819c-0.248-5.304-6.49-3.024-7.742-3.021C588.647,302.163,585.726,303.01,585.334,304.252"/>
	<path fill="none" stroke="#000000" stroke-miterlimit="10" d="M585.334,304.252c-0.612,1.946-1.237,2.938-0.336,5.772
		c0.901,2.833,6.916,4.299,9.274,2.976c2.357-1.323,3.617-2.516,3.367-7.819c-0.248-5.304-6.49-3.024-7.742-3.021
		C588.647,302.163,585.726,303.01,585.334,304.252z"/>
	<path fill="#A92C2C" d="M593.702,304.252c-0.729-2.765-6.086,0.57-5.705,3.043c0.38,2.472-0.19,4.374,3.043,3.803
		C594.272,310.528,594.653,307.865,593.702,304.252"/>
	<path fill="none" stroke="#000000" stroke-miterlimit="10" d="M593.702,304.252c-0.729-2.765-6.086,0.57-5.705,3.043
		c0.38,2.472-0.19,4.374,3.043,3.803C594.272,310.528,594.653,307.865,593.702,304.252z"/>
	<path fill="#FFCB65" d="M580.009,278.769c2.662,3.803,5.516,9.509,9.129,8.748c3.613-0.761,14.644-0.951,16.164,4.184
		c0,0,7.797-8.368,14.834-4.184c7.037,4.184,10.649-4.754,10.08-10.65c-0.199-2.047-13.693,1.712-13.693,1.712
		c9.889-8.938-3.281-26.955-14.072-21.109c-9.129,4.944-14.072,14.643-9.129,20.348C595.16,279.94,577.347,274.966,580.009,278.769"
		/>
	<path fill="none" stroke="#000000" stroke-miterlimit="10" d="M580.009,278.769c2.662,3.803,5.516,9.509,9.129,8.748
		c3.613-0.761,14.644-0.951,16.164,4.184c0,0,7.797-8.368,14.834-4.184c7.037,4.184,10.649-4.754,10.08-10.65
		c-0.199-2.047-13.693,1.712-13.693,1.712c9.889-8.938-3.281-26.955-14.072-21.109c-9.129,4.944-14.072,14.643-9.129,20.348
		C595.16,279.94,577.347,274.966,580.009,278.769z"/>
	<path fill="#FFCB65" d="M514.78,272.303c1.026,2.707,2.096,7.732,4.396,7.825c2.301,0.094,8.999,1.667,9.132,5.005
		c0,0,4.556-0.978,9.608-0.259c3.867,0.551,11.678-2.073,12.234-5.725c0.194-1.268-15.404-1.521-15.404-1.521
		c7.349-3.89,4.498-15.51-2.922-13.628c-6.275,1.592-9.082,7.52-6.967,11.726C525.646,277.291,513.753,269.596,514.78,272.303"/>
	<path fill="none" stroke="#000000" stroke-miterlimit="10" d="M514.78,272.303c1.026,2.707,2.096,7.732,4.396,7.825
		c2.301,0.094,8.999,1.667,9.132,5.005c0,0,4.556-0.978,9.608-0.259c3.867,0.551,11.678-2.073,12.234-5.725
		c0.194-1.268-15.404-1.521-15.404-1.521c7.349-3.89,4.498-15.51-2.922-13.628c-6.275,1.592-9.082,7.52-6.967,11.726
		C525.646,277.291,513.753,269.596,514.78,272.303z"/>
	<path fill="#FFCB65" d="M663.443,282.033c2.24,1.835,4.914,4.78,6.956,3.715c2.041-1.066,13.188-1.818,14.966,1.009
		c0,0-1.282-7.56,3.648-6.234c4.93,1.327,5.593-4.65,4.257-8.094c-0.464-1.196-7.934,3.336-7.934,3.336
		c4.432-7.034-6.514-15.633-12.008-10.304c-4.648,4.508-1.974,9.955,1.957,12.548C676.749,278.973,661.204,280.198,663.443,282.033"
		/>
	<path fill="none" stroke="#000000" stroke-miterlimit="10" d="M663.443,282.033c2.24,1.835,4.914,4.78,6.956,3.715
		c2.041-1.066,13.188-1.818,14.966,1.009c0,0-1.282-7.56,3.648-6.234c4.93,1.327,5.593-4.65,4.257-8.094
		c-0.464-1.196-7.934,3.336-7.934,3.336c4.432-7.034-6.514-15.633-12.008-10.304c-4.648,4.508-1.974,9.955,1.957,12.548
		C676.749,278.973,661.204,280.198,663.443,282.033z"/>
	<path fill="#FFCB65" d="M633.781,278.543c-9.783,4.788-0.515,8.163,1.562,7.842C637.419,286.064,638.136,276.413,633.781,278.543"
		/>
	<path fill="none" stroke="#000000" stroke-miterlimit="10" d="M633.781,278.543c-9.783,4.788-0.515,8.163,1.562,7.842
		C637.419,286.064,638.136,276.413,633.781,278.543z"/>
	<path fill="#FFCB65" d="M660.025,279.304c-9.783,4.788-0.515,8.163,1.562,7.842C663.662,286.825,664.38,277.173,660.025,279.304"/>
	<path fill="none" stroke="#000000" stroke-miterlimit="10" d="M660.025,279.304c-9.783,4.788-0.515,8.163,1.562,7.842
		C663.662,286.825,664.38,277.173,660.025,279.304z"/>
	<path fill="#FFCB65" d="M578.107,279.529c-10.649,2.282-2.472,7.797-0.38,7.987S582.849,278.514,578.107,279.529"/>
	<path fill="none" stroke="#000000" stroke-miterlimit="10" d="M578.107,279.529c-10.649,2.282-2.472,7.797-0.38,7.987
		S582.849,278.514,578.107,279.529z"/>
	<path fill="#FFCB65" d="M570.761,282.934c-8.141,1.744-1.891,5.959-0.291,6.105C572.068,289.184,574.384,282.158,570.761,282.934"
		/>
	<path fill="none" stroke="#000000" stroke-miterlimit="10" d="M570.761,282.934c-8.141,1.744-1.891,5.959-0.291,6.105
		C572.068,289.184,574.384,282.158,570.761,282.934z"/>
	<path fill="#FFCB65" d="M550.269,284.429c10.279,3.597,6.171-5.369,4.484-6.621C553.065,276.557,545.692,282.828,550.269,284.429"
		/>
	<path fill="none" stroke="#000000" stroke-miterlimit="10" d="M550.269,284.429c10.279,3.597,6.171-5.369,4.484-6.621
		C553.065,276.557,545.692,282.828,550.269,284.429z"/>
	<path fill="#FFCB65" d="M556.028,287.627c7.854,2.76,4.723-4.097,3.435-5.056C558.175,281.613,552.532,286.398,556.028,287.627"/>
	<path fill="none" stroke="#000000" stroke-miterlimit="10" d="M556.028,287.627c7.854,2.76,4.723-4.097,3.435-5.056
		C558.175,281.613,552.532,286.398,556.028,287.627z"/>
	<path fill="#FFCB65" d="M651.116,287.247c7.854,2.76,4.722-4.097,3.434-5.056C653.262,281.232,647.62,286.018,651.116,287.247"/>
	<path fill="none" stroke="#000000" stroke-miterlimit="10" d="M651.116,287.247c7.854,2.76,4.722-4.097,3.434-5.056
		C653.262,281.232,647.62,286.018,651.116,287.247z"/>
	<path fill="#FFCB65" d="M638.088,283.231c-5.734,6.035,1.805,5.986,3.206,5.203C642.696,287.651,640.641,280.545,638.088,283.231"
		/>
	<path fill="none" stroke="#000000" stroke-miterlimit="10" d="M638.088,283.231c-5.734,6.035,1.805,5.986,3.206,5.203
		C642.696,287.651,640.641,280.545,638.088,283.231z"/>
	<path fill="#4E3760" d="M615.509,265.076c-3.803-2.092-9.065-6.086-10.967-4.564c-1.902,1.521-10.649,7.417-9.699,10.65
		c0.951,3.232,7.606,12.361,11.41,13.122C610.056,285.044,616.46,269.641,615.509,265.076"/>
	<path fill="none" stroke="#000000" stroke-miterlimit="10" d="M615.509,265.076c-3.803-2.092-9.065-6.086-10.967-4.564
		c-1.902,1.521-10.649,7.417-9.699,10.65c0.951,3.232,7.606,12.361,11.41,13.122C610.056,285.044,616.46,269.641,615.509,265.076"/>
	<path fill="#4E3760" d="M683.563,269.6c-1.706-0.938-5.9-3.125-6.945-2.812c-5.072,1.518-2.748,4.091-2.322,5.541
		c0.427,1.45,3.412,5.544,5.117,5.885C681.118,278.555,683.989,271.646,683.563,269.6"/>
	<path fill="none" stroke="#000000" stroke-miterlimit="10" d="M683.563,269.6c-1.706-0.938-5.9-3.125-6.945-2.812
		c-5.072,1.518-2.748,4.091-2.322,5.541c0.427,1.45,3.412,5.544,5.117,5.885C681.118,278.555,683.989,271.646,683.563,269.6"/>
	<path fill="#4E3760" d="M537.13,269.979c-1.706-0.938-5.9-3.125-6.946-2.812c-5.071,1.518-2.748,4.091-2.321,5.541
		c0.426,1.45,1.756,3.817,3.463,4.158C533.03,277.208,537.556,272.027,537.13,269.979"/>
	<path fill="none" stroke="#000000" stroke-miterlimit="10" d="M537.13,269.979c-1.706-0.938-5.9-3.125-6.946-2.812
		c-5.071,1.518-2.748,4.091-2.321,5.541c0.426,1.45,1.756,3.817,3.463,4.158C533.03,277.208,537.556,272.027,537.13,269.979"/>
	<path fill="#FFCB65" d="M603.249,207.243c-3.447-3.102,4.742-16.211,9.926-11.689c5.183,4.521,12.129,8.491,8.16,11.689
		c-3.971,3.198-5.072,6.176-0.441,6.176c4.632,0,2.757-1.434,5.294-3.088c0.743-0.486,4.411,2.426,0.661,3.529
		c-9.307,2.737-11.358-0.552-15.659-0.883c-4.302-0.33-4.963-0.33-9.704,1.985c-4.742,2.316-10.036-2.205-7.499-3.308
		c2.536-1.103,1.874,1.213,3.528,1.985S608.763,212.205,603.249,207.243"/>
	<path fill="none" stroke="#000000" stroke-miterlimit="10" d="M603.249,207.243c-3.447-3.102,4.742-16.211,9.926-11.689
		c5.183,4.521,12.129,8.491,8.16,11.689c-3.971,3.198-5.072,6.176-0.441,6.176c4.632,0,2.757-1.434,5.294-3.088
		c0.743-0.486,4.411,2.426,0.661,3.529c-9.307,2.737-11.358-0.552-15.659-0.883c-4.302-0.33-4.963-0.33-9.704,1.985
		c-4.742,2.316-10.036-2.205-7.499-3.308c2.536-1.103,1.874,1.213,3.528,1.985S608.763,212.205,603.249,207.243z"/>
	<path fill="#B9853E" d="M615.762,199.657c-6.188-3.3-10.84-1.141-11.409,1.902c-0.572,3.043,1.711,6.466,4.182,7.226
		c2.474,0.761,3.662,1.626,6.087,1.141C619.375,208.976,618.614,201.178,615.762,199.657"/>
	<path fill="none" stroke="#000000" stroke-miterlimit="10" d="M615.762,199.657c-6.188-3.3-10.84-1.141-11.409,1.902
		c-0.572,3.043,1.711,6.466,4.182,7.226c2.474,0.761,3.662,1.626,6.087,1.141C619.375,208.976,618.614,201.178,615.762,199.657z"/>
	<path fill="#FFCB65" d="M650.236,206.391c-3.447-3.102,4.741-16.211,9.925-11.689c5.184,4.521,10.157,10.315,6.188,13.513
		c-3.971,3.198-3.1,4.352,1.531,4.352c4.633,0,2.758-1.434,5.295-3.088c0.743-0.486,4.41,2.426,0.66,3.529
		c-9.306,2.737-11.357-0.552-15.658-0.883c-4.302-0.33-1.73-0.901-6.472,1.415s-10.13-3.363-7.593-4.465
		c2.535-1.103,3.859,1.129,5.515,1.901C651.281,211.748,655.75,211.353,650.236,206.391"/>
	<path fill="none" stroke="#000000" stroke-miterlimit="10" d="M650.236,206.391c-3.447-3.102,4.741-16.211,9.925-11.689
		c5.184,4.521,10.157,10.315,6.188,13.513c-3.971,3.198-3.1,4.352,1.531,4.352c4.633,0,2.758-1.434,5.295-3.088
		c0.743-0.486,4.41,2.426,0.66,3.529c-9.306,2.737-11.357-0.552-15.658-0.883c-4.302-0.33-1.73-0.901-6.472,1.415
		s-10.13-3.363-7.593-4.465c2.535-1.103,3.859,1.129,5.515,1.901C651.281,211.748,655.75,211.353,650.236,206.391z"/>
	<path fill="#B9853E" d="M661.023,198.516c-6.188-3.3-8.558,1.141-9.128,4.184c-0.571,3.043,1.711,6.466,4.183,7.226
		c2.474,0.761,4.042-0.275,6.466-0.76C667.3,208.214,663.876,200.037,661.023,198.516"/>
	<path fill="none" stroke="#000000" stroke-miterlimit="10" d="M661.023,198.516c-6.188-3.3-8.558,1.141-9.128,4.184
		c-0.571,3.043,1.711,6.466,4.183,7.226c2.474,0.761,4.042-0.275,6.466-0.76C667.3,208.214,663.876,200.037,661.023,198.516z"/>
	<path fill="#FFCB65" d="M542.218,209.053c-3.447-3.102,4.742-16.211,9.925-11.689c5.183,4.521,10.157,10.315,6.187,13.513
		c-3.97,3.198-3.099,4.352,1.532,4.352c4.632,0,2.757-1.434,5.294-3.088c0.744-0.486,4.411,2.426,0.661,3.529
		c-9.306,2.737-11.358-0.552-15.659-0.883c-4.301-0.33-1.729-0.901-6.471,1.415c-4.742,2.316-10.13-3.363-7.593-4.465
		c2.536-1.103,3.86,1.129,5.515,1.901S547.731,214.015,542.218,209.053"/>
	<path fill="none" stroke="#000000" stroke-miterlimit="10" d="M542.218,209.053c-3.447-3.102,4.742-16.211,9.925-11.689
		c5.183,4.521,10.157,10.315,6.187,13.513c-3.97,3.198-3.099,4.352,1.532,4.352c4.632,0,2.757-1.434,5.294-3.088
		c0.744-0.486,4.411,2.426,0.661,3.529c-9.306,2.737-11.358-0.552-15.659-0.883c-4.301-0.33-1.729-0.901-6.471,1.415
		c-4.742,2.316-10.13-3.363-7.593-4.465c2.536-1.103,3.86,1.129,5.515,1.901S547.731,214.015,542.218,209.053z"/>
	<path fill="#B9853E" d="M553.005,201.178c-6.188-3.3-8.559,1.141-9.129,4.184c-0.57,3.043,1.711,6.466,4.184,7.226
		c2.473,0.761,4.042-0.275,6.466-0.76C559.28,210.877,555.857,202.699,553.005,201.178"/>
	<path fill="none" stroke="#000000" stroke-miterlimit="10" d="M553.005,201.178c-6.188-3.3-8.559,1.141-9.129,4.184
		c-0.57,3.043,1.711,6.466,4.184,7.226c2.473,0.761,4.042-0.275,6.466-0.76C559.28,210.877,555.857,202.699,553.005,201.178z"/>
	<path fill="#FFCB65" d="M646.95,350.274c2.206-2.205,4.945-2.854,5.705-1.902c0.762,0.951,1.331,1.902,1.521,3.805
		c0.19,1.9-3.613,5.705-4.944,3.803S644.479,352.747,646.95,350.274"/>
	<path fill="none" stroke="#000000" stroke-miterlimit="10" d="M646.95,350.274c2.206-2.205,4.945-2.854,5.705-1.902
		c0.762,0.951,1.331,1.902,1.521,3.805c0.19,1.9-3.613,5.705-4.944,3.803S644.479,352.747,646.95,350.274z"/>
	<path fill="#FFCB65" d="M613.86,352.177c2.205-2.207,4.945-2.854,5.705-1.902c0.761,0.951,1.33,1.902,1.521,3.805
		c0.19,1.9-3.613,5.703-4.945,3.803C614.812,355.979,611.388,354.647,613.86,352.177"/>
	<path fill="none" stroke="#000000" stroke-miterlimit="10" d="M613.86,352.177c2.205-2.207,4.945-2.854,5.705-1.902
		c0.761,0.951,1.33,1.902,1.521,3.805c0.19,1.9-3.613,5.703-4.945,3.803C614.812,355.979,611.388,354.647,613.86,352.177z"/>
	<path fill="#FFCB65" d="M621.468,350.274c2.205-2.205,4.944-2.854,5.705-1.902c0.76,0.951,1.33,1.902,1.521,3.805
		c0.189,1.9-3.614,5.705-4.945,3.803S618.995,352.747,621.468,350.274"/>
	<path fill="none" stroke="#000000" stroke-miterlimit="10" d="M621.468,350.274c2.205-2.205,4.944-2.854,5.705-1.902
		c0.76,0.951,1.33,1.902,1.521,3.805c0.189,1.9-3.614,5.705-4.945,3.803S618.995,352.747,621.468,350.274z"/>
	<path fill="#FFCB65" d="M654.558,349.515c2.205-2.207,4.945-2.854,5.705-1.902c0.761,0.951,1.33,1.902,1.521,3.803
		c0.189,1.902-3.613,5.705-4.945,3.805C655.509,353.317,652.085,351.985,654.558,349.515"/>
	<path fill="none" stroke="#000000" stroke-miterlimit="10" d="M654.558,349.515c2.205-2.207,4.945-2.854,5.705-1.902
		c0.761,0.951,1.33,1.902,1.521,3.803c0.189,1.902-3.613,5.705-4.945,3.805C655.509,353.317,652.085,351.985,654.558,349.515z"/>
	<path fill="#FFCB65" d="M675.097,346.472c2.205-2.207,4.944-2.854,5.705-1.902c0.76,0.951,1.33,1.902,1.521,3.803
		c0.189,1.902-3.614,5.705-4.945,3.805C676.047,350.274,672.624,348.942,675.097,346.472"/>
	<path fill="none" stroke="#000000" stroke-miterlimit="10" d="M675.097,346.472c2.205-2.207,4.944-2.854,5.705-1.902
		c0.76,0.951,1.33,1.902,1.521,3.803c0.189,1.902-3.614,5.705-4.945,3.805C676.047,350.274,672.624,348.942,675.097,346.472z"/>
	<path fill="#FFCB65" d="M683.083,345.71c2.207-2.205,4.945-2.854,5.705-1.902c0.762,0.951,1.331,1.902,1.522,3.805
		c0.19,1.9-3.614,5.705-4.945,3.803S680.611,348.183,683.083,345.71"/>
	<path fill="none" stroke="#000000" stroke-miterlimit="10" d="M683.083,345.71c2.207-2.205,4.945-2.854,5.705-1.902
		c0.762,0.951,1.331,1.902,1.522,3.805c0.19,1.9-3.614,5.705-4.945,3.803S680.611,348.183,683.083,345.71z"/>
	<path fill="#FFCB65" d="M584.192,351.034c2.207-2.205,4.945-2.852,5.705-1.9c0.762,0.951,1.332,1.9,1.522,3.803
		s-3.614,5.705-4.944,3.803C585.144,354.839,581.722,353.507,584.192,351.034"/>
	<path fill="none" stroke="#000000" stroke-miterlimit="10" d="M584.192,351.034c2.207-2.205,4.945-2.852,5.705-1.9
		c0.762,0.951,1.332,1.9,1.522,3.803s-3.614,5.705-4.944,3.803C585.144,354.839,581.722,353.507,584.192,351.034z"/>
	<path fill="#FFCB65" d="M593.833,351.593c1.688-1.715,3.785-2.219,4.367-1.479c0.582,0.738,1.02,1.479,1.164,2.957
		c0.146,1.479-2.766,4.436-3.784,2.957S591.94,353.515,593.833,351.593"/>
	<path fill="none" stroke="#000000" stroke-miterlimit="10" d="M593.833,351.593c1.688-1.715,3.785-2.219,4.367-1.479
		c0.582,0.738,1.02,1.479,1.164,2.957c0.146,1.479-2.766,4.436-3.784,2.957S591.94,353.515,593.833,351.593z"/>
	<path fill="#FFCB65" d="M548.728,349.063c2.93-2.5,6.568-3.232,7.578-2.156c1.011,1.078,1.769,2.156,2.021,4.311
		c0.252,2.156-4.8,6.469-6.568,4.312S545.443,351.866,548.728,349.063"/>
	<path fill="none" stroke="#000000" stroke-miterlimit="10" d="M548.728,349.063c2.93-2.5,6.568-3.232,7.578-2.156
		c1.011,1.078,1.769,2.156,2.021,4.311c0.252,2.156-4.8,6.469-6.568,4.312S545.443,351.866,548.728,349.063z"/>
	<path fill="#FFCB65" d="M559.666,349.894c3.653-2.205,8.19-2.852,9.451-1.902c1.26,0.951,2.204,1.902,2.52,3.805
		s-5.985,5.705-8.19,3.803C561.241,353.698,555.571,352.366,559.666,349.894"/>
	<path fill="none" stroke="#000000" stroke-miterlimit="10" d="M559.666,349.894c3.653-2.205,8.19-2.852,9.451-1.902
		c1.26,0.951,2.204,1.902,2.52,3.805s-5.985,5.705-8.19,3.803C561.241,353.698,555.571,352.366,559.666,349.894z"/>
	<path fill="#FFCB65" d="M518.013,347.993c2.206-2.207,4.945-2.854,5.705-1.902c0.761,0.951,1.33,1.902,1.521,3.803
		c0.19,1.902-3.613,5.705-4.945,3.805C518.964,351.796,515.54,350.464,518.013,347.993"/>
	<path fill="none" stroke="#000000" stroke-miterlimit="10" d="M518.013,347.993c2.206-2.207,4.945-2.854,5.705-1.902
		c0.761,0.951,1.33,1.902,1.521,3.803c0.19,1.902-3.613,5.705-4.945,3.805C518.964,351.796,515.54,350.464,518.013,347.993z"/>
	<path fill="#FFCB65" d="M526.298,348.339c2-1.812,4.481-2.346,5.17-1.562c0.689,0.781,1.207,1.562,1.379,3.125
		c0.172,1.564-3.274,4.691-4.48,3.127C527.16,351.466,524.058,350.37,526.298,348.339"/>
	<path fill="none" stroke="#000000" stroke-miterlimit="10" d="M526.298,348.339c2-1.812,4.481-2.346,5.17-1.562
		c0.689,0.781,1.207,1.562,1.379,3.125c0.172,1.564-3.274,4.691-4.48,3.127C527.16,351.466,524.058,350.37,526.298,348.339z"/>
	<path fill="#FFEBCC" d="M528.727,349.712c0,0,0.679,2.473,2.094,1.332C532.458,349.722,527.753,347.39,528.727,349.712"/>
	<path fill="#FFEBCC" d="M519.979,348.571c0,0,0.679,2.473,2.094,1.33C523.71,348.581,519.005,346.249,519.979,348.571"/>
	<path fill="#FFEBCC" d="M550.343,348.942c-0.115-1.207,3.148,3.742,1.902,3.736C547.257,352.659,550.517,350.772,550.343,348.942"
		/>
	<path fill="#FFEBCC" d="M570.713,350.923c0,0-1.944-3.18-5.856-1.631C560.323,351.085,573.476,353.894,570.713,350.923"/>
	<path fill="#FFEBCC" d="M596.856,350.085c-0.09-1.207,2.462,3.74,1.488,3.734C594.443,353.8,596.993,351.913,596.856,350.085"/>
	<path fill="#FFEBCC" d="M588.03,349.962c-0.09-1.207,2.462,3.74,1.488,3.736C585.617,353.677,588.166,351.79,588.03,349.962"/>
	<path fill="#FFEBCC" d="M620.147,351.962c0,0-0.969,3.6-5.159,3.217C610.134,354.735,621.96,348.331,620.147,351.962"/>
	<path fill="#FFEBCC" d="M624.265,348.888c0.09-1.207-2.462,3.742-1.488,3.736C626.678,352.604,624.129,350.718,624.265,348.888"/>
	<path fill="#FFEBCC" d="M688.653,346.431c0,0-0.51,2.357-3.443,1.842C681.812,347.675,689.749,344.106,688.653,346.431"/>
	<path fill="#FFEBCC" d="M694.925,347.425c0.082-0.826-2.264,2.559-1.368,2.555C697.144,349.966,694.8,348.675,694.925,347.425"/>
	<path fill="#FFEBCC" d="M659.938,349.364c0,0-0.254,2.586-3.83,3.15C651.966,353.167,660.896,346.591,659.938,349.364"/>
	<path fill="#FFEBCC" d="M649.232,351.415c-0.112-0.82-1.485,2.973-0.669,2.781C651.833,353.419,649.402,352.661,649.232,351.415"/>
	<path fill="#FFCB65" d="M532.847,379.181c-3.115-0.924-2.004,4.004,4.563,6.467c21.3,7.986,96.799,15.594,143.392-3.805
		c5.588-2.326,6.275-8.748,2.281-6.465C679.091,377.659,602.069,399.72,532.847,379.181"/>
	<path fill="none" stroke="#000000" stroke-miterlimit="10" d="M532.847,379.181c-3.115-0.924-2.004,4.004,4.563,6.467
		c21.3,7.986,96.799,15.594,143.392-3.805c5.588-2.326,6.275-8.748,2.281-6.465C679.091,377.659,602.069,399.72,532.847,379.181z"/>
</g>
<g>
	<polygon fill="#561D1D" points="172.156,207.505 145.489,198.173 150.489,111.506 201.489,111.506 210.156,138.839 
		189.156,176.505 	"/>
	<polygon fill="none" stroke="#000000" stroke-miterlimit="10" points="172.156,207.505 145.489,198.173 150.489,111.506 
		201.489,111.506 210.156,138.839 189.156,176.505 	"/>
	<polygon fill="#561D1D" points="87.822,194.839 61.822,205.172 99.155,107.506 135.489,110.839 146.155,205.172 130.822,206.172 
		129.822,133.506 107.155,134.172 	"/>
	<polygon fill="none" stroke="#000000" stroke-miterlimit="10" points="87.822,194.839 61.822,205.172 99.155,107.506 
		135.489,110.839 146.155,205.172 130.822,206.172 129.822,133.506 107.155,134.172 	"/>
	<polygon fill="#561D1D" points="178.489,111.172 107.489,104.505 109.156,64.84 173.489,25.505 200.489,37.84 204.156,85.505 	"/>
	<polygon fill="none" stroke="#000000" stroke-miterlimit="10" points="178.489,111.172 107.489,104.505 109.156,64.84 
		173.489,25.505 200.489,37.84 204.156,85.505 	"/>
	<path fill="#561D1D" d="M42.822,93.506c0.167-2.5,7.647,54.643,9.884,52.791c6.709-5.557,20.219-8.074,25.449-6.791
		c17.667,4.333,20-34.333,20-34.333"/>
	<path fill="none" stroke="#000000" stroke-miterlimit="10" d="M42.822,93.506c0.167-2.5,7.647,54.643,9.884,52.791
		c6.709-5.557,20.219-8.074,25.449-6.791c17.667,4.333,20-34.333,20-34.333"/>
	<path fill="#561D1D" d="M4.489,106.506c0,0,19.919,38.904,26.667,48.667c7.6,10.997,6.447-4.687,7.666-2.334
		c2.814,5.429-26.666-48.333-19.333-52.333"/>
	<path fill="none" stroke="#000000" stroke-miterlimit="10" d="M4.489,106.506c0,0,19.919,38.904,26.667,48.667
		c7.6,10.997,6.447-4.687,7.666-2.334c2.814,5.429-26.666-48.333-19.333-52.333"/>
	<path fill="#561D1D" d="M73.156,24.506l2.667,48.667c0,0-5-2.667-8,0c-1.752,1.556-1.075,19.436-1.334,23.666
		c-0.207,3.386-9.588,4.865-17.234,5.509c-5.3,0.446-10.766-83.175-10.766-83.175"/>
	<path fill="none" stroke="#000000" stroke-miterlimit="10" d="M73.156,24.506l2.667,48.667c0,0-5-2.667-8,0
		c-1.752,1.556-1.075,19.436-1.334,23.666c-0.207,3.386-9.588,4.865-17.234,5.509c-5.3,0.446-10.766-83.175-10.766-83.175"/>
	<polygon fill="#561D1D" points="17.489,21.839 29.156,51.839 32.489,18.839 	"/>
	<polygon fill="none" stroke="#000000" stroke-miterlimit="10" points="17.489,21.839 29.156,51.839 32.489,18.839 	"/>
	<path fill="#E62E32" d="M214.489,169.839c0-2.667-8.333-1.667-8,0s1.667,30.333-36.667,28.667
		c-3.723-0.162-4.333-39.667-2.666-40.667c1.666-1,19,0.667,22,17.333c0.636,3.534,7.333,1.334,7.333,1.334l-1.333-42.667h-10
		c0,0,3.333,17-18.667,17.333l-0.667-36.333c0,0,39.334-5,39.334,27c0,24.676,8-0.667,8-0.667l-2-33.333l-99.334-4.667
		c0,0,2-38.333,2-41.333s-11.666-2-11,1.333c0.667,3.334-9.333,28.334-20.333,31.334s-29.333-1.334-29.333-1.334s3-59,6.666-64.666
		c0,0,2-6,13.334-4v-7.334l-54-3.666c0.666,3.666-1.667,8.333-1.667,8.333c6.667,0,10.333-3,10.333,3.333
		c0,6.334,1,65.334-4.666,65.667c-5.667,0.333-15.334-0.667-16,2.333c-0.667,3-4,10-2.667,13.334
		c1.333,3.333,11.386,1.966,13.333,6.666c11.34,27.371,27.365,89.521,26.667,90.667c-1.561,2.562,11,5.667,17.333,1.333
		c6.334-4.333,37-91.666,42.667-94c5.667-2.333,27.333,2.667,27.333,2.667c3.334,25.667,8,77,0.667,81.333
		c-7.333,4.334-17.333-4.333-17.333,2c0,6.334,1.333,12,1.333,12l103.333,2.667C219.822,211.839,214.489,172.506,214.489,169.839
		 M68.489,157.839c-2-0.667-12.667-34.333-13.333-41.333c-0.667-7,10-6,10-6l1.333-8.667l12.667,0.667l2,8c0,0,6,0.333,7.333,6
		C89.822,122.172,70.489,158.506,68.489,157.839"/>
	<path fill="none" stroke="#000000" stroke-miterlimit="10" d="M214.489,169.839c0-2.667-8.333-1.667-8,0
		s1.667,30.333-36.667,28.667c-3.723-0.162-4.333-39.667-2.666-40.667c1.666-1,19,0.667,22,17.333
		c0.636,3.534,7.333,1.334,7.333,1.334l-1.333-42.667h-10c0,0,3.333,17-18.667,17.333l-0.667-36.333c0,0,39.334-5,39.334,27
		c0,24.676,8-0.667,8-0.667l-2-33.333l-99.334-4.667c0,0,2-38.333,2-41.333s-11.666-2-11,1.333
		c0.667,3.334-9.333,28.334-20.333,31.334s-29.333-1.334-29.333-1.334s3-59,6.666-64.666c0,0,2-6,13.334-4v-7.334l-54-3.666
		c0.666,3.666-1.667,8.333-1.667,8.333c6.667,0,10.333-3,10.333,3.333c0,6.334,1,65.334-4.666,65.667
		c-5.667,0.333-15.334-0.667-16,2.333c-0.667,3-4,10-2.667,13.334c1.333,3.333,11.386,1.966,13.333,6.666
		c11.34,27.371,27.365,89.521,26.667,90.667c-1.561,2.562,11,5.667,17.333,1.333c6.334-4.333,37-91.666,42.667-94
		c5.667-2.333,27.333,2.667,27.333,2.667c3.334,25.667,8,77,0.667,81.333c-7.333,4.334-17.333-4.333-17.333,2
		c0,6.334,1.333,12,1.333,12l103.333,2.667C219.822,211.839,214.489,172.506,214.489,169.839z M68.489,157.839
		c-2-0.667-12.667-34.333-13.333-41.333c-0.667-7,10-6,10-6l1.333-8.667l12.667,0.667l2,8c0,0,6,0.333,7.333,6
		C89.822,122.172,70.489,158.506,68.489,157.839z"/>
	<path fill="#E62E32" d="M151.822,21.173c-9.592,0.326-57.333,29.333-26.667,66.666c30.667,37.334,73.334,4.334,77.334,0
		C206.489,83.506,230.155,18.506,151.822,21.173 M193.822,50.506c0,0-18.333,22-43.333,36s-18.667-10-18.667-15.333
		c0-5.334,42.524-37.789,48.667-38C199.822,32.506,193.822,50.506,193.822,50.506"/>
	<path fill="none" stroke="#000000" stroke-miterlimit="10" d="M151.822,21.173c-9.592,0.326-57.333,29.333-26.667,66.666
		c30.667,37.334,73.334,4.334,77.334,0C206.489,83.506,230.155,18.506,151.822,21.173z M193.822,50.506c0,0-18.333,22-43.333,36
		s-18.667-10-18.667-15.333c0-5.334,42.524-37.789,48.667-38C199.822,32.506,193.822,50.506,193.822,50.506z"/>
	<line fill="#561D1D" x1="107.156" y1="134.172" x2="104.489" y2="111.172"/>
	<line fill="none" stroke="#000000" stroke-miterlimit="10" x1="107.156" y1="134.172" x2="104.489" y2="111.172"/>
	<line fill="#561D1D" x1="129.822" y1="133.506" x2="131.822" y2="113.839"/>
	<line fill="none" stroke="#000000" stroke-miterlimit="10" x1="129.822" y1="133.506" x2="131.822" y2="113.839"/>
	<path fill="#561D1D" d="M193.822,50.506c0,0-39-4.333-61.333,19"/>
	<path fill="none" stroke="#000000" stroke-miterlimit="10" d="M193.822,50.506c0,0-39-4.333-61.333,19"/>
</g>
</svg>
