<?xml version="1.0" encoding="utf-8"?>
<!-- Generator: Adobe Illustrator 16.0.0, SVG Export Plug-In . SVG Version: 6.00 Build 0)  -->
<!DOCTYPE svg PUBLIC "-//W3C//DTD SVG 1.1//EN" "http://www.w3.org/Graphics/SVG/1.1/DTD/svg11.dtd">
<svg version="1.1" id="Layer_1" xmlns="http://www.w3.org/2000/svg" xmlns:xlink="http://www.w3.org/1999/xlink" x="0px" y="0px"
	 width="224px" height="333.346px" viewBox="0 0 224 333.346" enable-background="new 0 0 224 333.346" xml:space="preserve">
<g>
	<path fill="#FFD576" d="M111.301,19.163c-0.645-4.55-6.276-7.036-6.086,1.521c0.059,2.623,2.662,12.172-1.331,12.932
		c-18.915,3.603-12.361,5.325,1.901,5.325c3.48,0,2.448,27.828,3.613,28.146c2.092,0.57,5.135-2.473,5.135-2.473
		c1.521,5.135-3.428-26.786,0.444-26.434c18.19,1.653,11.854-5.701-2.547-5.704C109.589,32.475,111.621,21.426,111.301,19.163"/>
	<path fill="none" stroke="#000000" stroke-miterlimit="10" d="M111.301,19.163c-0.645-4.55-6.276-7.036-6.086,1.521
		c0.059,2.623,2.662,12.172-1.331,12.932c-18.915,3.603-12.361,5.325,1.901,5.325c3.48,0,2.448,27.828,3.613,28.146
		c2.092,0.57,5.135-2.473,5.135-2.473c1.521,5.135-3.428-26.786,0.444-26.434c18.19,1.653,11.854-5.701-2.547-5.704
		C109.589,32.475,111.621,21.426,111.301,19.163z"/>
	<path fill="#FFD576" d="M129.305,76.976c0,8.612-7.209,15.594-16.103,15.594S97.1,85.587,97.1,76.976
		c0-8.612,7.209-15.594,16.103-15.594S129.305,68.363,129.305,76.976"/>
	<ellipse fill="none" stroke="#000000" stroke-miterlimit="10" cx="113.202" cy="76.976" rx="16.103" ry="15.594"/>
	<path fill="#FFEAC0" d="M105.342,68.861c-5.436-4.005,15.214-8.621,17.75,0c2.535,8.621-2.283,4.311-4.564,3.043
		C116.244,70.636,110.16,72.411,105.342,68.861"/>
	<path fill="#FFD576" d="M44.486,297.831c-8.873-4.168-20.861-28.908-23.328-76.324c-3.423-65.8,26.004-126.757,93.566-130.459
		c58.453-3.203,91.062,66.517,86.338,126.275c-3.801,48.084-1.241,73.646-23.581,80.635
		C134.311,311.46,82.141,315.517,44.486,297.831"/>
	<path fill="none" stroke="#000000" stroke-miterlimit="10" d="M44.486,297.831c-8.873-4.168-20.861-28.908-23.328-76.324
		c-3.423-65.8,26.004-126.757,93.566-130.459c58.453-3.203,91.062,66.517,86.338,126.275c-3.801,48.084-1.241,73.646-23.581,80.635
		C134.311,311.46,82.141,315.517,44.486,297.831z"/>
	<path fill="#FFEAC0" d="M87.085,101.571c-3.628,1.024,64.406-17.75,84.185,26.878C191.047,173.076,118.527,92.696,87.085,101.571"
		/>
	<path fill="#D8A656" d="M37.387,167.498c-3.633-13.255-10.65,92.362,13.945,118.478c27,28.67,104.723,6.277,104.723,6.277
		S56.15,235.961,37.387,167.498"/>
	<path fill="#FFCB65" d="M32.169,146.14c-0.274,0.96,0.363,10.333,2.837,10.649c2.473,0.316,14.051,1.277,14.451-5.808
		S34.344,138.528,32.169,146.14"/>
	<path fill="none" stroke="#000000" stroke-miterlimit="10" d="M32.169,146.14c-0.274,0.96,0.363,10.333,2.837,10.649
		c2.473,0.316,14.051,1.277,14.451-5.808S34.344,138.528,32.169,146.14z"/>
	<path fill="#FFCB65" d="M60.422,142.775c-0.557,0.864-3.199,10.65-1.219,11.981s11.426,7.036,14.168,0
		C76.113,147.721,64.84,135.93,60.422,142.775"/>
	<path fill="none" stroke="#000000" stroke-miterlimit="10" d="M60.422,142.775c-0.557,0.864-3.199,10.65-1.219,11.981
		s11.426,7.036,14.168,0C76.113,147.721,64.84,135.93,60.422,142.775z"/>
	<path fill="#FFCB65" d="M90.426,140.388c-0.985,0.717-6.555,9.738-3.746,11.535c2.81,1.796,16.308,9.728,21.597,3.447
		C113.565,149.089,98.239,134.702,90.426,140.388"/>
	<path fill="none" stroke="#000000" stroke-miterlimit="10" d="M90.426,140.388c-0.985,0.717-6.555,9.738-3.746,11.535
		c2.81,1.796,16.308,9.728,21.597,3.447C113.565,149.089,98.239,134.702,90.426,140.388z"/>
	<path fill="#FFCB65" d="M126.832,143.415c-0.266,0.985,0.143,11.096,2.377,11.803c2.236,0.706,12.709,3.462,13.201-4.049
		C142.902,143.659,128.941,135.607,126.832,143.415"/>
	<path fill="none" stroke="#000000" stroke-miterlimit="10" d="M126.832,143.415c-0.266,0.985,0.143,11.096,2.377,11.803
		c2.236,0.706,12.709,3.462,13.201-4.049C142.902,143.659,128.941,135.607,126.832,143.415z"/>
	<path fill="#FFCB65" d="M156.186,144.564c-0.482,0.999-1.479,11.277,1.23,12.014c2.711,0.737,15.486,3.624,17.228-4.005
		C176.385,144.944,160.006,136.647,156.186,144.564"/>
	<path fill="none" stroke="#000000" stroke-miterlimit="10" d="M156.186,144.564c-0.482,0.999-1.479,11.277,1.23,12.014
		c2.711,0.737,15.486,3.624,17.228-4.005C176.385,144.944,160.006,136.647,156.186,144.564z"/>
	<path fill="#FFCB65" d="M184.658,140.501c-0.927,0.429-7.974,7.212-6.738,9.362c1.236,2.15,7.43,11.868,13.287,7.432
		C197.063,152.86,191.998,137.103,184.658,140.501"/>
	<path fill="none" stroke="#000000" stroke-miterlimit="10" d="M184.658,140.501c-0.927,0.429-7.974,7.212-6.738,9.362
		c1.236,2.15,7.43,11.868,13.287,7.432C197.063,152.86,191.998,137.103,184.658,140.501z"/>
	<path fill="#FFCB65" d="M89.68,260.366c0.598,2.824,1.222,4.26,0.253,8.395c-0.97,4.135-7.157,6.344-9.554,4.447
		c-2.396-1.896-3.666-3.617-3.326-11.338c0.339-7.721,6.701-4.48,7.982-4.492S89.299,258.562,89.68,260.366"/>
	<path fill="none" stroke="#000000" stroke-miterlimit="10" d="M89.68,260.366c0.598,2.824,1.222,4.26,0.253,8.395
		c-0.97,4.135-7.157,6.344-9.554,4.447c-2.396-1.896-3.666-3.617-3.326-11.338c0.339-7.721,6.701-4.48,7.982-4.492
		S89.299,258.562,89.68,260.366z"/>
	<path fill="#FFCB65" d="M150.611,260.499c0.599,2.824,1.223,4.262,0.254,8.395c-0.969,4.135-7.157,6.344-9.553,4.447
		c-2.396-1.896-3.668-3.615-3.328-11.338c0.34-7.721,6.701-4.48,7.982-4.49C147.249,257.499,150.23,258.696,150.611,260.499"/>
	<path fill="none" stroke="#000000" stroke-miterlimit="10" d="M150.611,260.499c0.599,2.824,1.223,4.262,0.254,8.395
		c-0.969,4.135-7.157,6.344-9.553,4.447c-2.396-1.896-3.668-3.615-3.328-11.338c0.34-7.721,6.701-4.48,7.982-4.49
		C147.249,257.499,150.23,258.696,150.611,260.499z"/>
	<path fill="#FFCB65" d="M152.521,197.32c-9.783,4.788-0.516,8.164,1.561,7.843C156.158,204.842,156.877,195.189,152.521,197.32"/>
	<path fill="none" stroke="#000000" stroke-miterlimit="10" d="M152.521,197.32c-9.783,4.788-0.516,8.164,1.561,7.843
		C156.158,204.842,156.877,195.189,152.521,197.32z"/>
	<path fill="#FFCB65" d="M49.441,213.954c-1.748,1.966-1.392,11.903-0.138,14.97c1.255,3.067,6.271,6.497,11.567,5.382
		c5.298-1.115,5.041-8.174,5.738-13.749c0.697-5.576-7.828-8.973-10.478-9.112C53.484,211.305,50.556,212.699,49.441,213.954"/>
	<path fill="none" stroke="#000000" stroke-miterlimit="10" d="M49.441,213.954c-1.748,1.966-1.392,11.903-0.138,14.97
		c1.255,3.067,6.271,6.497,11.567,5.382c5.298-1.115,5.041-8.174,5.738-13.749c0.697-5.576-7.828-8.973-10.478-9.112
		C53.484,211.305,50.556,212.699,49.441,213.954z"/>
	<path fill="#FFCB65" d="M15.545,212.569c-0.613,1.946-2.471,6.932-1.568,9.766c0.9,2.833,6.643,10.203,9.002,8.88
		c2.357-1.324,3.889-8.42,3.64-13.723s-6.957-7.637-8.208-7.634C17.159,209.861,15.936,211.327,15.545,212.569"/>
	<path fill="none" stroke="#000000" stroke-miterlimit="10" d="M15.545,212.569c-0.613,1.946-2.471,6.932-1.568,9.766
		c0.9,2.833,6.643,10.203,9.002,8.88c2.357-1.324,3.889-8.42,3.64-13.723s-6.957-7.637-8.208-7.634
		C17.159,209.861,15.936,211.327,15.545,212.569z"/>
	<path fill="#FFCB65" d="M195.83,214.09c-0.613,1.946-2.471,6.932-1.569,9.766c0.901,2.833,6.644,10.203,9.002,8.88
		c2.358-1.324,3.89-8.42,3.64-13.723c-0.248-5.303-6.957-7.637-8.207-7.634C197.443,211.382,196.221,212.848,195.83,214.09"/>
	<path fill="none" stroke="#000000" stroke-miterlimit="10" d="M195.83,214.09c-0.613,1.946-2.471,6.932-1.569,9.766
		c0.901,2.833,6.644,10.203,9.002,8.88c2.358-1.324,3.89-8.42,3.64-13.723c-0.248-5.303-6.957-7.637-8.207-7.634
		C197.443,211.382,196.221,212.848,195.83,214.09z"/>
	<path fill="#FFCB65" d="M25.723,221.507c-0.613,1.946-1.238,2.938-0.336,5.772c0.9,2.833,6.916,4.299,9.273,2.976
		c2.358-1.323,3.617-2.516,3.368-7.819c-0.249-5.304-6.491-3.024-7.741-3.021C29.035,219.418,26.113,220.266,25.723,221.507"/>
	<path fill="none" stroke="#000000" stroke-miterlimit="10" d="M25.723,221.507c-0.613,1.946-1.238,2.938-0.336,5.772
		c0.9,2.833,6.916,4.299,9.273,2.976c2.358-1.323,3.617-2.516,3.368-7.819c-0.249-5.304-6.491-3.024-7.741-3.021
		C29.035,219.418,26.113,220.266,25.723,221.507z"/>
	<path fill="#FFCB65" d="M40.557,261.444c-0.613,1.945-1.238,2.938-0.336,5.771c0.9,2.834,6.916,4.299,9.273,2.977
		s3.617-2.516,3.367-7.818c-0.248-5.305-6.49-3.025-7.741-3.021C43.869,259.354,40.947,260.202,40.557,261.444"/>
	<path fill="none" stroke="#000000" stroke-miterlimit="10" d="M40.557,261.444c-0.613,1.945-1.238,2.938-0.336,5.771
		c0.9,2.834,6.916,4.299,9.273,2.977s3.617-2.516,3.367-7.818c-0.248-5.305-6.49-3.025-7.741-3.021
		C43.869,259.354,40.947,260.202,40.557,261.444z"/>
	<path fill="#FFCB65" d="M105.215,264.487c-0.613,1.945-1.238,2.938-0.336,5.771c0.901,2.834,6.916,4.299,9.273,2.977
		c2.359-1.324,3.617-2.516,3.369-7.82c-0.25-5.303-6.491-3.023-7.742-3.02C108.527,262.397,105.605,263.245,105.215,264.487"/>
	<path fill="none" stroke="#000000" stroke-miterlimit="10" d="M105.215,264.487c-0.613,1.945-1.238,2.938-0.336,5.771
		c0.901,2.834,6.916,4.299,9.273,2.977c2.359-1.324,3.617-2.516,3.369-7.82c-0.25-5.303-6.491-3.023-7.742-3.02
		C108.527,262.397,105.605,263.245,105.215,264.487z"/>
	<path fill="#FFCB65" d="M169.113,261.063c-0.613,1.947-1.238,2.938-0.336,5.771c0.9,2.834,6.916,4.301,9.273,2.977
		c2.358-1.322,3.617-2.516,3.369-7.818c-0.25-5.305-6.492-3.023-7.742-3.021C172.426,258.976,169.504,259.821,169.113,261.063"/>
	<path fill="none" stroke="#000000" stroke-miterlimit="10" d="M169.113,261.063c-0.613,1.947-1.238,2.938-0.336,5.771
		c0.9,2.834,6.916,4.301,9.273,2.977c2.358-1.322,3.617-2.516,3.369-7.818c-0.25-5.305-6.492-3.023-7.742-3.021
		C172.426,258.976,169.504,259.821,169.113,261.063z"/>
	<path fill="#FFCB65" d="M167.212,217.704c-0.613,1.946-1.238,2.938-0.336,5.772c0.901,2.833,6.915,4.299,9.274,2.976
		c2.357-1.323,3.616-2.516,3.367-7.819c-0.249-5.304-6.49-3.024-7.742-3.021C170.525,215.615,167.603,216.462,167.212,217.704"/>
	<path fill="none" stroke="#000000" stroke-miterlimit="10" d="M167.212,217.704c-0.613,1.946-1.238,2.938-0.336,5.772
		c0.901,2.833,6.915,4.299,9.274,2.976c2.357-1.323,3.616-2.516,3.367-7.819c-0.249-5.304-6.49-3.024-7.742-3.021
		C170.525,215.615,167.603,216.462,167.212,217.704z"/>
	<path fill="#A92C2C" d="M62.236,216.183c-0.523-2.617-10.08-1.902-10.27,0.38c-0.191,2.282-3.232,6.466-1.141,11.411
		c2.091,4.944,2.472,1.331,6.846,2.662S62.426,217.134,62.236,216.183"/>
	<path fill="none" stroke="#000000" stroke-miterlimit="10" d="M62.236,216.183c-0.523-2.617-10.08-1.902-10.27,0.38
		c-0.191,2.282-3.232,6.466-1.141,11.411c2.091,4.944,2.472,1.331,6.846,2.662S62.426,217.134,62.236,216.183z"/>
	<path fill="#5E2322" d="M145.989,260.056c-0.854-1.391-5.991,1.012-5.603,2.361c0.387,1.348-0.395,4.381,1.832,6.779
		s1.656,0.246,4.365,0.098S146.301,260.562,145.989,260.056"/>
	<path fill="none" stroke="#000000" stroke-miterlimit="10" d="M145.989,260.056c-0.854-1.391-5.991,1.012-5.603,2.361
		c0.387,1.348-0.395,4.381,1.832,6.779s1.656,0.246,4.365,0.098S146.301,260.562,145.989,260.056z"/>
	<path fill="#FFCB65" d="M129.356,215.265c-1.747,1.966-6.831,6.97-5.576,10.037c1.255,3.067,11.71,11.43,17.007,10.315
		c5.297-1.115,10.176-8.364,10.873-13.94c0.697-5.576-12.964-8.782-15.613-8.921C133.399,212.616,130.471,214.01,129.356,215.265"/>
	<path fill="none" stroke="#000000" stroke-miterlimit="10" d="M129.356,215.265c-1.747,1.966-6.831,6.97-5.576,10.037
		c1.255,3.067,11.71,11.43,17.007,10.315c5.297-1.115,10.176-8.364,10.873-13.94c0.697-5.576-12.964-8.782-15.613-8.921
		C133.399,212.616,130.471,214.01,129.356,215.265z"/>
	<path fill="#A92C2C" d="M147.561,219.225c-3.803-2.092-13.439-3.803-15.342-2.282c-1.9,1.521-3.612,7.797-2.661,11.03
		c0.95,3.233,7.987,3.043,11.791,3.803c3.803,0.761,6.973-8.874,6.022-13.438"/>
	<path fill="none" stroke="#000000" stroke-miterlimit="10" d="M147.561,219.225c-3.803-2.092-13.439-3.803-15.342-2.282
		c-1.9,1.521-3.612,7.797-2.661,11.03c0.95,3.233,7.987,3.043,11.791,3.803c3.803,0.761,6.973-8.874,6.022-13.438"/>
	<path fill="#A92C2C" d="M202.965,214.281c-4.945-0.57-3.17-2.155-4.945-0.57c-2.615,2.335-3.232,9.508-1.521,11.98
		c1.713,2.473,4.184,3.424,5.325,3.424S204.485,215.422,202.965,214.281"/>
	<path fill="none" stroke="#000000" stroke-miterlimit="10" d="M202.965,214.281c-4.945-0.57-3.17-2.155-4.945-0.57
		c-2.615,2.335-3.232,9.508-1.521,11.98c1.713,2.473,4.184,3.424,5.325,3.424S204.485,215.422,202.965,214.281"/>
	<path fill="#5E2322" d="M48.207,261.854c-3.125,0.166-2.123-0.74-3.125,0.166c-1.476,1.338-1.382,4.789-0.148,5.809
		c1.234,1.021,2.842,1.254,3.554,1.152C49.2,268.882,49.233,262.261,48.207,261.854"/>
	<path fill="none" stroke="#000000" stroke-miterlimit="10" d="M48.207,261.854c-3.125,0.166-2.123-0.74-3.125,0.166
		c-1.476,1.338-1.382,4.789-0.148,5.809c1.234,1.021,2.842,1.254,3.554,1.152C49.2,268.882,49.233,262.261,48.207,261.854"/>
	<path fill="#5E2322" d="M87.4,262.784c-5.223-3.439-6.143-3.83-7.417-1.049c-1.2,2.619-2.101,6.861-0.271,8.311
		s7.191,1.154,8.254,1.004C89.028,270.901,88.926,263.356,87.4,262.784"/>
	<path fill="none" stroke="#000000" stroke-miterlimit="10" d="M87.4,262.784c-5.223-3.439-6.143-3.83-7.417-1.049
		c-1.2,2.619-2.101,6.861-0.271,8.311s7.191,1.154,8.254,1.004C89.028,270.901,88.926,263.356,87.4,262.784"/>
	<path fill="#D89739" d="M169.874,145.438c-6.188-3.3-13.122-1.141-13.692,1.902s1.711,6.466,4.184,7.226
		c2.473,0.761,5.706,1.712,7.988,0.761C170.635,154.376,172.727,146.959,169.874,145.438"/>
	<path fill="none" stroke="#000000" stroke-miterlimit="10" d="M169.874,145.438c-6.188-3.3-13.122-1.141-13.692,1.902
		s1.711,6.466,4.184,7.226c2.473,0.761,5.706,1.712,7.988,0.761C170.635,154.376,172.727,146.959,169.874,145.438z"/>
	<path fill="#D89739" d="M105.596,143.917c-2.344-2.777-23.721-1.046-18.637,4.564c7.058,7.789,13.453,8.488,14.453,7.227
		C103.801,152.693,110.73,150.002,105.596,143.917"/>
	<path fill="none" stroke="#000000" stroke-miterlimit="10" d="M105.596,143.917c-2.344-2.777-23.721-1.046-18.637,4.564
		c7.058,7.789,13.453,8.488,14.453,7.227C103.801,152.693,110.73,150.002,105.596,143.917z"/>
	<path fill="#295635" d="M134.502,143.917c-1.403-1.954-8.938,2.092-4.564,6.086C134.312,153.996,139.826,151.333,134.502,143.917"
		/>
	<path fill="none" stroke="#000000" stroke-miterlimit="10" d="M134.502,143.917c-1.403-1.954-8.938,2.092-4.564,6.086
		C134.312,153.996,139.826,151.333,134.502,143.917z"/>
	<path fill="#295635" d="M65.659,143.156c-1.056-2.244-4.185-0.761-3.044,4.945c1.142,5.705,3.234,9.318,5.326,6.846
		C70.033,152.474,67.18,146.389,65.659,143.156"/>
	<path fill="none" stroke="#000000" stroke-miterlimit="10" d="M65.659,143.156c-1.056-2.244-4.185-0.761-3.044,4.945
		c1.142,5.705,3.234,9.318,5.326,6.846C70.033,152.474,67.18,146.389,65.659,143.156z"/>
	<path fill="#D89739" d="M43.979,145.818c-3.774-3.775-11.219,0.38-10.269,4.184c0.95,3.803,6.085,7.226,8.748,5.705
		C45.12,154.187,47.592,149.431,43.979,145.818"/>
	<path fill="none" stroke="#000000" stroke-miterlimit="10" d="M43.979,145.818c-3.774-3.775-11.219,0.38-10.269,4.184
		c0.95,3.803,6.085,7.226,8.748,5.705C45.12,154.187,47.592,149.431,43.979,145.818z"/>
	<path fill="#FFCB65" d="M39.035,134.535c43.739-4.754,137.812-3.55,143.518-3.043c1.3,0.116,4.436,5.015,3.043,4.945
		c-25.104-1.268-115.119-2.536-148.463,1.648C36.117,138.211,37.322,134.721,39.035,134.535"/>
	<path fill="none" stroke="#000000" stroke-miterlimit="10" d="M39.035,134.535c43.739-4.754,137.812-3.55,143.518-3.043
		c1.3,0.116,4.436,5.015,3.043,4.945c-25.104-1.268-115.119-2.536-148.463,1.648C36.117,138.211,37.322,134.721,39.035,134.535z"/>
	<path fill="#FFCB65" d="M25.977,161.159c-1.112,0.761-2.029,3.423-0.508,4.311c1.521,0.887,155.816-1.268,171.918,1.521
		c3.641,0.631,2.154-2.916,0.506-4.818C196.245,160.271,28.385,159.511,25.977,161.159"/>
	<path fill="none" stroke="#000000" stroke-miterlimit="10" d="M25.977,161.159c-1.112,0.761-2.029,3.423-0.508,4.311
		c1.521,0.887,155.816-1.268,171.918,1.521c3.641,0.631,2.154-2.916,0.506-4.818C196.245,160.271,28.385,159.511,25.977,161.159z"/>
	<path fill="#FFCB65" d="M17.988,201.222c-2.324-0.132-2.274,3.909-0.761,4.818c6.339,3.803,179.778,4.31,183.581,1.521
		c3.805-2.789,4.184-2.282,0.762-4.818C198.146,200.208,169.621,209.843,17.988,201.222"/>
	<path fill="none" stroke="#000000" stroke-miterlimit="10" d="M17.988,201.222c-2.324-0.132-2.274,3.909-0.761,4.818
		c6.339,3.803,179.778,4.31,183.581,1.521c3.805-2.789,4.184-2.282,0.762-4.818C198.146,200.208,169.621,209.843,17.988,201.222z"/>
	<path fill="#FFCB65" d="M22.299,233.679c-2.638-0.752-3.93,6.593,2.155,7.607c13.767,2.294,176.101,2.916,177.749-0.508
		c1.649-3.422,3.932-7.099-0.76-6.085C196.752,235.708,47.656,240.905,22.299,233.679"/>
	<path fill="none" stroke="#000000" stroke-miterlimit="10" d="M22.299,233.679c-2.638-0.752-3.93,6.593,2.155,7.607
		c13.767,2.294,176.101,2.916,177.749-0.508c1.649-3.422,3.932-7.099-0.76-6.085C196.752,235.708,47.656,240.905,22.299,233.679z"/>
	<path fill="#A92C2C" d="M17.23,212.274c-1.758,0.171-2.062,8.046-0.039,10.346c2.022,2.301,6.528,6.234,6.493,3.064
		C23.65,222.515,21.091,211.897,17.23,212.274"/>
	<path fill="none" stroke="#000000" stroke-miterlimit="10" d="M17.23,212.274c-1.758,0.171-2.062,8.046-0.039,10.346
		c2.022,2.301,6.528,6.234,6.493,3.064C23.65,222.515,21.091,211.897,17.23,212.274z"/>
	<path fill="#FFCB65" d="M25.469,269.179c-2.162-0.74,0.57,4.514,1.268,4.816c44.375,19.271,165.578,6.213,171.156-0.76
		c5.58-6.973-1.268-6.467-3.423-5.578C179.423,273.853,86.197,289.97,25.469,269.179"/>
	<path fill="none" stroke="#000000" stroke-miterlimit="10" d="M25.469,269.179c-2.162-0.74,0.57,4.514,1.268,4.816
		c44.375,19.271,165.578,6.213,171.156-0.76c5.58-6.973-1.268-6.467-3.423-5.578C179.423,273.853,86.197,289.97,25.469,269.179z"/>
	<path fill="#5E2322" d="M112.544,264.851c-0.451-1.711-3.769,0.354-3.533,1.885c0.236,1.531-0.116,2.709,1.884,2.354
		C112.896,268.737,113.133,267.087,112.544,264.851"/>
	<path fill="none" stroke="#000000" stroke-miterlimit="10" d="M112.544,264.851c-0.451-1.711-3.769,0.354-3.533,1.885
		c0.236,1.531-0.116,2.709,1.884,2.354C112.896,268.737,113.133,267.087,112.544,264.851z"/>
	<path fill="#5E2322" d="M175.309,261.462c-0.451-1.713-3.768,0.354-3.533,1.885c0.236,1.529-0.117,2.709,1.885,2.354
		C175.662,265.349,175.897,263.698,175.309,261.462"/>
	<path fill="none" stroke="#000000" stroke-miterlimit="10" d="M175.309,261.462c-0.451-1.713-3.768,0.354-3.533,1.885
		c0.236,1.529-0.117,2.709,1.885,2.354C175.662,265.349,175.897,263.698,175.309,261.462z"/>
	<path fill="#A92C2C" d="M153.629,199.084c-0.451-1.712-3.768,0.353-3.533,1.884c0.236,1.531-0.117,2.709,1.885,2.354
		C153.982,202.971,154.218,201.321,153.629,199.084"/>
	<path fill="none" stroke="#000000" stroke-miterlimit="10" d="M153.629,199.084c-0.451-1.712-3.768,0.353-3.533,1.884
		c0.236,1.531-0.117,2.709,1.885,2.354C153.982,202.971,154.218,201.321,153.629,199.084z"/>
	<path fill="#FFCB65" d="M70.366,197.701c-9.783,4.788-0.515,8.163,1.562,7.842C74.004,205.222,74.721,195.569,70.366,197.701"/>
	<path fill="none" stroke="#000000" stroke-miterlimit="10" d="M70.366,197.701c-9.783,4.788-0.515,8.163,1.562,7.842
		C74.004,205.222,74.721,195.569,70.366,197.701z"/>
	<path fill="#A92C2C" d="M71.474,199.465c-0.45-1.712-3.769,0.353-3.532,1.884c0.235,1.531-0.117,2.709,1.883,2.355
		C71.826,203.351,72.062,201.702,71.474,199.465"/>
	<path fill="none" stroke="#000000" stroke-miterlimit="10" d="M71.474,199.465c-0.45-1.712-3.769,0.353-3.532,1.884
		c0.235,1.531-0.117,2.709,1.883,2.355C71.826,203.351,72.062,201.702,71.474,199.465z"/>
	<path fill="#A92C2C" d="M172.606,217.934l-3.873,3.573c0,0,2.282,3.043,6.085,3.55c1.426,0.19,2.416-0.609,2.93-1.803
		C179.106,220.089,175.875,216.845,172.606,217.934"/>
	<path fill="none" stroke="#000000" stroke-miterlimit="10" d="M172.606,217.934l-3.873,3.573c0,0,2.282,3.043,6.085,3.55
		c1.426,0.19,2.416-0.609,2.93-1.803C179.106,220.089,175.875,216.845,172.606,217.934z"/>
	<path fill="#295635" d="M187.37,145.438c-1.345-2.306-6.086,0.761-4.185,5.705c1.902,4.945,5.326,3.233,5.896,0.761
		S188.701,147.72,187.37,145.438"/>
	<path fill="none" stroke="#000000" stroke-miterlimit="10" d="M187.37,145.438c-1.345-2.306-6.086,0.761-4.185,5.705
		c1.902,4.945,5.326,3.233,5.896,0.761S188.701,147.72,187.37,145.438z"/>
	<path fill="#FFEBCC" d="M29.146,221.698c0,0,2.282,2.472,7.036,1.331C41.69,221.707,25.871,219.375,29.146,221.698"/>
	<path fill="#FFCB65" d="M38.033,222.973c-0.539,1.213-1.058,1.841-0.443,3.558c0.613,1.718,5.258,2.456,7.138,1.578
		c1.88-0.878,2.899-1.646,2.872-4.9c-0.027-3.255-4.967-1.683-5.941-1.647C40.683,221.598,38.377,222.199,38.033,222.973"/>
	<path fill="none" stroke="#000000" stroke-miterlimit="10" d="M38.033,222.973c-0.539,1.213-1.058,1.841-0.443,3.558
		c0.613,1.718,5.258,2.456,7.138,1.578c1.88-0.878,2.899-1.646,2.872-4.9c-0.027-3.255-4.967-1.683-5.941-1.647
		C40.683,221.598,38.377,222.199,38.033,222.973z"/>
	<path fill="#FFEBCC" d="M43.599,222.458c-0.114-1.207,3.149,3.741,1.903,3.736C40.513,226.174,43.773,224.287,43.599,222.458"/>
	<path fill="#FFCB65" d="M73.475,221.127c-0.479,1.946-0.969,2.938-0.264,5.772c0.705,2.833,5.408,4.299,7.252,2.976
		s2.827-2.516,2.633-7.819c-0.194-5.304-5.076-3.024-6.054-3.021C76.065,219.038,73.78,219.885,73.475,221.127"/>
	<path fill="none" stroke="#000000" stroke-miterlimit="10" d="M73.475,221.127c-0.479,1.946-0.969,2.938-0.264,5.772
		c0.705,2.833,5.408,4.299,7.252,2.976s2.827-2.516,2.633-7.819c-0.194-5.304-5.076-3.024-6.054-3.021
		C76.065,219.038,73.78,219.885,73.475,221.127z"/>
	<path fill="#FFEBCC" d="M76.779,221.292c0,0,0.968,3.6,5.158,3.217C86.792,224.066,74.966,217.663,76.779,221.292"/>
	<path fill="#FFCB65" d="M83.439,222.903c-0.408,1.143-0.797,1.734-0.341,3.351c0.457,1.616,3.937,2.304,5.349,1.474
		c1.412-0.829,2.176-1.554,2.162-4.618c-0.014-3.063-3.72-1.576-4.451-1.541C85.428,221.605,83.699,222.173,83.439,222.903"/>
	<path fill="none" stroke="#000000" stroke-miterlimit="10" d="M83.439,222.903c-0.408,1.143-0.797,1.734-0.341,3.351
		c0.457,1.616,3.937,2.304,5.349,1.474c1.412-0.829,2.176-1.554,2.162-4.618c-0.014-3.063-3.72-1.576-4.451-1.541
		C85.428,221.605,83.699,222.173,83.439,222.903z"/>
	<path fill="#FFEBCC" d="M87.451,222.078c-0.09-1.207,2.462,3.741,1.488,3.736C85.038,225.794,87.587,223.907,87.451,222.078"/>
	<path fill="#FFCB65" d="M65.525,223.23c-0.422,1.213-0.827,1.841-0.348,3.558c0.48,1.718,4.111,2.456,5.582,1.578
		c1.469-0.878,2.266-1.646,2.244-4.9c-0.021-3.255-3.883-1.683-4.645-1.647C67.596,221.855,65.795,222.456,65.525,223.23"/>
	<path fill="none" stroke="#000000" stroke-miterlimit="10" d="M65.525,223.23c-0.422,1.213-0.827,1.841-0.348,3.558
		c0.48,1.718,4.111,2.456,5.582,1.578c1.469-0.878,2.266-1.646,2.244-4.9c-0.021-3.255-3.883-1.683-4.645-1.647
		C67.596,221.855,65.795,222.456,65.525,223.23z"/>
	<path fill="#FFEBCC" d="M69.877,222.716c-0.091-1.207,2.461,3.741,1.487,3.736C67.463,226.432,70.012,224.545,69.877,222.716"/>
	<path fill="#FFCB65" d="M82.982,122.617c-0.479,1.946-0.967,2.938-0.263,5.772c0.705,2.833,5.408,4.299,7.251,2.976
		c1.844-1.323,2.828-2.516,2.633-7.819c-0.193-5.304-5.074-3.024-6.053-3.021C85.574,120.528,83.289,121.375,82.982,122.617"/>
	<path fill="none" stroke="#000000" stroke-miterlimit="10" d="M82.982,122.617c-0.479,1.946-0.967,2.938-0.263,5.772
		c0.705,2.833,5.408,4.299,7.251,2.976c1.844-1.323,2.828-2.516,2.633-7.819c-0.193-5.304-5.074-3.024-6.053-3.021
		C85.574,120.528,83.289,121.375,82.982,122.617z"/>
	<path fill="#FFEBCC" d="M86.287,122.783c0,0,0.969,3.6,5.16,3.217C96.301,125.557,84.475,119.153,86.287,122.783"/>
	<path fill="#FFCB65" d="M92.947,124.393c-0.406,1.143-0.796,1.734-0.34,3.351c0.457,1.616,3.938,2.304,5.35,1.474
		c1.41-0.829,2.176-1.554,2.162-4.618c-0.015-3.063-3.721-1.576-4.451-1.541C94.937,123.095,93.207,123.663,92.947,124.393"/>
	<path fill="none" stroke="#000000" stroke-miterlimit="10" d="M92.947,124.393c-0.406,1.143-0.796,1.734-0.34,3.351
		c0.457,1.616,3.938,2.304,5.35,1.474c1.41-0.829,2.176-1.554,2.162-4.618c-0.015-3.063-3.721-1.576-4.451-1.541
		C94.937,123.095,93.207,123.663,92.947,124.393z"/>
	<path fill="#FFEBCC" d="M96.959,123.568c-0.09-1.207,2.463,3.741,1.488,3.736C94.547,127.284,97.096,125.397,96.959,123.568"/>
	<path fill="#FFCB65" d="M75.034,124.72c-0.423,1.213-0.827,1.84-0.347,3.558c0.479,1.718,4.11,2.455,5.58,1.578
		c1.471-0.878,2.267-1.646,2.245-4.9c-0.022-3.255-3.883-1.683-4.645-1.647C77.105,123.345,75.303,123.946,75.034,124.72"/>
	<path fill="none" stroke="#000000" stroke-miterlimit="10" d="M75.034,124.72c-0.423,1.213-0.827,1.84-0.347,3.558
		c0.479,1.718,4.11,2.455,5.58,1.578c1.471-0.878,2.267-1.646,2.245-4.9c-0.022-3.255-3.883-1.683-4.645-1.647
		C77.105,123.345,75.303,123.946,75.034,124.72z"/>
	<path fill="#FFEBCC" d="M79.385,124.206c-0.09-1.207,2.463,3.741,1.488,3.736C76.973,127.922,79.521,126.035,79.385,124.206"/>
	<path fill="#FFCB65" d="M117.089,221.888c0.479,1.946,0.968,2.938,0.263,5.772c-0.705,2.833-5.408,4.299-7.25,2.976
		c-1.845-1.323-2.828-2.516-2.634-7.819c0.194-5.304,5.075-3.024,6.054-3.021C114.498,219.799,116.783,220.646,117.089,221.888"/>
	<path fill="none" stroke="#000000" stroke-miterlimit="10" d="M117.089,221.888c0.479,1.946,0.968,2.938,0.263,5.772
		c-0.705,2.833-5.408,4.299-7.25,2.976c-1.845-1.323-2.828-2.516-2.634-7.819c0.194-5.304,5.075-3.024,6.054-3.021
		C114.498,219.799,116.783,220.646,117.089,221.888z"/>
	<path fill="#FFEBCC" d="M113.784,222.053c0,0-0.968,3.6-5.159,3.217C103.771,224.827,115.598,218.423,113.784,222.053"/>
	<path fill="#FFCB65" d="M107.125,223.664c0.406,1.143,0.795,1.734,0.34,3.351c-0.457,1.616-3.938,2.304-5.35,1.474
		c-1.41-0.829-2.176-1.554-2.162-4.618c0.014-3.063,3.721-1.576,4.451-1.541C105.135,222.366,106.864,222.934,107.125,223.664"/>
	<path fill="none" stroke="#000000" stroke-miterlimit="10" d="M107.125,223.664c0.406,1.143,0.795,1.734,0.34,3.351
		c-0.457,1.616-3.938,2.304-5.35,1.474c-1.41-0.829-2.176-1.554-2.162-4.618c0.014-3.063,3.721-1.576,4.451-1.541
		C105.135,222.366,106.864,222.934,107.125,223.664z"/>
	<path fill="#FFEBCC" d="M103.112,222.838c0.09-1.207-2.462,3.741-1.487,3.736C105.525,226.555,102.977,224.667,103.112,222.838"/>
	<path fill="#FFCB65" d="M125.038,223.991c0.422,1.213,0.827,1.84,0.347,3.558c-0.48,1.718-4.111,2.455-5.581,1.578
		c-1.47-0.878-2.266-1.646-2.245-4.9c0.022-3.255,3.883-1.683,4.646-1.647S124.77,223.217,125.038,223.991"/>
	<path fill="none" stroke="#000000" stroke-miterlimit="10" d="M125.038,223.991c0.422,1.213,0.827,1.84,0.347,3.558
		c-0.48,1.718-4.111,2.455-5.581,1.578c-1.47-0.878-2.266-1.646-2.245-4.9c0.022-3.255,3.883-1.683,4.646-1.647
		S124.77,223.217,125.038,223.991z"/>
	<path fill="#FFEBCC" d="M120.687,223.477c0.091-1.207-2.462,3.741-1.487,3.736C123.1,227.192,120.551,225.306,120.687,223.477"/>
	<path fill="#FFCB65" d="M188.297,219.473c0.441,1.331,0.89,2.01,0.242,3.948c-0.648,1.938-4.973,2.941-6.668,2.036
		c-1.694-0.905-2.6-1.721-2.42-5.349c0.179-3.627,4.666-2.068,5.564-2.066S188.016,218.623,188.297,219.473"/>
	<path fill="none" stroke="#000000" stroke-miterlimit="10" d="M188.297,219.473c0.441,1.331,0.89,2.01,0.242,3.948
		c-0.648,1.938-4.973,2.941-6.668,2.036c-1.694-0.905-2.6-1.721-2.42-5.349c0.179-3.627,4.666-2.068,5.564-2.066
		S188.016,218.623,188.297,219.473z"/>
	<path fill="#FFEBCC" d="M185.258,219.586c0,0-0.89,2.462-4.742,2.201C176.053,221.483,186.926,217.103,185.258,219.586"/>
	<path fill="#FFCB65" d="M195.605,220.911c0.388,0.83,0.76,1.259,0.318,2.434s-3.779,1.679-5.131,1.079
		c-1.352-0.601-2.084-1.126-2.064-3.352c0.021-2.226,3.57-1.151,4.271-1.126S195.357,220.381,195.605,220.911"/>
	<path fill="none" stroke="#000000" stroke-miterlimit="10" d="M195.605,220.911c0.388,0.83,0.76,1.259,0.318,2.434
		s-3.779,1.679-5.131,1.079c-1.352-0.601-2.084-1.126-2.064-3.352c0.021-2.226,3.57-1.151,4.271-1.126
		S195.357,220.381,195.605,220.911z"/>
	<path fill="#FFEBCC" d="M191.604,220.559c0.082-0.825-2.263,2.559-1.368,2.555C193.824,223.102,191.479,221.811,191.604,220.559"/>
	<path fill="#FFCB65" d="M162.028,222.123c0.704,1.203,1.268,1.768,1.116,3.794c-0.152,2.025-3.871,3.92-5.625,3.399
		c-1.752-0.521-2.762-1.124-3.422-4.695c-0.658-3.571,3.791-3.006,4.611-3.195C159.53,221.238,161.579,221.354,162.028,222.123"/>
	<path fill="none" stroke="#000000" stroke-miterlimit="10" d="M162.028,222.123c0.704,1.203,1.268,1.768,1.116,3.794
		c-0.152,2.025-3.871,3.92-5.625,3.399c-1.752-0.521-2.762-1.124-3.422-4.695c-0.658-3.571,3.791-3.006,4.611-3.195
		C159.53,221.238,161.579,221.354,162.028,222.123z"/>
	<path fill="#FFEBCC" d="M159.281,222.878c0,0-0.255,2.587-3.83,3.151C151.308,226.683,160.238,220.106,159.281,222.878"/>
	<path fill="#FFCB65" d="M153.941,225.252c0.52,0.682,0.938,1,0.805,2.166s-2.946,2.304-4.26,2.027
		c-1.312-0.277-2.066-0.61-2.531-2.654c-0.463-2.044,2.877-1.777,3.496-1.896C152.072,224.776,153.611,224.817,153.941,225.252"/>
	<path fill="none" stroke="#000000" stroke-miterlimit="10" d="M153.941,225.252c0.52,0.682,0.938,1,0.805,2.166
		s-2.946,2.304-4.26,2.027c-1.312-0.277-2.066-0.61-2.531-2.654c-0.463-2.044,2.877-1.777,3.496-1.896
		C152.072,224.776,153.611,224.817,153.941,225.252z"/>
	<path fill="#FFCB65" d="M169.025,221.971c0.541,0.726,0.979,1.065,0.843,2.303s-3.069,2.438-4.438,2.141
		c-1.369-0.298-2.158-0.654-2.644-2.826c-0.487-2.172,2.997-1.879,3.642-2.004C167.074,221.46,168.679,221.508,169.025,221.971"/>
	<path fill="none" stroke="#000000" stroke-miterlimit="10" d="M169.025,221.971c0.541,0.726,0.979,1.065,0.843,2.303
		s-3.069,2.438-4.438,2.141c-1.369-0.298-2.158-0.654-2.644-2.826c-0.487-2.172,2.997-1.879,3.642-2.004
		C167.074,221.46,168.679,221.508,169.025,221.971z"/>
	<path fill="#FFEBCC" d="M165.294,222.479c-0.112-0.822-1.486,2.973-0.669,2.78C167.895,224.482,165.464,223.723,165.294,222.479"/>
	<path fill="#FFCB65" d="M147.062,122.831c0.434,1.325,0.863,1.997,0.284,3.944c-0.578,1.947-4.615,3.009-6.218,2.127
		c-1.601-0.881-2.461-1.685-2.347-5.314c0.115-3.63,4.343-2.132,5.185-2.143C144.81,121.435,146.787,121.984,147.062,122.831"/>
	<path fill="none" stroke="#000000" stroke-miterlimit="10" d="M147.062,122.831c0.434,1.325,0.863,1.997,0.284,3.944
		c-0.578,1.947-4.615,3.009-6.218,2.127c-1.601-0.881-2.461-1.685-2.347-5.314c0.115-3.63,4.343-2.132,5.185-2.143
		C144.81,121.435,146.787,121.984,147.062,122.831z"/>
	<path fill="#FFEBCC" d="M144.217,122.985c0,0-0.798,2.474-4.412,2.265C135.618,125.008,145.743,120.48,144.217,122.985"/>
	<path fill="#FFCB65" d="M138.496,124.171c0.361,0.777,0.703,1.176,0.326,2.287c-0.377,1.112-3.369,1.626-4.594,1.076
		c-1.224-0.549-1.891-1.035-1.908-3.131c-0.02-2.095,3.188-1.125,3.818-1.11C136.77,123.308,138.265,123.675,138.496,124.171"/>
	<path fill="none" stroke="#000000" stroke-miterlimit="10" d="M138.496,124.171c0.361,0.777,0.703,1.176,0.326,2.287
		c-0.377,1.112-3.369,1.626-4.594,1.076c-1.224-0.549-1.891-1.035-1.908-3.131c-0.02-2.095,3.188-1.125,3.818-1.11
		C136.77,123.308,138.265,123.675,138.496,124.171z"/>
	<path fill="#FFCB65" d="M153.932,124.168c0.375,0.825,0.73,1.248,0.335,2.429c-0.397,1.181-3.517,1.731-4.792,1.15
		c-1.275-0.582-1.969-1.097-1.984-3.323c-0.014-2.226,3.328-1.2,3.986-1.185C152.134,123.255,153.691,123.643,153.932,124.168"/>
	<path fill="none" stroke="#000000" stroke-miterlimit="10" d="M153.932,124.168c0.375,0.825,0.73,1.248,0.335,2.429
		c-0.397,1.181-3.517,1.731-4.792,1.15c-1.275-0.582-1.969-1.097-1.984-3.323c-0.014-2.226,3.328-1.2,3.986-1.185
		C152.134,123.255,153.691,123.643,153.932,124.168z"/>
	<path fill="#FFEBCC" d="M150.178,123.872c0.065-0.827-2.082,2.59-1.244,2.574C152.294,126.383,150.079,125.125,150.178,123.872"/>
	<path fill="#FFCB65" d="M91.522,219.605c-0.612,1.946-1.237,2.938-0.336,5.772c0.901,2.833,6.916,4.299,9.274,2.976
		c2.357-1.323,3.617-2.516,3.367-7.819c-0.248-5.304-6.49-3.024-7.742-3.021C94.836,217.517,91.914,218.364,91.522,219.605"/>
	<path fill="none" stroke="#000000" stroke-miterlimit="10" d="M91.522,219.605c-0.612,1.946-1.237,2.938-0.336,5.772
		c0.901,2.833,6.916,4.299,9.274,2.976c2.357-1.323,3.617-2.516,3.367-7.819c-0.248-5.304-6.49-3.024-7.742-3.021
		C94.836,217.517,91.914,218.364,91.522,219.605z"/>
	<path fill="#A92C2C" d="M99.891,219.605c-0.729-2.765-6.086,0.57-5.705,3.043c0.38,2.472-0.19,4.374,3.043,3.803
		C100.461,225.882,100.842,223.219,99.891,219.605"/>
	<path fill="none" stroke="#000000" stroke-miterlimit="10" d="M99.891,219.605c-0.729-2.765-6.086,0.57-5.705,3.043
		c0.38,2.472-0.19,4.374,3.043,3.803C100.461,225.882,100.842,223.219,99.891,219.605z"/>
	<path fill="#FFCB65" d="M86.197,194.123c2.662,3.803,5.516,9.509,9.129,8.748c3.613-0.761,14.644-0.951,16.164,4.184
		c0,0,7.797-8.368,14.834-4.184c7.037,4.184,10.649-4.754,10.08-10.65c-0.199-2.047-13.693,1.712-13.693,1.712
		c9.889-8.938-3.281-26.955-14.072-21.109c-9.129,4.944-14.072,14.643-9.129,20.348C101.349,195.293,83.535,190.319,86.197,194.123"
		/>
	<path fill="none" stroke="#000000" stroke-miterlimit="10" d="M86.197,194.123c2.662,3.803,5.516,9.509,9.129,8.748
		c3.613-0.761,14.644-0.951,16.164,4.184c0,0,7.797-8.368,14.834-4.184c7.037,4.184,10.649-4.754,10.08-10.65
		c-0.199-2.047-13.693,1.712-13.693,1.712c9.889-8.938-3.281-26.955-14.072-21.109c-9.129,4.944-14.072,14.643-9.129,20.348
		C101.349,195.293,83.535,190.319,86.197,194.123z"/>
	<path fill="#FFCB65" d="M20.969,187.656c1.026,2.707,2.096,7.732,4.396,7.825c2.301,0.094,8.999,1.667,9.132,5.005
		c0,0,4.556-0.978,9.608-0.259c3.867,0.551,11.678-2.073,12.234-5.725c0.194-1.268-15.404-1.521-15.404-1.521
		c7.349-3.89,4.498-15.51-2.922-13.628c-6.275,1.592-9.082,7.52-6.967,11.726C31.834,192.645,19.941,184.95,20.969,187.656"/>
	<path fill="none" stroke="#000000" stroke-miterlimit="10" d="M20.969,187.656c1.026,2.707,2.096,7.732,4.396,7.825
		c2.301,0.094,8.999,1.667,9.132,5.005c0,0,4.556-0.978,9.608-0.259c3.867,0.551,11.678-2.073,12.234-5.725
		c0.194-1.268-15.404-1.521-15.404-1.521c7.349-3.89,4.498-15.51-2.922-13.628c-6.275,1.592-9.082,7.52-6.967,11.726
		C31.834,192.645,19.941,184.95,20.969,187.656z"/>
	<path fill="#FFCB65" d="M169.632,197.386c2.24,1.835,4.914,4.78,6.956,3.715c2.041-1.066,13.188-1.818,14.966,1.009
		c0,0-1.282-7.56,3.648-6.234c4.93,1.327,5.593-4.65,4.257-8.094c-0.464-1.196-7.934,3.336-7.934,3.336
		c4.432-7.034-6.514-15.633-12.008-10.304c-4.648,4.508-1.974,9.955,1.957,12.548C182.938,194.326,167.393,195.551,169.632,197.386"
		/>
	<path fill="none" stroke="#000000" stroke-miterlimit="10" d="M169.632,197.386c2.24,1.835,4.914,4.78,6.956,3.715
		c2.041-1.066,13.188-1.818,14.966,1.009c0,0-1.282-7.56,3.648-6.234c4.93,1.327,5.593-4.65,4.257-8.094
		c-0.464-1.196-7.934,3.336-7.934,3.336c4.432-7.034-6.514-15.633-12.008-10.304c-4.648,4.508-1.974,9.955,1.957,12.548
		C182.938,194.326,167.393,195.551,169.632,197.386z"/>
	<path fill="#FFCB65" d="M139.97,193.897c-9.783,4.788-0.515,8.163,1.562,7.842C143.607,201.418,144.324,191.766,139.97,193.897"/>
	<path fill="none" stroke="#000000" stroke-miterlimit="10" d="M139.97,193.897c-9.783,4.788-0.515,8.163,1.562,7.842
		C143.607,201.418,144.324,191.766,139.97,193.897z"/>
	<path fill="#FFCB65" d="M166.214,194.658c-9.783,4.788-0.515,8.163,1.562,7.842C169.851,202.179,170.568,192.527,166.214,194.658"
		/>
	<path fill="none" stroke="#000000" stroke-miterlimit="10" d="M166.214,194.658c-9.783,4.788-0.515,8.163,1.562,7.842
		C169.851,202.179,170.568,192.527,166.214,194.658z"/>
	<path fill="#FFCB65" d="M84.296,194.883c-10.649,2.282-2.472,7.797-0.38,7.987S89.037,193.867,84.296,194.883"/>
	<path fill="none" stroke="#000000" stroke-miterlimit="10" d="M84.296,194.883c-10.649,2.282-2.472,7.797-0.38,7.987
		S89.037,193.867,84.296,194.883z"/>
	<path fill="#FFCB65" d="M76.949,198.288c-8.141,1.744-1.891,5.959-0.291,6.105C78.257,204.538,80.572,197.512,76.949,198.288"/>
	<path fill="none" stroke="#000000" stroke-miterlimit="10" d="M76.949,198.288c-8.141,1.744-1.891,5.959-0.291,6.105
		C78.257,204.538,80.572,197.512,76.949,198.288z"/>
	<path fill="#FFCB65" d="M56.457,199.782c10.279,3.597,6.171-5.369,4.484-6.621C59.254,191.911,51.881,198.182,56.457,199.782"/>
	<path fill="none" stroke="#000000" stroke-miterlimit="10" d="M56.457,199.782c10.279,3.597,6.171-5.369,4.484-6.621
		C59.254,191.911,51.881,198.182,56.457,199.782z"/>
	<path fill="#FFCB65" d="M62.217,202.98c7.854,2.76,4.723-4.097,3.435-5.056C64.363,196.966,58.721,201.751,62.217,202.98"/>
	<path fill="none" stroke="#000000" stroke-miterlimit="10" d="M62.217,202.98c7.854,2.76,4.723-4.097,3.435-5.056
		C64.363,196.966,58.721,201.751,62.217,202.98z"/>
	<path fill="#FFCB65" d="M157.305,202.6c7.854,2.76,4.722-4.097,3.434-5.056C159.45,196.586,153.809,201.371,157.305,202.6"/>
	<path fill="none" stroke="#000000" stroke-miterlimit="10" d="M157.305,202.6c7.854,2.76,4.722-4.097,3.434-5.056
		C159.45,196.586,153.809,201.371,157.305,202.6z"/>
	<path fill="#FFCB65" d="M144.276,198.584c-5.734,6.035,1.805,5.986,3.206,5.203C148.885,203.004,146.829,195.898,144.276,198.584"
		/>
	<path fill="none" stroke="#000000" stroke-miterlimit="10" d="M144.276,198.584c-5.734,6.035,1.805,5.986,3.206,5.203
		C148.885,203.004,146.829,195.898,144.276,198.584z"/>
	<path fill="#4E3760" d="M121.697,180.43c-3.803-2.092-9.065-6.086-10.967-4.564c-1.902,1.521-10.649,7.417-9.699,10.65
		c0.951,3.232,7.606,12.361,11.41,13.122C116.244,200.398,122.648,184.994,121.697,180.43"/>
	<path fill="none" stroke="#000000" stroke-miterlimit="10" d="M121.697,180.43c-3.803-2.092-9.065-6.086-10.967-4.564
		c-1.902,1.521-10.649,7.417-9.699,10.65c0.951,3.232,7.606,12.361,11.41,13.122C116.244,200.398,122.648,184.994,121.697,180.43"/>
	<path fill="#4E3760" d="M189.752,184.953c-1.706-0.938-5.9-3.125-6.945-2.812c-5.072,1.518-2.748,4.091-2.322,5.541
		c0.427,1.45,3.412,5.544,5.117,5.885C187.307,193.908,190.178,187,189.752,184.953"/>
	<path fill="none" stroke="#000000" stroke-miterlimit="10" d="M189.752,184.953c-1.706-0.938-5.9-3.125-6.945-2.812
		c-5.072,1.518-2.748,4.091-2.322,5.541c0.427,1.45,3.412,5.544,5.117,5.885C187.307,193.908,190.178,187,189.752,184.953"/>
	<path fill="#4E3760" d="M43.318,185.333c-1.706-0.938-5.9-3.125-6.946-2.812c-5.071,1.518-2.748,4.091-2.321,5.541
		c0.426,1.45,1.756,3.817,3.463,4.158C39.219,192.562,43.744,187.38,43.318,185.333"/>
	<path fill="none" stroke="#000000" stroke-miterlimit="10" d="M43.318,185.333c-1.706-0.938-5.9-3.125-6.946-2.812
		c-5.071,1.518-2.748,4.091-2.321,5.541c0.426,1.45,1.756,3.817,3.463,4.158C39.219,192.562,43.744,187.38,43.318,185.333"/>
	<path fill="#FFCB65" d="M109.438,122.596c-3.447-3.102,4.742-16.211,9.926-11.689c5.183,4.521,12.129,8.491,8.16,11.689
		c-3.971,3.198-5.072,6.176-0.441,6.176c4.632,0,2.757-1.434,5.294-3.088c0.743-0.486,4.411,2.426,0.661,3.529
		c-9.307,2.737-11.358-0.552-15.659-0.883c-4.302-0.33-4.963-0.33-9.704,1.985c-4.742,2.316-10.036-2.205-7.499-3.308
		c2.536-1.103,1.874,1.213,3.528,1.985S114.951,127.558,109.438,122.596"/>
	<path fill="none" stroke="#000000" stroke-miterlimit="10" d="M109.438,122.596c-3.447-3.102,4.742-16.211,9.926-11.689
		c5.183,4.521,12.129,8.491,8.16,11.689c-3.971,3.198-5.072,6.176-0.441,6.176c4.632,0,2.757-1.434,5.294-3.088
		c0.743-0.486,4.411,2.426,0.661,3.529c-9.307,2.737-11.358-0.552-15.659-0.883c-4.302-0.33-4.963-0.33-9.704,1.985
		c-4.742,2.316-10.036-2.205-7.499-3.308c2.536-1.103,1.874,1.213,3.528,1.985S114.951,127.558,109.438,122.596z"/>
	<path fill="#B9853E" d="M121.95,115.01c-6.188-3.3-10.84-1.141-11.409,1.902c-0.572,3.043,1.711,6.466,4.182,7.226
		c2.474,0.761,3.662,1.626,6.087,1.141C125.563,124.329,124.803,116.531,121.95,115.01"/>
	<path fill="none" stroke="#000000" stroke-miterlimit="10" d="M121.95,115.01c-6.188-3.3-10.84-1.141-11.409,1.902
		c-0.572,3.043,1.711,6.466,4.182,7.226c2.474,0.761,3.662,1.626,6.087,1.141C125.563,124.329,124.803,116.531,121.95,115.01z"/>
	<path fill="#FFCB65" d="M156.425,121.744c-3.447-3.102,4.741-16.211,9.925-11.689c5.184,4.521,10.157,10.315,6.188,13.513
		c-3.971,3.198-3.1,4.352,1.531,4.352c4.633,0,2.758-1.434,5.295-3.088c0.743-0.486,4.41,2.426,0.66,3.529
		c-9.306,2.737-11.357-0.552-15.658-0.883c-4.302-0.33-1.73-0.901-6.472,1.415s-10.13-3.363-7.593-4.465
		c2.535-1.103,3.859,1.129,5.515,1.901C157.47,127.101,161.938,126.706,156.425,121.744"/>
	<path fill="none" stroke="#000000" stroke-miterlimit="10" d="M156.425,121.744c-3.447-3.102,4.741-16.211,9.925-11.689
		c5.184,4.521,10.157,10.315,6.188,13.513c-3.971,3.198-3.1,4.352,1.531,4.352c4.633,0,2.758-1.434,5.295-3.088
		c0.743-0.486,4.41,2.426,0.66,3.529c-9.306,2.737-11.357-0.552-15.658-0.883c-4.302-0.33-1.73-0.901-6.472,1.415
		s-10.13-3.363-7.593-4.465c2.535-1.103,3.859,1.129,5.515,1.901C157.47,127.101,161.938,126.706,156.425,121.744z"/>
	<path fill="#B9853E" d="M167.212,113.869c-6.188-3.3-8.558,1.141-9.128,4.184c-0.571,3.043,1.711,6.466,4.183,7.226
		c2.474,0.761,4.042-0.275,6.466-0.76C173.488,123.568,170.064,115.39,167.212,113.869"/>
	<path fill="none" stroke="#000000" stroke-miterlimit="10" d="M167.212,113.869c-6.188-3.3-8.558,1.141-9.128,4.184
		c-0.571,3.043,1.711,6.466,4.183,7.226c2.474,0.761,4.042-0.275,6.466-0.76C173.488,123.568,170.064,115.39,167.212,113.869z"/>
	<path fill="#FFCB65" d="M48.406,124.406c-3.447-3.102,4.742-16.211,9.925-11.689c5.183,4.521,10.157,10.315,6.187,13.513
		c-3.97,3.198-3.099,4.352,1.532,4.352c4.632,0,2.757-1.434,5.294-3.088c0.744-0.486,4.411,2.426,0.661,3.529
		c-9.306,2.737-11.358-0.552-15.659-0.883c-4.301-0.33-1.729-0.901-6.471,1.415c-4.742,2.316-10.13-3.363-7.593-4.465
		c2.536-1.103,3.86,1.129,5.515,1.901S53.92,129.368,48.406,124.406"/>
	<path fill="none" stroke="#000000" stroke-miterlimit="10" d="M48.406,124.406c-3.447-3.102,4.742-16.211,9.925-11.689
		c5.183,4.521,10.157,10.315,6.187,13.513c-3.97,3.198-3.099,4.352,1.532,4.352c4.632,0,2.757-1.434,5.294-3.088
		c0.744-0.486,4.411,2.426,0.661,3.529c-9.306,2.737-11.358-0.552-15.659-0.883c-4.301-0.33-1.729-0.901-6.471,1.415
		c-4.742,2.316-10.13-3.363-7.593-4.465c2.536-1.103,3.86,1.129,5.515,1.901S53.92,129.368,48.406,124.406z"/>
	<path fill="#B9853E" d="M59.193,116.531c-6.188-3.3-8.559,1.141-9.129,4.184c-0.57,3.043,1.711,6.466,4.184,7.226
		c2.473,0.761,4.042-0.275,6.466-0.76C65.469,126.23,62.046,118.053,59.193,116.531"/>
	<path fill="none" stroke="#000000" stroke-miterlimit="10" d="M59.193,116.531c-6.188-3.3-8.559,1.141-9.129,4.184
		c-0.57,3.043,1.711,6.466,4.184,7.226c2.473,0.761,4.042-0.275,6.466-0.76C65.469,126.23,62.046,118.053,59.193,116.531z"/>
	<path fill="#FFCB65" d="M153.139,265.628c2.206-2.205,4.945-2.854,5.705-1.902c0.762,0.951,1.331,1.902,1.521,3.805
		c0.19,1.9-3.613,5.705-4.944,3.803S150.667,268.101,153.139,265.628"/>
	<path fill="none" stroke="#000000" stroke-miterlimit="10" d="M153.139,265.628c2.206-2.205,4.945-2.854,5.705-1.902
		c0.762,0.951,1.331,1.902,1.521,3.805c0.19,1.9-3.613,5.705-4.944,3.803S150.667,268.101,153.139,265.628z"/>
	<path fill="#FFCB65" d="M120.049,267.53c2.205-2.207,4.945-2.854,5.705-1.902c0.761,0.951,1.33,1.902,1.521,3.805
		c0.19,1.9-3.613,5.703-4.945,3.803C121,271.333,117.576,270.001,120.049,267.53"/>
	<path fill="none" stroke="#000000" stroke-miterlimit="10" d="M120.049,267.53c2.205-2.207,4.945-2.854,5.705-1.902
		c0.761,0.951,1.33,1.902,1.521,3.805c0.19,1.9-3.613,5.703-4.945,3.803C121,271.333,117.576,270.001,120.049,267.53z"/>
	<path fill="#FFCB65" d="M127.656,265.628c2.205-2.205,4.944-2.854,5.705-1.902c0.76,0.951,1.33,1.902,1.521,3.805
		c0.189,1.9-3.614,5.705-4.945,3.803S125.184,268.101,127.656,265.628"/>
	<path fill="none" stroke="#000000" stroke-miterlimit="10" d="M127.656,265.628c2.205-2.205,4.944-2.854,5.705-1.902
		c0.76,0.951,1.33,1.902,1.521,3.805c0.189,1.9-3.614,5.705-4.945,3.803S125.184,268.101,127.656,265.628z"/>
	<path fill="#FFCB65" d="M160.746,264.868c2.205-2.207,4.945-2.854,5.705-1.902c0.761,0.951,1.33,1.902,1.521,3.803
		c0.189,1.902-3.613,5.705-4.945,3.805C161.697,268.671,158.273,267.339,160.746,264.868"/>
	<path fill="none" stroke="#000000" stroke-miterlimit="10" d="M160.746,264.868c2.205-2.207,4.945-2.854,5.705-1.902
		c0.761,0.951,1.33,1.902,1.521,3.803c0.189,1.902-3.613,5.705-4.945,3.805C161.697,268.671,158.273,267.339,160.746,264.868z"/>
	<path fill="#FFCB65" d="M181.285,261.825c2.205-2.207,4.944-2.854,5.705-1.902c0.76,0.951,1.33,1.902,1.521,3.803
		c0.189,1.902-3.614,5.705-4.945,3.805C182.235,265.628,178.812,264.296,181.285,261.825"/>
	<path fill="none" stroke="#000000" stroke-miterlimit="10" d="M181.285,261.825c2.205-2.207,4.944-2.854,5.705-1.902
		c0.76,0.951,1.33,1.902,1.521,3.803c0.189,1.902-3.614,5.705-4.945,3.805C182.235,265.628,178.812,264.296,181.285,261.825z"/>
	<path fill="#FFCB65" d="M189.271,261.063c2.207-2.205,4.945-2.854,5.705-1.902c0.762,0.951,1.331,1.902,1.522,3.805
		c0.19,1.9-3.614,5.705-4.945,3.803S186.8,263.536,189.271,261.063"/>
	<path fill="none" stroke="#000000" stroke-miterlimit="10" d="M189.271,261.063c2.207-2.205,4.945-2.854,5.705-1.902
		c0.762,0.951,1.331,1.902,1.522,3.805c0.19,1.9-3.614,5.705-4.945,3.803S186.8,263.536,189.271,261.063z"/>
	<path fill="#FFCB65" d="M90.381,266.388c2.207-2.205,4.945-2.852,5.705-1.9c0.762,0.951,1.332,1.9,1.522,3.803
		s-3.614,5.705-4.944,3.803C91.332,270.192,87.91,268.86,90.381,266.388"/>
	<path fill="none" stroke="#000000" stroke-miterlimit="10" d="M90.381,266.388c2.207-2.205,4.945-2.852,5.705-1.9
		c0.762,0.951,1.332,1.9,1.522,3.803s-3.614,5.705-4.944,3.803C91.332,270.192,87.91,268.86,90.381,266.388z"/>
	<path fill="#FFCB65" d="M100.021,266.946c1.688-1.715,3.785-2.219,4.367-1.479c0.582,0.738,1.02,1.479,1.164,2.957
		c0.146,1.479-2.766,4.436-3.784,2.957S98.129,268.868,100.021,266.946"/>
	<path fill="none" stroke="#000000" stroke-miterlimit="10" d="M100.021,266.946c1.688-1.715,3.785-2.219,4.367-1.479
		c0.582,0.738,1.02,1.479,1.164,2.957c0.146,1.479-2.766,4.436-3.784,2.957S98.129,268.868,100.021,266.946z"/>
	<path fill="#FFCB65" d="M54.916,264.417c2.93-2.5,6.568-3.232,7.578-2.156c1.011,1.078,1.769,2.156,2.021,4.311
		c0.252,2.156-4.8,6.469-6.568,4.312S51.632,267.22,54.916,264.417"/>
	<path fill="none" stroke="#000000" stroke-miterlimit="10" d="M54.916,264.417c2.93-2.5,6.568-3.232,7.578-2.156
		c1.011,1.078,1.769,2.156,2.021,4.311c0.252,2.156-4.8,6.469-6.568,4.312S51.632,267.22,54.916,264.417z"/>
	<path fill="#FFCB65" d="M65.854,265.247c3.653-2.205,8.19-2.852,9.451-1.902c1.26,0.951,2.204,1.902,2.52,3.805
		s-5.985,5.705-8.19,3.803C67.43,269.052,61.76,267.72,65.854,265.247"/>
	<path fill="none" stroke="#000000" stroke-miterlimit="10" d="M65.854,265.247c3.653-2.205,8.19-2.852,9.451-1.902
		c1.26,0.951,2.204,1.902,2.52,3.805s-5.985,5.705-8.19,3.803C67.43,269.052,61.76,267.72,65.854,265.247z"/>
	<path fill="#FFCB65" d="M24.201,263.347c2.206-2.207,4.945-2.854,5.705-1.902c0.761,0.951,1.33,1.902,1.521,3.803
		c0.19,1.902-3.613,5.705-4.945,3.805C25.152,267.149,21.729,265.817,24.201,263.347"/>
	<path fill="none" stroke="#000000" stroke-miterlimit="10" d="M24.201,263.347c2.206-2.207,4.945-2.854,5.705-1.902
		c0.761,0.951,1.33,1.902,1.521,3.803c0.19,1.902-3.613,5.705-4.945,3.805C25.152,267.149,21.729,265.817,24.201,263.347z"/>
	<path fill="#FFCB65" d="M32.486,263.692c2-1.812,4.481-2.346,5.17-1.562c0.689,0.781,1.207,1.562,1.379,3.125
		c0.172,1.564-3.274,4.691-4.48,3.127C33.349,266.819,30.246,265.724,32.486,263.692"/>
	<path fill="none" stroke="#000000" stroke-miterlimit="10" d="M32.486,263.692c2-1.812,4.481-2.346,5.17-1.562
		c0.689,0.781,1.207,1.562,1.379,3.125c0.172,1.564-3.274,4.691-4.48,3.127C33.349,266.819,30.246,265.724,32.486,263.692z"/>
	<path fill="#FFEBCC" d="M34.915,265.065c0,0,0.679,2.473,2.094,1.332C38.646,265.075,33.941,262.743,34.915,265.065"/>
	<path fill="#FFEBCC" d="M26.167,263.925c0,0,0.679,2.473,2.094,1.33C29.898,263.935,25.193,261.603,26.167,263.925"/>
	<path fill="#FFEBCC" d="M56.531,264.296c-0.115-1.207,3.148,3.742,1.902,3.736C53.445,268.013,56.705,266.126,56.531,264.296"/>
	<path fill="#FFEBCC" d="M76.901,266.276c0,0-1.944-3.18-5.856-1.631C66.512,266.438,79.664,269.247,76.901,266.276"/>
	<path fill="#FFEBCC" d="M103.045,265.438c-0.09-1.207,2.462,3.74,1.488,3.734C100.632,269.153,103.182,267.267,103.045,265.438"/>
	<path fill="#FFEBCC" d="M94.219,265.315c-0.09-1.207,2.462,3.74,1.488,3.736C91.806,269.03,94.354,267.144,94.219,265.315"/>
	<path fill="#FFEBCC" d="M126.336,267.315c0,0-0.969,3.6-5.159,3.217C116.322,270.089,128.148,263.685,126.336,267.315"/>
	<path fill="#FFEBCC" d="M130.453,264.241c0.09-1.207-2.462,3.742-1.488,3.736C132.866,267.958,130.317,266.071,130.453,264.241"/>
	<path fill="#FFEBCC" d="M194.842,261.784c0,0-0.51,2.357-3.443,1.842C188,263.028,195.938,259.46,194.842,261.784"/>
	<path fill="#FFEBCC" d="M201.113,262.778c0.082-0.826-2.264,2.559-1.368,2.555C203.332,265.319,200.988,264.028,201.113,262.778"/>
	<path fill="#FFEBCC" d="M166.127,264.718c0,0-0.254,2.586-3.83,3.15C158.154,268.521,167.085,261.944,166.127,264.718"/>
	<path fill="#FFEBCC" d="M155.421,266.769c-0.112-0.82-1.485,2.973-0.669,2.781C158.021,268.772,155.591,268.015,155.421,266.769"/>
	<path fill="#FFCB65" d="M39.035,294.534c-3.115-0.924-2.004,4.004,4.563,6.467c21.3,7.986,96.799,15.594,143.392-3.805
		c5.588-2.326,6.275-8.748,2.281-6.465C185.279,293.013,108.258,315.073,39.035,294.534"/>
	<path fill="none" stroke="#000000" stroke-miterlimit="10" d="M39.035,294.534c-3.115-0.924-2.004,4.004,4.563,6.467
		c21.3,7.986,96.799,15.594,143.392-3.805c5.588-2.326,6.275-8.748,2.281-6.465C185.279,293.013,108.258,315.073,39.035,294.534z"/>
</g>
<g>
	<polygon fill="#561D1D" points="-309.959,447.425 -336.626,438.093 -331.626,351.425 -280.626,351.425 -271.959,378.758 
		-292.959,416.425 	"/>
	<polygon fill="none" stroke="#000000" stroke-miterlimit="10" points="-309.959,447.425 -336.626,438.093 -331.626,351.425 
		-280.626,351.425 -271.959,378.758 -292.959,416.425 	"/>
	<polygon fill="#561D1D" points="-394.293,434.759 -420.293,445.092 -382.96,347.426 -346.626,350.759 -335.96,445.092 
		-351.293,446.092 -352.293,373.426 -374.96,374.092 	"/>
	<polygon fill="none" stroke="#000000" stroke-miterlimit="10" points="-394.293,434.759 -420.293,445.092 -382.96,347.426 
		-346.626,350.759 -335.96,445.092 -351.293,446.092 -352.293,373.426 -374.96,374.092 	"/>
	<polygon fill="#561D1D" points="-303.626,351.092 -374.626,344.425 -372.959,304.759 -308.626,265.425 -281.626,277.759 
		-277.959,325.425 	"/>
	<polygon fill="none" stroke="#000000" stroke-miterlimit="10" points="-303.626,351.092 -374.626,344.425 -372.959,304.759 
		-308.626,265.425 -281.626,277.759 -277.959,325.425 	"/>
	<path fill="#561D1D" d="M-439.293,333.425c0.167-2.5,7.647,54.643,9.884,52.791c6.709-5.557,20.219-8.074,25.449-6.791
		c17.667,4.333,20-34.333,20-34.333"/>
	<path fill="none" stroke="#000000" stroke-miterlimit="10" d="M-439.293,333.425c0.167-2.5,7.647,54.643,9.884,52.791
		c6.709-5.557,20.219-8.074,25.449-6.791c17.667,4.333,20-34.333,20-34.333"/>
	<path fill="#561D1D" d="M-477.626,346.425c0,0,19.919,38.904,26.667,48.667c7.6,10.997,6.447-4.687,7.666-2.334
		c2.814,5.429-26.666-48.333-19.333-52.333"/>
	<path fill="none" stroke="#000000" stroke-miterlimit="10" d="M-477.626,346.425c0,0,19.919,38.904,26.667,48.667
		c7.6,10.997,6.447-4.687,7.666-2.334c2.814,5.429-26.666-48.333-19.333-52.333"/>
	<path fill="#561D1D" d="M-408.96,264.425l2.667,48.667c0,0-5-2.667-8,0c-1.752,1.556-1.075,19.436-1.334,23.666
		c-0.207,3.386-9.588,4.865-17.234,5.509c-5.3,0.446-10.766-83.175-10.766-83.175"/>
	<path fill="none" stroke="#000000" stroke-miterlimit="10" d="M-408.96,264.425l2.667,48.667c0,0-5-2.667-8,0
		c-1.752,1.556-1.075,19.436-1.334,23.666c-0.207,3.386-9.588,4.865-17.234,5.509c-5.3,0.446-10.766-83.175-10.766-83.175"/>
	<polygon fill="#561D1D" points="-464.626,261.759 -452.959,291.759 -449.626,258.759 	"/>
	<polygon fill="none" stroke="#000000" stroke-miterlimit="10" points="-464.626,261.759 -452.959,291.759 -449.626,258.759 	"/>
	<path fill="#E62E32" d="M-267.626,409.759c0-2.667-8.333-1.667-8,0s1.667,30.333-36.667,28.667
		c-3.723-0.162-4.333-39.667-2.666-40.667c1.666-1,19,0.667,22,17.333c0.636,3.534,7.333,1.334,7.333,1.334l-1.333-42.667h-10
		c0,0,3.333,17-18.667,17.333l-0.667-36.333c0,0,39.334-5,39.334,27c0,24.676,8-0.667,8-0.667l-2-33.333l-99.334-4.667
		c0,0,2-38.333,2-41.333s-11.666-2-11,1.333c0.667,3.334-9.333,28.334-20.333,31.334s-29.333-1.334-29.333-1.334s3-59,6.666-64.666
		c0,0,2-6,13.334-4v-7.334l-54-3.666c0.666,3.666-1.667,8.333-1.667,8.333c6.667,0,10.333-3,10.333,3.333
		c0,6.334,1,65.334-4.666,65.667c-5.667,0.333-15.334-0.667-16,2.333c-0.667,3-4,10-2.667,13.334
		c1.333,3.333,11.386,1.966,13.333,6.666c11.34,27.371,27.365,89.521,26.667,90.667c-1.561,2.562,11,5.667,17.333,1.333
		c6.334-4.333,37-91.666,42.667-94c5.667-2.333,27.333,2.667,27.333,2.667c3.334,25.667,8,77,0.667,81.333
		c-7.333,4.334-17.333-4.333-17.333,2c0,6.334,1.333,12,1.333,12l103.333,2.667C-262.293,451.759-267.626,412.426-267.626,409.759
		 M-413.626,397.759c-2-0.667-12.667-34.333-13.333-41.333c-0.667-7,10-6,10-6l1.333-8.667l12.667,0.667l2,8c0,0,6,0.333,7.333,6
		C-392.293,362.092-411.626,398.426-413.626,397.759"/>
	<path fill="none" stroke="#000000" stroke-miterlimit="10" d="M-267.626,409.759c0-2.667-8.333-1.667-8,0
		s1.667,30.333-36.667,28.667c-3.723-0.162-4.333-39.667-2.666-40.667c1.666-1,19,0.667,22,17.333
		c0.636,3.534,7.333,1.334,7.333,1.334l-1.333-42.667h-10c0,0,3.333,17-18.667,17.333l-0.667-36.333c0,0,39.334-5,39.334,27
		c0,24.676,8-0.667,8-0.667l-2-33.333l-99.334-4.667c0,0,2-38.333,2-41.333s-11.666-2-11,1.333
		c0.667,3.334-9.333,28.334-20.333,31.334s-29.333-1.334-29.333-1.334s3-59,6.666-64.666c0,0,2-6,13.334-4v-7.334l-54-3.666
		c0.666,3.666-1.667,8.333-1.667,8.333c6.667,0,10.333-3,10.333,3.333c0,6.334,1,65.334-4.666,65.667
		c-5.667,0.333-15.334-0.667-16,2.333c-0.667,3-4,10-2.667,13.334c1.333,3.333,11.386,1.966,13.333,6.666
		c11.34,27.371,27.365,89.521,26.667,90.667c-1.561,2.562,11,5.667,17.333,1.333c6.334-4.333,37-91.666,42.667-94
		c5.667-2.333,27.333,2.667,27.333,2.667c3.334,25.667,8,77,0.667,81.333c-7.333,4.334-17.333-4.333-17.333,2
		c0,6.334,1.333,12,1.333,12l103.333,2.667C-262.293,451.759-267.626,412.426-267.626,409.759z M-413.626,397.759
		c-2-0.667-12.667-34.333-13.333-41.333c-0.667-7,10-6,10-6l1.333-8.667l12.667,0.667l2,8c0,0,6,0.333,7.333,6
		C-392.293,362.092-411.626,398.426-413.626,397.759z"/>
	<path fill="#E62E32" d="M-330.293,261.092c-9.592,0.326-57.333,29.333-26.667,66.666c30.667,37.334,73.334,4.334,77.334,0
		C-275.626,323.425-251.96,258.425-330.293,261.092 M-288.293,290.425c0,0-18.333,22-43.333,36s-18.667-10-18.667-15.333
		c0-5.334,42.524-37.789,48.667-38C-282.293,272.425-288.293,290.425-288.293,290.425"/>
	<path fill="none" stroke="#000000" stroke-miterlimit="10" d="M-330.293,261.092c-9.592,0.326-57.333,29.333-26.667,66.666
		c30.667,37.334,73.334,4.334,77.334,0C-275.626,323.425-251.96,258.425-330.293,261.092z M-288.293,290.425
		c0,0-18.333,22-43.333,36s-18.667-10-18.667-15.333c0-5.334,42.524-37.789,48.667-38
		C-282.293,272.425-288.293,290.425-288.293,290.425z"/>
	<line fill="#561D1D" x1="-374.959" y1="374.092" x2="-377.626" y2="351.092"/>
	<line fill="none" stroke="#000000" stroke-miterlimit="10" x1="-374.959" y1="374.092" x2="-377.626" y2="351.092"/>
	<line fill="#561D1D" x1="-352.293" y1="373.425" x2="-350.293" y2="353.758"/>
	<line fill="none" stroke="#000000" stroke-miterlimit="10" x1="-352.293" y1="373.425" x2="-350.293" y2="353.758"/>
	<path fill="#561D1D" d="M-288.293,290.425c0,0-39-4.333-61.333,19"/>
	<path fill="none" stroke="#000000" stroke-miterlimit="10" d="M-288.293,290.425c0,0-39-4.333-61.333,19"/>
</g>
</svg>
