<?xml version="1.0" encoding="utf-8"?>
<!-- Generator: Adobe Illustrator 16.0.0, SVG Export Plug-In . SVG Version: 6.00 Build 0)  -->
<!DOCTYPE svg PUBLIC "-//W3C//DTD SVG 1.1//EN" "http://www.w3.org/Graphics/SVG/1.1/DTD/svg11.dtd">
<svg version="1.1" id="Layer_1" xmlns="http://www.w3.org/2000/svg" xmlns:xlink="http://www.w3.org/1999/xlink" x="0px" y="0px"
	 width="900px" height="204px" viewBox="0 0 900 204" enable-background="new 0 0 900 204" xml:space="preserve">
<image overflow="visible" width="884" height="402" xlink:href="../../../../Users/dpstaff/Desktop/Screen Shot 2015-11-19 at 8.23.49 PM.png"  transform="matrix(0.4835 0 0 0.4835 1121.0439 -286.876)">
</image>
<text transform="matrix(1 0 0 1 466.21 386.75)"><tspan x="0" y="0" font-family="'MyriadPro-Regular'" font-size="12">Lehigh</tspan><tspan x="0" y="28.8" font-family="'MyriadPro-Regular'" font-size="12">Villanova </tspan><tspan x="0" y="57.6" font-family="'MyriadPro-Regular'" font-size="12">Dartmouth</tspan><tspan x="0" y="86.4" font-family="'MyriadPro-Regular'" font-size="12">Fordham</tspan><tspan x="0" y="115.2" font-family="'MyriadPro-Regular'" font-size="12">Columbia</tspan><tspan x="0" y="144" font-family="'MyriadPro-Regular'" font-size="12">Yale</tspan><tspan x="0" y="172.8" font-family="'MyriadPro-Regular'" font-size="12">Brown</tspan><tspan x="0" y="201.6" font-family="'MyriadPro-Regular'" font-size="12">Princeton</tspan><tspan x="0" y="230.4" font-family="'MyriadPro-Regular'" font-size="12">Harvard</tspan></text>
<text transform="matrix(1 0 0 1 560.21 386.75)"><tspan x="0" y="0" font-family="'MyriadPro-Regular'" font-size="12">42 - 21 (L)</tspan><tspan x="0" y="28.8" font-family="'MyriadPro-Regular'" font-size="12">24 - 13 (W)</tspan><tspan x="0" y="57.6" font-family="'MyriadPro-Regular'" font-size="12">41 - 20 (L)</tspan><tspan x="0" y="86.4" font-family="'MyriadPro-Regular'" font-size="12">48 - 45 (L)</tspan><tspan x="0" y="115.2" font-family="'MyriadPro-Regular'" font-size="12">42 - 7 (W)</tspan><tspan x="0" y="144" font-family="'MyriadPro-Regular'" font-size="12">34 - 20 (W)</tspan><tspan x="0" y="172.8" font-family="'MyriadPro-Regular'" font-size="12">48 - 28 (W)</tspan><tspan x="0" y="201.6" font-family="'MyriadPro-Regular'" font-size="12">26 - 23 (W - OVERTIME)</tspan><tspan x="0" y="230.4" font-family="'MyriadPro-Regular'" font-size="12">35 - 25 (W)</tspan></text>
<g>
	<text transform="matrix(1 0 0 1 246.291 -138.5498)"><tspan x="0" y="0" font-family="'AbrilFatface-Regular'" font-size="16">Dartmouth</tspan><tspan x="0" y="37.2" font-family="'Futura-CondensedMedium'" font-size="15">41 - 20 (L)</tspan></text>
</g>
<g>
	<text transform="matrix(1 0 0 1 351.7485 -138.5498)"><tspan x="0" y="0" font-family="'AbrilFatface-Regular'" font-size="16">Fordham</tspan><tspan x="0" y="37.2" font-family="'Futura-CondensedMedium'" font-size="15">48 - 45 (L)</tspan></text>
</g>
<g>
	<text transform="matrix(1 0 0 1 441.0229 -138.5498)"><tspan x="0" y="0" font-family="'AbrilFatface-Regular'" font-size="16">Columbia</tspan><tspan x="0" y="37.2" font-family="'Futura-CondensedMedium'" font-size="15">42 - 7 (W)</tspan></text>
</g>
<g>
	<text transform="matrix(1 0 0 1 532.8486 -138.5498)"><tspan x="0" y="0" font-family="'AbrilFatface-Regular'" font-size="16">Yale</tspan><tspan x="0" y="37.2" font-family="'Futura-CondensedMedium'" font-size="15">34 - 20 (W)</tspan></text>
</g>
<g>
	<text transform="matrix(1 0 0 1 604.1855 -138.5498)"><tspan x="0" y="0" font-family="'AbrilFatface-Regular'" font-size="16">Brown</tspan><tspan x="0" y="37.2" font-family="'Futura-CondensedMedium'" font-size="15">48 - 28 (W)</tspan></text>
</g>
<g>
	<text transform="matrix(1 0 0 1 680.5244 -138.5498)"><tspan x="0" y="0" font-family="'AbrilFatface-Regular'" font-size="16">Princeton</tspan><tspan x="0" y="37.2" font-family="'Futura-CondensedMedium'" font-size="15">26 - 23 (W )</tspan></text>
</g>
<g>
	<text transform="matrix(1 0 0 1 778.9941 -138.5498)"><tspan x="0" y="0" font-family="'AbrilFatface-Regular'" font-size="16">Harvard</tspan><tspan x="0" y="37.2" font-family="'Futura-CondensedMedium'" font-size="15">35 - 25 (W)</tspan></text>
</g>
<text transform="matrix(1 0 0 1 77.9907 -138.5498)"><tspan x="0" y="0" font-family="'AbrilFatface-Regular'" font-size="16">Lehigh</tspan><tspan x="0" y="37.2" font-family="'Futura-CondensedMedium'" font-size="15">42 - 21 (L)</tspan></text>
<text transform="matrix(1 0 0 1 152.9849 -138.5498)"><tspan x="0" y="0" font-family="'AbrilFatface-Regular'" font-size="16">Villanova</tspan><tspan x="0" y="37.2" font-family="'Futura-CondensedMedium'" font-size="15">24 - 13 (W)</tspan></text>
<g>
	<g>
		<text transform="matrix(1 0 0 1 197.1392 126.979)"><tspan x="0" y="0" fill="#FFFFFF" font-family="'Futura-Medium'" font-size="21">Dartmouth</tspan><tspan x="14.269" y="50.4" fill="#FFFFFF" font-family="'Futura-CondensedMedium'" font-size="21">41 - 20 </tspan><tspan x="65.825" y="50.4" fill="#F14950" font-family="'Futura-CondensedMedium'" font-size="21">(L)</tspan></text>
	</g>
	<g>
		<text transform="matrix(1 0 0 1 310.0454 126.979)"><tspan x="0" y="0" fill="#FFFFFF" font-family="'Futura-Medium'" font-size="21">Fordham</tspan><tspan x="6.813" y="50.4" fill="#FFFFFF" font-family="'Futura-CondensedMedium'" font-size="21">48 - 45 </tspan><tspan x="58.37" y="50.4" fill="#F14950" font-family="'Futura-CondensedMedium'" font-size="21">(L)</tspan></text>
	</g>
	<g>
		<text transform="matrix(1 0 0 1 414.0405 126.979)"><tspan x="0" y="0" fill="#FFFFFF" font-family="'Futura-Medium'" font-size="21">Columbia</tspan><tspan x="11.7" y="50.4" fill="#FFFFFF" font-family="'Futura-CondensedMedium'" font-size="21">42 - 7 </tspan><tspan x="54.561" y="50.4" fill="#33B874" font-family="'Futura-CondensedMedium'" font-size="21">(W)</tspan></text>
	</g>
	<g>
		<text transform="matrix(1 0 0 1 536.3613 126.979)"><tspan x="0" y="0" fill="#FFFFFF" font-family="'Futura-Medium'" font-size="21">Yale</tspan><tspan x="-17.145" y="50.4" fill="#FFFFFF" font-family="'Futura-CondensedMedium'" font-size="21">34 - 20 </tspan><tspan x="34.412" y="50.4" fill="#33B874" font-family="'Futura-CondensedMedium'" font-size="21">(W)</tspan></text>
	</g>
	<g>
		<text transform="matrix(1 0 0 1 618.3877 126.979)"><tspan x="0" y="0" fill="#FFFFFF" font-family="'Futura-Medium'" font-size="21">Brown</tspan><tspan x="-7.834" y="50.4" fill="#FFFFFF" font-family="'Futura-CondensedMedium'" font-size="21">48 - 28 </tspan><tspan x="43.723" y="50.4" fill="#33B874" font-family="'Futura-CondensedMedium'" font-size="21">(W)</tspan></text>
	</g>
	<g>
		<text transform="matrix(1 0 0 1 701.3408 126.979)"><tspan x="0" y="0" fill="#FFFFFF" font-family="'Futura-Medium'" font-size="21">Princeton</tspan><tspan x="5.558" y="50.4" fill="#FFFFFF" font-family="'Futura-CondensedMedium'" font-size="21">26 - 23 </tspan><tspan x="57.114" y="50.4" fill="#33B874" font-family="'Futura-CondensedMedium'" font-size="21">(W)</tspan></text>
	</g>
	<g>
		<text transform="matrix(1 0 0 1 811.8145 126.979)"><tspan x="0" y="0" fill="#FFFFFF" font-family="'Futura-Medium'" font-size="21">Harvard</tspan><tspan x="1.554" y="50.4" fill="#FFFFFF" font-family="'Futura-CondensedMedium'" font-size="21">35 - 25 </tspan><tspan x="53.11" y="50.4" fill="#33B874" font-family="'Futura-CondensedMedium'" font-size="21">(W)</tspan></text>
	</g>
	<text transform="matrix(1 0 0 1 13.6445 126.979)"><tspan x="0" y="0" fill="#FFFFFF" font-family="'Futura-Medium'" font-size="21">Lehigh</tspan><tspan x="-4.537" y="50.4" fill="#FFFFFF" font-family="'Futura-CondensedMedium'" font-size="21">42 - 21 </tspan><tspan x="47.02" y="50.4" fill="#F14950" font-family="'Futura-CondensedMedium'" font-size="21">(L)</tspan></text>
	<text transform="matrix(1 0 0 1 91.6372 126.979)"><tspan x="0" y="0" fill="#FFFFFF" font-family="'Futura-Medium'" font-size="21">Villanova</tspan><tspan x="6.716" y="50.4" fill="#FFFFFF" font-family="'Futura-CondensedMedium'" font-size="21">24 - 13 </tspan><tspan x="58.273" y="50.4" fill="#33B874" font-family="'Futura-CondensedMedium'" font-size="21">(W)</tspan></text>
</g>
<text transform="matrix(1 0 0 1 54.46 428.4502)"><tspan x="0" y="0" font-family="'AbrilFatface-Regular'" font-size="16">Lehigh</tspan><tspan x="0" y="37.2" font-family="'Futura-CondensedMedium'" font-size="15">42 - 21 </tspan><tspan x="36.826" y="37.2" fill="#F14950" font-family="'Futura-CondensedMedium'" font-size="15">(L)</tspan></text>
<text transform="matrix(1 0 0 1 129.4541 428.4502)"><tspan x="0" y="0" font-family="'AbrilFatface-Regular'" font-size="16">Villanova</tspan><tspan x="0" y="37.2" font-family="'Futura-CondensedMedium'" font-size="15">24 - 13 </tspan><tspan x="36.826" y="37.2" fill="#33B874" font-family="'Futura-CondensedMedium'" font-size="15">(W)</tspan></text>
<text transform="matrix(1 0 0 1 184.123 60.5288)" fill="#FFFFFF" font-family="'AbrilFatface-Regular'" font-size="72">GAME RESULTS</text>
</svg>
