<?xml version="1.0" encoding="utf-8"?>
<!-- Generator: Adobe Illustrator 16.0.0, SVG Export Plug-In . SVG Version: 6.00 Build 0)  -->
<!DOCTYPE svg PUBLIC "-//W3C//DTD SVG 1.1//EN" "http://www.w3.org/Graphics/SVG/1.1/DTD/svg11.dtd">
<svg version="1.1" id="Layer_1" xmlns="http://www.w3.org/2000/svg" xmlns:xlink="http://www.w3.org/1999/xlink" x="0px" y="0px"
	 width="177px" height="162.661px" viewBox="0 0 177 162.661" enable-background="new 0 0 177 162.661" xml:space="preserve">
<path fill="#1B255E" d="M473.938,203.016c0,0-3.877-31.976-16.855,27.723c-5,23,16.137,62.502,17.5,65.5
	c1.363,2.999-24.637,18.907-26,14s-24.803-71.784-17.715-88.141c7.088-16.355,23.686-86.491,29.44-91.047
	c6.543-5.18,25.44-14.629,32.712-16.084c5.452-1.09,9.33,11.178,25.896,11.178c11.722,0,30.531-4.362,38.436-10.904
	c7.906-6.542,35.983,14.175,35.983,14.175s43.069,52.066,39.254,79.598c-3.815,27.532-5.724,102.77-11.449,105.768
	c-5.725,2.999-24.261,0.272-23.987-5.997c0.271-6.27,7.086-90.229,4.905-95.408c-2.181-5.18-10.903-19.082-13.084-23.444
	c-2.181-4.36,0,116.673,5.452,119.398c5.451,2.726-120.488,16.628-118.307-1.636C478.3,289.429,473.393,217.736,473.938,203.016"/>
<path fill="none" stroke="#000000" stroke-width="2" stroke-miterlimit="10" d="M473.938,203.016c0,0-3.877-31.976-16.855,27.723
	c-5,23,16.137,62.502,17.5,65.5c1.363,2.999-24.637,18.907-26,14s-24.803-71.784-17.715-88.141
	c7.088-16.355,23.686-86.491,29.44-91.047c6.543-5.18,25.44-14.629,32.712-16.084c5.452-1.09,9.33,11.178,25.896,11.178
	c11.722,0,30.531-4.362,38.436-10.904c7.906-6.542,35.983,14.175,35.983,14.175s43.069,52.066,39.254,79.598
	c-3.815,27.532-5.724,102.77-11.449,105.768c-5.725,2.999-24.261,0.272-23.987-5.997c0.271-6.27,7.086-90.229,4.905-95.408
	c-2.181-5.18-10.903-19.082-13.084-23.444c-2.181-4.36,0,116.673,5.452,119.398c5.451,2.726-120.488,16.628-118.307-1.636
	C478.3,289.429,473.393,217.736,473.938,203.016z"/>
<path fill="#F40B0B" d="M509.414,164.58c-2.158,0.316-1.362,6.542,0,7.36c1.363,0.817,3.271-3.816,3.816,0.545
	c0.546,4.362,2.727,39.254,2.727,43.07c0,2.84-2.717,2.963-4.106,2.84c-0.606-0.055-1.203,0.171-1.634,0.599
	c-0.854,0.848-1.725,2.193,0.834,2.559c2.681,0.383,13.164,0.362,19.164,0.316c1.752-0.014,2.717-2.033,1.635-3.409
	c-0.232-0.296-0.539-0.523-0.889-0.66l-4.571-1.788c-0.72-0.282-1.228-0.928-1.323-1.694c-0.62-4.982-2.742-23.295-0.387-23.295
	c2.727,0,24.715,5.106,25.078-6.543C550.305,167.033,550.305,158.583,509.414,164.58 M543.217,179.3
	c-1.637,8.996-14.993,5.997-18.809,5.997c-3.816,0-4.88-15.847-1.637-16.355C537.537,166.626,544.343,173.105,543.217,179.3"/>
<path fill="none" d="M509.414,164.58c-2.158,0.316-1.362,6.542,0,7.36c1.363,0.817,3.271-3.816,3.816,0.545
	c0.546,4.362,2.727,39.254,2.727,43.07c0,2.84-2.717,2.963-4.106,2.84c-0.606-0.055-1.203,0.171-1.634,0.599
	c-0.854,0.848-1.725,2.193,0.834,2.559c2.681,0.383,13.164,0.362,19.164,0.316c1.752-0.014,2.717-2.033,1.635-3.409
	c-0.232-0.296-0.539-0.523-0.889-0.66l-4.571-1.788c-0.72-0.282-1.228-0.928-1.323-1.694c-0.62-4.982-2.742-23.295-0.387-23.295
	c2.727,0,24.715,5.106,25.078-6.543C550.305,167.033,550.305,158.583,509.414,164.58z M543.217,179.3
	c-1.637,8.996-14.993,5.997-18.809,5.997c-3.816,0-4.88-15.847-1.637-16.355C537.537,166.626,544.343,173.105,543.217,179.3z"/>
<path fill="#CC1100" d="M616.083,44.026c-3.836-6.598-66.139-18.261-74.731-11.509c-9.354,7.35-24.805,19.134-22.762,21.458
	c3.817,4.336,10.129,0.92,10.129,0.92"/>
<path fill="none" stroke="#000000" stroke-miterlimit="10" d="M616.083,44.026c-3.836-6.598-66.139-18.261-74.731-11.509
	c-9.354,7.35-24.805,19.134-22.762,21.458c3.817,4.336,10.129,0.92,10.129,0.92"/>
<path fill="#CC1100" d="M605.954,34.206c-0.648,1.168,11.512,10.652,10.588,12.123c-5.623,8.961-17.942,25.533-31.192,26.522
	c-15.424,1.151-47.422-14.503-53.407-17.035c-5.985-2.531-12.382-7.032-12.228-1.509"/>
<path fill="none" stroke="#000000" stroke-miterlimit="10" d="M605.954,34.206c-0.648,1.168,11.512,10.652,10.588,12.123
	c-5.623,8.961-17.942,25.533-31.192,26.522c-15.424,1.151-47.422-14.503-53.407-17.035c-5.985-2.531-12.382-7.032-12.228-1.509"/>
<path fill="#CC1100" d="M542.992,32.797c21.408-5.755,53.819,15.734,74.125,12.891c11.51-1.61,24.401-8.517,24.401-8.517
	c3.684-12.201,0.461-47.652-4.144-50.875s-33.61-13.121-36.833-12.891c-3.223,0.229-34.62-0.208-43.968,10.818
	C547.393-4.945,533.921,35.234,542.992,32.797"/>
<path fill="none" stroke="#000000" stroke-miterlimit="10" d="M542.992,32.797c21.408-5.755,53.819,15.734,74.125,12.891
	c11.51-1.61,24.401-8.517,24.401-8.517c3.684-12.201,0.461-47.652-4.144-50.875s-33.61-13.121-36.833-12.891
	c-3.223,0.229-34.62-0.208-43.968,10.818C547.393-4.945,533.921,35.234,542.992,32.797z"/>
<path fill="none" stroke="#000000" stroke-miterlimit="10" d="M602.384-25.675c5.985,2.532,18.187,11.28,20.488,19.107
	c2.303,7.827-8.518,50.184-8.287,52.256"/>
<path fill="#1B255E" d="M577.698-11.63c-1.374-0.265-2.067,3.394-1.391,4.133c0.676,0.738,2.713-1.473,2.221,1.089
	c-0.491,2.56-5.758,22.596-6.479,24.738c-0.548,1.629-2.287,1.084-3.091,0.729c-0.31-0.137-0.662-0.142-0.976-0.011
	c-0.694,0.29-1.605,0.883-0.057,1.642c1.575,0.772,8.069,2.943,11.716,4.141c0.998,0.328,1.922-0.658,1.531-1.633
	c-0.08-0.199-0.211-0.374-0.379-0.508l-2.516-1.995c-0.359-0.287-0.531-0.749-0.444-1.201c0.567-2.937,2.733-13.631,4.166-13.147
	c1.661,0.559,14.091,7.936,16.515,1.471C602.144-1.865,603.742-6.609,577.698-11.63 M595.508,3.567
	c-2.696,4.715-10.267,0.292-12.592-0.491c-2.325-0.782,0.022-9.896,2.095-9.518C594.444-4.713,597.365,0.32,595.508,3.567"/>
<path fill="none" stroke="#000000" stroke-miterlimit="10" d="M577.698-11.63c-1.374-0.265-2.067,3.394-1.391,4.133
	c0.676,0.738,2.713-1.473,2.221,1.089c-0.491,2.56-5.758,22.596-6.479,24.738c-0.548,1.629-2.287,1.084-3.091,0.729
	c-0.31-0.137-0.662-0.142-0.976-0.011c-0.694,0.29-1.605,0.883-0.057,1.642c1.575,0.772,8.069,2.943,11.716,4.141
	c0.998,0.328,1.922-0.658,1.531-1.633c-0.08-0.199-0.211-0.374-0.379-0.508l-2.516-1.995c-0.359-0.287-0.531-0.749-0.444-1.201
	c0.567-2.937,2.733-13.631,4.166-13.147c1.661,0.559,14.091,7.936,16.515,1.471C602.144-1.865,603.742-6.609,577.698-11.63z
	 M595.508,3.567c-2.696,4.715-10.267,0.292-12.592-0.491c-2.325-0.782,0.022-9.896,2.095-9.518
	C594.444-4.713,597.365,0.32,595.508,3.567z"/>
<rect x="475.585" y="584.779" fill="#FFFFFF" width="59.426" height="53.5"/>
<path fill="#120A4C" d="M436.396,559.753c-2.221-2.832-1.113-3.658,2.055-4.307c54.764-11.204,109.501-22.526,164.248-33.812
	c46.126-9.51,92.254-19.008,138.387-28.487c2.155-0.443,4.361-0.647,6.782-0.997c-0.782,2.495-2.921,3.035-4.463,4.089
	c-34.76,23.748-69.555,47.444-104.357,71.129c-49.106,33.418-98.222,66.823-147.344,100.22c-1.637,1.112-3.45,1.97-5.065,3.11
	c-2.698,1.906-3.768,0.914-3.93-2.005c2.802-1.423,5.8-2.559,8.376-4.313c21.802-14.845,43.504-29.834,65.279-44.717
	c23.799-16.265,47.641-32.468,71.473-48.683c8.357-5.687,16.757-11.315,25.116-16.999c12.758-8.673,25.479-17.399,38.248-26.053
	c11.94-8.092,23.942-16.093,35.867-24.207c1.689-1.149,3.094-2.715,4.631-4.088c-4.328-0.251-8.19,0.284-12.023,0.983
	c-2.271,0.415-6.413,0.241-6.085,2.399c0.529,3.494,4.173,0.225,6.522,0.975c-0.345,1.519-1.544,2.036-2.611,2.764
	c-27.448,18.688-54.844,37.452-82.322,56.093c-24.692,16.75-49.518,33.305-74.205,50.062c-23.21,15.753-46.426,31.503-69.369,47.641
	c-4.076,2.865-4.938,0.473-6.041-1.992c-4.667-10.428-9.166-20.933-13.642-31.445c-3.752-8.814-7.394-17.679-11.074-26.524
	c-4.946-11.887-9.853-23.788-14.843-35.655c-1.409-3.351-0.887-4.877,3.117-5.665c16.741-3.296,33.393-7.051,50.11-10.475
	c20.604-4.221,41.248-8.231,61.857-12.421c19.16-3.896,38.332-7.747,57.418-11.981c4.651-1.032,9.722-1.021,14.556-3.738
	c-1.54-1.096-2.393-1.646-3.735-1.356c-6.308,1.361-12.644,2.592-18.953,3.939c-17.317,3.7-34.551,7.859-51.964,11.033
	c-16.296,2.97-32.41,6.762-48.675,9.848c-14.478,2.746-29.013,5.294-43.337,8.709C456.414,555.206,446.086,556.125,436.396,559.753
	 M510.246,635.197c9.431-0.242,24.612-16.31,16.931-20.492c-7.683-4.182-13.517-5.822-18.602-8.241
	c-2.718-1.293-3.804-0.996-5.072,1.96c-2.719,6.329-10.169,20.085-10.826,21.281C492.677,629.705,500.815,635.439,510.246,635.197
	 M619.313,546.992c4.451,2.907,9.078,5.585,13.29,8.807c2.721,2.079,4.827,0.731,6.769-0.513c2.071-1.325-0.055-2.979-0.586-4.307
	c-2.032-5.081-4.314-10.062-6.46-15.099c-0.643-1.511-1.675-3.102-1.615-4.619c0.292-7.472,0.399-7.466-6.37-4.558
	c-0.765,0.328-1.562,0.593-2.296,0.979c-0.955,0.501-2.562,0.557-2.247,2.161c0.275,1.408,0.496,3.381,2.056,3.695
	c5.697,1.15,4.053,6.223,5.746,9.547c-4.365-2.456-8.575-4.912-12.201-8.045c-3.278-2.83-6.157-2.413-9.449-0.546
	c-0.976,0.555-2.526,0.65-2.115,2.219c0.357,1.365,0.648,3.776,2.092,3.569c3.688-0.526,3.45,2.399,4.31,4.214
	c1.707,3.606,3.164,7.331,4.694,11.021c0.599,1.444,1.795,2.728-0.367,4.255c-1.599,1.13,0.181,2.727,0.668,3.986
	c0.704,1.819,2.18,0.964,3.384,0.498c1.707-0.659,3.398-1.363,5.065-2.118c2.842-1.288,3.519-5.204,0.868-5.856
	c-5.058-1.241-4.413-5.426-5.871-8.577C618.905,547.482,619.118,547.244,619.313,546.992 M597.25,554.642
	c-0.97,0.528-1.766,0.063-2.629-0.56c-3.46-2.498-6.981-4.909-10.442-7.405c-2.376-1.714-8.617-0.881-9.535,1.774
	c-0.943,2.728,1.119,4.015,3.727,4.702c0.791,0.208,1.313,1.797,1.771,2.836c1.743,3.954,3.435,7.932,5.089,11.923
	c0.595,1.434,1.721,2.753-0.237,4.341c-1.808,1.466,0.224,2.999,0.792,4.35c0.85,2.016,2.248,0.465,3.335,0.092
	c1.725-0.59,3.405-1.324,5.062-2.089c2.682-1.238,3.197-5.15,0.568-5.831c-5.194-1.345-3.875-5.936-5.998-8.757
	c1.373-0.663,2.021-0.094,2.699,0.366c3.991,2.702,8.091,5.261,11.935,8.159c2.533,1.908,4.455,0.442,6.337-0.692
	c2.278-1.374,0.142-2.979-0.357-4.254c-2.06-5.259-4.456-10.386-6.543-15.635c-0.768-1.933-2.744-3.687-0.621-6.325
	c0.683-0.85-0.2-4.605-2.546-4.2c-3.348,0.579-6.517,2.324-9.686,3.743c-1.538,0.688-0.012,1.46,0.213,2.19
	C591.551,547.811,597.917,548.806,597.25,554.642 M570.392,549.545c-4.55,1.947-8.832,3.786-13.119,5.614
	c-6.871,2.93-6.847,2.895-0.883,7.624c0.705,0.56,1,1.681,1.391,2.582c1.453,3.359,2.973,6.696,4.26,10.118
	c0.798,2.123,2.552,3.873,0.657,6.803c-1.394,2.156,1.928,4.688,4.62,3.613c3.709-1.479,7.366-3.088,11.046-4.642
	c5.746-2.43,5.813-2.461,3.056-8.256c-0.572-1.202-0.334-3.995-2.998-2.773c-1.649,0.757-4.764,0.603-3.523,4.101
	c0.917,2.589-1.595,2.497-2.859,3.139c-1.832,0.93-2.354-0.733-2.648-1.96c-0.364-1.517-2.915-3.141-0.275-4.644
	c1.812-1.03,3.572-1.444,2.339-4.31c-1.19-2.769-2.604-2.106-4.679-1.371c-2.602,0.923-2.198-1.834-2.955-3.02
	c-0.624-0.977-1.816-2.51,0.207-3.264c1.29-0.48,2.875-2.673,4.193-0.165c1.628,3.096,3.376,0.645,4.988,0.213
	c2.216-0.593,1.609-2.161,0.806-3.532C572.852,553.436,572.952,550.584,570.392,549.545 M546.665,560.19
	c-3.462,1.432-7.35,2.874-11.075,4.655c-1.783,0.852-4.807,0.637-4.922,3.277c-0.093,2.093,1.071,4.075,3.956,4.038
	c0.442-0.005,0.952,1.601,1.35,2.497c1.144,2.578,2.463,5.106,3.308,7.782c0.993,3.146,3.97,5.798,1.74,9.889
	c-0.704,1.29,0.653,4.855,4.231,3.038c1.625-0.824,3.371-1.406,5.021-2.187c2.421-1.146,2.729-4.153,0.62-5.642
	c-6.95-4.906-6.9-5.684,0.64-9.248c2.993-1.414,5.36-3.87,3.847-6.959C553.367,567.23,553.834,560.907,546.665,560.19
	 M635.389,520.577c2.254,0.042,3.979-0.182,5.801-0.575c14.882-3.217,29.791-6.31,44.705-9.375
	c7.444-1.53,14.931-2.859,22.362-4.446c1.287-0.275,3.37-0.641,3.048-2.613c-0.254-1.558-1.919-1.041-2.915-0.686
	c-10.98,3.902-22.615,4.723-33.891,7.226c-10.974,2.436-22.062,4.344-33.086,6.559C639.173,517.116,636.829,517.616,635.389,520.577
	 M524.64,602.516c-0.652-2.934-2.092-5.04-5.366-4.867c-3.552,0.189-5.597,2.191-5.428,5.784c0.154,3.277,2.538,4.667,5.468,4.554
	C522.593,607.859,524.32,605.736,524.64,602.516 M501.353,601.971c3.379-0.212,5.277-2.15,5.308-5.397
	c0.031-3.127-1.983-4.955-5.075-4.98c-3.267-0.027-5.508,1.79-5.588,5.114C495.917,600.034,497.946,601.849,501.353,601.971"/>
<path fill="#5E1A35" d="M436.396,559.753c9.691-3.627,20.018-4.547,30.004-6.928c14.324-3.414,28.859-5.962,43.337-8.709
	c16.265-3.086,32.379-6.878,48.676-9.849c17.412-3.173,34.646-7.333,51.962-11.031c6.312-1.349,12.646-2.579,18.954-3.94
	c1.342-0.29,2.195,0.261,3.735,1.356c-4.833,2.718-9.904,2.707-14.556,3.738c-19.086,4.235-38.259,8.086-57.417,11.981
	c-20.61,4.189-41.256,8.201-61.858,12.421c-16.718,3.424-33.369,7.179-50.11,10.474c-4.004,0.788-4.527,2.315-3.117,5.666
	c4.99,11.867,9.897,23.77,14.842,35.654c3.683,8.847,7.323,17.71,11.075,26.526c4.476,10.512,8.975,21.016,13.642,31.443
	c1.103,2.466,1.965,4.859,6.041,1.992c22.942-16.136,46.159-31.886,69.37-47.639c24.688-16.757,49.512-33.312,74.204-50.062
	c27.479-18.641,54.875-37.404,82.321-56.093c1.068-0.728,2.268-1.246,2.612-2.764c-2.35-0.75-5.993,2.52-6.522-0.976
	c-0.327-2.158,3.814-1.982,6.085-2.397c3.833-0.7,7.695-1.236,12.023-0.985c-1.537,1.373-2.942,2.939-4.631,4.089
	c-11.925,8.114-23.927,16.114-35.867,24.206c-12.77,8.655-25.491,17.38-38.248,26.054c-8.359,5.685-16.758,11.312-25.117,16.999
	c-23.832,16.216-47.673,32.418-71.472,48.683c-21.776,14.882-43.478,29.872-65.28,44.717c-2.575,1.754-5.573,2.89-8.376,4.314
	c-3.365-5.359-4.818-11.5-6.956-17.349c-2.688-7.355-6.8-14.017-9.792-21.261c-5.075-12.28-9.184-25.027-15.728-36.644
	c-1.271-2.259-0.84-4.439-1.538-6.608C445.625,577.296,438.922,569.471,436.396,559.753"/>
<path fill="#FCFCFC" d="M532.586,601.802l-30.726-13.525c-3.938-1.563-5.426-0.855-6.825,2.868
	c-2.039,5.426-4.584,10.662-6.892,15.987c-0.921,2.123-2.505,6.556-3.548,8.4c-1.292,2.284-2.44,4.649-3.66,6.984
	c-0.009,0.005,0.141-0.074,0.141-0.074c-2.681,1.403-3.391-1.369-4.312-2.496c-5.439-6.646-9.122-14.291-11.787-22.435
	c2.014,0.728,3.752,0.063,5.645-0.748c17.082-7.33,34.205-14.565,51.335-21.782l4.706-3.513c6.563,9.274,9.434,19.509,7.978,30.852"
	/>
<path fill="#5E1A35" d="M521.956,574.981c-17.13,7.217-34.252,14.451-51.334,21.781c-1.895,0.812-3.633,1.478-5.646,0.749
	c-2.107-4.606-2.357-9.803-5.094-14.34c-1.03-1.708-3.177-5.299,2.583-7.602c6.527-2.61,13.058-5.434,19.672-8.008
	c5.587-2.177,10.675-5.52,16.368-7.555c2.475-0.885,4.817-2.14,7.221-3.229l5.108-2.021c2.229-1.086,4.947-1.104,6.823-2.904
	c1.018-0.978,1.959-0.922,2.168,0.271c1.028,5.856,5.361,10.264,6.78,15.907c0.272,1.082,0.051,2.289,0.057,3.438 M496.749,580.906
	c0.487,0,1.832,0.154,3.131-0.027c5.16-0.717,7.531-4.967,5.061-8.984c-0.787-1.281-1.345-3.658-3.207-2.632
	c-0.934,0.515-1.268,2.976-0.562,4.732c0.433,1.08,2.597,2.259,0.149,3.393c-1.771,0.82-2.513-0.478-3.483-1.768
	c-2.917-3.876-7.963-4.869-12.373-2.683c-4.348,2.154-5.938,5.839-4.374,10.815c0.511,1.625,1.117,3.985,2.965,4.06
	c1.199,0.049,3.216-1.621,3.585-2.894C488.977,580.313,492.242,580.296,496.749,580.906 M513.567,561
	c-3.161-0.015-7.886,3.001-8.053,5.865c-0.136,2.332,3.413,7.721,5.055,7.673c2.702-0.081,10.617-4.928,9.857-5.842
	C518.372,566.224,520.374,560.664,513.567,561 M476.179,578.425c-5.595-0.007-13.077,4.902-11.89,6.365
	c1.876,2.314,1.807,6.407,5.331,7.055c3.302,0.606,10.749-4.092,9.924-5.941C478.334,583.188,479.174,578.708,476.179,578.425"/>
<path fill="#FCFCFC" d="M597.249,554.641c0.668-5.836-5.698-6.829-7.065-11.271c-0.226-0.73-1.75-1.503-0.214-2.191
	c3.169-1.418,6.34-3.164,9.687-3.742c2.346-0.405,3.228,3.351,2.546,4.199c-2.122,2.64-0.147,4.394,0.621,6.325
	c2.087,5.249,4.484,10.376,6.543,15.636c0.499,1.274,2.635,2.881,0.357,4.253c-1.883,1.137-3.805,2.603-6.338,0.692
	c-3.844-2.897-7.942-5.456-11.934-8.159c-0.678-0.459-1.326-1.028-2.7-0.365c2.124,2.82,0.806,7.411,5.999,8.757
	c2.628,0.681,2.113,4.593-0.568,5.831c-1.656,0.765-3.338,1.499-5.062,2.09c-1.088,0.372-2.487,1.924-3.336-0.093
	c-0.568-1.351-2.6-2.885-0.792-4.35c1.959-1.588,0.832-2.908,0.238-4.341c-1.655-3.992-3.348-7.969-5.089-11.923
	c-0.458-1.039-0.981-2.627-1.772-2.836c-2.607-0.688-4.669-1.975-3.727-4.701c0.919-2.657,7.158-3.489,9.534-1.776
	c3.461,2.496,6.983,4.908,10.443,7.406C595.485,554.705,596.28,555.17,597.249,554.641"/>
<path fill="#FCFCFC" d="M618.677,547.705c1.458,3.151,0.814,7.336,5.871,8.578c2.65,0.65,1.973,4.566-0.869,5.854
	c-1.666,0.756-3.358,1.459-5.064,2.119c-1.203,0.465-2.681,1.322-3.384-0.499c-0.486-1.259-2.267-2.855-0.669-3.984
	c2.162-1.528,0.966-2.812,0.367-4.256c-1.529-3.688-2.986-7.414-4.693-11.02c-0.859-1.816-0.622-4.742-4.31-4.214
	c-1.444,0.206-1.734-2.205-2.092-3.57c-0.412-1.568,1.14-1.665,2.116-2.219c3.292-1.868,6.17-2.285,9.447,0.546
	c3.627,3.132,7.837,5.588,12.202,8.044c-1.694-3.323-0.05-8.396-5.746-9.545c-1.56-0.315-1.78-2.289-2.056-3.697
	c-0.314-1.604,1.291-1.659,2.247-2.161c0.733-0.385,1.531-0.648,2.296-0.978c6.77-2.908,6.661-2.913,6.37,4.557
	c-0.06,1.52,0.973,3.11,1.616,4.619c2.144,5.037,4.427,10.019,6.46,15.1c0.53,1.326,2.656,2.98,0.585,4.308
	c-1.941,1.243-4.047,2.591-6.769,0.511c-4.212-3.22-8.839-5.897-13.29-8.806c-0.372-0.109-0.994-0.401-1.069-0.296
	C617.917,547.145,618.168,547.52,618.677,547.705"/>
<path fill="#FCFCFC" d="M570.392,549.545c2.562,1.039,2.46,3.89,3.621,5.871c0.804,1.371,1.411,2.939-0.805,3.532
	c-1.613,0.432-3.361,2.883-4.988-0.213c-1.319-2.508-2.903-0.315-4.193,0.165c-2.023,0.754-0.832,2.286-0.208,3.264
	c0.758,1.185,0.354,3.941,2.956,3.02c2.074-0.734,3.488-1.396,4.68,1.371c1.231,2.865-0.528,3.279-2.339,4.311
	c-2.642,1.502-0.09,3.127,0.274,4.642c0.294,1.228,0.817,2.891,2.649,1.961c1.264-0.642,3.775-0.55,2.857-3.138
	c-1.239-3.498,1.874-3.345,3.524-4.102c2.664-1.223,2.425,1.571,2.997,2.773c2.758,5.795,2.691,5.827-3.055,8.255
	c-3.68,1.555-7.337,3.164-11.047,4.644c-2.691,1.073-6.013-1.457-4.618-3.614c1.894-2.931,0.14-4.68-0.659-6.802
	c-1.287-3.424-2.806-6.761-4.259-10.118c-0.391-0.902-0.686-2.024-1.391-2.583c-5.964-4.73-5.988-4.694,0.882-7.624
	C561.559,553.331,565.842,551.493,570.392,549.545"/>
<path fill="#FCFCFC" d="M546.665,560.19c7.168,0.717,6.703,7.04,8.714,11.143c1.515,3.088-0.852,5.543-3.846,6.958
	c-7.54,3.563-7.59,4.342-0.64,9.248c2.107,1.488,1.801,4.496-0.62,5.642c-1.65,0.78-3.396,1.362-5.021,2.187
	c-3.578,1.817-4.934-1.748-4.23-3.038c2.229-4.092-0.746-6.743-1.74-9.889c-0.845-2.676-2.164-5.204-3.307-7.783
	c-0.398-0.896-0.908-2.502-1.352-2.496c-2.883,0.037-4.047-1.945-3.955-4.037c0.116-2.642,3.139-2.428,4.921-3.278
	C539.315,563.064,543.204,561.623,546.665,560.19 M549.002,571.427c-0.787-2.016-0.803-4.459-3.96-3.988
	c-1.916,0.286-4.511-0.211-4.24,2.635c0.174,1.815,0.51,4.679,3.476,4.494C546.301,574.442,548.346,573.698,549.002,571.427"/>
<path fill="#5E1A35" d="M635.389,520.578c1.441-2.962,3.784-3.461,6.025-3.911c11.022-2.216,22.111-4.125,33.085-6.561
	c11.275-2.502,22.91-3.321,33.891-7.226c0.996-0.354,2.661-0.871,2.915,0.688c0.322,1.973-1.761,2.338-3.048,2.612
	c-7.432,1.587-14.918,2.916-22.362,4.446c-14.914,3.066-29.823,6.158-44.705,9.375C639.368,520.395,637.643,520.62,635.389,520.578"
	/>
<path fill="#FCFCFC" d="M501.348,601.965c-3.401-0.117-5.432-1.931-5.351-5.258c0.081-3.324,2.322-5.142,5.587-5.114
	c3.092,0.025,5.107,1.854,5.077,4.979C506.629,599.82,504.731,601.759,501.348,601.965"/>
<path fill="#FCFCFC" d="M492.098,620.215c-3.401-0.117-5.432-1.931-5.351-5.258c0.081-3.324,2.322-5.142,5.587-5.114
	c3.092,0.025,5.107,1.854,5.077,4.979C497.379,618.07,495.481,620.009,492.098,620.215"/>
<path fill="#5E1A35" d="M533.322,599.541c-0.457-0.024-0.915-0.049-1.373-0.071"/>
<path fill="#FCFCFC" d="M496.749,580.906c-4.507-0.61-7.772-0.593-9.108,4.013c-0.369,1.272-2.386,2.942-3.585,2.894
	c-1.848-0.074-2.453-2.435-2.965-4.06c-1.564-4.977,0.026-8.661,4.374-10.815c4.41-2.187,9.456-1.193,12.374,2.683
	c0.97,1.29,1.711,2.588,3.482,1.768c2.447-1.134,0.284-2.312-0.149-3.393c-0.706-1.757-0.372-4.218,0.561-4.732
	c1.863-1.026,2.421,1.351,3.208,2.632c2.472,4.018,0.1,8.268-5.06,8.984C498.581,581.061,497.236,580.906,496.749,580.906"/>
<path fill="#FCFCFC" d="M513.567,561c6.807-0.336,4.805,5.225,6.859,7.696c0.76,0.913-7.155,5.761-9.857,5.842
	c-1.642,0.048-5.19-5.341-5.055-7.673C505.682,564.001,510.406,560.985,513.567,561"/>
<path fill="#FCFCFC" d="M476.179,578.425c2.995,0.283,2.155,4.763,3.365,7.479c0.825,1.85-6.622,6.548-9.924,5.941
	c-3.524-0.647-3.455-4.74-5.331-7.055C463.102,583.327,470.584,578.418,476.179,578.425"/>
<path fill="#120A4C" d="M618.677,547.705c-0.509-0.186-0.76-0.561-0.433-1.009c0.075-0.105,0.697,0.187,1.069,0.296
	C619.118,547.245,618.905,547.482,618.677,547.705"/>
<path fill="#120A4C" d="M549.002,571.427c-0.656,2.271-2.701,3.016-4.725,3.141c-2.966,0.185-3.302-2.679-3.476-4.494
	c-0.271-2.846,2.324-2.349,4.24-2.635C548.199,566.968,548.215,569.411,549.002,571.427"/>
<path fill="#050303" d="M905.994,240.373c9.668,0.481,18.949,3.205,28.373,5.035c24.316,4.72,48.57,9.761,72.857,14.635
	c51.879,10.414,103.766,20.809,155.65,31.203c18.664,3.738,37.338,7.43,55.994,11.207c1.855,0.375,4.113,0.219,5.18,2.722
	c-1.547,0.495-3.068,0.983-4.582,1.469c-0.99-0.419-1.883,0.103-2.836,0.226c-4.352,0.557-7.52,3.761-11.549,4.947
	c-11.086,3.268-22.645,4.215-33.875,6.951c-10.498,2.557-21.359,4.391-32.012,5.562c-11.41,1.258-21.984,5.615-33.33,6.609
	c-3.615,0.316-7.449,1.061-10.82,2.143c-4.498,1.445-9.195,1.447-13.592,3.035c-6.135,2.217-12.789,1.756-19.039,3.496
	c-4.568,1.271-9.145,2.611-13.801,3.445c-7.33,1.311-14.768,2.338-22,3.846c-6.223,1.297-12.512,2.703-18.736,4.195
	c-7.713,1.85-15.738,2.289-23.268,4.895c-4.838,1.674-9.832,2.375-14.828,3.043c-12.225,1.637-23.924,5.762-36.188,7.293
	c-7.037,0.879-13.887,3.273-21.012,3.676c-6.207,0.35-6.557-0.211-6.559-6.172C906.012,322.681,906.002,281.527,905.994,240.373
	 M941.369,327.687c0.266-0.314,0.529-0.629,0.795-0.943c-0.215-0.113-0.43-0.227-0.646-0.34c-0.033,0.43-0.066,0.861-0.1,1.293
	c1.164-0.438,2.656,1.488,3.604-0.5c1.889-0.418,3.338,0.676,4.887,1.418c-0.99,1.363-1.016,2.354,0.965,2.672
	c1.871,0.301,3.707-0.238,4.773-1.527c0.504-0.607-1.605-0.381-2.121-1.221c1.553-0.99,3.338-1.203,5.072-1.66
	c1.785-0.469,3.086-1.732,3.336-3.814c0.197-1.646-0.094-3.174-1.646-3.791c-3.629-1.443-7.299-3.1-11.363-2.129
	c-1.877,0.445-3.828,0.953-5.482,1.895c-5.062,2.879-0.697,5,0.75,7.336C943.248,326.812,942.303,327.25,941.369,327.687
	 M970.396,307.744c-0.49,0.593-1.996,0.713-0.936,2.023c-0.789,0.801-1.627,1.583-0.99,2.875l-0.312,0.186l0.359,0.062
	c-1.057,0.135-2.047,0.641-1.672,1.773c0.645,1.957,2.58-0.002,3.654,0.951c-0.658,0.359-1.797,0.689-1.129,1.594
	c0.605,0.824,1.807,1.611,2.879,0.645c0.582-0.525-0.344-0.998-0.664-1.461c1.582-0.445,3.164-0.891,4.732-1.324
	c-0.457,0.914,0.193,0.986,0.814,1.043c0.131,0.01,0.4-0.15,0.393-0.203c-0.107-0.846-0.885-0.482-1.34-0.717
	c0.016-0.453,0.027-0.906,0.041-1.359l-0.016,0.1c0.924-2.432-3.379-1.615-2.494-4.012l0.238-0.102l-0.232-0.113
	c0.857-0.241,1.713-0.483,2.572-0.726c-1.377,3.093,1.262,2.444,2.707,2.909c0.803-0.012,1.605-0.023,2.406-0.036
	c-0.561-0.243-1.119-0.487-1.68-0.729c0.051-3.094,1.566-3.945,4.451-3.104c1.012,0.294,2.557,0.53,2.662-1.147
	c0.092-1.457-0.857-2.031-2.432-2.397c-2.121-0.494-4.051,1.226-6.074,0.136c-0.125-4.222,2.477-8.125,1.449-12.451
	c0.268-4.449-2.33-8.021-3.664-11.979c3.789-0.902,7.295-5.581,7.016-9.575c-0.105-1.511,0.074-4.109-1.812-3.868
	c-2.348,0.299-5.475,2.855-4.443,4.833c1.619,3.105-0.338,4.484-1.211,6.531c-0.777-0.353-1.553-0.706-2.328-1.059
	c-1.121-1.574-1.908-3.782-3.434-4.583c-2.684-1.41-2.07-5.589-3.574-5.744c-2.662-0.275-4.717-2.114-7.322-2.017
	c-4.641-0.059-9.279-0.139-13.92-0.153c-0.672-0.003-1.896-0.214-1.445,1.135c0.24,0.715,1.135,1.821,1.807,1.179
	c3.652-3.49,8.029-0.815,11.963-1.63c-0.742,0.913-1.486,1.827-2.332,2.869c2.936,0,5.594-0.065,8.246,0.031
	c1.154,0.041,1.893,0.621,0.994,1.896c-0.131,0.187-1.852,7.398-1.846,7.442c-3.053,0.043-6.541-2.187-8.865,2.011
	c-0.127,0.228-3.1,1.535-4.291-0.474c-1.531-2.579-3.951-1.868-6.232-1.923c-0.896-0.022-2.322,1.308-2.766-1.02
	c2.885-1.334,6.213-0.226,9.465-1.17c-2.02-2.42-4.295-1.572-6.354-1.67c-1.303-0.061-3.023,0.685-3.82-0.427
	c-2.678-3.741-4.889-1.068-6.908,0.467c-1.811,1.376-3.191,3.314-4.762,5.004c-3.162-1.434-1.957-4.279-1.816-6.513
	c0.199-3.134-2.068-4.226-4.047-4.92c-0.867-0.303-3.387,1.511-3.701,2.736c-0.846,3.307,4.539,9.507,8.717,10.665
	c-0.555,1.586-1.109,3.172-1.658,4.752c-1.273,1.562-1.574,3.361-1.283,5.303c-2.666,4.904,0.766,9.539,0.629,14.332
	c-2.547,0.078-5.189-0.731-7.846,0.74c1.203,2.301,3.521,1.662,5.16,2.448c3.691,1.774-1.064,2.672-0.424,4.571
	c3.938-2.237,4.326,2.959,7.547,3.711c2.434,0.568,3.762,2.732,3.988,1.316c0.82-5.094,2.852,0.258,4.168-0.799
	c-0.393-1.799-0.389-3.906-3.119-4.107c1.33-0.85,0.51-1.748,0.061-2.639c0.199-0.761-0.238-0.922-0.857-0.914
	c-0.875-1.535-2.258-2.029-3.934-1.928c0.412-0.29,0.9-0.541,0.598-1.189c-3.529-4.491-5.188-9.519-4.359-15.256
	c0.195-1.688,0.391-3.375,0.586-5.062c3-1.591,2.465-6.192,6.367-7.321c-0.787,5.928,3.898,2.245,5.938,3.334
	c1.793,0.957,3.873,1.223,3.285,3.844c-0.527,2.343-0.139,6.121-3.662,5.729c-4.434-0.491-3.723,1.649-2.42,3.746
	c1.822,2.931,2.398,5.286,0.576,8.651c-1.404,2.6-0.322,5.922,1.734,8.26c1.525,1.732,2.92-0.334,4.359-0.786
	c0.174,1.868-3.479,1.755-2.24,3.96c1.283,2.283,8.082,2.328,8.85-0.158c1.193-3.867,5.215-4.302,7.201-7.422
	c-1.43-0.083-2.711-0.158-3.992-0.232c5.52-1.449,5.984-1.28,6.225,2.264c-0.996,0.83-1.963,1.697-2.996,2.477
	c-0.803,0.607-2.67,0.288-2.115,2.023c0.395,1.23,1.5,2.635,2.773,2.455c2.506-0.352,7.205,2.326,6.211-3.918
	c-0.139-0.875,0.971-1.947,1.502-2.928c2.873-0.16,3.057-3.004,2.439-4.113c-2.463-4.426-0.881-8.616-0.109-12.908
	c1.035-0.561,1.316-1.512,0.445-2.188c-0.537-0.416-0.875,0.614-1.17,1.131c-1.68,0.681-3.357,1.363-5.811,2.356
	c0.896-1.87,0.408-3.798,2.859-3.198c1.625,0.397,2.326-0.455,3.064-1.711c0.484-0.824,2.424-1.246,0.854-2.451
	c-0.777-0.596-2.402-0.5-2.596,1.17c-0.416,3.604-1.84,0.637-2.186,0.197c-1.139-1.447-0.619-3.068,0.201-4.514
	c1.689-2.979,4.143,0.041,6.271-0.719c2.295-0.817,0.328-5.293,4.125-4.344c3.234,5.654,4.926,11.739,5.092,18.25
	c-1.461,2.6-1.221,5.969-3.666,8.125c-0.992,0.524-1.496,1.281-1.162,2.438C971.867,307.256,971.133,307.5,970.396,307.744
	 M1023.303,312.726c0.416-0.021,0.832-0.045,1.248-0.066c1.164,5.846,2.494,11.668,3.424,17.553
	c0.473,2.996,1.965,2.881,4.191,2.357c3.01-0.705,1.588-2.686,1.402-4.33c-0.893-7.963-4.943-15.801-2.09-23.881
	c1.662-4.707,1.873-9.304,1.625-14.049c-0.217-4.166-1.004-8.242-3.117-11.962c-2.342-4.117-6.686-4.052-10.164-3.702
	c-3.232,0.325-1.496,4.135-1.52,6.271c-0.172,16.316-0.139,32.637-0.004,48.953c0.012,1.537-1.547,4.377,2.074,4.453
	c3.418,0.072,2.926-2.4,2.928-4.533C1023.309,324.103,1023.303,318.416,1023.303,312.726 M1059.02,299.417
	c-2.883-4.889-3.787-10.219-5.143-15.418c-0.514-1.973-0.566-4.526-3.848-3.979c-2.926,0.487-1.826,2.763-1.834,4.302
	c-0.088,13.66-0.086,27.322-0.008,40.984c0.01,1.711-1.08,4.357,2.361,4.34c3.084-0.02,2.713-2.238,2.709-4.24
	c-0.008-5.602-0.002-11.203-0.002-16.805c2.477,5.736,4.127,11.488,5.572,17.291c0.447,1.803,1.203,2.443,3.049,2.373
	c2.254-0.09,2.23-1.551,2.232-3.086c0.002-13.829-0.025-27.656,0.006-41.484c0.006-1.922-0.363-3.113-2.672-3.232
	c-2.713-0.141-2.414,1.602-2.418,3.246C1059.01,288.945,1059.02,294.181,1059.02,299.417 M1000.152,304.779h0.025
	c0,9.486-0.039,18.973,0.041,28.459c0.01,1.445-0.84,3.709,1.83,3.814c2.523,0.1,3.332-1.41,3.27-3.865
	c-0.139-5.322-0.078-10.652-0.023-15.979c0.016-1.393-0.514-3.379,1.641-3.604c5.197-0.543,6.082-4.726,6.982-8.474
	c1.932-8.031,1.816-16.181-0.047-24.231c-0.477-2.062-1.4-4.14-2.586-5.895c-2.172-3.218-5.904-3.394-9.01-2.665
	c-2.359,0.555-2.123,3.682-2.123,5.974C1000.152,287.135,1000.152,295.957,1000.152,304.779 M1086.762,304.306
	c0,3.654-0.004,7.309,0,10.961c0.014,9.146-0.004,8.963,9.029,8.061c3.922-0.391,4.891-2.041,4.756-5.727
	c-0.166-4.551-3.061-2.875-5.234-2.691c-2.176,0.184-3.551-0.111-3.479-2.752c0.061-2.164,0.09-4.104,3.086-3.775
	c3,0.326,4.492-0.529,4.428-4.053c-0.059-3.297-1.125-4.551-4.33-4.213c-2.42,0.256-3.137-1.127-3.182-3.33
	c-0.051-2.631,1.385-2.899,3.521-2.795c2.252,0.109,5.068,1.373,5.215-3.006c0.127-3.875-1.316-5.449-5.018-5.525
	c-1.65-0.034-3.357-0.17-4.93-0.633c-3.422-1.004-3.975,0.623-3.898,3.537C1086.871,293.675,1086.768,298.992,1086.762,304.306
	 M1068.25,306.203c0,4.312-0.23,8.643,0.072,12.936c0.246,3.479,1.996,6.338,5.695,7.152c3.68,0.809,5.459-1.795,6.838-4.555
	c0.729-1.457,1.182-3.105,1.467-4.719c0.279-1.592,2.018-3.695-0.439-4.721c-1.977-0.825-3.674-0.107-4.59,2.35
	c-0.914,2.453-3.078,2.658-3.576-0.018c-1.281-6.867-1.215-13.867-0.004-20.762c0.324-1.842,2.273-2.371,3.193-0.469
	c1.17,2.418,2.631,4.282,5.18,2.877c2.273-1.252,0.174-3.561,0.102-5.4c-0.018-0.492-0.219-0.977-0.262-1.471
	c-0.365-4.051-2.988-6.465-6.572-6.945c-4.26-0.572-5.406,3.255-6.354,6.404C1067.299,294.52,1067.994,300.404,1068.25,306.203
	 M1121.139,304.424c0.268,2.524,0.531,5.319,0.865,8.104c0.367,3.066,1.973,5.637,4.982,5.98c2.988,0.342,5.77-0.727,7.547-3.904
	c3.51-6.273,2.816-12.74,1.051-19.086c-1.055-3.792-4.785-5.467-8.463-5.088c-3.486,0.359-4.99,3.383-5.334,6.777
	C1121.555,299.51,1121.371,301.816,1121.139,304.424 M1140.643,304.119c0,2.985-0.029,5.972,0.012,8.957
	c0.02,1.467-0.162,3.062,2.143,3.119c2.018,0.049,2.373-1.408,2.939-2.77c0.57-1.374-0.885-3.771,1.537-4.1
	c2.002-0.273,2.377,1.887,3.176,3.277c0.812,1.414,2.014,2.107,3.729,1.848c1.289-0.195,2.279-0.662,2.273-2.107
	c-0.018-5.305-0.074-10.609-0.145-15.914c-0.027-2.161-1.66-2.184-3.172-2.2c-1.352-0.015-2.604,0.04-1.844,2.122
	c0.463,1.266-0.527,2.314-1.592,2.784c-1.811,0.801-1.535-1.22-2.174-1.946c-0.857-0.971-1.656-2.078-2.15-3.263
	c-0.662-1.595-1.701-1.747-3.152-1.437c-1.557,0.334-1.553,1.518-1.564,2.676C1140.629,298.15,1140.648,301.135,1140.643,304.119
	 M1038.016,304.326c0,7.994-0.021,15.986,0.025,23.98c0.006,1.193-0.559,2.936,1.531,3.037c1.82,0.092,3.307-0.537,3.521-2.67
	c0.066-0.66,0.049-1.33,0.049-1.994c0.002-14.988,0.016-29.975-0.016-44.961c-0.004-1.705,0.607-3.758-2.559-3.612
	c-2.922,0.134-2.547,1.942-2.549,3.74C1038.012,289.339,1038.016,296.833,1038.016,304.326 M1107.578,287.324
	c-2.32-0.201-3.742-0.121-3.496,1.834c0.244,1.931-1.414,4.844,1.658,5.484c2.869,0.598,3.295,2.069,3.258,4.512
	c-0.096,6.135-0.07,12.271,0.008,18.404c0.02,1.455-0.721,3.67,2.164,3.385c2.152-0.213,3.057-1.264,2.994-3.582
	c-0.166-6.131-0.068-12.269-0.104-18.404c-0.01-1.922-0.1-3.783,2.758-3.438c2.316,0.28,2.209-1.366,2.164-2.921
	c-0.047-1.604,0.459-3.484-1.969-3.855C1113.576,288.216,1110.137,287.708,1107.578,287.324 M928.652,296.63
	c0.809-3.096,0.176-6.564,2.75-9.143c0.938-0.94-0.072-2.037-0.674-2.431c-1.252-0.823-1.562,0.433-1.904,1.334
	C927.555,289.727,927.73,293.126,928.652,296.63 M971.379,283.572c-0.609,2.566,0.805,3.57,2.338,4.562
	C974.537,285.841,973.543,284.476,971.379,283.572 M926.701,319.205l-0.1,0.398l-0.105-0.396L926.701,319.205z M977.559,314.201
	c0.119-0.105,0.326-0.203,0.334-0.316s-0.182-0.24-0.283-0.361c-0.123,0.162-0.248,0.322-0.371,0.482
	C977.346,314.072,977.451,314.136,977.559,314.201 M928.947,319.736c-0.09-0.125-0.18-0.25-0.27-0.377
	c-0.115,0.102-0.311,0.195-0.324,0.309c-0.014,0.115,0.156,0.25,0.246,0.375C928.717,319.941,928.832,319.837,928.947,319.736"/>
<path fill="#E27E37" d="M898.02,252.312c0.078-3.163-0.031-6.331,0.076-9.493c0.055-1.602-0.742-4.02,0.732-4.61
	c1.828-0.73,4.26-0.53,5.926,1.352c0.316,0.357,0.822,0.546,1.24,0.813c0.008,41.153,0.018,82.308,0.029,123.46
	c0.002,5.961,0.354,6.521,6.559,6.172c7.125-0.402,13.973-2.795,21.012-3.676c12.264-1.531,23.963-5.656,36.188-7.293
	c4.996-0.668,9.99-1.367,14.826-3.043c7.531-2.605,15.557-3.045,23.27-4.895c6.225-1.494,12.514-2.898,18.736-4.195
	c7.232-1.508,14.67-2.535,22-3.846c4.658-0.834,9.232-2.174,13.801-3.445c6.25-1.742,12.902-1.277,19.039-3.496
	c4.396-1.588,9.094-1.59,13.592-3.033c3.371-1.084,7.205-1.828,10.82-2.145c11.346-0.994,21.92-5.352,33.33-6.609
	c10.652-1.172,21.514-3.006,32.012-5.562c11.23-2.738,22.789-3.684,33.875-6.951c4.029-1.187,7.197-4.391,11.549-4.947
	c0.953-0.122,1.846-0.645,2.836-0.225c0.824,1.289,3.131,1.75,2.404,3.894c-0.686,2.024-2.678,1.555-4.23,1.95
	c-22.322,5.688-45.043,9.438-67.6,13.984c-14.943,3.012-29.799,6.445-44.73,9.516c-10.877,2.238-21.818,4.162-32.719,6.283
	c-15.447,3.008-30.893,6.016-46.32,9.117c-24.713,4.965-49.416,9.98-74.111,15.025c-13.641,2.787-27.256,5.686-40.889,8.51
	c-2.568,0.532-4.988,0.424-6.686-2.047c-0.365-0.531-0.955-1.395-1.352-1.348c-6.336,0.742-5.268-3.818-5.174-7.375 M898.02,343.121
	c0-2.664,0.062-5.328,0.062-7.992c0-19.324-0.166-38.648,0.096-57.968"/>
<path fill="#E27E37" d="M927.945,278.264c1.57-1.69,2.951-3.628,4.762-5.004c2.02-1.535,4.23-4.208,6.908-0.467
	c0.795,1.112,2.518,0.366,3.82,0.428c2.059,0.097,4.334-0.751,6.354,1.67c-3.252,0.943-6.58-0.165-9.465,1.17
	c0.443,2.327,1.867,0.997,2.768,1.019c2.279,0.055,4.697-0.656,6.23,1.924c1.191,2.008,4.164,0.701,4.291,0.473
	c2.324-4.198,5.812-1.968,8.865-2.011c-0.006-0.044,1.715-7.255,1.846-7.441c0.898-1.276,0.16-1.855-0.994-1.897
	c-2.65-0.096-5.311-0.03-8.246-0.03c0.848-1.043,1.59-1.957,2.328-2.87c0.533-0.177,1.066-0.354,1.6-0.531
	c2.605-0.097,4.66,1.742,7.324,2.017c1.502,0.155,0.889,4.334,3.572,5.744c1.525,0.801,2.314,3.009,3.434,4.584
	c-0.336,0.388-0.67,0.776-1.006,1.165c-3.795-0.958-1.828,3.518-4.123,4.335c-2.129,0.76-4.582-2.26-6.271,0.719
	c-0.82,1.445-1.34,3.066-0.203,4.513c0.348,0.44,1.773,3.408,2.189-0.196c0.191-1.67,1.816-1.766,2.594-1.17
	c1.57,1.205-0.369,1.627-0.854,2.451c-0.738,1.258-1.439,2.107-3.062,1.711c-2.453-0.6-1.963,1.328-2.861,3.199
	c2.451-0.995,4.133-1.678,5.811-2.357c0.242,0.352,0.482,0.705,0.725,1.057c-0.771,4.291-2.354,8.482,0.109,12.908
	c0.619,1.109,0.432,3.953-2.439,4.111c-1.791-0.037-3.584-0.072-5.375-0.107c-0.24-3.545-0.705-3.713-6.225-2.264
	c-2.529,0.051-6.182-2.844-6.584,2.758c-0.086,1.176-1.812,1.674-3.234,1.094c-1.438,0.453-2.836,2.52-4.359,0.787
	c-2.057-2.338-3.141-5.66-1.732-8.26c1.82-3.365,1.244-5.722-0.578-8.652c-1.303-2.096-2.014-4.237,2.42-3.745
	c3.523,0.391,3.137-3.388,3.662-5.729c0.588-2.621-1.494-2.887-3.285-3.844c-2.041-1.09-6.725,2.594-5.938-3.335
	c-3.902,1.129-3.367,5.729-6.369,7.321c-0.305-0.174-0.611-0.348-0.918-0.522c0.553-1.585,1.109-3.171,1.664-4.757
	C927.381,279.576,927.662,278.92,927.945,278.264"/>
<path fill="#E27E37" d="M1023.305,312.726c0,5.689,0.004,11.377-0.004,17.064c-0.002,2.133,0.49,4.605-2.928,4.533
	c-3.621-0.076-2.061-2.916-2.074-4.453c-0.133-16.318-0.168-32.637,0.004-48.953c0.023-2.136-1.713-5.946,1.52-6.271
	c3.479-0.35,7.822-0.415,10.162,3.702c2.115,3.72,2.902,7.796,3.121,11.962c0.246,4.745,0.035,9.342-1.627,14.049
	c-2.854,8.08,1.197,15.918,2.09,23.881c0.186,1.643,1.609,3.625-1.402,4.33c-2.227,0.523-3.719,0.637-4.191-2.357
	c-0.928-5.885-2.26-11.707-3.424-17.553C1024.135,312.681,1023.719,312.705,1023.305,312.726 M1023.881,293.176
	c-1.293,3.637-1.07,6.888,1.082,7.176c2.553,0.343,3.178-2.849,3.096-5.255c-0.084-2.505,0.883-6.363-2.625-6.51
	C1021.297,288.414,1024.342,292.514,1023.881,293.176"/>
<path fill="#E27E37" d="M1059.02,299.417c0-5.236-0.01-10.473,0.006-15.708c0.004-1.646-0.295-3.388,2.418-3.247
	c2.309,0.119,2.676,1.311,2.672,3.232c-0.031,13.828-0.004,27.656-0.008,41.484c0,1.537,0.023,2.996-2.23,3.086
	c-1.846,0.07-2.602-0.57-3.051-2.373c-1.443-5.803-3.094-11.553-5.57-17.291c0,5.602-0.006,11.203,0.002,16.803
	c0.004,2.004,0.375,4.223-2.709,4.24c-3.441,0.02-2.352-2.629-2.361-4.338c-0.078-13.662-0.08-27.324,0.006-40.984
	c0.01-1.539-1.09-3.814,1.836-4.301c3.283-0.547,3.334,2.006,3.848,3.979C1055.232,289.199,1056.137,294.529,1059.02,299.417"/>
<path fill="#E27E37" d="M1000.152,304.779c0-8.822,0.002-17.644,0-26.464c-0.002-2.292-0.236-5.42,2.123-5.974
	c3.105-0.729,6.838-0.554,9.01,2.665c1.186,1.755,2.109,3.832,2.586,5.895c1.861,8.051,1.979,16.2,0.049,24.231
	c-0.902,3.748-1.787,7.931-6.984,8.474c-2.154,0.225-1.625,2.211-1.641,3.604c-0.055,5.326-0.115,10.656,0.023,15.979
	c0.064,2.455-0.746,3.965-3.27,3.865c-2.67-0.105-1.818-2.369-1.83-3.814c-0.08-9.486-0.041-18.973-0.041-28.459H1000.152z
	 M1004.824,293.217c1.996,1.866-1.898,6.385,2.502,6.584c2.664,0.12,2.834-3.872,2.695-6.485c-0.133-2.494,0.605-6.373-2.914-6.293
	C1003.455,287.107,1006.234,291.019,1004.824,293.217"/>
<path fill="#E27E37" d="M1086.766,304.306c0.002-5.314,0.105-10.631-0.037-15.941c-0.078-2.914,0.475-4.541,3.896-3.537
	c1.572,0.463,3.279,0.599,4.93,0.633c3.701,0.076,5.145,1.65,5.016,5.525c-0.143,4.379-2.961,3.115-5.213,3.006
	c-2.137-0.104-3.574,0.164-3.521,2.795c0.045,2.203,0.762,3.586,3.182,3.33c3.205-0.338,4.271,0.916,4.33,4.213
	c0.064,3.523-1.426,4.379-4.426,4.053c-2.998-0.328-3.027,1.611-3.086,3.775c-0.074,2.641,1.301,2.936,3.479,2.752
	c2.172-0.184,5.066-1.859,5.232,2.691c0.135,3.686-0.834,5.336-4.756,5.727c-9.033,0.902-9.016,1.086-9.027-8.061
	C1086.758,311.615,1086.762,307.96,1086.766,304.306"/>
<path fill="#E27E37" d="M1068.25,306.203c-0.256-5.798-0.951-11.683,0.75-17.34c0.947-3.15,2.094-6.977,6.355-6.404
	c3.584,0.48,6.207,2.896,6.57,6.946c0.043,0.494,0.244,0.978,0.264,1.47c0.07,1.84,2.17,4.149-0.104,5.4
	c-2.549,1.404-4.01-0.459-5.18-2.878c-0.92-1.901-2.869-1.373-3.193,0.472c-1.211,6.893-1.277,13.893,0.004,20.76
	c0.498,2.676,2.662,2.471,3.576,0.018c0.916-2.456,2.613-3.176,4.59-2.35c2.457,1.025,0.721,3.129,0.439,4.719
	c-0.285,1.615-0.738,3.264-1.467,4.723c-1.377,2.758-3.158,5.361-6.838,4.553c-3.699-0.814-5.449-3.674-5.695-7.152
	C1068.021,314.845,1068.25,310.516,1068.25,306.203"/>
<path fill="#E27E37" d="M1121.139,304.423c0.232-2.607,0.416-4.914,0.648-7.215c0.344-3.394,1.848-6.418,5.334-6.777
	c3.678-0.379,7.408,1.296,8.463,5.088c1.766,6.346,2.459,12.812-1.051,19.086c-1.777,3.178-4.559,4.246-7.547,3.904
	c-3.01-0.344-4.615-2.914-4.982-5.98C1121.672,309.744,1121.406,306.949,1121.139,304.423 M1132.012,304.382
	c0.037-1.631,0.047-3.199-0.75-4.776c-0.621-1.229-1.176-2.771-2.445-2.834c-1.455-0.073-1.484,1.921-2.291,2.808
	c-2.164,2.379-0.23,4.668-0.215,6.977c0.014,2.242,0.047,5.242,2.711,5.314c2.352,0.063,2.07-3.23,2.938-5.031
	C1132.281,306.167,1132.012,305.21,1132.012,304.382"/>
<path fill="#E27E37" d="M1140.645,304.12c0.004-2.985-0.016-5.97,0.014-8.954c0.012-1.159,0.008-2.342,1.564-2.676
	c1.451-0.311,2.49-0.159,3.154,1.436c0.492,1.186,1.291,2.293,2.146,3.264c0.641,0.727,0.365,2.748,2.176,1.947
	c1.064-0.472,2.055-1.521,1.592-2.785c-0.76-2.082,0.492-2.137,1.844-2.121c1.512,0.016,3.145,0.039,3.172,2.199
	c0.07,5.305,0.127,10.61,0.145,15.916c0.006,1.443-0.984,1.912-2.273,2.105c-1.715,0.26-2.916-0.434-3.729-1.848
	c-0.799-1.391-1.174-3.551-3.176-3.278c-2.422,0.329-0.967,2.726-1.539,4.103c-0.564,1.359-0.92,2.816-2.938,2.768
	c-2.305-0.057-2.121-1.652-2.143-3.121C1140.613,310.09,1140.643,307.105,1140.645,304.12"/>
<path fill="#E27E37" d="M1038.016,304.326c0-7.492-0.004-14.986,0.004-22.479c0.002-1.798-0.373-3.606,2.549-3.74
	c3.166-0.146,2.555,1.907,2.559,3.611c0.031,14.987,0.018,29.974,0.016,44.96c0,0.666,0.018,1.336-0.049,1.996
	c-0.215,2.133-1.701,2.762-3.521,2.67c-2.09-0.102-1.525-1.844-1.531-3.037C1037.994,320.312,1038.016,312.32,1038.016,304.326"/>
<path fill="#E27E37" d="M1107.578,287.324c2.559,0.385,5.998,0.893,9.436,1.418c2.428,0.371,1.922,2.254,1.969,3.855
	c0.045,1.555,0.152,3.201-2.164,2.921c-2.857-0.345-2.768,1.517-2.758,3.438c0.035,6.135-0.062,12.273,0.104,18.404
	c0.062,2.318-0.842,3.369-2.994,3.582c-2.887,0.283-2.145-1.93-2.164-3.385c-0.078-6.135-0.104-12.27-0.008-18.404
	c0.039-2.443-0.391-3.912-3.258-4.512c-3.072-0.641-1.414-3.555-1.656-5.484C1103.836,287.203,1105.258,287.123,1107.578,287.324"/>
<path fill="#FCFCFC" d="M949.908,328.615c-1.549-0.742-2.998-1.836-4.887-1.418l0.129,0.182c0.26-1.025,0.057-1.586-1.146-1.141
	l0.188,0.137c-1.447-2.336-5.814-4.457-0.75-7.336c1.654-0.941,3.605-1.449,5.48-1.895c4.066-0.971,7.736,0.686,11.365,2.129
	c1.553,0.615,1.844,2.146,1.646,3.791c-0.248,2.082-1.551,3.346-3.334,3.814c-1.736,0.457-3.521,0.67-5.068,1.658
	C952.328,328.562,951.119,328.587,949.908,328.615"/>
<path fill="#E27E37" d="M930.127,305.83c0.305,0.648-0.186,0.898-0.594,1.189c-1.275,0.28-3.053,0.144-1.982,2.383
	c0.301,1.06,0.783,1.922,2.064,1.93c1.131,2.047,3.15,0.566,4.646,1.168c2.729,0.199,2.725,2.309,3.115,4.107
	c-1.312,1.057-3.346-4.295-4.166,0.799c-0.227,1.416-1.555-0.748-3.988-1.316c-3.221-0.752-3.609-5.949-7.547-3.709
	c-0.643-1.9,4.115-2.799,0.424-4.572c-1.637-0.787-3.957-0.147-5.16-2.449c2.656-1.471,5.297-0.664,7.848-0.743
	C926.346,305.999,928.418,305.109,930.127,305.83"/>
<path fill="#FCFCFC" d="M927.945,278.264c-0.283,0.656-0.564,1.312-0.848,1.968c-4.176-1.158-9.562-7.358-8.717-10.665
	c0.314-1.225,2.836-3.039,3.701-2.736c1.979,0.694,4.246,1.786,4.047,4.92C925.988,273.985,924.783,276.83,927.945,278.264"/>
<path fill="#FCFCFC" d="M942.531,310.968c1.422,0.58,3.148,0.082,3.234-1.094c0.4-5.602,4.055-2.707,6.584-2.758
	c1.283,0.074,2.562,0.149,3.992,0.232c-1.986,3.119-6.008,3.555-7.201,7.422c-0.768,2.488-7.566,2.441-8.85,0.156
	C939.053,312.724,942.705,312.837,942.531,310.968"/>
<path fill="#FCFCFC" d="M975.67,278.101c0.873-2.047,2.83-3.427,1.211-6.532c-1.029-1.977,2.096-4.533,4.443-4.833
	c1.887-0.241,1.707,2.358,1.812,3.869c0.279,3.993-3.229,8.673-7.016,9.575l0.09,0.164c0.469-0.476,0.42-0.888-0.148-1.237
	C975.93,278.771,975.801,278.436,975.67,278.101"/>
<path fill="#E27E37" d="M972.604,307.012c-0.338-1.157,0.17-1.914,1.162-2.44c1.514,1.342,3.041,1.021,4.574,0.04
	c2.02,1.087,3.949-0.632,6.07-0.139c1.574,0.366,2.523,0.942,2.432,2.397c-0.105,1.678-1.65,1.441-2.662,1.147
	c-2.885-0.841-4.4,0.011-4.449,3.106c-0.242,0.254-0.486,0.51-0.729,0.764c-1.445-0.465-4.084,0.183-2.709-2.905
	C976.018,306.544,973.92,307.505,972.604,307.012"/>
<path fill="#FCFCFC" d="M958.574,309.38c1.793,0.035,3.584,0.071,5.375,0.108c-0.531,0.981-1.641,2.055-1.502,2.929
	c0.994,6.242-3.707,3.566-6.211,3.92c-1.275,0.178-2.379-1.227-2.773-2.457c-0.555-1.736,1.312-1.416,2.115-2.023
	C956.611,311.077,957.578,310.21,958.574,309.38"/>
<path fill="#FCFCFC" d="M930.127,305.83c-1.709-0.721-3.781,0.169-5.34-1.214c0.135-4.79-3.297-9.427-0.631-14.329
	c0.537,0.096,1.074,0.191,1.611,0.287C924.939,296.312,926.598,301.337,930.127,305.83"/>
<path fill="#E27E37" d="M975.67,278.101c0.131,0.335,0.26,0.671,0.393,1.007c-0.432,0.47-0.529,0.9,0.148,1.236l-0.09-0.164
	c1.332,3.959,3.932,7.529,3.664,11.98c-2.852,0.294,0.424,3.955-2.355,4.288c-0.166-6.511-1.857-12.595-5.092-18.245
	c0.332-0.384,0.668-0.773,1.004-1.161C974.117,277.395,974.895,277.748,975.67,278.101"/>
<path fill="#FCFCFC" d="M977.432,296.448c2.777-0.333-0.498-3.993,2.354-4.288c1.027,4.323-1.574,8.227-1.449,12.45
	c-1.529,0.983-3.057,1.304-4.568-0.038C976.209,302.417,975.969,299.048,977.432,296.448"/>
<path fill="#FCFCFC" d="M968.471,312.642c-0.637-1.292,0.201-2.074,0.986-2.871c1.402,0.486,2.816,0.725,4.256,0.141
	c-0.881,2.404,3.422,1.588,2.498,4.02c-0.449-0.533-0.941-0.785-1.648-0.412c-0.459,0.244-0.477,0.367-0.027,0.65
	c0.693,0.441,1.186,0.057,1.691-0.338c-0.012,0.453-0.025,0.906-0.041,1.359l0.146-0.135c-1.582,0.445-3.164,0.891-4.742,1.336
	c-0.352-0.275-0.25-1.188-1.09-0.777c-1.074-0.953-3.008,1.004-3.654-0.951c-0.375-1.133,0.615-1.639,1.666-1.773
	c0.715,0.406,1.445,0.629,2.193,0.084c0.041-0.027,0.018-0.244-0.039-0.289C969.949,312.129,969.211,312.244,968.471,312.642"/>
<path fill="#FCFCFC" d="M959.012,264.697c-0.533,0.177-1.066,0.354-1.598,0.53c-3.932,0.816-8.309-1.859-11.961,1.631
	c-0.672,0.642-1.566-0.464-1.807-1.18c-0.451-1.348,0.773-1.137,1.445-1.135C949.732,264.558,954.371,264.638,959.012,264.697"/>
<path fill="#E27E37" d="M928.652,296.63c-0.922-3.504-1.098-6.903,0.172-10.238c0.342-0.9,0.652-2.158,1.904-1.335
	c0.602,0.394,1.611,1.489,0.674,2.431C928.828,290.066,929.461,293.535,928.652,296.63"/>
<path fill="#E27E37" d="M949.908,328.615c1.211-0.027,2.42-0.053,3.623-0.078c0.51,0.842,2.619,0.615,2.115,1.223
	c-1.066,1.289-2.902,1.828-4.775,1.527C948.893,330.968,948.918,329.978,949.908,328.615"/>
<path fill="#FCFCFC" d="M927.549,309.403c-1.068-2.241,0.709-2.103,1.984-2.383c1.672-0.103,3.057,0.391,3.928,1.921
	c-1.318,0.22-2.635,0.443-3.949,0.669C928.857,309.541,928.203,309.472,927.549,309.403"/>
<path fill="#FCFCFC" d="M934.26,312.5c-1.494-0.602-3.512,0.879-4.643-1.168c-0.035-0.432-0.07-0.865-0.104-1.299
	c1.602-0.057,3.203-0.115,4.807-0.172C934.77,310.751,935.59,311.65,934.26,312.5"/>
<path fill="#FCFCFC" d="M971.379,283.571c2.164,0.906,3.16,2.271,2.338,4.563C972.184,287.142,970.771,286.138,971.379,283.571"/>
<path fill="#FCFCFC" d="M972.604,307.012c1.316,0.493,3.414-0.468,3.689,1.971c-0.855,0.239-1.713,0.479-2.568,0.72
	c-1.051-0.75-2.875-0.187-3.326-1.959C971.133,307.5,971.867,307.255,972.604,307.012"/>
<path fill="#E27E37" d="M925.768,290.574c-0.537-0.095-1.074-0.191-1.611-0.287c-0.293-1.941,0.01-3.74,1.279-5.3
	c0.303,0.176,0.611,0.351,0.916,0.524C926.156,287.199,925.963,288.886,925.768,290.574"/>
<path fill="#E27E37" d="M970.396,307.744c0.453,1.771,2.279,1.209,3.328,1.96c-0.002,0.002,0.23,0.114,0.23,0.114
	s-0.238,0.102-0.24,0.098c-1.441,0.58-2.855,0.342-4.258-0.145C968.398,308.457,969.906,308.335,970.396,307.744"/>
<path fill="#E27E37" d="M934.32,309.861c-1.604,0.057-3.205,0.115-4.809,0.174c0,0.002-0.18-0.211-0.18-0.211l0.18-0.215
	c1.316-0.224,2.631-0.449,3.949-0.668C934.082,308.939,934.52,309.1,934.32,309.861"/>
<path fill="#E27E37" d="M970.5,315.615c0.84-0.41,0.738,0.502,1.09,0.777c0.314,0.463,1.244,0.934,0.66,1.461
	c-1.072,0.967-2.273,0.18-2.879-0.645C968.705,316.304,969.842,315.974,970.5,315.615"/>
<path fill="#FCFCFC" d="M941.359,327.685c0.943-0.438,1.889-0.873,2.832-1.309l-0.188-0.139c0.006,0.756,0.391,1.133,1.145,1.141
	l-0.127-0.182c-0.947,1.986-2.439,0.062-3.604,0.498L941.359,327.685z"/>
<path fill="#E27E37" d="M968.471,312.642c0.74-0.398,1.479-0.513,2.195,0.043c0.057,0.045,0.08,0.262,0.039,0.289
	c-0.748,0.545-1.479,0.322-2.193-0.084c0.006,0-0.354-0.062-0.354-0.062L968.471,312.642z"/>
<path fill="#FCFCFC" d="M979.002,311.888c0.244-0.254,0.486-0.51,0.727-0.766c0.561,0.242,1.119,0.486,1.68,0.729
	C980.605,311.865,979.805,311.876,979.002,311.888"/>
<path fill="#FCFCFC" d="M976.188,315.191c0.453,0.234,1.23-0.129,1.338,0.717c0.008,0.053-0.262,0.215-0.393,0.201
	c-0.621-0.055-1.271-0.127-0.809-1.047C976.33,315.056,976.188,315.191,976.188,315.191"/>
<path fill="#E27E37" d="M976.227,313.832c-0.508,0.395-0.998,0.779-1.693,0.34c-0.447-0.285-0.432-0.408,0.029-0.652
	c0.707-0.375,1.199-0.121,1.648,0.412L976.227,313.832"/>
<polygon fill="#E27E37" points="926.701,319.205 926.494,319.207 926.6,319.603 "/>
<path fill="#E27E37" d="M965.555,291.412c0.295-0.517,0.633-1.548,1.17-1.131c0.873,0.676,0.59,1.627-0.447,2.188
	C966.037,292.117,965.797,291.763,965.555,291.412"/>
<path fill="#E27E37" d="M977.559,314.201c-0.107-0.066-0.213-0.129-0.32-0.195c0.123-0.16,0.246-0.32,0.371-0.482
	c0.102,0.121,0.291,0.248,0.283,0.361S977.678,314.095,977.559,314.201"/>
<path fill="#FCFCFC" d="M941.418,327.697c0.033-0.432,0.066-0.861,0.1-1.293c0.215,0.113,0.432,0.227,0.646,0.34
	c-0.266,0.314-0.529,0.629-0.801,0.941C941.359,327.685,941.418,327.697,941.418,327.697"/>
<path fill="#E27E37" d="M928.947,319.736c-0.115,0.102-0.23,0.205-0.348,0.307c-0.09-0.125-0.26-0.26-0.246-0.375
	c0.014-0.113,0.209-0.207,0.324-0.309C928.768,319.486,928.857,319.611,928.947,319.736"/>
<path fill="#050303" d="M1023.881,293.176c0.461-0.662-2.584-4.763,1.553-4.589c3.508,0.146,2.541,4.005,2.625,6.51
	c0.082,2.406-0.543,5.598-3.096,5.255C1022.811,300.064,1022.588,296.813,1023.881,293.176"/>
<path fill="#050303" d="M1004.824,293.217c1.41-2.198-1.369-6.11,2.283-6.194c3.52-0.08,2.781,3.799,2.914,6.293
	c0.139,2.613-0.031,6.605-2.695,6.485C1002.926,299.602,1006.82,295.083,1004.824,293.217"/>
<path fill="#050303" d="M1132.012,304.382c0,0.828,0.27,1.785-0.053,2.457c-0.867,1.801-0.586,5.095-2.938,5.031
	c-2.664-0.072-2.697-3.072-2.711-5.314c-0.016-2.309-1.949-4.598,0.215-6.977c0.807-0.887,0.836-2.881,2.291-2.808
	c1.27,0.063,1.824,1.604,2.445,2.834C1132.059,301.183,1132.049,302.751,1132.012,304.382"/>
<path fill="#050303" d="M945.15,327.378c-0.754-0.008-1.141-0.385-1.146-1.141C945.207,325.792,945.41,326.353,945.15,327.378"/>
<path fill="#050303" d="M929.512,309.609l-0.18,0.215c0,0,0.18,0.213,0.18,0.212c0.035,0.431,0.07,0.862,0.104,1.296
	c-1.279-0.008-1.764-0.87-2.064-1.93C928.203,309.472,928.857,309.541,929.512,309.609"/>
<path fill="#050303" d="M976.211,280.343c-0.678-0.336-0.58-0.766-0.148-1.236C976.631,279.456,976.682,279.869,976.211,280.343"/>
<path fill="#68433C" d="M16.781,135.062c-17.712-8.511,8.947-160,131.579-102.105C182.526,49.085,125.488,187.301,16.781,135.062"/>
<path fill="none" stroke="#000000" stroke-miterlimit="10" d="M16.781,135.062c-17.712-8.511,8.947-160,131.579-102.105
	C182.526,49.085,125.488,187.301,16.781,135.062z"/>
<path fill="#FFFFFF" d="M21.062,76.763c0,0-6.262,18.008-6,22.333c0.832,13.834,27.666,46.334,31,46.334
	c0,0,18.603,1.628,17.832,1.166C60.562,144.597,26.395,115.931,21.062,76.763"/>
<path fill="none" stroke="#000000" stroke-miterlimit="10" d="M21.062,76.763c0,0-6.262,18.008-6,22.333
	c0.832,13.834,27.666,46.334,31,46.334c0,0,18.603,1.628,17.832,1.166C60.562,144.597,26.395,115.931,21.062,76.763z"/>
<path fill="#FFFFFF" d="M99.729,19.93c0,0,19.008,2.197,20,2.833c19.5,12.5,34.833,51.834,34.833,51.834
	c-3.333,11.166-7.833,19.166-7.833,19.166S138.229,53.763,99.729,19.93"/>
<path fill="none" stroke="#000000" stroke-miterlimit="10" d="M99.729,19.93c0,0,19.008,2.197,20,2.833
	c19.5,12.5,34.833,51.834,34.833,51.834c-3.333,11.166-7.833,19.166-7.833,19.166S138.229,53.763,99.729,19.93z"/>
<path fill="#FFFFFF" d="M124.02,60.508c-1.324,1.757-78.967,53.572-80.427,53.672c-1.459,0.101-5.075-4.978-4.571-6.85
	c0.401-1.487,78.142-54.185,80.426-53.672C121.732,54.172,125.343,58.751,124.02,60.508"/>
<path fill="none" stroke="#000000" stroke-miterlimit="10" d="M124.02,60.508c-1.324,1.757-78.967,53.572-80.427,53.672
	c-1.459,0.101-5.075-4.978-4.571-6.85c0.401-1.487,78.142-54.185,80.426-53.672C121.732,54.172,125.343,58.751,124.02,60.508z"/>
<path fill="#FFFFFF" d="M55.066,110.794c-0.512,1.312-2.009,2.603-3.742,2.498c-1.734-0.104-9.775-11.53-8.964-13.431
	c0.812-1.901,2.392-2.859,3.743-2.498C47.453,97.724,55.578,109.482,55.066,110.794"/>
<path fill="none" stroke="#000000" stroke-miterlimit="10" d="M55.066,110.794c-0.512,1.312-2.009,2.603-3.742,2.498
	c-1.734-0.104-9.775-11.53-8.964-13.431c0.812-1.901,2.392-2.859,3.743-2.498C47.453,97.724,55.578,109.482,55.066,110.794z"/>
<path fill="#FFFFFF" d="M62.36,105.927c-0.512,1.312-2.009,2.602-3.743,2.498c-1.733-0.105-9.774-11.53-8.963-13.432
	c0.812-1.901,2.393-2.859,3.743-2.498C54.748,92.856,62.873,104.614,62.36,105.927"/>
<path fill="none" stroke="#000000" stroke-miterlimit="10" d="M62.36,105.927c-0.512,1.312-2.009,2.602-3.743,2.498
	c-1.733-0.105-9.774-11.53-8.963-13.432c0.812-1.901,2.393-2.859,3.743-2.498C54.748,92.856,62.873,104.614,62.36,105.927z"/>
<path fill="#FFFFFF" d="M70.346,100.016c-0.512,1.312-2.01,2.602-3.743,2.498c-1.734-0.105-9.775-11.53-8.964-13.431
	c0.812-1.901,2.393-2.859,3.744-2.498C62.732,86.945,70.857,98.704,70.346,100.016"/>
<path fill="none" stroke="#000000" stroke-miterlimit="10" d="M70.346,100.016c-0.512,1.312-2.01,2.602-3.743,2.498
	c-1.734-0.105-9.775-11.53-8.964-13.431c0.812-1.901,2.393-2.859,3.744-2.498C62.732,86.945,70.857,98.704,70.346,100.016z"/>
<path fill="#FFFFFF" d="M78.317,94.501c-0.512,1.312-2.009,2.602-3.743,2.498c-1.734-0.105-9.775-11.53-8.963-13.431
	c0.812-1.901,2.393-2.859,3.743-2.498C70.705,81.431,78.83,93.189,78.317,94.501"/>
<path fill="none" stroke="#000000" stroke-miterlimit="10" d="M78.317,94.501c-0.512,1.312-2.009,2.602-3.743,2.498
	c-1.734-0.105-9.775-11.53-8.963-13.431c0.812-1.901,2.393-2.859,3.743-2.498C70.705,81.431,78.83,93.189,78.317,94.501z"/>
<path fill="#FFFFFF" d="M87.633,88.09c-0.512,1.312-2.009,2.602-3.742,2.498c-1.734-0.105-9.775-11.53-8.963-13.431
	c0.812-1.901,2.392-2.859,3.742-2.498C80.02,75.02,88.145,86.778,87.633,88.09"/>
<path fill="none" stroke="#000000" stroke-miterlimit="10" d="M87.633,88.09c-0.512,1.312-2.009,2.602-3.742,2.498
	c-1.734-0.105-9.775-11.53-8.963-13.431c0.812-1.901,2.392-2.859,3.742-2.498C80.02,75.02,88.145,86.778,87.633,88.09z"/>
<path fill="#FFFFFF" d="M96.271,82.326c-0.513,1.312-2.01,2.602-3.744,2.498c-1.733-0.105-9.774-11.53-8.963-13.431
	c0.812-1.901,2.393-2.859,3.743-2.498C88.658,69.256,96.783,81.014,96.271,82.326"/>
<path fill="none" stroke="#000000" stroke-miterlimit="10" d="M96.271,82.326c-0.513,1.312-2.01,2.602-3.744,2.498
	c-1.733-0.105-9.774-11.53-8.963-13.431c0.812-1.901,2.393-2.859,3.743-2.498C88.658,69.256,96.783,81.014,96.271,82.326z"/>
<path fill="#FFFFFF" d="M106.61,76.202c-0.512,1.312-2.009,2.602-3.743,2.498c-1.733-0.105-9.774-11.53-8.963-13.431
	c0.812-1.901,2.393-2.859,3.743-2.498S107.123,74.89,106.61,76.202"/>
<path fill="none" stroke="#000000" stroke-miterlimit="10" d="M106.61,76.202c-0.512,1.312-2.009,2.602-3.743,2.498
	c-1.733-0.105-9.774-11.53-8.963-13.431c0.812-1.901,2.393-2.859,3.743-2.498S107.123,74.89,106.61,76.202z"/>
<path fill="#FFFFFF" d="M115.914,70.188c-0.513,1.312-2.01,2.602-3.744,2.498c-1.733-0.105-9.774-11.53-8.963-13.431
	c0.812-1.901,2.393-2.859,3.744-2.498C108.301,57.118,116.426,68.876,115.914,70.188"/>
<path fill="none" stroke="#000000" stroke-miterlimit="10" d="M115.914,70.188c-0.513,1.312-2.01,2.602-3.744,2.498
	c-1.733-0.105-9.774-11.53-8.963-13.431c0.812-1.901,2.393-2.859,3.744-2.498C108.301,57.118,116.426,68.876,115.914,70.188z"/>
</svg>
