<?xml version="1.0" encoding="utf-8"?>
<!-- Generator: Adobe Illustrator 16.0.0, SVG Export Plug-In . SVG Version: 6.00 Build 0)  -->
<!DOCTYPE svg PUBLIC "-//W3C//DTD SVG 1.1//EN" "http://www.w3.org/Graphics/SVG/1.1/DTD/svg11.dtd">
<svg version="1.1" id="Layer_1" xmlns="http://www.w3.org/2000/svg" xmlns:xlink="http://www.w3.org/1999/xlink" x="0px" y="0px"
	 width="341px" height="207px" viewBox="0 0 341 207" enable-background="new 0 0 341 207" xml:space="preserve">
<path fill="#1B255E" d="M473.938,203.016c0,0-3.877-31.976-16.855,27.723c-5,23,16.137,62.502,17.5,65.5
	c1.363,2.999-24.637,18.907-26,14s-24.803-71.784-17.715-88.141c7.088-16.355,23.686-86.491,29.44-91.047
	c6.543-5.18,25.44-14.629,32.712-16.084c5.452-1.09,9.33,11.178,25.896,11.178c11.722,0,30.531-4.362,38.436-10.904
	c7.906-6.542,35.983,14.175,35.983,14.175s43.069,52.066,39.254,79.598c-3.815,27.532-5.724,102.77-11.449,105.768
	c-5.725,2.999-24.261,0.272-23.987-5.997c0.271-6.27,7.086-90.229,4.905-95.408c-2.181-5.18-10.903-19.082-13.084-23.444
	c-2.181-4.36,0,116.673,5.452,119.398c5.451,2.726-120.488,16.628-118.307-1.636C478.3,289.429,473.393,217.736,473.938,203.016"/>
<path fill="none" stroke="#000000" stroke-width="2" stroke-miterlimit="10" d="M473.938,203.016c0,0-3.877-31.976-16.855,27.723
	c-5,23,16.137,62.502,17.5,65.5c1.363,2.999-24.637,18.907-26,14s-24.803-71.784-17.715-88.141
	c7.088-16.355,23.686-86.491,29.44-91.047c6.543-5.18,25.44-14.629,32.712-16.084c5.452-1.09,9.33,11.178,25.896,11.178
	c11.722,0,30.531-4.362,38.436-10.904c7.906-6.542,35.983,14.175,35.983,14.175s43.069,52.066,39.254,79.598
	c-3.815,27.532-5.724,102.77-11.449,105.768c-5.725,2.999-24.261,0.272-23.987-5.997c0.271-6.27,7.086-90.229,4.905-95.408
	c-2.181-5.18-10.903-19.082-13.084-23.444c-2.181-4.36,0,116.673,5.452,119.398c5.451,2.726-120.488,16.628-118.307-1.636
	C478.3,289.429,473.393,217.736,473.938,203.016z"/>
<path fill="#F40B0B" d="M509.414,164.58c-2.158,0.316-1.362,6.542,0,7.36c1.363,0.817,3.271-3.816,3.816,0.545
	c0.546,4.362,2.727,39.254,2.727,43.07c0,2.84-2.717,2.963-4.106,2.84c-0.606-0.055-1.203,0.171-1.634,0.599
	c-0.854,0.848-1.725,2.193,0.834,2.559c2.681,0.383,13.164,0.362,19.164,0.316c1.752-0.014,2.717-2.033,1.635-3.409
	c-0.232-0.296-0.539-0.523-0.889-0.66l-4.571-1.788c-0.72-0.282-1.228-0.928-1.323-1.694c-0.62-4.982-2.742-23.295-0.387-23.295
	c2.727,0,24.715,5.106,25.078-6.543C550.305,167.033,550.305,158.583,509.414,164.58 M543.217,179.3
	c-1.637,8.996-14.993,5.997-18.809,5.997c-3.816,0-4.88-15.847-1.637-16.355C537.537,166.626,544.343,173.105,543.217,179.3"/>
<path fill="none" d="M509.414,164.58c-2.158,0.316-1.362,6.542,0,7.36c1.363,0.817,3.271-3.816,3.816,0.545
	c0.546,4.362,2.727,39.254,2.727,43.07c0,2.84-2.717,2.963-4.106,2.84c-0.606-0.055-1.203,0.171-1.634,0.599
	c-0.854,0.848-1.725,2.193,0.834,2.559c2.681,0.383,13.164,0.362,19.164,0.316c1.752-0.014,2.717-2.033,1.635-3.409
	c-0.232-0.296-0.539-0.523-0.889-0.66l-4.571-1.788c-0.72-0.282-1.228-0.928-1.323-1.694c-0.62-4.982-2.742-23.295-0.387-23.295
	c2.727,0,24.715,5.106,25.078-6.543C550.305,167.033,550.305,158.583,509.414,164.58z M543.217,179.3
	c-1.637,8.996-14.993,5.997-18.809,5.997c-3.816,0-4.88-15.847-1.637-16.355C537.537,166.626,544.343,173.105,543.217,179.3z"/>
<path fill="#CC1100" d="M616.083,44.026c-3.836-6.598-66.139-18.261-74.731-11.509c-9.354,7.35-24.805,19.134-22.762,21.458
	c3.817,4.336,10.129,0.92,10.129,0.92"/>
<path fill="none" stroke="#000000" stroke-miterlimit="10" d="M616.083,44.026c-3.836-6.598-66.139-18.261-74.731-11.509
	c-9.354,7.35-24.805,19.134-22.762,21.458c3.817,4.336,10.129,0.92,10.129,0.92"/>
<path fill="#CC1100" d="M605.954,34.206c-0.648,1.168,11.512,10.652,10.588,12.123c-5.623,8.961-17.942,25.533-31.192,26.522
	c-15.424,1.151-47.422-14.503-53.407-17.035c-5.985-2.531-12.382-7.032-12.228-1.509"/>
<path fill="none" stroke="#000000" stroke-miterlimit="10" d="M605.954,34.206c-0.648,1.168,11.512,10.652,10.588,12.123
	c-5.623,8.961-17.942,25.533-31.192,26.522c-15.424,1.151-47.422-14.503-53.407-17.035c-5.985-2.531-12.382-7.032-12.228-1.509"/>
<path fill="#CC1100" d="M542.992,32.797c21.408-5.755,53.819,15.734,74.125,12.891c11.51-1.61,24.401-8.517,24.401-8.517
	c3.684-12.201,0.461-47.652-4.144-50.875s-33.61-13.121-36.833-12.891c-3.223,0.229-34.62-0.208-43.968,10.818
	C547.393-4.945,533.921,35.234,542.992,32.797"/>
<path fill="none" stroke="#000000" stroke-miterlimit="10" d="M542.992,32.797c21.408-5.755,53.819,15.734,74.125,12.891
	c11.51-1.61,24.401-8.517,24.401-8.517c3.684-12.201,0.461-47.652-4.144-50.875s-33.61-13.121-36.833-12.891
	c-3.223,0.229-34.62-0.208-43.968,10.818C547.393-4.945,533.921,35.234,542.992,32.797z"/>
<path fill="none" stroke="#000000" stroke-miterlimit="10" d="M602.384-25.675c5.985,2.532,18.187,11.28,20.488,19.107
	c2.303,7.827-8.518,50.184-8.287,52.256"/>
<path fill="#1B255E" d="M577.698-11.63c-1.374-0.265-2.067,3.394-1.391,4.133c0.676,0.738,2.713-1.473,2.221,1.089
	c-0.491,2.56-5.758,22.596-6.479,24.738c-0.548,1.629-2.287,1.084-3.091,0.729c-0.31-0.137-0.662-0.142-0.976-0.011
	c-0.694,0.29-1.605,0.883-0.057,1.642c1.575,0.772,8.069,2.943,11.716,4.141c0.998,0.328,1.922-0.658,1.531-1.633
	c-0.08-0.199-0.211-0.374-0.379-0.508l-2.516-1.995c-0.359-0.287-0.531-0.749-0.444-1.201c0.567-2.937,2.733-13.631,4.166-13.147
	c1.661,0.559,14.091,7.936,16.515,1.471C602.144-1.865,603.742-6.609,577.698-11.63 M595.508,3.567
	c-2.696,4.715-10.267,0.292-12.592-0.491c-2.325-0.782,0.022-9.896,2.095-9.518C594.444-4.713,597.365,0.32,595.508,3.567"/>
<path fill="none" stroke="#000000" stroke-miterlimit="10" d="M577.698-11.63c-1.374-0.265-2.067,3.394-1.391,4.133
	c0.676,0.738,2.713-1.473,2.221,1.089c-0.491,2.56-5.758,22.596-6.479,24.738c-0.548,1.629-2.287,1.084-3.091,0.729
	c-0.31-0.137-0.662-0.142-0.976-0.011c-0.694,0.29-1.605,0.883-0.057,1.642c1.575,0.772,8.069,2.943,11.716,4.141
	c0.998,0.328,1.922-0.658,1.531-1.633c-0.08-0.199-0.211-0.374-0.379-0.508l-2.516-1.995c-0.359-0.287-0.531-0.749-0.444-1.201
	c0.567-2.937,2.733-13.631,4.166-13.147c1.661,0.559,14.091,7.936,16.515,1.471C602.144-1.865,603.742-6.609,577.698-11.63z
	 M595.508,3.567c-2.696,4.715-10.267,0.292-12.592-0.491c-2.325-0.782,0.022-9.896,2.095-9.518
	C594.444-4.713,597.365,0.32,595.508,3.567z"/>
<rect x="475.585" y="584.779" fill="#FFFFFF" width="59.426" height="53.5"/>
<path fill="#120A4C" d="M436.396,559.753c-2.221-2.832-1.113-3.658,2.055-4.307c54.764-11.204,109.501-22.526,164.248-33.812
	c46.126-9.51,92.254-19.008,138.387-28.487c2.155-0.443,4.361-0.647,6.782-0.997c-0.782,2.495-2.921,3.035-4.463,4.089
	c-34.76,23.748-69.555,47.444-104.357,71.129c-49.106,33.418-98.222,66.823-147.344,100.22c-1.637,1.112-3.45,1.97-5.065,3.11
	c-2.698,1.906-3.768,0.914-3.93-2.005c2.802-1.423,5.8-2.559,8.376-4.313c21.802-14.845,43.504-29.834,65.279-44.717
	c23.799-16.265,47.641-32.468,71.473-48.683c8.357-5.687,16.757-11.315,25.116-16.999c12.758-8.673,25.479-17.399,38.248-26.053
	c11.94-8.092,23.942-16.093,35.867-24.207c1.689-1.149,3.094-2.715,4.631-4.088c-4.328-0.251-8.19,0.284-12.023,0.983
	c-2.271,0.415-6.413,0.241-6.085,2.399c0.529,3.494,4.173,0.225,6.522,0.975c-0.345,1.519-1.544,2.036-2.611,2.764
	c-27.448,18.688-54.844,37.452-82.322,56.093c-24.692,16.75-49.518,33.305-74.205,50.062c-23.21,15.753-46.426,31.503-69.369,47.641
	c-4.076,2.865-4.938,0.473-6.041-1.992c-4.667-10.428-9.166-20.933-13.642-31.445c-3.752-8.814-7.394-17.679-11.074-26.524
	c-4.946-11.887-9.853-23.788-14.843-35.655c-1.409-3.351-0.887-4.877,3.117-5.665c16.741-3.296,33.393-7.051,50.11-10.475
	c20.604-4.221,41.248-8.231,61.857-12.421c19.16-3.896,38.332-7.747,57.418-11.981c4.651-1.032,9.722-1.021,14.556-3.738
	c-1.54-1.096-2.393-1.646-3.735-1.356c-6.308,1.361-12.644,2.592-18.953,3.939c-17.317,3.7-34.551,7.859-51.964,11.033
	c-16.296,2.97-32.41,6.762-48.675,9.848c-14.478,2.746-29.013,5.294-43.337,8.709C456.414,555.206,446.086,556.125,436.396,559.753
	 M510.246,635.197c9.431-0.242,24.612-16.31,16.931-20.492c-7.683-4.182-13.517-5.822-18.602-8.241
	c-2.718-1.293-3.804-0.996-5.072,1.96c-2.719,6.329-10.169,20.085-10.826,21.281C492.677,629.705,500.815,635.439,510.246,635.197
	 M619.313,546.992c4.451,2.907,9.078,5.585,13.29,8.807c2.721,2.079,4.827,0.731,6.769-0.513c2.071-1.325-0.055-2.979-0.586-4.307
	c-2.032-5.081-4.314-10.062-6.46-15.099c-0.643-1.511-1.675-3.102-1.615-4.619c0.292-7.472,0.399-7.466-6.37-4.558
	c-0.765,0.328-1.562,0.593-2.296,0.979c-0.955,0.501-2.562,0.557-2.247,2.161c0.275,1.408,0.496,3.381,2.056,3.695
	c5.697,1.15,4.053,6.223,5.746,9.547c-4.365-2.456-8.575-4.912-12.201-8.045c-3.278-2.83-6.157-2.413-9.449-0.546
	c-0.976,0.555-2.526,0.65-2.115,2.219c0.357,1.365,0.648,3.776,2.092,3.569c3.688-0.526,3.45,2.399,4.31,4.214
	c1.707,3.606,3.164,7.331,4.694,11.021c0.599,1.444,1.795,2.728-0.367,4.255c-1.599,1.13,0.181,2.727,0.668,3.986
	c0.704,1.819,2.18,0.964,3.384,0.498c1.707-0.659,3.398-1.363,5.065-2.118c2.842-1.288,3.519-5.204,0.868-5.856
	c-5.058-1.241-4.413-5.426-5.871-8.577C618.905,547.482,619.118,547.244,619.313,546.992 M597.25,554.642
	c-0.97,0.528-1.766,0.063-2.629-0.56c-3.46-2.498-6.981-4.909-10.442-7.405c-2.376-1.714-8.617-0.881-9.535,1.774
	c-0.943,2.728,1.119,4.015,3.727,4.702c0.791,0.208,1.313,1.797,1.771,2.836c1.743,3.954,3.435,7.932,5.089,11.923
	c0.595,1.434,1.721,2.753-0.237,4.341c-1.808,1.466,0.224,2.999,0.792,4.35c0.85,2.016,2.248,0.465,3.335,0.092
	c1.725-0.59,3.405-1.324,5.062-2.089c2.682-1.238,3.197-5.15,0.568-5.831c-5.194-1.345-3.875-5.936-5.998-8.757
	c1.373-0.663,2.021-0.094,2.699,0.366c3.991,2.702,8.091,5.261,11.935,8.159c2.533,1.908,4.455,0.442,6.337-0.692
	c2.278-1.374,0.142-2.979-0.357-4.254c-2.06-5.259-4.456-10.386-6.543-15.635c-0.768-1.933-2.744-3.687-0.621-6.325
	c0.683-0.85-0.2-4.605-2.546-4.2c-3.348,0.579-6.517,2.324-9.686,3.743c-1.538,0.688-0.012,1.46,0.213,2.19
	C591.551,547.811,597.917,548.806,597.25,554.642 M570.392,549.545c-4.55,1.947-8.832,3.786-13.119,5.614
	c-6.871,2.93-6.847,2.895-0.883,7.624c0.705,0.56,1,1.681,1.391,2.582c1.453,3.359,2.973,6.696,4.26,10.118
	c0.798,2.123,2.552,3.873,0.657,6.803c-1.394,2.156,1.928,4.688,4.62,3.613c3.709-1.479,7.366-3.088,11.046-4.642
	c5.746-2.43,5.813-2.461,3.056-8.256c-0.572-1.202-0.334-3.995-2.998-2.773c-1.649,0.757-4.764,0.603-3.523,4.101
	c0.917,2.589-1.595,2.497-2.859,3.139c-1.832,0.93-2.354-0.733-2.648-1.96c-0.364-1.517-2.915-3.141-0.275-4.644
	c1.812-1.03,3.572-1.444,2.339-4.31c-1.19-2.769-2.604-2.106-4.679-1.371c-2.602,0.923-2.198-1.834-2.955-3.02
	c-0.624-0.977-1.816-2.51,0.207-3.264c1.29-0.48,2.875-2.673,4.193-0.165c1.628,3.096,3.376,0.645,4.988,0.213
	c2.216-0.593,1.609-2.161,0.806-3.532C572.852,553.436,572.952,550.584,570.392,549.545 M546.665,560.19
	c-3.462,1.432-7.35,2.874-11.075,4.655c-1.783,0.852-4.807,0.637-4.922,3.277c-0.093,2.093,1.071,4.075,3.956,4.038
	c0.442-0.005,0.952,1.601,1.35,2.497c1.144,2.578,2.463,5.106,3.308,7.782c0.993,3.146,3.97,5.798,1.74,9.889
	c-0.704,1.29,0.653,4.855,4.231,3.038c1.625-0.824,3.371-1.406,5.021-2.187c2.421-1.146,2.729-4.153,0.62-5.642
	c-6.95-4.906-6.9-5.684,0.64-9.248c2.993-1.414,5.36-3.87,3.847-6.959C553.367,567.23,553.834,560.907,546.665,560.19
	 M635.389,520.577c2.254,0.042,3.979-0.182,5.801-0.575c14.882-3.217,29.791-6.31,44.705-9.375
	c7.444-1.53,14.931-2.859,22.362-4.446c1.287-0.275,3.37-0.641,3.048-2.613c-0.254-1.558-1.919-1.041-2.915-0.686
	c-10.98,3.902-22.615,4.723-33.891,7.226c-10.974,2.436-22.062,4.344-33.086,6.559C639.173,517.116,636.829,517.616,635.389,520.577
	 M524.64,602.516c-0.652-2.934-2.092-5.04-5.366-4.867c-3.552,0.189-5.597,2.191-5.428,5.784c0.154,3.277,2.538,4.667,5.468,4.554
	C522.593,607.859,524.32,605.736,524.64,602.516 M501.353,601.971c3.379-0.212,5.277-2.15,5.308-5.397
	c0.031-3.127-1.983-4.955-5.075-4.98c-3.267-0.027-5.508,1.79-5.588,5.114C495.917,600.034,497.946,601.849,501.353,601.971"/>
<path fill="#5E1A35" d="M436.396,559.753c9.691-3.627,20.018-4.547,30.004-6.928c14.324-3.414,28.859-5.962,43.337-8.709
	c16.265-3.086,32.379-6.878,48.676-9.849c17.412-3.173,34.646-7.333,51.962-11.031c6.312-1.349,12.646-2.579,18.954-3.94
	c1.342-0.29,2.195,0.261,3.735,1.356c-4.833,2.718-9.904,2.707-14.556,3.738c-19.086,4.235-38.259,8.086-57.417,11.981
	c-20.61,4.189-41.256,8.201-61.858,12.421c-16.718,3.424-33.369,7.179-50.11,10.474c-4.004,0.788-4.527,2.315-3.117,5.666
	c4.99,11.867,9.897,23.77,14.842,35.654c3.683,8.847,7.323,17.71,11.075,26.526c4.476,10.512,8.975,21.016,13.642,31.443
	c1.103,2.466,1.965,4.859,6.041,1.992c22.942-16.136,46.159-31.886,69.37-47.639c24.688-16.757,49.512-33.312,74.204-50.062
	c27.479-18.641,54.875-37.404,82.321-56.093c1.068-0.728,2.268-1.246,2.612-2.764c-2.35-0.75-5.993,2.52-6.522-0.976
	c-0.327-2.158,3.814-1.982,6.085-2.397c3.833-0.7,7.695-1.236,12.023-0.985c-1.537,1.373-2.942,2.939-4.631,4.089
	c-11.925,8.114-23.927,16.114-35.867,24.206c-12.77,8.655-25.491,17.38-38.248,26.054c-8.359,5.685-16.758,11.312-25.117,16.999
	c-23.832,16.216-47.673,32.418-71.472,48.683c-21.776,14.882-43.478,29.872-65.28,44.717c-2.575,1.754-5.573,2.89-8.376,4.314
	c-3.365-5.359-4.818-11.5-6.956-17.349c-2.688-7.355-6.8-14.017-9.792-21.261c-5.075-12.28-9.184-25.027-15.728-36.644
	c-1.271-2.259-0.84-4.439-1.538-6.608C445.625,577.296,438.922,569.471,436.396,559.753"/>
<path fill="#FCFCFC" d="M532.586,601.802l-30.726-13.525c-3.938-1.563-5.426-0.855-6.825,2.868
	c-2.039,5.426-4.584,10.662-6.892,15.987c-0.921,2.123-2.505,6.556-3.548,8.4c-1.292,2.284-2.44,4.649-3.66,6.984
	c-0.009,0.005,0.141-0.074,0.141-0.074c-2.681,1.403-3.391-1.369-4.312-2.496c-5.439-6.646-9.122-14.291-11.787-22.435
	c2.014,0.728,3.752,0.063,5.645-0.748c17.082-7.33,34.205-14.565,51.335-21.782l4.706-3.513c6.563,9.274,9.434,19.509,7.978,30.852"
	/>
<path fill="#5E1A35" d="M521.956,574.981c-17.13,7.217-34.252,14.451-51.334,21.781c-1.895,0.812-3.633,1.478-5.646,0.749
	c-2.107-4.606-2.357-9.803-5.094-14.34c-1.03-1.708-3.177-5.299,2.583-7.602c6.527-2.61,13.058-5.434,19.672-8.008
	c5.587-2.177,10.675-5.52,16.368-7.555c2.475-0.885,4.817-2.14,7.221-3.229l5.108-2.021c2.229-1.086,4.947-1.104,6.823-2.904
	c1.018-0.978,1.959-0.922,2.168,0.271c1.028,5.856,5.361,10.264,6.78,15.907c0.272,1.082,0.051,2.289,0.057,3.438 M496.749,580.906
	c0.487,0,1.832,0.154,3.131-0.027c5.16-0.717,7.531-4.967,5.061-8.984c-0.787-1.281-1.345-3.658-3.207-2.632
	c-0.934,0.515-1.268,2.976-0.562,4.732c0.433,1.08,2.597,2.259,0.149,3.393c-1.771,0.82-2.513-0.478-3.483-1.768
	c-2.917-3.876-7.963-4.869-12.373-2.683c-4.348,2.154-5.938,5.839-4.374,10.815c0.511,1.625,1.117,3.985,2.965,4.06
	c1.199,0.049,3.216-1.621,3.585-2.894C488.977,580.313,492.242,580.296,496.749,580.906 M513.567,561
	c-3.161-0.015-7.886,3.001-8.053,5.865c-0.136,2.332,3.413,7.721,5.055,7.673c2.702-0.081,10.617-4.928,9.857-5.842
	C518.372,566.224,520.374,560.664,513.567,561 M476.179,578.425c-5.595-0.007-13.077,4.902-11.89,6.365
	c1.876,2.314,1.807,6.407,5.331,7.055c3.302,0.606,10.749-4.092,9.924-5.941C478.334,583.188,479.174,578.708,476.179,578.425"/>
<path fill="#FCFCFC" d="M597.249,554.641c0.668-5.836-5.698-6.829-7.065-11.271c-0.226-0.73-1.75-1.503-0.214-2.191
	c3.169-1.418,6.34-3.164,9.687-3.742c2.346-0.405,3.228,3.351,2.546,4.199c-2.122,2.64-0.147,4.394,0.621,6.325
	c2.087,5.249,4.484,10.376,6.543,15.636c0.499,1.274,2.635,2.881,0.357,4.253c-1.883,1.137-3.805,2.603-6.338,0.692
	c-3.844-2.897-7.942-5.456-11.934-8.159c-0.678-0.459-1.326-1.028-2.7-0.365c2.124,2.82,0.806,7.411,5.999,8.757
	c2.628,0.681,2.113,4.593-0.568,5.831c-1.656,0.765-3.338,1.499-5.062,2.09c-1.088,0.372-2.487,1.924-3.336-0.093
	c-0.568-1.351-2.6-2.885-0.792-4.35c1.959-1.588,0.832-2.908,0.238-4.341c-1.655-3.992-3.348-7.969-5.089-11.923
	c-0.458-1.039-0.981-2.627-1.772-2.836c-2.607-0.688-4.669-1.975-3.727-4.701c0.919-2.657,7.158-3.489,9.534-1.776
	c3.461,2.496,6.983,4.908,10.443,7.406C595.485,554.705,596.28,555.17,597.249,554.641"/>
<path fill="#FCFCFC" d="M618.677,547.705c1.458,3.151,0.814,7.336,5.871,8.578c2.65,0.65,1.973,4.566-0.869,5.854
	c-1.666,0.756-3.358,1.459-5.064,2.119c-1.203,0.465-2.681,1.322-3.384-0.499c-0.486-1.259-2.267-2.855-0.669-3.984
	c2.162-1.528,0.966-2.812,0.367-4.256c-1.529-3.688-2.986-7.414-4.693-11.02c-0.859-1.816-0.622-4.742-4.31-4.214
	c-1.444,0.206-1.734-2.205-2.092-3.57c-0.412-1.568,1.14-1.665,2.116-2.219c3.292-1.868,6.17-2.285,9.447,0.546
	c3.627,3.132,7.837,5.588,12.202,8.044c-1.694-3.323-0.05-8.396-5.746-9.545c-1.56-0.315-1.78-2.289-2.056-3.697
	c-0.314-1.604,1.291-1.659,2.247-2.161c0.733-0.385,1.531-0.648,2.296-0.978c6.77-2.908,6.661-2.913,6.37,4.557
	c-0.06,1.52,0.973,3.11,1.616,4.619c2.144,5.037,4.427,10.019,6.46,15.1c0.53,1.326,2.656,2.98,0.585,4.308
	c-1.941,1.243-4.047,2.591-6.769,0.511c-4.212-3.22-8.839-5.897-13.29-8.806c-0.372-0.109-0.994-0.401-1.069-0.296
	C617.917,547.145,618.168,547.52,618.677,547.705"/>
<path fill="#FCFCFC" d="M570.392,549.545c2.562,1.039,2.46,3.89,3.621,5.871c0.804,1.371,1.411,2.939-0.805,3.532
	c-1.613,0.432-3.361,2.883-4.988-0.213c-1.319-2.508-2.903-0.315-4.193,0.165c-2.023,0.754-0.832,2.286-0.208,3.264
	c0.758,1.185,0.354,3.941,2.956,3.02c2.074-0.734,3.488-1.396,4.68,1.371c1.231,2.865-0.528,3.279-2.339,4.311
	c-2.642,1.502-0.09,3.127,0.274,4.642c0.294,1.228,0.817,2.891,2.649,1.961c1.264-0.642,3.775-0.55,2.857-3.138
	c-1.239-3.498,1.874-3.345,3.524-4.102c2.664-1.223,2.425,1.571,2.997,2.773c2.758,5.795,2.691,5.827-3.055,8.255
	c-3.68,1.555-7.337,3.164-11.047,4.644c-2.691,1.073-6.013-1.457-4.618-3.614c1.894-2.931,0.14-4.68-0.659-6.802
	c-1.287-3.424-2.806-6.761-4.259-10.118c-0.391-0.902-0.686-2.024-1.391-2.583c-5.964-4.73-5.988-4.694,0.882-7.624
	C561.559,553.331,565.842,551.493,570.392,549.545"/>
<path fill="#FCFCFC" d="M546.665,560.19c7.168,0.717,6.703,7.04,8.714,11.143c1.515,3.088-0.852,5.543-3.846,6.958
	c-7.54,3.563-7.59,4.342-0.64,9.248c2.107,1.488,1.801,4.496-0.62,5.642c-1.65,0.78-3.396,1.362-5.021,2.187
	c-3.578,1.817-4.934-1.748-4.23-3.038c2.229-4.092-0.746-6.743-1.74-9.889c-0.845-2.676-2.164-5.204-3.307-7.783
	c-0.398-0.896-0.908-2.502-1.352-2.496c-2.883,0.037-4.047-1.945-3.955-4.037c0.116-2.642,3.139-2.428,4.921-3.278
	C539.315,563.064,543.204,561.623,546.665,560.19 M549.002,571.427c-0.787-2.016-0.803-4.459-3.96-3.988
	c-1.916,0.286-4.511-0.211-4.24,2.635c0.174,1.815,0.51,4.679,3.476,4.494C546.301,574.442,548.346,573.698,549.002,571.427"/>
<path fill="#5E1A35" d="M635.389,520.578c1.441-2.962,3.784-3.461,6.025-3.911c11.022-2.216,22.111-4.125,33.085-6.561
	c11.275-2.502,22.91-3.321,33.891-7.226c0.996-0.354,2.661-0.871,2.915,0.688c0.322,1.973-1.761,2.338-3.048,2.612
	c-7.432,1.587-14.918,2.916-22.362,4.446c-14.914,3.066-29.823,6.158-44.705,9.375C639.368,520.395,637.643,520.62,635.389,520.578"
	/>
<path fill="#FCFCFC" d="M501.348,601.965c-3.401-0.117-5.432-1.931-5.351-5.258c0.081-3.324,2.322-5.142,5.587-5.114
	c3.092,0.025,5.107,1.854,5.077,4.979C506.629,599.82,504.731,601.759,501.348,601.965"/>
<path fill="#FCFCFC" d="M492.098,620.215c-3.401-0.117-5.432-1.931-5.351-5.258c0.081-3.324,2.322-5.142,5.587-5.114
	c3.092,0.025,5.107,1.854,5.077,4.979C497.379,618.07,495.481,620.009,492.098,620.215"/>
<path fill="#5E1A35" d="M533.322,599.541c-0.457-0.024-0.915-0.049-1.373-0.071"/>
<path fill="#FCFCFC" d="M496.749,580.906c-4.507-0.61-7.772-0.593-9.108,4.013c-0.369,1.272-2.386,2.942-3.585,2.894
	c-1.848-0.074-2.453-2.435-2.965-4.06c-1.564-4.977,0.026-8.661,4.374-10.815c4.41-2.187,9.456-1.193,12.374,2.683
	c0.97,1.29,1.711,2.588,3.482,1.768c2.447-1.134,0.284-2.312-0.149-3.393c-0.706-1.757-0.372-4.218,0.561-4.732
	c1.863-1.026,2.421,1.351,3.208,2.632c2.472,4.018,0.1,8.268-5.06,8.984C498.581,581.061,497.236,580.906,496.749,580.906"/>
<path fill="#FCFCFC" d="M513.567,561c6.807-0.336,4.805,5.225,6.859,7.696c0.76,0.913-7.155,5.761-9.857,5.842
	c-1.642,0.048-5.19-5.341-5.055-7.673C505.682,564.001,510.406,560.985,513.567,561"/>
<path fill="#FCFCFC" d="M476.179,578.425c2.995,0.283,2.155,4.763,3.365,7.479c0.825,1.85-6.622,6.548-9.924,5.941
	c-3.524-0.647-3.455-4.74-5.331-7.055C463.102,583.327,470.584,578.418,476.179,578.425"/>
<path fill="#120A4C" d="M618.677,547.705c-0.509-0.186-0.76-0.561-0.433-1.009c0.075-0.105,0.697,0.187,1.069,0.296
	C619.118,547.245,618.905,547.482,618.677,547.705"/>
<path fill="#120A4C" d="M549.002,571.427c-0.656,2.271-2.701,3.016-4.725,3.141c-2.966,0.185-3.302-2.679-3.476-4.494
	c-0.271-2.846,2.324-2.349,4.24-2.635C548.199,566.968,548.215,569.411,549.002,571.427"/>
<path fill="#050303" d="M13.707,37.374c9.668,0.481,18.949,3.205,28.374,5.035c24.315,4.72,48.569,9.761,72.856,14.635
	c51.88,10.414,103.766,20.809,155.65,31.203c18.664,3.738,37.338,7.43,55.995,11.207c1.855,0.375,4.113,0.219,5.179,2.722
	c-1.546,0.495-3.067,0.983-4.582,1.469c-0.99-0.419-1.882,0.103-2.835,0.226c-4.353,0.557-7.52,3.761-11.549,4.947
	c-11.086,3.268-22.645,4.215-33.875,6.951c-10.498,2.557-21.359,4.391-32.012,5.562c-11.41,1.258-21.985,5.615-33.331,6.609
	c-3.614,0.316-7.449,1.061-10.82,2.143c-4.497,1.445-9.195,1.447-13.591,3.035c-6.136,2.217-12.789,1.756-19.04,3.496
	c-4.567,1.271-9.144,2.611-13.8,3.445c-7.33,1.311-14.769,2.338-22.001,3.846c-6.223,1.297-12.511,2.703-18.736,4.195
	c-7.713,1.85-15.738,2.289-23.268,4.895c-4.838,1.674-9.831,2.375-14.828,3.043c-12.224,1.637-23.923,5.762-36.188,7.293
	c-7.037,0.879-13.887,3.273-21.011,3.676c-6.207,0.35-6.558-0.211-6.56-6.172C13.725,119.682,13.716,78.527,13.707,37.374
	 M49.083,124.688c0.265-0.314,0.529-0.629,0.794-0.943c-0.215-0.113-0.43-0.227-0.646-0.34c-0.033,0.43-0.066,0.861-0.1,1.293
	c1.164-0.438,2.655,1.488,3.604-0.5c1.888-0.418,3.337,0.676,4.887,1.418c-0.99,1.363-1.017,2.354,0.964,2.672
	c1.872,0.301,3.707-0.238,4.774-1.527c0.503-0.607-1.605-0.381-2.121-1.221c1.553-0.99,3.337-1.203,5.072-1.66
	c1.785-0.469,3.086-1.732,3.336-3.814c0.197-1.646-0.095-3.174-1.647-3.791c-3.628-1.443-7.298-3.1-11.363-2.129
	c-1.877,0.445-3.828,0.953-5.481,1.895c-5.063,2.879-0.697,5,0.75,7.336C50.961,123.812,50.017,124.25,49.083,124.688
	 M78.11,104.744c-0.49,0.593-1.997,0.713-0.937,2.023c-0.788,0.801-1.626,1.583-0.989,2.875l-0.312,0.186l0.358,0.062
	c-1.056,0.135-2.046,0.641-1.672,1.773c0.646,1.957,2.58-0.002,3.654,0.951c-0.657,0.359-1.796,0.689-1.129,1.594
	c0.606,0.824,1.807,1.611,2.88,0.645c0.582-0.525-0.345-0.998-0.665-1.461c1.582-0.445,3.164-0.891,4.733-1.324
	c-0.458,0.914,0.192,0.986,0.814,1.043c0.13,0.01,0.399-0.15,0.393-0.203c-0.108-0.846-0.886-0.482-1.34-0.717
	c0.015-0.453,0.027-0.906,0.041-1.359l-0.017,0.1c0.924-2.432-3.379-1.615-2.493-4.012l0.238-0.102l-0.233-0.113
	c0.857-0.241,1.714-0.483,2.572-0.726c-1.376,3.093,1.263,2.444,2.708,2.909c0.802-0.012,1.604-0.023,2.405-0.036
	c-0.56-0.243-1.119-0.487-1.679-0.729c0.051-3.094,1.566-3.945,4.451-3.104c1.011,0.294,2.557,0.53,2.662-1.147
	c0.092-1.457-0.858-2.031-2.433-2.397c-2.121-0.494-4.05,1.226-6.074,0.136c-0.124-4.222,2.477-8.125,1.45-12.451
	c0.267-4.449-2.331-8.021-3.665-11.979c3.789-0.902,7.296-5.581,7.017-9.575c-0.105-1.511,0.074-4.109-1.812-3.868
	c-2.349,0.299-5.475,2.855-4.443,4.833c1.618,3.105-0.338,4.484-1.212,6.531c-0.776-0.353-1.552-0.706-2.328-1.059
	c-1.12-1.574-1.907-3.782-3.433-4.583c-2.685-1.41-2.071-5.589-3.574-5.744c-2.663-0.275-4.717-2.114-7.323-2.017
	c-4.64-0.059-9.278-0.139-13.919-0.153c-0.673-0.003-1.897-0.214-1.446,1.135c0.24,0.715,1.136,1.821,1.808,1.179
	c3.652-3.49,8.029-0.815,11.962-1.63c-0.742,0.913-1.485,1.827-2.332,2.869c2.937,0,5.595-0.065,8.247,0.031
	c1.153,0.041,1.892,0.621,0.994,1.896c-0.131,0.187-1.853,7.398-1.847,7.442c-3.053,0.043-6.541-2.187-8.864,2.011
	c-0.127,0.228-3.1,1.535-4.291-0.474c-1.532-2.579-3.951-1.868-6.232-1.923c-0.897-0.022-2.322,1.308-2.766-1.02
	c2.884-1.334,6.213-0.226,9.464-1.17c-2.02-2.42-4.294-1.572-6.353-1.67c-1.304-0.061-3.024,0.685-3.82-0.427
	c-2.679-3.741-4.889-1.068-6.908,0.467c-1.811,1.376-3.192,3.314-4.762,5.004c-3.163-1.434-1.958-4.279-1.816-6.513
	c0.199-3.134-2.069-4.226-4.048-4.92c-0.866-0.303-3.387,1.511-3.7,2.736c-0.846,3.307,4.539,9.507,8.716,10.665
	c-0.555,1.586-1.109,3.172-1.658,4.752c-1.273,1.562-1.574,3.361-1.283,5.303c-2.665,4.904,0.766,9.539,0.63,14.332
	c-2.548,0.078-5.19-0.731-7.847,0.74c1.203,2.301,3.522,1.662,5.16,2.448c3.692,1.774-1.064,2.672-0.423,4.571
	c3.937-2.237,4.325,2.959,7.546,3.711c2.435,0.568,3.762,2.732,3.989,1.316c0.82-5.094,2.852,0.258,4.167-0.799
	c-0.392-1.799-0.388-3.906-3.118-4.107c1.33-0.85,0.51-1.748,0.06-2.639c0.2-0.761-0.238-0.922-0.857-0.914
	c-0.874-1.535-2.258-2.029-3.933-1.928c0.411-0.29,0.9-0.541,0.597-1.189c-3.529-4.491-5.188-9.519-4.359-15.256
	c0.195-1.688,0.391-3.375,0.586-5.062c3.001-1.591,2.466-6.192,6.367-7.321c-0.786,5.928,3.898,2.245,5.938,3.334
	c1.792,0.957,3.872,1.223,3.284,3.844c-0.526,2.343-0.139,6.121-3.662,5.729c-4.434-0.491-3.723,1.649-2.419,3.746
	c1.821,2.931,2.397,5.286,0.576,8.651c-1.405,2.6-0.322,5.922,1.733,8.26c1.525,1.732,2.921-0.334,4.36-0.786
	c0.174,1.868-3.479,1.755-2.24,3.96c1.283,2.283,8.081,2.328,8.849-0.158c1.194-3.867,5.216-4.302,7.201-7.422
	c-1.429-0.083-2.71-0.158-3.991-0.232c5.52-1.449,5.983-1.28,6.225,2.264c-0.996,0.83-1.964,1.697-2.997,2.477
	c-0.802,0.607-2.669,0.288-2.114,2.023c0.394,1.23,1.499,2.635,2.773,2.455c2.505-0.352,7.205,2.326,6.211-3.918
	c-0.14-0.875,0.97-1.947,1.502-2.928c2.872-0.16,3.057-3.004,2.438-4.113c-2.462-4.426-0.88-8.616-0.109-12.908
	c1.036-0.561,1.317-1.512,0.446-2.188c-0.538-0.416-0.875,0.614-1.17,1.131c-1.68,0.681-3.358,1.363-5.811,2.356
	c0.896-1.87,0.408-3.798,2.859-3.198c1.624,0.397,2.325-0.455,3.063-1.711c0.485-0.824,2.424-1.246,0.854-2.451
	c-0.776-0.596-2.401-0.5-2.595,1.17c-0.416,3.604-1.841,0.637-2.187,0.197c-1.138-1.447-0.618-3.068,0.202-4.514
	c1.689-2.979,4.142,0.041,6.271-0.719c2.295-0.817,0.328-5.293,4.126-4.344c3.234,5.654,4.925,11.739,5.092,18.25
	c-1.462,2.6-1.221,5.969-3.666,8.125c-0.992,0.524-1.497,1.281-1.162,2.438C79.581,104.257,78.846,104.5,78.11,104.744
	 M131.017,109.727c0.416-0.021,0.832-0.045,1.247-0.066c1.165,5.846,2.495,11.668,3.425,17.553c0.473,2.996,1.965,2.881,4.191,2.357
	c3.01-0.705,1.587-2.686,1.402-4.33c-0.894-7.963-4.944-15.801-2.091-23.881c1.663-4.707,1.874-9.304,1.626-14.049
	c-0.217-4.166-1.005-8.242-3.118-11.962c-2.341-4.117-6.686-4.052-10.163-3.702c-3.233,0.325-1.496,4.135-1.52,6.271
	c-0.173,16.316-0.139,32.637-0.004,48.953c0.012,1.537-1.548,4.377,2.073,4.453c3.419,0.072,2.927-2.4,2.929-4.533
	C131.021,121.104,131.017,115.416,131.017,109.727 M166.732,96.418c-2.883-4.889-3.787-10.219-5.143-15.418
	c-0.513-1.973-0.565-4.526-3.847-3.979c-2.926,0.487-1.826,2.763-1.835,4.302c-0.087,13.66-0.085,27.322-0.008,40.984
	c0.011,1.711-1.079,4.357,2.362,4.34c3.084-0.02,2.712-2.238,2.709-4.24c-0.009-5.602-0.003-11.203-0.003-16.805
	c2.478,5.736,4.128,11.488,5.572,17.291c0.448,1.803,1.204,2.443,3.05,2.373c2.253-0.09,2.23-1.551,2.231-3.086
	c0.002-13.829-0.024-27.656,0.007-41.484c0.005-1.922-0.363-3.113-2.672-3.232c-2.713-0.141-2.414,1.602-2.418,3.246
	C166.724,85.945,166.732,91.182,166.732,96.418 M107.866,101.779h0.024c0,9.486-0.038,18.973,0.041,28.459
	c0.011,1.445-0.84,3.709,1.83,3.814c2.523,0.1,3.333-1.41,3.271-3.865c-0.14-5.322-0.078-10.652-0.023-15.979
	c0.015-1.393-0.514-3.379,1.641-3.604c5.197-0.543,6.081-4.726,6.982-8.474c1.931-8.031,1.815-16.181-0.047-24.231
	c-0.478-2.062-1.401-4.14-2.586-5.895c-2.172-3.218-5.904-3.394-9.011-2.665c-2.358,0.555-2.123,3.682-2.122,5.974
	C107.866,84.136,107.866,92.957,107.866,101.779 M194.476,101.307c0,3.654-0.005,7.309,0,10.961
	c0.014,9.146-0.004,8.963,9.029,8.061c3.921-0.391,4.891-2.041,4.755-5.727c-0.166-4.551-3.06-2.875-5.233-2.691
	c-2.177,0.184-3.551-0.111-3.479-2.752c0.06-2.164,0.09-4.104,3.086-3.775c3,0.326,4.492-0.529,4.428-4.053
	c-0.06-3.297-1.126-4.551-4.331-4.213c-2.42,0.256-3.137-1.127-3.181-3.33c-0.052-2.631,1.384-2.899,3.521-2.795
	c2.251,0.109,5.068,1.373,5.214-3.006c0.128-3.875-1.315-5.449-5.017-5.525c-1.65-0.034-3.358-0.17-4.931-0.633
	c-3.421-1.004-3.975,0.623-3.897,3.537C194.584,90.676,194.481,95.992,194.476,101.307 M175.964,103.203
	c0,4.312-0.23,8.643,0.072,12.936c0.245,3.479,1.995,6.338,5.695,7.152c3.679,0.809,5.459-1.795,6.838-4.555
	c0.729-1.457,1.181-3.105,1.466-4.719c0.28-1.592,2.018-3.695-0.438-4.721c-1.977-0.825-3.674-0.107-4.59,2.35
	c-0.914,2.453-3.078,2.658-3.577-0.018c-1.281-6.867-1.214-13.867-0.003-20.762c0.323-1.842,2.273-2.371,3.193-0.469
	c1.17,2.418,2.631,4.282,5.18,2.877c2.272-1.252,0.174-3.561,0.102-5.4c-0.019-0.492-0.219-0.977-0.263-1.471
	c-0.364-4.051-2.987-6.465-6.571-6.945c-4.26-0.572-5.407,3.255-6.354,6.404C175.013,91.521,175.708,97.404,175.964,103.203
	 M228.853,101.425c0.268,2.524,0.531,5.319,0.864,8.104c0.367,3.066,1.973,5.637,4.983,5.98c2.988,0.342,5.769-0.727,7.547-3.904
	c3.509-6.273,2.816-12.74,1.051-19.086c-1.056-3.792-4.786-5.467-8.464-5.088c-3.486,0.359-4.99,3.383-5.333,6.777
	C229.268,96.511,229.085,98.816,228.853,101.425 M248.355,101.119c0,2.985-0.029,5.972,0.013,8.957
	c0.02,1.467-0.162,3.062,2.142,3.119c2.019,0.049,2.373-1.408,2.939-2.77c0.57-1.374-0.884-3.771,1.538-4.1
	c2.001-0.273,2.377,1.887,3.176,3.277c0.812,1.414,2.013,2.107,3.728,1.848c1.29-0.195,2.279-0.662,2.274-2.107
	c-0.018-5.305-0.074-10.609-0.145-15.914c-0.028-2.161-1.66-2.184-3.172-2.2c-1.353-0.015-2.604,0.04-1.844,2.122
	c0.463,1.266-0.528,2.314-1.592,2.784c-1.812,0.801-1.535-1.22-2.175-1.946c-0.857-0.971-1.655-2.078-2.149-3.263
	c-0.663-1.595-1.702-1.747-3.152-1.437c-1.558,0.334-1.554,1.518-1.564,2.676C248.343,95.15,248.362,98.136,248.355,101.119
	 M145.729,101.326c0,7.994-0.022,15.986,0.024,23.98c0.007,1.193-0.559,2.936,1.532,3.037c1.819,0.092,3.307-0.537,3.521-2.67
	c0.066-0.66,0.048-1.33,0.048-1.994c0.002-14.988,0.016-29.975-0.016-44.961c-0.003-1.705,0.608-3.758-2.558-3.612
	c-2.923,0.134-2.548,1.942-2.55,3.74C145.726,86.34,145.729,93.834,145.729,101.326 M215.291,84.324
	c-2.32-0.201-3.741-0.121-3.495,1.834c0.244,1.931-1.414,4.844,1.658,5.484c2.868,0.598,3.295,2.069,3.257,4.512
	c-0.095,6.135-0.07,12.271,0.009,18.404c0.019,1.455-0.722,3.67,2.163,3.385c2.153-0.213,3.057-1.264,2.994-3.582
	c-0.165-6.131-0.068-12.269-0.103-18.404c-0.011-1.922-0.1-3.783,2.757-3.438c2.317,0.28,2.209-1.366,2.164-2.921
	c-0.047-1.604,0.46-3.484-1.969-3.855C221.29,85.217,217.85,84.709,215.291,84.324 M36.366,93.631
	c0.808-3.096,0.175-6.564,2.749-9.143c0.938-0.94-0.071-2.037-0.673-2.431c-1.252-0.823-1.562,0.433-1.905,1.334
	C35.268,86.728,35.444,90.127,36.366,93.631 M79.092,80.572c-0.608,2.566,0.805,3.57,2.338,4.562
	C82.251,82.842,81.257,81.477,79.092,80.572 M34.415,116.205l-0.101,0.398l-0.105-0.396L34.415,116.205z M85.271,111.201
	c0.12-0.105,0.326-0.203,0.334-0.316c0.009-0.113-0.181-0.24-0.283-0.361c-0.123,0.162-0.247,0.322-0.37,0.482
	C85.059,111.072,85.165,111.137,85.271,111.201 M36.661,116.736c-0.09-0.125-0.18-0.25-0.27-0.377
	c-0.116,0.102-0.311,0.195-0.324,0.309c-0.014,0.115,0.156,0.25,0.246,0.375C36.43,116.941,36.545,116.838,36.661,116.736"/>
<path fill="#E27E37" d="M5.732,49.312c0.079-3.163-0.031-6.331,0.077-9.493c0.054-1.602-0.743-4.02,0.732-4.61
	c1.827-0.73,4.26-0.53,5.925,1.352c0.316,0.357,0.822,0.546,1.24,0.813c0.009,41.153,0.018,82.308,0.029,123.46
	c0.002,5.961,0.354,6.521,6.56,6.172c7.124-0.402,13.973-2.795,21.011-3.676c12.264-1.531,23.964-5.656,36.188-7.293
	c4.996-0.668,9.989-1.367,14.826-3.043c7.53-2.605,15.556-3.045,23.269-4.895c6.226-1.494,12.514-2.898,18.736-4.195
	c7.233-1.508,14.671-2.535,22.001-3.846c4.657-0.834,9.232-2.174,13.801-3.445c6.25-1.742,12.902-1.277,19.039-3.496
	c4.396-1.588,9.094-1.59,13.591-3.033c3.372-1.084,7.206-1.828,10.82-2.145c11.346-0.994,21.921-5.352,33.331-6.609
	c10.652-1.172,21.514-3.006,32.012-5.562c11.23-2.738,22.789-3.684,33.875-6.951c4.029-1.187,7.197-4.391,11.549-4.947
	c0.953-0.122,1.845-0.645,2.835-0.225c0.824,1.289,3.132,1.75,2.405,3.894c-0.687,2.024-2.678,1.555-4.231,1.95
	c-22.321,5.688-45.042,9.438-67.599,13.984c-14.943,3.012-29.8,6.445-44.731,9.516c-10.877,2.238-21.817,4.162-32.719,6.283
	c-15.446,3.008-30.892,6.016-46.319,9.117c-24.713,4.965-49.416,9.98-74.112,15.025c-13.64,2.787-27.256,5.686-40.889,8.51
	c-2.568,0.531-4.988,0.424-6.686-2.047c-0.365-0.531-0.954-1.395-1.352-1.348c-6.336,0.742-5.268-3.818-5.174-7.375 M5.732,140.121
	c0-2.664,0.062-5.328,0.062-7.992c0.001-19.324-0.166-38.648,0.097-57.968"/>
<path fill="#E27E37" d="M35.658,75.265c1.571-1.69,2.952-3.628,4.763-5.004c2.02-1.535,4.23-4.208,6.907-0.467
	c0.796,1.112,2.519,0.366,3.821,0.428c2.059,0.097,4.334-0.751,6.354,1.67c-3.252,0.943-6.581-0.165-9.466,1.17
	c0.444,2.327,1.868,0.997,2.768,1.019c2.28,0.055,4.698-0.656,6.23,1.924c1.192,2.008,4.165,0.701,4.291,0.473
	c2.325-4.198,5.812-1.968,8.865-2.011c-0.006-0.044,1.715-7.255,1.846-7.441c0.898-1.276,0.16-1.855-0.993-1.897
	c-2.651-0.096-5.311-0.03-8.246-0.03c0.847-1.043,1.589-1.957,2.328-2.87c0.532-0.177,1.065-0.354,1.599-0.531
	c2.605-0.097,4.66,1.742,7.324,2.017c1.502,0.155,0.89,4.334,3.573,5.744c1.525,0.801,2.313,3.009,3.434,4.584
	c-0.336,0.388-0.671,0.776-1.006,1.165c-3.796-0.958-1.829,3.518-4.124,4.335c-2.129,0.76-4.581-2.26-6.271,0.719
	c-0.82,1.445-1.339,3.066-0.202,4.513c0.347,0.44,1.772,3.408,2.188-0.196c0.192-1.67,1.817-1.766,2.594-1.17
	c1.571,1.205-0.368,1.627-0.853,2.451c-0.739,1.258-1.44,2.107-3.063,1.711c-2.453-0.6-1.963,1.328-2.861,3.199
	c2.452-0.995,4.133-1.678,5.812-2.357c0.241,0.352,0.481,0.705,0.724,1.057c-0.771,4.291-2.353,8.482,0.11,12.908
	c0.618,1.109,0.432,3.953-2.44,4.111c-1.791-0.037-3.583-0.072-5.374-0.107c-0.241-3.545-0.705-3.713-6.225-2.264
	c-2.53,0.051-6.183-2.844-6.585,2.758c-0.085,1.176-1.812,1.674-3.233,1.094c-1.438,0.453-2.836,2.52-4.36,0.787
	c-2.056-2.338-3.14-5.66-1.732-8.26c1.821-3.365,1.244-5.722-0.577-8.652c-1.304-2.096-2.015-4.237,2.419-3.745
	c3.523,0.391,3.137-3.388,3.662-5.729c0.588-2.621-1.493-2.887-3.284-3.844c-2.041-1.09-6.725,2.594-5.938-3.335
	c-3.902,1.129-3.366,5.729-6.368,7.321c-0.306-0.174-0.612-0.348-0.919-0.522c0.554-1.585,1.109-3.171,1.664-4.757
	C35.094,76.577,35.375,75.92,35.658,75.265"/>
<path fill="#E27E37" d="M131.018,109.727c0,5.689,0.004,11.377-0.003,17.064c-0.002,2.133,0.49,4.605-2.929,4.533
	c-3.62-0.076-2.061-2.916-2.073-4.453c-0.134-16.318-0.169-32.637,0.004-48.953c0.022-2.136-1.714-5.946,1.519-6.271
	c3.479-0.35,7.823-0.415,10.163,3.702c2.114,3.72,2.902,7.796,3.12,11.962c0.247,4.745,0.036,9.342-1.627,14.049
	c-2.853,8.08,1.197,15.918,2.091,23.881c0.185,1.643,1.608,3.625-1.402,4.33c-2.228,0.523-3.719,0.637-4.191-2.357
	c-0.929-5.885-2.26-11.707-3.425-17.553C131.849,109.682,131.433,109.705,131.018,109.727 M131.595,90.177
	c-1.294,3.637-1.071,6.888,1.082,7.176c2.553,0.343,3.177-2.849,3.096-5.255c-0.084-2.505,0.883-6.363-2.625-6.51
	C129.01,85.414,132.055,89.515,131.595,90.177"/>
<path fill="#E27E37" d="M166.733,96.418c0-5.236-0.01-10.473,0.005-15.708c0.005-1.646-0.294-3.388,2.418-3.247
	c2.31,0.119,2.677,1.311,2.673,3.232c-0.031,13.828-0.005,27.656-0.008,41.484c0,1.537,0.022,2.996-2.23,3.086
	c-1.846,0.07-2.602-0.57-3.051-2.373c-1.443-5.803-3.094-11.553-5.571-17.291c0,5.602-0.006,11.203,0.003,16.803
	c0.003,2.004,0.375,4.223-2.709,4.24c-3.441,0.02-2.352-2.629-2.361-4.338c-0.078-13.662-0.081-27.324,0.006-40.984
	c0.01-1.539-1.09-3.814,1.836-4.301c3.282-0.547,3.333,2.006,3.847,3.979C162.945,86.199,163.85,91.529,166.733,96.418"/>
<path fill="#E27E37" d="M107.866,101.779c0-8.822,0.001-17.644,0-26.464c-0.002-2.292-0.236-5.42,2.122-5.974
	c3.106-0.729,6.839-0.554,9.011,2.665c1.185,1.755,2.108,3.832,2.586,5.895c1.861,8.051,1.978,16.2,0.048,24.231
	c-0.902,3.748-1.786,7.931-6.983,8.474c-2.154,0.225-1.626,2.211-1.641,3.604c-0.055,5.326-0.115,10.656,0.023,15.979
	c0.063,2.455-0.747,3.965-3.27,3.865c-2.67-0.105-1.819-2.369-1.831-3.814c-0.079-9.486-0.041-18.973-0.041-28.459H107.866z
	 M112.538,90.218c1.996,1.866-1.898,6.385,2.501,6.584c2.665,0.12,2.834-3.872,2.695-6.485c-0.132-2.494,0.605-6.373-2.914-6.293
	C111.168,84.107,113.947,88.02,112.538,90.218"/>
<path fill="#E27E37" d="M194.479,101.307c0.003-5.314,0.105-10.631-0.037-15.941c-0.078-2.914,0.476-4.541,3.896-3.537
	c1.572,0.463,3.279,0.599,4.931,0.633c3.701,0.076,5.144,1.65,5.016,5.525c-0.144,4.379-2.962,3.115-5.214,3.006
	c-2.136-0.104-3.573,0.164-3.521,2.795c0.044,2.203,0.761,3.586,3.181,3.33c3.205-0.338,4.271,0.916,4.331,4.213
	c0.064,3.523-1.427,4.379-4.427,4.053c-2.997-0.328-3.027,1.611-3.086,3.775c-0.073,2.641,1.301,2.936,3.479,2.752
	c2.172-0.184,5.066-1.859,5.233,2.691c0.135,3.686-0.835,5.336-4.756,5.727c-9.033,0.902-9.017,1.086-9.028-8.061
	C194.472,108.615,194.476,104.961,194.479,101.307"/>
<path fill="#E27E37" d="M175.964,103.203c-0.256-5.798-0.951-11.683,0.749-17.34c0.947-3.15,2.095-6.977,6.355-6.404
	c3.584,0.48,6.207,2.896,6.57,6.946c0.044,0.494,0.244,0.978,0.264,1.47c0.071,1.84,2.17,4.149-0.103,5.4
	c-2.549,1.404-4.01-0.459-5.18-2.878c-0.92-1.901-2.87-1.373-3.193,0.472c-1.211,6.893-1.277,13.893,0.003,20.76
	c0.499,2.676,2.663,2.471,3.577,0.018c0.916-2.456,2.613-3.176,4.59-2.35c2.456,1.025,0.72,3.129,0.438,4.719
	c-0.285,1.615-0.738,3.264-1.466,4.723c-1.378,2.758-3.159,5.361-6.838,4.553c-3.7-0.814-5.45-3.674-5.695-7.152
	C175.734,111.846,175.964,107.517,175.964,103.203"/>
<path fill="#E27E37" d="M228.853,101.424c0.232-2.607,0.415-4.914,0.648-7.215c0.343-3.394,1.847-6.418,5.333-6.777
	c3.678-0.379,7.408,1.296,8.464,5.088c1.766,6.346,2.459,12.812-1.052,19.086c-1.777,3.178-4.558,4.246-7.547,3.904
	c-3.01-0.344-4.615-2.914-4.981-5.98C229.385,106.744,229.119,103.949,228.853,101.424 M239.725,101.383
	c0.038-1.631,0.048-3.199-0.749-4.776c-0.621-1.229-1.177-2.771-2.446-2.834c-1.454-0.073-1.484,1.921-2.291,2.808
	c-2.164,2.379-0.23,4.668-0.215,6.977c0.015,2.242,0.047,5.242,2.712,5.314c2.351,0.063,2.069-3.23,2.938-5.031
	C239.995,103.168,239.725,102.211,239.725,101.383"/>
<path fill="#E27E37" d="M248.358,101.12c0.003-2.985-0.016-5.97,0.014-8.954c0.011-1.159,0.007-2.342,1.564-2.676
	c1.45-0.311,2.489-0.159,3.153,1.436c0.493,1.186,1.291,2.293,2.147,3.264c0.641,0.727,0.364,2.748,2.176,1.947
	c1.063-0.472,2.055-1.521,1.592-2.785c-0.76-2.082,0.491-2.137,1.844-2.121c1.512,0.016,3.144,0.039,3.172,2.199
	c0.07,5.305,0.127,10.61,0.145,15.916c0.005,1.443-0.984,1.912-2.274,2.105c-1.715,0.26-2.916-0.434-3.728-1.848
	c-0.8-1.391-1.175-3.551-3.177-3.278c-2.421,0.329-0.967,2.726-1.538,4.103c-0.565,1.359-0.92,2.816-2.938,2.768
	c-2.304-0.057-2.121-1.652-2.142-3.121C248.327,107.091,248.355,104.105,248.358,101.12"/>
<path fill="#E27E37" d="M145.729,101.326c0-7.492-0.004-14.986,0.004-22.479c0.002-1.798-0.373-3.606,2.548-3.74
	c3.167-0.146,2.556,1.907,2.559,3.611c0.031,14.987,0.019,29.974,0.016,44.96c0,0.666,0.019,1.336-0.048,1.996
	c-0.215,2.133-1.702,2.762-3.521,2.67c-2.091-0.102-1.525-1.844-1.532-3.037C145.707,117.312,145.729,109.32,145.729,101.326"/>
<path fill="#E27E37" d="M215.291,84.324c2.559,0.385,5.999,0.893,9.437,1.418c2.427,0.371,1.921,2.254,1.968,3.855
	c0.045,1.555,0.153,3.201-2.164,2.921c-2.856-0.345-2.767,1.517-2.757,3.438c0.034,6.135-0.062,12.273,0.103,18.404
	c0.062,2.318-0.842,3.369-2.994,3.582c-2.886,0.283-2.145-1.93-2.163-3.385c-0.079-6.135-0.104-12.27-0.009-18.404
	c0.039-2.443-0.39-3.912-3.257-4.512c-3.072-0.641-1.414-3.555-1.657-5.484C211.55,84.203,212.972,84.123,215.291,84.324"/>
<path fill="#FCFCFC" d="M57.622,125.615c-1.55-0.742-2.999-1.836-4.887-1.418l0.128,0.182c0.26-1.025,0.058-1.586-1.146-1.141
	l0.188,0.137c-1.448-2.336-5.814-4.457-0.751-7.336c1.655-0.941,3.605-1.449,5.481-1.895c4.065-0.971,7.735,0.686,11.364,2.129
	c1.553,0.615,1.844,2.146,1.647,3.791c-0.249,2.082-1.552,3.346-3.335,3.814c-1.736,0.457-3.521,0.67-5.067,1.658
	C60.041,125.562,58.832,125.588,57.622,125.615"/>
<path fill="#E27E37" d="M37.84,102.83c0.305,0.648-0.186,0.898-0.593,1.189c-1.275,0.28-3.054,0.144-1.982,2.383
	c0.301,1.06,0.783,1.922,2.064,1.93c1.131,2.047,3.15,0.566,4.646,1.168c2.729,0.199,2.726,2.309,3.116,4.107
	c-1.313,1.057-3.347-4.295-4.166,0.799c-0.228,1.416-1.556-0.748-3.989-1.316c-3.221-0.752-3.609-5.949-7.547-3.709
	c-0.642-1.9,4.115-2.799,0.424-4.572c-1.637-0.787-3.956-0.147-5.159-2.449c2.655-1.471,5.297-0.664,7.847-0.743
	C34.059,102.999,36.132,102.109,37.84,102.83"/>
<path fill="#FCFCFC" d="M35.658,75.265c-0.283,0.656-0.564,1.312-0.848,1.968c-4.176-1.158-9.562-7.358-8.717-10.665
	c0.314-1.225,2.836-3.039,3.701-2.736c1.979,0.694,4.246,1.786,4.047,4.92C33.701,70.985,32.496,73.831,35.658,75.265"/>
<path fill="#FCFCFC" d="M50.245,107.969c1.421,0.58,3.148,0.082,3.233-1.094c0.401-5.602,4.055-2.707,6.585-2.758
	c1.282,0.074,2.562,0.149,3.992,0.232c-1.986,3.119-6.009,3.555-7.202,7.422c-0.768,2.488-7.565,2.441-8.85,0.156
	C46.767,109.725,50.418,109.838,50.245,107.969"/>
<path fill="#FCFCFC" d="M83.383,75.101c0.874-2.047,2.83-3.427,1.212-6.532c-1.03-1.977,2.096-4.533,4.442-4.833
	c1.888-0.241,1.708,2.358,1.812,3.869c0.28,3.993-3.228,8.673-7.016,9.575l0.091,0.164c0.469-0.476,0.419-0.888-0.149-1.237
	C83.644,75.772,83.514,75.436,83.383,75.101"/>
<path fill="#E27E37" d="M80.316,104.013c-0.337-1.157,0.17-1.914,1.163-2.44c1.514,1.342,3.04,1.021,4.573,0.04
	c2.021,1.087,3.949-0.632,6.07-0.139c1.574,0.366,2.524,0.942,2.433,2.397c-0.105,1.678-1.651,1.441-2.662,1.147
	c-2.885-0.841-4.4,0.011-4.45,3.106c-0.242,0.254-0.485,0.51-0.728,0.764c-1.445-0.465-4.084,0.183-2.71-2.905
	C83.73,103.545,81.634,104.506,80.316,104.013"/>
<path fill="#FCFCFC" d="M66.288,106.381c1.792,0.035,3.583,0.071,5.375,0.108c-0.532,0.981-1.642,2.055-1.503,2.929
	c0.994,6.242-3.706,3.566-6.21,3.92c-1.275,0.178-2.38-1.227-2.773-2.457c-0.555-1.736,1.312-1.416,2.114-2.023
	C64.324,108.077,65.292,107.211,66.288,106.381"/>
<path fill="#FCFCFC" d="M37.84,102.83c-1.708-0.721-3.781,0.169-5.34-1.214c0.135-4.79-3.297-9.427-0.631-14.329
	c0.537,0.096,1.074,0.191,1.611,0.287C32.652,93.312,34.311,98.338,37.84,102.83"/>
<path fill="#E27E37" d="M83.383,75.101c0.131,0.335,0.261,0.671,0.394,1.007c-0.433,0.47-0.53,0.9,0.148,1.236l-0.091-0.164
	c1.333,3.959,3.932,7.529,3.665,11.98c-2.853,0.294,0.423,3.955-2.355,4.288c-0.166-6.511-1.858-12.595-5.093-18.245
	c0.333-0.384,0.669-0.773,1.004-1.161C81.831,74.395,82.607,74.748,83.383,75.101"/>
<path fill="#FCFCFC" d="M85.145,93.448c2.777-0.333-0.498-3.993,2.354-4.288c1.027,4.323-1.574,8.227-1.449,12.45
	c-1.529,0.983-3.057,1.304-4.569-0.038C83.923,99.418,83.683,96.049,85.145,93.448"/>
<path fill="#FCFCFC" d="M76.185,109.643c-0.637-1.292,0.201-2.074,0.986-2.871c1.401,0.486,2.815,0.725,4.256,0.141
	c-0.881,2.404,3.422,1.588,2.498,4.02c-0.45-0.533-0.941-0.785-1.648-0.412c-0.46,0.244-0.478,0.367-0.028,0.65
	c0.693,0.441,1.186,0.057,1.692-0.338c-0.013,0.453-0.026,0.906-0.041,1.359l0.146-0.135c-1.582,0.445-3.164,0.891-4.742,1.336
	c-0.351-0.275-0.25-1.188-1.09-0.777c-1.074-0.953-3.008,1.004-3.654-0.951c-0.374-1.133,0.616-1.639,1.667-1.773
	c0.714,0.406,1.444,0.629,2.193,0.084c0.04-0.027,0.018-0.244-0.04-0.289C77.663,109.13,76.925,109.244,76.185,109.643"/>
<path fill="#FCFCFC" d="M66.725,61.698c-0.533,0.177-1.066,0.354-1.598,0.53c-3.931,0.816-8.308-1.859-11.96,1.631
	c-0.672,0.642-1.567-0.464-1.808-1.18c-0.451-1.348,0.773-1.137,1.446-1.135C57.446,61.559,62.085,61.639,66.725,61.698"/>
<path fill="#E27E37" d="M36.366,93.631c-0.923-3.504-1.099-6.903,0.171-10.238c0.343-0.9,0.653-2.158,1.905-1.335
	c0.602,0.394,1.611,1.489,0.673,2.431C36.541,87.066,37.174,90.535,36.366,93.631"/>
<path fill="#E27E37" d="M57.622,125.615c1.21-0.027,2.419-0.053,3.623-0.078c0.51,0.842,2.618,0.615,2.115,1.223
	c-1.067,1.289-2.902,1.828-4.775,1.527C56.606,127.969,56.632,126.979,57.622,125.615"/>
<path fill="#FCFCFC" d="M35.263,106.403c-1.069-2.241,0.709-2.103,1.984-2.383c1.671-0.103,3.056,0.391,3.928,1.921
	c-1.318,0.22-2.635,0.443-3.95,0.669C36.57,106.541,35.916,106.473,35.263,106.403"/>
<path fill="#FCFCFC" d="M41.974,109.5c-1.495-0.602-3.513,0.879-4.644-1.168c-0.035-0.432-0.069-0.865-0.104-1.299
	c1.603-0.057,3.204-0.115,4.807-0.172C42.483,107.752,43.304,108.65,41.974,109.5"/>
<path fill="#FCFCFC" d="M79.092,80.571c2.165,0.906,3.16,2.271,2.339,4.563C79.897,84.143,78.484,83.139,79.092,80.571"/>
<path fill="#FCFCFC" d="M80.316,104.013c1.317,0.493,3.414-0.468,3.689,1.971c-0.855,0.239-1.713,0.479-2.567,0.72
	c-1.051-0.75-2.875-0.187-3.327-1.959C78.846,104.5,79.581,104.256,80.316,104.013"/>
<path fill="#E27E37" d="M33.48,87.574c-0.537-0.095-1.074-0.191-1.611-0.287c-0.292-1.941,0.01-3.74,1.28-5.3
	c0.303,0.176,0.61,0.351,0.916,0.524C33.87,84.199,33.676,85.887,33.48,87.574"/>
<path fill="#E27E37" d="M78.11,104.744c0.453,1.771,2.278,1.209,3.328,1.96c-0.003,0.002,0.23,0.114,0.23,0.114
	s-0.238,0.102-0.24,0.098c-1.442,0.58-2.856,0.342-4.258-0.145C76.112,105.457,77.619,105.336,78.11,104.744"/>
<path fill="#E27E37" d="M42.033,106.861c-1.603,0.057-3.204,0.115-4.808,0.174c-0.001,0.002-0.18-0.211-0.18-0.211l0.179-0.215
	c1.316-0.224,2.632-0.449,3.95-0.668C41.795,105.939,42.233,106.101,42.033,106.861"/>
<path fill="#E27E37" d="M78.213,112.615c0.84-0.41,0.739,0.502,1.09,0.777c0.315,0.463,1.244,0.934,0.661,1.461
	c-1.072,0.967-2.273,0.18-2.879-0.645C76.418,113.305,77.556,112.975,78.213,112.615"/>
<path fill="#FCFCFC" d="M49.073,124.686c0.943-0.438,1.888-0.873,2.832-1.309l-0.188-0.139c0.006,0.756,0.391,1.133,1.145,1.141
	l-0.127-0.182c-0.948,1.986-2.439,0.062-3.604,0.498L49.073,124.686z"/>
<path fill="#E27E37" d="M76.185,109.643c0.74-0.398,1.479-0.513,2.194,0.043c0.058,0.045,0.08,0.262,0.04,0.289
	c-0.749,0.545-1.479,0.322-2.193-0.084c0.005,0-0.354-0.062-0.354-0.062L76.185,109.643z"/>
<path fill="#FCFCFC" d="M86.716,108.889c0.243-0.254,0.485-0.51,0.727-0.766c0.56,0.242,1.119,0.486,1.679,0.729
	C88.319,108.865,87.518,108.877,86.716,108.889"/>
<path fill="#FCFCFC" d="M83.9,112.191c0.454,0.234,1.23-0.129,1.339,0.717c0.007,0.053-0.262,0.215-0.393,0.201
	c-0.622-0.055-1.272-0.127-0.809-1.047C84.044,112.057,83.9,112.191,83.9,112.191"/>
<path fill="#E27E37" d="M83.94,110.832c-0.508,0.395-0.999,0.779-1.693,0.34c-0.448-0.285-0.432-0.408,0.028-0.652
	c0.708-0.375,1.199-0.121,1.648,0.412L83.94,110.832"/>
<polygon fill="#E27E37" points="34.415,116.205 34.208,116.207 34.312,116.604 "/>
<path fill="#E27E37" d="M73.269,88.412c0.295-0.517,0.632-1.548,1.17-1.131c0.872,0.676,0.589,1.627-0.447,2.188
	C73.751,89.117,73.51,88.764,73.269,88.412"/>
<path fill="#E27E37" d="M85.272,111.201c-0.107-0.066-0.214-0.129-0.321-0.195c0.124-0.16,0.247-0.32,0.371-0.482
	c0.103,0.121,0.292,0.248,0.284,0.361C85.598,110.998,85.392,111.096,85.272,111.201"/>
<path fill="#FCFCFC" d="M49.132,124.697c0.033-0.432,0.066-0.861,0.1-1.293c0.215,0.113,0.431,0.227,0.646,0.34
	c-0.266,0.314-0.529,0.629-0.8,0.941C49.072,124.686,49.132,124.697,49.132,124.697"/>
<path fill="#E27E37" d="M36.661,116.736c-0.116,0.102-0.231,0.205-0.348,0.307c-0.09-0.125-0.26-0.26-0.246-0.375
	c0.014-0.113,0.208-0.207,0.324-0.309C36.481,116.486,36.571,116.611,36.661,116.736"/>
<path fill="#050303" d="M131.595,90.177c0.46-0.662-2.585-4.763,1.553-4.589c3.508,0.146,2.541,4.005,2.625,6.51
	c0.081,2.406-0.543,5.598-3.096,5.255C130.523,97.064,130.301,93.813,131.595,90.177"/>
<path fill="#050303" d="M112.538,90.218c1.409-2.198-1.37-6.11,2.282-6.194c3.52-0.08,2.782,3.799,2.914,6.293
	c0.139,2.613-0.03,6.605-2.695,6.485C110.64,96.603,114.534,92.084,112.538,90.218"/>
<path fill="#050303" d="M239.725,101.383c0,0.828,0.271,1.785-0.052,2.457c-0.868,1.801-0.587,5.095-2.938,5.031
	c-2.665-0.072-2.697-3.072-2.712-5.314c-0.016-2.309-1.949-4.598,0.215-6.977c0.807-0.887,0.837-2.881,2.291-2.808
	c1.27,0.063,1.825,1.604,2.446,2.834C239.772,98.184,239.763,99.752,239.725,101.383"/>
<path fill="#050303" d="M52.863,124.379c-0.754-0.008-1.14-0.385-1.146-1.141C52.921,122.793,53.124,123.354,52.863,124.379"/>
<path fill="#050303" d="M37.225,106.609l-0.179,0.215c0,0,0.179,0.213,0.18,0.212c0.035,0.431,0.07,0.862,0.104,1.296
	c-1.28-0.008-1.765-0.87-2.064-1.93C35.916,106.473,36.57,106.541,37.225,106.609"/>
<path fill="#050303" d="M83.925,77.344c-0.678-0.336-0.58-0.766-0.149-1.236C84.345,76.457,84.395,76.869,83.925,77.344"/>
</svg>
