<?xml version="1.0" encoding="utf-8"?>
<!-- Generator: Adobe Illustrator 16.0.0, SVG Export Plug-In . SVG Version: 6.00 Build 0)  -->
<!DOCTYPE svg PUBLIC "-//W3C//DTD SVG 1.1//EN" "http://www.w3.org/Graphics/SVG/1.1/DTD/svg11.dtd">
<svg version="1.1" id="Layer_1" xmlns="http://www.w3.org/2000/svg" xmlns:xlink="http://www.w3.org/1999/xlink" x="0px" y="0px"
	 width="249px" height="255px" viewBox="0 0 249 255" enable-background="new 0 0 249 255" xml:space="preserve">
<path fill="#1B255E" d="M66.356,110.777c0,0-3.878-31.976-16.856,27.723c-5,23,16.137,62.502,17.5,65.5
	c1.363,2.999-24.637,18.907-26,14c-1.363-4.907-24.802-71.784-17.714-88.141c7.087-16.355,23.685-86.491,29.44-91.047
	c6.543-5.18,25.44-14.629,32.712-16.084c5.452-1.09,9.33,11.178,25.896,11.178c11.722,0,30.531-4.362,38.436-10.904
	c7.906-6.542,35.983,14.175,35.983,14.175s43.069,52.066,39.254,79.598c-3.815,27.532-5.724,102.77-11.449,105.768
	c-5.725,2.999-24.261,0.272-23.987-5.997c0.271-6.27,7.086-90.229,4.905-95.408c-2.181-5.18-10.903-19.082-13.084-23.444
	c-2.181-4.36,0,116.673,5.452,119.398c5.451,2.726-120.488,16.628-118.307-1.636C70.718,197.19,65.811,125.498,66.356,110.777"/>
<path fill="none" stroke="#000000" stroke-width="2" stroke-miterlimit="10" d="M66.356,110.777c0,0-3.878-31.976-16.856,27.723
	c-5,23,16.137,62.502,17.5,65.5c1.363,2.999-24.637,18.907-26,14c-1.363-4.907-24.802-71.784-17.714-88.141
	c7.087-16.355,23.685-86.491,29.44-91.047c6.543-5.18,25.44-14.629,32.712-16.084c5.452-1.09,9.33,11.178,25.896,11.178
	c11.722,0,30.531-4.362,38.436-10.904c7.906-6.542,35.983,14.175,35.983,14.175s43.069,52.066,39.254,79.598
	c-3.815,27.532-5.724,102.77-11.449,105.768c-5.725,2.999-24.261,0.272-23.987-5.997c0.271-6.27,7.086-90.229,4.905-95.408
	c-2.181-5.18-10.903-19.082-13.084-23.444c-2.181-4.36,0,116.673,5.452,119.398c5.451,2.726-120.488,16.628-118.307-1.636
	C70.718,197.19,65.811,125.498,66.356,110.777z"/>
<path fill="#F40B0B" d="M101.833,72.342c-2.158,0.316-1.363,6.542,0,7.36c1.363,0.817,3.271-3.816,3.816,0.545
	c0.546,4.362,2.726,39.254,2.726,43.07c0,2.84-2.716,2.963-4.106,2.84c-0.606-0.055-1.203,0.171-1.634,0.599
	c-0.853,0.848-1.725,2.193,0.834,2.559c2.681,0.383,13.165,0.362,19.165,0.316c1.751-0.014,2.716-2.033,1.634-3.409
	c-0.232-0.296-0.539-0.523-0.889-0.66l-4.571-1.788c-0.72-0.282-1.227-0.928-1.323-1.694c-0.62-4.982-2.742-23.295-0.387-23.295
	c2.726,0,24.715,5.106,25.078-6.543C142.723,74.795,142.723,66.345,101.833,72.342 M135.635,87.062
	c-1.637,8.996-14.993,5.997-18.809,5.997c-3.816,0-4.879-15.847-1.636-16.355C129.955,74.388,136.761,80.867,135.635,87.062"/>
<path fill="none" d="M101.833,72.342c-2.158,0.316-1.363,6.542,0,7.36c1.363,0.817,3.271-3.816,3.816,0.545
	c0.546,4.362,2.726,39.254,2.726,43.07c0,2.84-2.716,2.963-4.106,2.84c-0.606-0.055-1.203,0.171-1.634,0.599
	c-0.853,0.848-1.725,2.193,0.834,2.559c2.681,0.383,13.165,0.362,19.165,0.316c1.751-0.014,2.716-2.033,1.634-3.409
	c-0.232-0.296-0.539-0.523-0.889-0.66l-4.571-1.788c-0.72-0.282-1.227-0.928-1.323-1.694c-0.62-4.982-2.742-23.295-0.387-23.295
	c2.726,0,24.715,5.106,25.078-6.543C142.723,74.795,142.723,66.345,101.833,72.342z M135.635,87.062
	c-1.637,8.996-14.993,5.997-18.809,5.997c-3.816,0-4.879-15.847-1.636-16.355C129.955,74.388,136.761,80.867,135.635,87.062z"/>
</svg>
