<?xml version="1.0" encoding="utf-8"?>
<!-- Generator: Adobe Illustrator 16.0.0, SVG Export Plug-In . SVG Version: 6.00 Build 0)  -->
<!DOCTYPE svg PUBLIC "-//W3C//DTD SVG 1.1//EN" "http://www.w3.org/Graphics/SVG/1.1/DTD/svg11.dtd">
<svg version="1.1" xmlns="http://www.w3.org/2000/svg" xmlns:xlink="http://www.w3.org/1999/xlink" x="0px" y="0px" width="900px"
	 height="280px" viewBox="0 0 900 280" enable-background="new 0 0 900 280" xml:space="preserve">
<g id="Layer_2">
</g>
<g id="Layer_1">
	<text transform="matrix(1 0 0 1 360.9209 92.7378)"><tspan x="0" y="0" fill="#A7A9AC" font-family="'Futura-Medium'" font-size="60">PENN </tspan><tspan x="47.314" y="72" fill="#A7A9AC" font-family="'Futura-Medium'" font-size="60">vs. </tspan><tspan x="-41.704" y="144" fill="#A7A9AC" font-family="'Futura-Medium'" font-size="60">CORNELL</tspan></text>
	<g>
		<path fill="#D81518" d="M883.349,130.653c0,4.277,0,8.555,0,12.832c-0.259,2.979-0.492,5.96-0.781,8.937
			c-1.501,15.468-4.452,30.653-9.114,45.483c-0.908,2.89-2.209,5.659-3.373,8.466c-0.48,1.155-1.312,1.694-2.68,1.574
			c-1.67-0.146-3.363-0.06-5.047-0.042c-10.105,0.104-20.182,0.564-30.099,2.742c-4.835,1.062-9.073,3.087-12.771,6.572
			c-7.316,6.898-15.165,13.186-23.469,18.88c-6.878,4.717-14.07,8.843-21.961,11.666c-9.734,3.483-19.805,3.503-29.79,2.153
			c-16.096-2.176-27.672-11.021-34.818-25.571c-3.015-6.137-4.253-12.719-4.214-19.553c0.012-2.02-0.111-4.04-0.174-6.104
			c-3.909,0.23-7.584,0.48-11.262,0.644c-0.971,0.043-1.373,0.357-1.643,1.327c-3.242,11.702-7.15,23.16-12.417,34.135
			c-3.944,8.222-10.034,14.112-18.345,17.859c-9.668,4.36-19.616,7.911-29.833,10.721c-5.466,1.503-10.899,3.311-16.7,2.673
			c-0.789-0.088-1.799-0.382-2.242-0.945c-0.931-1.185-1.553-2.611-2.301-3.938c0-0.819,0-1.639,0-2.458
			c0.744-2.495,2.362-4.061,4.959-4.447c1.164-0.174,1.367-0.746,1.365-1.822c-0.035-15.742-0.024-31.484-0.024-47.227
			c0-0.446,0-0.894,0-1.452c-2.107-0.132-3.788-0.901-4.841-2.716c-2.502-4.311,0.305-9.767,5.271-10.086
			c9.124-0.587,18.253-1.086,27.38-1.615c12.033-0.697,24.065-1.42,36.103-2.038c1.447-0.074,1.893-0.604,2.15-1.905
			c1.983-10.072,4.044-20.13,6.047-30.198c0.573-2.884,0.526-2.903-2.127-4.242c-7.671-3.872-15.95-5.44-24.389-6.375
			c-2.377-0.264-4.766-0.417-7.193-0.624c-0.05-0.595-0.111-1.09-0.131-1.587c-0.421-10.281,0.438-20.448,2.85-30.46
			c6.132-25.456,19.512-46.324,40.07-62.487c16.352-12.854,34.968-20.417,55.647-22.833c2.432-0.283,4.868-0.521,7.303-0.781
			c4.368,0,8.737,0,13.105,0c0.443,0.074,0.884,0.182,1.33,0.216c3.809,0.287,7.628,0.47,11.425,0.854
			c13.047,1.32,25.729,4.183,37.835,9.316c19.821,8.405,35.196,21.798,45.419,40.861c7.842,14.623,11.578,30.404,12.931,46.832
			C882.987,126.143,883.166,128.398,883.349,130.653z M629.502,203.013c0,15.928,0,31.696,0,47.526
			c0.334-0.044,0.615-0.033,0.861-0.12c7.41-2.595,14.861-5.084,22.213-7.835c7.569-2.832,13.344-7.619,16.684-15.292
			c3.765-8.651,6.699-17.56,9.334-26.59c0.033-0.11-0.023-0.246-0.053-0.499C662.219,201.139,645.924,202.071,629.502,203.013z
			 M787.355,167.588c0.029-10.104-8.162-18.332-18.266-18.347c-10.088-0.015-18.334,8.199-18.355,18.284
			c-0.022,10.04,8.146,18.28,18.156,18.314C779.147,185.875,787.327,177.79,787.355,167.588z M699.715,167.117
			c-1.332,6.59-2.6,12.867-3.895,19.275c2.771-0.156,5.419-0.306,8.174-0.461C703.146,179.513,701.968,173.354,699.715,167.117z"/>
		<g>
			<path fill-rule="evenodd" clip-rule="evenodd" d="M827.558,48.996c1.358,1.466,2.702,2.944,4.077,4.393
				c3.066,3.229,6.152,6.438,9.215,9.669c0.195,0.206,0.354,0.546,0.354,0.824c0.02,5.679,0.014,11.357,0.011,17.036
				c0,0.083-0.033,0.166-0.061,0.294c-9.332,0-18.662,0-28.094,0c0-2.883,0-5.774,0-8.715c-4.979,0-9.857,0-14.804,0
				c0,15.056,0,30.094,0,45.181c4.895,0,9.776,0,14.747,0c0-3.473,0-6.953,0-10.5c9.436,0,18.781,0,28.215,0
				c0,0.773,0,1.523,0,2.272c0,5.532,0.01,11.065-0.021,16.598c-0.002,0.404-0.197,0.926-0.487,1.193
				c-4.507,4.166-9.062,8.278-13.559,12.455c-0.942,0.875-1.869,1.295-3.208,1.289c-12.963-0.058-25.928-0.039-38.891-0.021
				c-0.639,0.001-1.074-0.186-1.52-0.635c-4.27-4.301-8.554-8.585-12.854-12.854c-0.467-0.463-0.68-0.918-0.679-1.59
				c0.019-20.85,0.018-41.699,0.001-62.549c-0.001-0.615,0.199-1.028,0.629-1.432c4.326-4.062,8.641-8.136,12.955-12.211
				c0.225-0.213,0.412-0.465,0.617-0.698C798.654,48.996,813.105,48.996,827.558,48.996z M838.694,78.64
				c0.022-0.185,0.048-0.297,0.048-0.409c0.004-4.429,0.015-8.856-0.018-13.284c-0.003-0.349-0.242-0.766-0.496-1.03
				c-3.751-3.9-7.529-7.773-11.282-11.673c-0.438-0.455-0.878-0.641-1.517-0.639c-13.08,0.019-26.16,0.019-39.24-0.001
				c-0.637-0.001-1.079,0.19-1.529,0.619c-3.814,3.629-7.656,7.229-11.462,10.867c-0.293,0.279-0.536,0.777-0.536,1.174
				c-0.025,20.237-0.025,40.475-0.002,60.712c0,0.404,0.213,0.908,0.497,1.196c3.87,3.916,7.764,7.808,11.677,11.68
				c0.271,0.27,0.741,0.48,1.119,0.481c12.695,0.024,25.391,0.023,38.086,0.005c0.367-0.001,0.824-0.13,1.09-0.367
				c4.354-3.901,8.68-7.833,13.023-11.746c0.416-0.375,0.611-0.761,0.607-1.346c-0.025-4.748-0.013-9.496-0.016-14.245
				c0-0.278-0.025-0.557-0.039-0.831c-7.723,0-15.361,0-23.061,0c0,3.521,0,6.979,0,10.467c-6.711,0-13.363,0-20.031,0
				c0-16.817,0-33.583,0-50.345c6.699,0,13.352,0,20.083,0c0,2.926,0,5.797,0,8.715C823.388,78.64,831.001,78.64,838.694,78.64z"/>
			<path fill-rule="evenodd" clip-rule="evenodd" fill="none" d="M838.694,78.64c-7.693,0-15.307,0-22.998,0
				c0-2.918,0-5.789,0-8.715c-6.731,0-13.384,0-20.083,0c0,16.762,0,33.527,0,50.345c6.668,0,13.32,0,20.031,0
				c0-3.488,0-6.946,0-10.467c7.699,0,15.338,0,23.061,0c0.014,0.274,0.039,0.553,0.039,0.831c0.003,4.749-0.01,9.497,0.016,14.245
				c0.004,0.585-0.191,0.971-0.607,1.346c-4.344,3.913-8.67,7.845-13.023,11.746c-0.266,0.237-0.723,0.366-1.09,0.367
				c-12.695,0.019-25.391,0.02-38.086-0.005c-0.378-0.001-0.848-0.212-1.119-0.481c-3.913-3.872-7.807-7.764-11.677-11.68
				c-0.284-0.288-0.497-0.792-0.497-1.196c-0.023-20.237-0.023-40.475,0.002-60.712c0-0.396,0.243-0.895,0.536-1.174
				c3.806-3.638,7.647-7.238,11.462-10.867c0.45-0.429,0.893-0.62,1.529-0.619c13.08,0.02,26.16,0.02,39.24,0.001
				c0.639-0.002,1.078,0.184,1.517,0.639c3.753,3.899,7.531,7.772,11.282,11.673c0.254,0.265,0.493,0.682,0.496,1.03
				c0.032,4.428,0.021,8.855,0.018,13.284C838.742,78.343,838.717,78.455,838.694,78.64z M816.596,110.681c0,3.58,0,7.054,0,10.516
				c-7.39,0-14.65,0-21.977,0c0-0.333,0-0.591,0-0.849c-0.002-16.827,0.002-33.654-0.021-50.481
				c-0.001-0.773,0.215-0.975,0.983-0.97c5.27,0.034,10.54,0.017,15.809,0.017c1.709,0,3.418,0,5.247,0c0,2.967,0,5.831,0,8.719
				c7.099,0,14.073,0,21.073,0c0.035-0.191,0.085-0.331,0.085-0.471c0.002-3.96,0.008-7.919-0.022-11.878
				c-0.002-0.305-0.195-0.672-0.414-0.899c-3.631-3.775-7.269-7.543-10.939-11.278c-0.299-0.304-0.842-0.518-1.272-0.519
				c-12.868-0.028-25.735-0.03-38.604,0c-0.487,0.002-1.083,0.253-1.442,0.586c-3.602,3.345-7.146,6.751-10.756,10.087
				c-0.599,0.553-0.815,1.077-0.813,1.865c0.021,11.233,0.014,22.468,0.014,33.702c0,8.499-0.007,16.998,0.022,25.496
				c0.002,0.467,0.172,1.061,0.483,1.378c3.696,3.756,7.427,7.479,11.179,11.18c0.305,0.301,0.834,0.504,1.267,0.52
				c1.716,0.058,3.436,0.023,5.153,0.023c10.627,0,21.253,0.003,31.879-0.013c0.371-0.001,0.842-0.083,1.1-0.312
				c4.228-3.776,8.436-7.575,12.62-11.399c0.295-0.269,0.52-0.778,0.522-1.178c0.038-4.309,0.008-8.618,0.043-12.927
				c0.006-0.741-0.217-0.934-0.938-0.929c-4.514,0.029-9.027,0.015-13.541,0.015C821.154,110.681,818.973,110.681,816.596,110.681z"
				/>
			<path fill-rule="evenodd" clip-rule="evenodd" fill="#FFFFFF" d="M816.596,110.681c2.377,0,4.559,0,6.74,0
				c4.514,0,9.027,0.015,13.541-0.015c0.721-0.005,0.943,0.188,0.938,0.929c-0.035,4.309-0.005,8.618-0.043,12.927
				c-0.003,0.399-0.228,0.909-0.522,1.178c-4.185,3.824-8.393,7.623-12.62,11.399c-0.258,0.229-0.729,0.312-1.1,0.312
				c-10.626,0.016-21.252,0.013-31.879,0.013c-1.718,0-3.438,0.034-5.153-0.023c-0.433-0.016-0.962-0.219-1.267-0.52
				c-3.752-3.7-7.482-7.424-11.179-11.18c-0.312-0.317-0.481-0.911-0.483-1.378c-0.029-8.498-0.022-16.997-0.022-25.496
				c0-11.234,0.008-22.469-0.014-33.702c-0.002-0.788,0.215-1.312,0.813-1.865c3.609-3.336,7.154-6.742,10.756-10.087
				c0.359-0.333,0.955-0.584,1.442-0.586c12.868-0.03,25.735-0.028,38.604,0c0.431,0.001,0.974,0.215,1.272,0.519
				c3.671,3.735,7.309,7.503,10.939,11.278c0.219,0.228,0.412,0.595,0.414,0.899c0.03,3.959,0.024,7.918,0.022,11.878
				c0,0.14-0.05,0.279-0.085,0.471c-7,0-13.975,0-21.073,0c0-2.888,0-5.752,0-8.719c-1.829,0-3.538,0-5.247,0
				c-5.269,0-10.539,0.018-15.809-0.017c-0.769-0.005-0.984,0.196-0.983,0.97c0.022,16.827,0.019,33.654,0.021,50.481
				c0,0.258,0,0.516,0,0.849c7.326,0,14.587,0,21.977,0C816.596,117.734,816.596,114.261,816.596,110.681z"/>
		</g>
	</g>
	<path fill-rule="evenodd" clip-rule="evenodd" fill="#034D8E" d="M-1760.96,1582.755c0,11.062-0.347,22.187,0.136,33.274
		c0.271,6.221,5.274,10.435,12.312,11.945c2.103,0.451,4.242,0.727,6.734,1.145c0,6.115,0,12.305,0,18.682
		c-24.469,0-48.742,0-73.406,0c0-6.129,0-12.19,0-18.609c1.338-0.292,2.908-0.61,4.465-0.979c7.822-1.848,12.51-7.216,13.814-15.176
		c0.376-2.298,1.357-4.776,2.805-6.574c11.059-13.745,22.22-27.411,33.59-40.899c1.457-1.729,4.268-3.165,6.508-3.251
		c15.828-0.608,22.58-8.921,19.674-24.473c-0.315-1.686-0.02-4.052,0.98-5.326c6.781-8.631,13.828-17.055,21.022-25.83
		c5.321,3.871,8.167,9.253,10.125,15.065c3.035,9.013,3.347,18.37,1.639,27.624c-3.327,18.02-14.758,28.686-33.933,31.414
		C-1743.159,1582.021-1751.984,1582.123-1760.96,1582.755z"/>
	<path fill-rule="evenodd" clip-rule="evenodd" fill="#B30B3A" d="M-1740.238,1525.967c-7.525-0.505-13.883-0.932-20.954-1.406
		c0,9.12,0.259,17.553-0.137,25.956c-0.144,3.073-1.2,6.515-2.934,9.036c-9.79,14.244-19.91,28.261-29.926,42.35
		c-0.555,0.779-1.176,1.512-2.602,3.333c0-2.574,0-3.954,0-5.333c0-21.812,0.002-43.623-0.001-65.435
		c-0.001-12.421-4.079-17.038-16.403-18.604c-0.646-0.082-1.283-0.216-2.065-0.349c0-6.536,0-12.969,0-20.182
		c30.974,2.3,62.008-3.201,93.688,4.191C-1728.445,1509.262-1734.614,1518-1740.238,1525.967z"/>
	<path fill-rule="evenodd" clip-rule="evenodd" fill="#034D8E" d="M-1535.626,1512.196c0,11.062-0.347,22.187,0.136,33.274
		c0.271,6.221,5.274,10.435,12.312,11.945c2.103,0.451,4.242,0.727,6.734,1.145c0,6.115,0,12.305,0,18.682
		c-24.469,0-48.742,0-73.406,0c0-6.129,0-12.19,0-18.609c1.338-0.292,2.908-0.61,4.465-0.979c7.822-1.848,12.51-7.216,13.814-15.176
		c0.376-2.298,1.357-4.776,2.805-6.574c11.059-13.745,22.22-27.411,33.59-40.899c1.457-1.729,4.268-3.165,6.508-3.251
		c15.828-0.608,22.58-8.921,19.674-24.473c-0.315-1.686-0.02-4.052,0.98-5.326c6.781-8.631,13.828-17.055,21.022-25.83
		c5.321,3.871,8.167,9.253,10.125,15.065c3.035,9.013,3.347,18.37,1.639,27.624c-3.327,18.02-14.758,28.686-33.933,31.414
		C-1517.825,1511.462-1526.65,1511.564-1535.626,1512.196z"/>
	<path fill-rule="evenodd" clip-rule="evenodd" fill="#B30B3A" d="M-1514.904,1455.408c-7.525-0.505-13.883-0.932-20.954-1.406
		c0,9.12,0.259,17.553-0.137,25.956c-0.144,3.073-1.2,6.515-2.934,9.036c-9.79,14.244-19.91,28.261-29.926,42.35
		c-0.555,0.779-1.176,1.512-2.602,3.333c0-2.574,0-3.954,0-5.333c0-21.812,0.002-43.623-0.001-65.435
		c-0.001-12.421-4.079-17.038-16.403-18.604c-0.646-0.082-1.283-0.216-2.065-0.349c0-6.536,0-12.969,0-20.182
		c30.974,2.3,62.008-3.201,93.688,4.191C-1503.111,1438.703-1509.28,1447.441-1514.904,1455.408z"/>
	
		<image overflow="visible" width="200" height="200" xlink:href="../../../../Users/dpstaff/Downloads/13952.gif"  transform="matrix(1 0 0 1 -1716.9902 1412.1455)">
	</image>
	<g>
		<path fill="#004A8D" d="M17.518,123.886c1.353-16.428,5.089-32.209,12.93-46.832c10.224-19.063,25.599-32.456,45.42-40.861
			c12.106-5.134,24.788-7.996,37.834-9.316c3.799-0.384,7.617-0.566,11.426-0.854c0.446-0.034,0.887-0.142,1.33-0.216
			c4.368,0,8.736,0,13.105,0c2.435,0.26,4.871,0.498,7.303,0.781c20.68,2.416,39.296,9.979,55.647,22.833
			c20.559,16.163,33.938,37.031,40.071,62.487c2.412,10.012,3.27,20.179,2.85,30.459c-0.021,0.497-0.082,0.992-0.133,1.587
			c-2.426,0.207-4.815,0.36-7.192,0.624c-8.438,0.935-16.718,2.503-24.39,6.375c-2.652,1.339-2.699,1.358-2.126,4.242
			c2.003,10.068,4.063,20.126,6.048,30.198c0.256,1.302,0.703,1.831,2.15,1.905c12.037,0.618,24.068,1.341,36.102,2.038
			c9.127,0.529,18.256,1.028,27.379,1.615c4.968,0.319,7.775,5.775,5.272,10.086c-1.054,1.814-2.733,2.584-4.841,2.716
			c0,0.559,0,1.006,0,1.452c0,15.742,0.012,31.484-0.024,47.227c-0.002,1.076,0.202,1.648,1.365,1.822
			c2.597,0.387,4.215,1.952,4.96,4.447c0,0.819,0,1.639,0,2.458c-0.749,1.327-1.371,2.754-2.301,3.938
			c-0.443,0.563-1.454,0.857-2.244,0.945c-5.8,0.638-11.232-1.17-16.699-2.673c-10.217-2.81-20.164-6.36-29.833-10.721
			c-8.31-3.747-14.399-9.638-18.345-17.859c-5.266-10.975-9.175-22.433-12.418-34.135c-0.268-0.97-0.671-1.284-1.641-1.327
			c-3.679-0.163-7.354-0.413-11.264-0.644c-0.062,2.064-0.184,4.085-0.172,6.104c0.038,6.834-1.199,13.416-4.215,19.553
			c-7.146,14.55-18.723,23.396-34.817,25.571c-9.986,1.35-20.056,1.33-29.79-2.153c-7.892-2.823-15.084-6.949-21.962-11.666
			c-8.304-5.694-16.151-11.981-23.469-18.88c-3.696-3.485-7.936-5.51-12.771-6.572c-9.917-2.178-19.992-2.638-30.099-2.742
			c-1.683-0.018-3.376-0.104-5.046,0.042c-1.367,0.12-2.201-0.419-2.68-1.574c-1.164-2.807-2.465-5.576-3.374-8.466
			c-4.661-14.83-7.613-30.016-9.114-45.483c-0.289-2.977-0.522-5.958-0.781-8.937c0-4.277,0-8.554,0-12.832
			C17.152,128.397,17.332,126.141,17.518,123.886z M221.779,200.201c-0.03,0.253-0.086,0.389-0.055,0.499
			c2.637,9.03,5.57,17.938,9.336,26.59c3.339,7.673,9.113,12.46,16.683,15.292c7.353,2.751,14.803,5.24,22.213,7.835
			c0.247,0.087,0.527,0.076,0.861,0.12c0-15.83,0-31.599,0-47.526C254.396,202.069,238.102,201.137,221.779,200.201z
			 M131.43,185.838c10.008-0.034,18.178-8.274,18.156-18.314c-0.023-10.085-8.269-18.299-18.355-18.284
			c-10.104,0.015-18.295,8.242-18.267,18.347C112.992,177.788,121.172,185.873,131.43,185.838z M196.326,185.93
			c2.754,0.155,5.401,0.305,8.174,0.461c-1.295-6.408-2.562-12.686-3.895-19.275C198.352,173.352,197.174,179.511,196.326,185.93z"
			/>
		
			<image overflow="visible" width="299" height="380" xlink:href="../../../../Users/dpstaff/Downloads/penn2.png"  transform="matrix(0.2325 0 0 0.2325 59.54 51.5581)">
		</image>
	</g>
	<text transform="matrix(1 0 0 1 356.9238 88.7485)"><tspan x="0" y="0" font-family="'Futura-Medium'" font-size="60">PENN </tspan><tspan x="47.314" y="72" font-family="'Futura-Medium'" font-size="60">vs. </tspan><tspan x="-41.704" y="144" font-family="'Futura-Medium'" font-size="60">CORNELL</tspan></text>
</g>
</svg>
