<?xml version="1.0" encoding="utf-8"?>
<!-- Generator: Adobe Illustrator 16.0.0, SVG Export Plug-In . SVG Version: 6.00 Build 0)  -->
<!DOCTYPE svg PUBLIC "-//W3C//DTD SVG 1.1//EN" "http://www.w3.org/Graphics/SVG/1.1/DTD/svg11.dtd">
<svg version="1.1" id="Layer_1" xmlns="http://www.w3.org/2000/svg" xmlns:xlink="http://www.w3.org/1999/xlink" x="0px" y="0px"
	 width="748px" height="328px" viewBox="0 0 748 328" enable-background="new 0 0 748 328" xml:space="preserve">
<image overflow="visible" width="884" height="402" xlink:href="../../../../Users/dpstaff/Desktop/Screen Shot 2015-11-19 at 8.23.49 PM.png"  transform="matrix(0.4835 0 0 0.4835 1034.084 -217.876)">
</image>
<text transform="matrix(1 0 0 1 379.25 455.75)"><tspan x="0" y="0" font-family="'MyriadPro-Regular'" font-size="12">Lehigh</tspan><tspan x="0" y="28.8" font-family="'MyriadPro-Regular'" font-size="12">Villanova </tspan><tspan x="0" y="57.6" font-family="'MyriadPro-Regular'" font-size="12">Dartmouth</tspan><tspan x="0" y="86.4" font-family="'MyriadPro-Regular'" font-size="12">Fordham</tspan><tspan x="0" y="115.2" font-family="'MyriadPro-Regular'" font-size="12">Columbia</tspan><tspan x="0" y="144" font-family="'MyriadPro-Regular'" font-size="12">Yale</tspan><tspan x="0" y="172.8" font-family="'MyriadPro-Regular'" font-size="12">Brown</tspan><tspan x="0" y="201.6" font-family="'MyriadPro-Regular'" font-size="12">Princeton</tspan><tspan x="0" y="230.4" font-family="'MyriadPro-Regular'" font-size="12">Harvard</tspan></text>
<text transform="matrix(1 0 0 1 473.25 455.75)"><tspan x="0" y="0" font-family="'MyriadPro-Regular'" font-size="12">42 - 21 (L)</tspan><tspan x="0" y="28.8" font-family="'MyriadPro-Regular'" font-size="12">24 - 13 (W)</tspan><tspan x="0" y="57.6" font-family="'MyriadPro-Regular'" font-size="12">41 - 20 (L)</tspan><tspan x="0" y="86.4" font-family="'MyriadPro-Regular'" font-size="12">48 - 45 (L)</tspan><tspan x="0" y="115.2" font-family="'MyriadPro-Regular'" font-size="12">42 - 7 (W)</tspan><tspan x="0" y="144" font-family="'MyriadPro-Regular'" font-size="12">34 - 20 (W)</tspan><tspan x="0" y="172.8" font-family="'MyriadPro-Regular'" font-size="12">48 - 28 (W)</tspan><tspan x="0" y="201.6" font-family="'MyriadPro-Regular'" font-size="12">26 - 23 (W - OVERTIME)</tspan><tspan x="0" y="230.4" font-family="'MyriadPro-Regular'" font-size="12">35 - 25 (W)</tspan></text>
<g>
	<text transform="matrix(1 0 0 1 159.3311 -69.5498)"><tspan x="0" y="0" font-family="'AbrilFatface-Regular'" font-size="16">Dartmouth</tspan><tspan x="0" y="37.2" font-family="'Futura-CondensedMedium'" font-size="15">41 - 20 (L)</tspan></text>
</g>
<g>
	<text transform="matrix(1 0 0 1 264.7886 -69.5498)"><tspan x="0" y="0" font-family="'AbrilFatface-Regular'" font-size="16">Fordham</tspan><tspan x="0" y="37.2" font-family="'Futura-CondensedMedium'" font-size="15">48 - 45 (L)</tspan></text>
</g>
<g>
	<text transform="matrix(1 0 0 1 354.063 -69.5498)"><tspan x="0" y="0" font-family="'AbrilFatface-Regular'" font-size="16">Columbia</tspan><tspan x="0" y="37.2" font-family="'Futura-CondensedMedium'" font-size="15">42 - 7 (W)</tspan></text>
</g>
<g>
	<text transform="matrix(1 0 0 1 445.8887 -69.5498)"><tspan x="0" y="0" font-family="'AbrilFatface-Regular'" font-size="16">Yale</tspan><tspan x="0" y="37.2" font-family="'Futura-CondensedMedium'" font-size="15">34 - 20 (W)</tspan></text>
</g>
<g>
	<text transform="matrix(1 0 0 1 517.2256 -69.5498)"><tspan x="0" y="0" font-family="'AbrilFatface-Regular'" font-size="16">Brown</tspan><tspan x="0" y="37.2" font-family="'Futura-CondensedMedium'" font-size="15">48 - 28 (W)</tspan></text>
</g>
<g>
	<text transform="matrix(1 0 0 1 593.5645 -69.5498)"><tspan x="0" y="0" font-family="'AbrilFatface-Regular'" font-size="16">Princeton</tspan><tspan x="0" y="37.2" font-family="'Futura-CondensedMedium'" font-size="15">26 - 23 (W )</tspan></text>
</g>
<g>
	<text transform="matrix(1 0 0 1 692.0342 -69.5498)"><tspan x="0" y="0" font-family="'AbrilFatface-Regular'" font-size="16">Harvard</tspan><tspan x="0" y="37.2" font-family="'Futura-CondensedMedium'" font-size="15">35 - 25 (W)</tspan></text>
</g>
<g>
	<text transform="matrix(1 0 0 1 784.0283 -69.5498)"><tspan x="0" y="0" font-family="'AbrilFatface-Regular'" font-size="16">Harvard</tspan><tspan x="0" y="37.2" font-family="'Futura-CondensedMedium'" font-size="15">35 - 25 (W)</tspan></text>
</g>
<text transform="matrix(1 0 0 1 -8.9692 -69.5498)"><tspan x="0" y="0" font-family="'AbrilFatface-Regular'" font-size="16">Lehigh</tspan><tspan x="0" y="37.2" font-family="'Futura-CondensedMedium'" font-size="15">42 - 21 (L)</tspan></text>
<text transform="matrix(1 0 0 1 66.0249 -69.5498)"><tspan x="0" y="0" font-family="'AbrilFatface-Regular'" font-size="16">Villanova</tspan><tspan x="0" y="37.2" font-family="'Futura-CondensedMedium'" font-size="15">24 - 13 (W)</tspan></text>
<text transform="matrix(1 0 0 1 -32.5 497.4502)"><tspan x="0" y="0" font-family="'AbrilFatface-Regular'" font-size="16">Lehigh</tspan><tspan x="0" y="37.2" font-family="'Futura-CondensedMedium'" font-size="15">42 - 21 </tspan><tspan x="36.826" y="37.2" fill="#F14950" font-family="'Futura-CondensedMedium'" font-size="15">(L)</tspan></text>
<text transform="matrix(1 0 0 1 42.4941 497.4502)"><tspan x="0" y="0" font-family="'AbrilFatface-Regular'" font-size="16">Villanova</tspan><tspan x="0" y="37.2" font-family="'Futura-CondensedMedium'" font-size="15">24 - 13 </tspan><tspan x="36.826" y="37.2" fill="#33B874" font-family="'Futura-CondensedMedium'" font-size="15">(W)</tspan></text>
<g>
	<g>
		<text transform="matrix(1 0 0 1 540.9229 141.4751)"><tspan x="0" y="0" fill="#FFFFFF" font-family="'Futura-Medium'" font-size="20">Fordham</tspan><tspan x="6.489" y="48" fill="#FFFFFF" font-family="'Futura-CondensedMedium'" font-size="20">48 - 45 </tspan><tspan x="55.591" y="48" fill="#F14950" font-family="'Futura-CondensedMedium'" font-size="20">(L)</tspan></text>
	</g>
	<g>
		<g>
			<text transform="matrix(1 0 0 1 25.1152 254.4746)"><tspan x="0" y="0" fill="#FFFFFF" font-family="'Futura-Medium'" font-size="20">Dartmouth</tspan><tspan x="13.589" y="48" fill="#FFFFFF" font-family="'Futura-CondensedMedium'" font-size="20">41 - 20 </tspan><tspan x="62.69" y="48" fill="#F14950" font-family="'Futura-CondensedMedium'" font-size="20">(L)</tspan></text>
		</g>
		<g>
			<text transform="matrix(1 0 0 1 145.8179 254.4746)"><tspan x="0" y="0" fill="#FFFFFF" font-family="'Futura-Medium'" font-size="20">Columbia</tspan><tspan x="11.143" y="48" fill="#FFFFFF" font-family="'Futura-CondensedMedium'" font-size="20">42 - 7 </tspan><tspan x="51.963" y="48" fill="#33B874" font-family="'Futura-CondensedMedium'" font-size="20">(W)</tspan></text>
		</g>
		<g>
			<text transform="matrix(1 0 0 1 266.9717 254.4746)"><tspan x="0" y="0" fill="#FFFFFF" font-family="'Futura-Medium'" font-size="20">Yale</tspan><tspan x="-16.328" y="48" fill="#FFFFFF" font-family="'Futura-CondensedMedium'" font-size="20">34 - 20 </tspan><tspan x="32.773" y="48" fill="#33B874" font-family="'Futura-CondensedMedium'" font-size="20">(W)</tspan></text>
		</g>
		<g>
			<text transform="matrix(1 0 0 1 349.4419 254.4746)"><tspan x="0" y="0" fill="#FFFFFF" font-family="'Futura-Medium'" font-size="20">Brown</tspan><tspan x="-7.461" y="48" fill="#FFFFFF" font-family="'Futura-CondensedMedium'" font-size="20">48 - 28 </tspan><tspan x="41.64" y="48" fill="#33B874" font-family="'Futura-CondensedMedium'" font-size="20">(W)</tspan></text>
		</g>
		<g>
			<text transform="matrix(1 0 0 1 433.0322 254.4746)"><tspan x="0" y="0" fill="#FFFFFF" font-family="'Futura-Medium'" font-size="20">Princeton</tspan><tspan x="5.293" y="48" fill="#FFFFFF" font-family="'Futura-CondensedMedium'" font-size="20">26 - 23 </tspan><tspan x="54.395" y="48" fill="#33B874" font-family="'Futura-CondensedMedium'" font-size="20">(W)</tspan></text>
		</g>
		<g>
			<text transform="matrix(1 0 0 1 543.3154 254.4746)"><tspan x="0" y="0" fill="#FFFFFF" font-family="'Futura-Medium'" font-size="20">Harvard</tspan><tspan x="1.479" y="48" fill="#FFFFFF" font-family="'Futura-CondensedMedium'" font-size="20">35 - 25 </tspan><tspan x="50.581" y="48" fill="#33B874" font-family="'Futura-CondensedMedium'" font-size="20">(W)</tspan></text>
		</g>
		<g>
			<text transform="matrix(1 0 0 1 652.3887 254.4746)"><tspan x="0" y="0" fill="#FFFFFF" font-family="'Futura-Medium'" font-size="20">Cornell</tspan><tspan x="-3.594" y="48" fill="#FFFFFF" font-family="'Futura-CondensedMedium'" font-size="20">34 - 21 </tspan><tspan x="45.508" y="48" fill="#33B874" font-family="'Futura-CondensedMedium'" font-size="20">(W)</tspan></text>
		</g>
	</g>
	<text transform="matrix(1 0 0 1 159.7588 141.4746)"><tspan x="0" y="0" fill="#FFFFFF" font-family="'Futura-Medium'" font-size="20">Lehigh</tspan><tspan x="-4.321" y="48" fill="#FFFFFF" font-family="'Futura-CondensedMedium'" font-size="20">42 - 21 </tspan><tspan x="44.78" y="48" fill="#F14950" font-family="'Futura-CondensedMedium'" font-size="20">(L)</tspan></text>
	<text transform="matrix(1 0 0 1 335.584 141.4746)"><tspan x="0" y="0" fill="#FFFFFF" font-family="'Futura-Medium'" font-size="20">Villanova</tspan><tspan x="6.396" y="48" fill="#FFFFFF" font-family="'Futura-CondensedMedium'" font-size="20">24 - 13 </tspan><tspan x="55.498" y="48" fill="#33B874" font-family="'Futura-CondensedMedium'" font-size="20">(W)</tspan></text>
	<text transform="matrix(1 0 0 1 110.4351 73.5249)" fill="#FFFFFF" font-family="'AbrilFatface-Regular'" font-size="72">GAME RESULTS</text>
</g>
<g>
	<text transform="matrix(1 0 0 1 1985.3848 350.75)"><tspan x="0" y="0" fill="#FFFFFF" font-family="'Futura-Medium'" font-size="20">Fordham</tspan><tspan x="6.489" y="48" fill="#FFFFFF" font-family="'Futura-CondensedMedium'" font-size="20">48 - 45 </tspan><tspan x="55.591" y="48" fill="#F14950" font-family="'Futura-CondensedMedium'" font-size="20">(L)</tspan></text>
</g>
<g>
	<g>
		<text transform="matrix(1 0 0 1 1558.5771 463.75)"><tspan x="0" y="0" fill="#FFFFFF" font-family="'Futura-Medium'" font-size="20">Dartmouth</tspan><tspan x="13.589" y="48" fill="#FFFFFF" font-family="'Futura-CondensedMedium'" font-size="20">41 - 20 </tspan><tspan x="62.69" y="48" fill="#F14950" font-family="'Futura-CondensedMedium'" font-size="20">(L)</tspan></text>
	</g>
	<g>
		<text transform="matrix(1 0 0 1 1679.2793 463.75)"><tspan x="0" y="0" fill="#FFFFFF" font-family="'Futura-Medium'" font-size="20">Columbia</tspan><tspan x="11.143" y="48" fill="#FFFFFF" font-family="'Futura-CondensedMedium'" font-size="20">42 - 7 </tspan><tspan x="51.963" y="48" fill="#33B874" font-family="'Futura-CondensedMedium'" font-size="20">(W)</tspan></text>
	</g>
	<g>
		<text transform="matrix(1 0 0 1 1800.4336 463.75)"><tspan x="0" y="0" fill="#FFFFFF" font-family="'Futura-Medium'" font-size="20">Yale</tspan><tspan x="-16.328" y="48" fill="#FFFFFF" font-family="'Futura-CondensedMedium'" font-size="20">34 - 20 </tspan><tspan x="32.773" y="48" fill="#33B874" font-family="'Futura-CondensedMedium'" font-size="20">(W)</tspan></text>
	</g>
	<g>
		<text transform="matrix(1 0 0 1 1882.9043 463.75)"><tspan x="0" y="0" fill="#FFFFFF" font-family="'Futura-Medium'" font-size="20">Brown</tspan><tspan x="-7.461" y="48" fill="#FFFFFF" font-family="'Futura-CondensedMedium'" font-size="20">48 - 28 </tspan><tspan x="41.641" y="48" fill="#33B874" font-family="'Futura-CondensedMedium'" font-size="20">(W)</tspan></text>
	</g>
	<g>
		<text transform="matrix(1 0 0 1 1966.4941 463.75)"><tspan x="0" y="0" fill="#FFFFFF" font-family="'Futura-Medium'" font-size="20">Princeton</tspan><tspan x="5.293" y="48" fill="#FFFFFF" font-family="'Futura-CondensedMedium'" font-size="20">26 - 23 </tspan><tspan x="54.395" y="48" fill="#33B874" font-family="'Futura-CondensedMedium'" font-size="20">(W)</tspan></text>
	</g>
	<g>
		<text transform="matrix(1 0 0 1 2076.7773 463.75)"><tspan x="0" y="0" fill="#FFFFFF" font-family="'Futura-Medium'" font-size="20">Harvard</tspan><tspan x="1.479" y="48" fill="#FFFFFF" font-family="'Futura-CondensedMedium'" font-size="20">35 - 25 </tspan><tspan x="50.581" y="48" fill="#33B874" font-family="'Futura-CondensedMedium'" font-size="20">(W)</tspan></text>
	</g>
	<g>
		<text transform="matrix(1 0 0 1 2185.8506 463.75)"><tspan x="0" y="0" fill="#FFFFFF" font-family="'Futura-Medium'" font-size="20">Cornell</tspan><tspan x="-3.594" y="48" fill="#FFFFFF" font-family="'Futura-CondensedMedium'" font-size="20">34 - 21 </tspan><tspan x="45.508" y="48" fill="#33B874" font-family="'Futura-CondensedMedium'" font-size="20">(W)</tspan></text>
	</g>
</g>
<text transform="matrix(1 0 0 1 1776.5908 350.75)"><tspan x="0" y="0" fill="#FFFFFF" font-family="'Futura-Medium'" font-size="20">Lehigh</tspan><tspan x="-4.321" y="48" fill="#FFFFFF" font-family="'Futura-CondensedMedium'" font-size="20">42 - 21 </tspan><tspan x="44.78" y="48" fill="#F14950" font-family="'Futura-CondensedMedium'" font-size="20">(L)</tspan></text>
<text transform="matrix(1 0 0 1 1869.0459 350.75)"><tspan x="0" y="0" fill="#FFFFFF" font-family="'Futura-Medium'" font-size="20">Villanova</tspan><tspan x="6.396" y="48" fill="#FFFFFF" font-family="'Futura-CondensedMedium'" font-size="20">24 - 13 </tspan><tspan x="55.498" y="48" fill="#33B874" font-family="'Futura-CondensedMedium'" font-size="20">(W)</tspan></text>
<text transform="matrix(1 0 0 1 1643.8975 282.7998)" fill="#FFFFFF" font-family="'AbrilFatface-Regular'" font-size="72">GAME RESULTS</text>
</svg>
